<?xml version="1.0" encoding="UTF-8"?>
<svg id="Capa_3" data-name="Capa 3" xmlns="http://www.w3.org/2000/svg" viewBox="0 0 200 200">
  <defs>
    <style>
      .cls-1 {
        fill: #72a888;
      }
    </style>
  </defs>
  <path class="cls-1" d="M92.25,127.63c.02.33.04.83.1,1.32.26,2.23.05,4.46-.06,6.68-.06,1.12-.26,2.21-.83,3.21-.12.2-.12.48-.15.72-.05.39.08.74.39.97.49.37,1,.73,1.53,1.05,1.8,1.12,3.4,2.47,4.97,3.87,2.4,2.14,4.72,4.39,7.33,6.29.6.43,1.12.97,1.66,1.47.28.25.46.57.55.94.09.36.19.72.33,1.07.14.35.34.64.65.88.49.38.99.73,1.56,1,1.34.63,2.69,1.25,4.07,1.8.7.28,1.35.61,1.96,1.05.4.29.84.52,1.24.81,1.68,1.19,3.6,1.6,5.59,1.82.91.1,1.74-.19,2.35-.88.66-.74,1.26-1.53,1.87-2.31.46-.59.83-1.25,1.33-1.79,2.47-2.65,4.25-5.79,6.35-8.7.65-.9,1.29-1.82,1.89-2.76.33-.51.87-.93.92-1.58.04-.48-.12-.97-.14-1.46-.03-.74.01-1.49-.02-2.23-.07-1.98-.12-3.96-.43-5.93-.04-.24-.14-.5-.09-.73.22-1-.22-1.96-.17-2.94.01-.25-.07-.53.03-.74.49-1.02.49-2.17.9-3.22.22-.58.49-1.15,1-1.54.41-.31.89-.48,1.38-.26.67.31,1.32.67,1.98,1.02,1.13.61,1.95,1.53,2.48,2.68.62,1.35,1.21,2.71,1.8,4.07.33.78.9,1.03,1.58,0,.14-.21.32-.38.46-.59.96-1.45,2.03-2.81,3.13-4.15.87-1.05,1.7-2.13,2.44-3.28.81-1.26,1.86-2.32,2.98-3.31.18-.16.39-.3.6-.43.33-.2.71-.28,1.06-.16,1.07.35,2.04.89,2.91,1.61.59.48,1.03,1.05,1.36,1.73.29.59.35,1.18.26,1.8-.1.73-.51,1.41-.44,2.17.01.11.1.23.19.31.07.06.2.11.28.09.61-.15,1.14-.47,1.66-.81,1.04-.69,2.17-1.21,3.32-1.67,1.35-.54,2.67-.39,3.9.42.52.35.99.74,1.32,1.28.27.44.39.93.21,1.42-.22.58-.48,1.15-.8,1.67-.78,1.27-1.62,2.5-2.27,3.84-.16.33.08.74.43.79,1.12.15,2.23.05,3.33-.15.79-.15,1.47.09,2.11.5.52.33,1.03.7,1.37,1.23.27.42.48.86.2,1.38-.35.65-.68,1.32-1.02,1.98-.22.44-.37.95-.68,1.31-.31.36-.81.55-1.18.86-.57.47-1.13.97-1.66,1.49-.55.56-.58.83.31,1.4.42.26.9.43,1.29.72.74.55,1.14,1.32,1.04,2.25-.04.35-.2.77-.46.99-1.41,1.23-3.01,2.18-4.65,3.05-.22.12-.48.16-.68.29-2.05,1.27-4.37,1.69-6.7,2.05-.98.15-1.97.25-2.94.43-1.1.2-2.21.3-3.33.34-.99.04-1.98.14-2.97.24-1.02.1-1.92.5-2.7,1.14-1.15.94-2.35,1.84-3.42,2.87-.89.85-1.71,1.78-2.13,3.01-.28.82-.74,1.56-1.27,2.26-1.28,1.67-2.41,3.45-3.92,4.95-.7.69-1.29,1.51-1.86,2.32-1.22,1.73-2.61,3.3-4.13,4.77-.71.69-1.37,1.44-2.08,2.13-.35.34-.74.65-1.15.93-1.55,1.06-2.07,1.2-3.83.98-1.23-.16-2.46-.34-3.68-.56-2.85-.53-2.84-.56-5.56-1.92-2.99-1.5-5.95-3.06-9.06-4.31-.92-.37-1.82-.75-2.79-1.01-1.19-.32-2.35-.77-3.43-1.39-.53-.3-1.14-.47-1.71-.69-.27-.1-.82.1-1,.35-.07.1-.19.17-.24.28-.42.76-.77,1.56-1.24,2.28-1.15,1.78-1.98,3.71-2.83,5.64-.26.58-.32,1.18-.18,1.81.11.48.14.98.17,1.47.12,1.86.2,3.71.52,5.55.17.97.2,1.97.26,2.96.1,1.87-.13,3.71-.71,5.5-.19.58-.96.93-1.5.67-.11-.05-.24-.09-.33-.16-.4-.29-.79-.59-1.17-.9-.39-.33-.64-.76-.65-1.28-.02-.62-.02-1.24.01-1.86.09-1.61.01-3.22-.17-4.82-.23-2.09-.42-4.19-.59-6.29-.04-.49-.1-.99-.2-1.47-.66-3.41-1.25-6.83-1.4-10.3-.02-.37,0-.76-.11-1.11-.57-1.91-.53-3.93-1.01-5.86-.39-1.56-.32-3.21-.84-4.75-.14-1.87-.78-3.62-1.28-5.41-.22-.81.06-1.45.67-1.98.3-.26.67-.32,1.04-.21.73.22,1.35.64,1.84,1.21.32.37.62.8.77,1.25.39,1.18.8,2.36,1,3.58.36,2.2.98,4.36,1.1,6.6.11,1.99.84,3.87.85,5.87.27.82.34,1.7.74,2.48.02.04.23.05.29,0,.19-.14.42-.28.53-.48,1.28-2.13,2.44-4.3,3.16-6.69.18-.59.44-1.16.65-1.74.13-.35.3-.7.33-1.06.12-1.38.53-2.64,1.17-3.88.62-1.2.95-2.56,1.17-3.9.08-.47-.06-1-.42-1.38-.25-.27-.52-.53-.82-.75-1-.74-1.95-1.52-2.79-2.44-1.42-1.56-3.19-2.75-4.73-4.18-.27-.25-.58-.47-.91-.63-1.22-.62-2.35-1.36-3.44-2.19-.89-.68-1.97-1.04-2.84-1.75-.77-.63-1.6-1.18-2.32-1.86-1.02-.96-2.21-1.57-3.5-2.05-.7-.26-1.38-.56-2.13-.61-.38-.03-.75.08-1,.38-.32.37-.6.79-.88,1.19-1.15,1.62-2.33,3.21-3.87,4.5-.47.4-.88.88-1.29,1.34-.41.47-.9.83-1.43,1.16-2.72,1.7-3.11,1.6-5.91,2-1.01.14-1.99.02-2.93-.35-2.08-.81-4.15-1.62-5.93-3.02-.78-.61-1.62-1.15-2.46-1.67-1.26-.79-2.42-1.72-3.62-2.59-.09-.07-.24-.13-.34-.11-1.34.25-2.68.54-3.92,1.13-.33.16-.64.38-.91.64-1.17,1.11-2.37,2.19-3.46,3.37-1.51,1.64-2.94,3.36-4.4,5.05-1.06,1.23-1.97,2.54-2.67,4.01-.37.78-.8,1.54-1.2,2.31-1.04,1.98-1.85,4.05-2.53,6.18-.91,2.83-1.62,5.71-2.4,8.58-.29,1.07-.38,2.19-.54,3.3-.08.54.5,1.2,1.11,1.28.37.05.74.12,1.1.14.75.02,1.47.17,2.17.46.45.19.94.33,1.43.37,1.12.11,2.17.47,3.24.78,1.19.35,2.36.74,3.55,1.07,1.18.32,2.3.9,3.44,1.37.31.13.71-.13.8-.53.15-.73.31-1.45.41-2.19.05-.36-.02-.74-.02-1.11,0-1.86.17-3.71.47-5.55.16-.99,1.34-1.68,2.27-1.32.12.04.24.08.34.15.32.19.64.38.95.58.47.3.61.78.63,1.28.02.49-.03.99-.13,1.47-.32,1.46-.43,2.94-.44,4.43-.02,2.6-.21,5.19-.59,7.78-.25,1.71-.27,3.46-.31,5.19-.06,2.35-.21,4.71.12,7.06.03.24-.02.49-.03.74-.02.62-.7,1.11-1.31.92-1.24-.39-2.23-1.06-2.72-2.32-.27-.7-.53-1.39-.52-2.15.04-2.85.07-5.7.1-8.55,0-.12-.05-.24-.09-.36-.04-.11-.07-.24-.15-.33-.26-.27-.55-.51-.79-.78-.41-.46-.74-1.03-1.22-1.39-.7-.53-1.6-.66-2.43-.87-1.08-.27-2.18-.45-3.27-.66-.22-.04-.83.38-.88.6-.27,1.34-.64,2.65-.95,3.97-.37,1.57-.65,3.15-.7,4.77-.05,1.74-.49,3.43-.89,5.12-.15.65-1.19,1.04-1.84.72-.68-.33-1.29-.73-1.79-1.29-.25-.28-.43-.61-.37-1.01.05-.37.13-.73.2-1.09.34-1.83.71-3.65.86-5.51.12-1.48.29-2.95.72-4.39.21-.7.19-1.47.2-2.21,0-.2-.22-.44-.4-.58-.19-.14-.45-.23-.69-.27-1.1-.19-2.2-.41-3.31-.52-1.33-.13-2.31-.81-3.13-1.8-.24-.29-.42-.68-.28-1.03.6-1.51.95-3.07,1.09-4.69.07-.74.23-1.46.44-2.18.46-1.54.89-3.1,1.05-4.71.02-.25.07-.49.15-.73,1.14-3.4,2.11-6.87,3.67-10.11.18-.38.12-.7-.04-1.04-.32-.67-.72-1.31-.97-2-.34-.93-.53-1.91-.86-2.84-.32-.94-.82-1.82-1.09-2.76-.94-3.35-2.26-6.55-3.62-9.74-.34-.8-.76-1.57-.99-2.4-.63-2.27-1.49-4.46-2.1-6.74.02-1.02-.24-1.96-.74-2.84-.06-.1-.06-.24-.09-.36-.33-1.19-.28-2.45-.68-3.65-.35-1.05-.44-2.18-.6-3.28-.05-.36.01-.74.01-1.11,0-.37.07-.76-.03-1.11-.27-.97-.29-1.96-.43-2.93-.28-1.98-.37-3.94-.07-5.93.11-.73.17-1.49,0-2.22-.21-.86-.09-1.73-.06-2.59.08-2.1.24-4.21.37-6.31.03-.49.03-1,.14-1.48.36-1.58.48-3.19.57-4.8.04-.74.17-1.47.36-2.2.41-1.56.76-3.13,1.14-4.69.35-1.46,1.13-2.75,1.61-4.15.57-1.65,1.39-3.17,2.22-4.7.82-1.53,1.66-3.04,2.86-4.33.97-1.78,2.63-2.95,3.91-4.46,1.35-1.09,2.68-2.21,4.07-3.25,1-.74,2.09-1.33,3.35-1.53.74-.12,1.45-.35,2.09-.74.54-.32,1.09-.56,1.72-.64.36-.04.7-.23,1.05-.36.92-.36,1.82-.82,2.77-1.06.95-.25,1.95-.3,2.91-.56.59-.16,1.23-.17,1.84-.18,1.36-.03,2.73.04,4.09-.04,2.01-.12,3.95.26,5.87.75.36.09.71.23,1.05.36,1.97.77,3.81,1.8,5.71,2.7.44.21.85.52,1.24.82.89.68,1.76,1.37,2.63,2.07.29.23.58.48.8.77.81,1.11,1.84,2.01,2.79,2.99,1.3,1.32,2.61,2.65,3.89,4,.51.54.98,1.12,1.4,1.74.91,1.33,1.82,2.66,2.55,4.1.5,1,1.01,1.99,1.62,2.92.2.31.39.65.48,1,.46,1.68,1.25,3.23,1.89,4.84.92,2.31,1.62,4.68,2.37,7.04.37,1.18.57,2.41.83,3.62.34,1.57.63,3.16.99,4.73.37,1.57.7,3.14.76,4.76.02.49.07,1,.18,1.48.45,1.94.68,3.91.67,5.9,0,.49.05,1,.17,1.47,1.09,4.12,1.09,8.34,1.26,12.56.01.37,0,.74,0,1.28ZM166.13,150.06c.09-.03.21-.12.24-.21.03-.11.03-.28-.03-.35-.53-.56-.95-.54-1.75-.84-.68-.44-1.01-.17-1.02-.66-.01-.65.97-1.94,1.52-2.33.3-.22.62-.41.92-.61,1.65-1.1,3.31-2.17,4.56-3.75.24-.3.24-.43-.14-.5-.11-.02-.25-.05-.35,0-.67.3-1.37.57-2,.96-.95.59-1.99,1.01-2.99,1.49-.6.29-1.18.2-1.77-.12-.94-.52-1.41-1.36-1.66-2.35-.07-.26-.03-.51.13-.71.15-.19.3-.42.5-.53,1.66-.97,2.77-2.44,3.69-4.07.3-.54.64-1.06.94-1.6.3-.54.59-1.08.87-1.63.14-.26.11-.5-.1-.66-.18-.13-.43-.1-.65.07-1.17.92-2.17,2.02-3.22,3.07-1.13,1.14-2.31,2.25-3.48,3.35-.27.25-.59.44-.89.66-.45.32-1.27.3-1.75-.07-.29-.23-.56-.48-.81-.76-.53-.58-.75-1.27-.66-2.05.15-1.24.47-2.43,1.03-3.55.73-1.45,1.13-3.01,1.37-4.61.02-.1-.04-.26-.11-.32-.19-.17-.43-.14-.61.08-1.07,1.35-1.97,2.84-3.15,4.12-.41.45-.71,1.01-1.05,1.53-1.25,1.84-2.5,3.69-3.76,5.53-.14.2-.32.38-.51.53-.3.24-.65.39-1.03.32-1.12-.2-2.15-.57-2.89-1.52-.76-.97-1.57-1.91-2.34-2.87-.24-.3-.31-.67-.36-1.04-.02-.12.02-.26-.03-.37-.32-.66-.75-1.25-.98-1.96-.02-.08-.16-.11-.24-.17-.54.86-.82,1.8-.83,2.82,0,.87-.06,1.75.08,2.6.4,2.45.41,4.94.93,7.37.13.62.05,1.23-.27,1.79-.5.87-.51,1.94-1.03,2.77-.52.84-1.23,1.55-1.8,2.36-.5.71-.91,1.47-1.37,2.21-1.24,2-2.47,4.01-4.04,5.77-1.16,1.3-2.18,2.7-3.24,4.07-.38.49-.71,1.02-1.13,1.47-1.78,1.9-1.83,2.18-4.85,1.91-2.27-.2-4.34-.96-6.31-2.06-.54-.3-1.04-.67-1.55-1.02-1.13-.77-2.32-1.43-3.61-1.9-1.51-.56-2.96-1.26-4.37-2.04-.32-.18-.67-.29-1.02-.41-.26-.09-.48,0-.67.2-.45.45-.7,1.01-.92,1.59-.35.92-.71,1.84-1.06,2.77-.38,1.03-1.03,1.97-1.56,2.95-.06.11-.09.23-.15.34-.14.29-.02.82.24,1.01.3.21.59.47.92.61.68.29,1.39.53,2.09.76,2.95.96,5.81,2.11,8.54,3.59,1.52.82,3.09,1.58,4.66,2.29,2.04.92,4.13,1.68,6.41,1.75.37.01.74.07,1.11.11,1.17.1,2.2-.28,3.09-1.02.29-.24.54-.5.8-.77,2.15-2.22,4.22-4.53,6.28-6.84.25-.28.5-.56.69-.87.87-1.36,1.93-2.57,2.94-3.83.93-1.17,1.73-2.4,2.32-3.78.84-1.96,2.1-3.64,3.58-5.16.17-.17.41-.31.64-.36.42-.1.63-.39.75-.74.22-.64.66-1.02,1.25-1.28.68-.3,1.38-.55,2.14-.6.25-.02.5-.03.74-.06,2.7-.29,5.45-.22,8.11-.89.35-.09.74-.01,1.11-.04.49-.03.99-.08,1.48-.14M20.04,105.83c0,.74-.02,1.49,0,2.23.03,1.36-.03,2.74.16,4.09.37,2.58.56,5.17.99,7.75.29,1.71.6,3.42,1.04,5.1.54,2.04,1.16,4.05,1.75,6.08.45,1.54.89,3.09,1.68,4.52.36.65.66,1.35.85,2.06.47,1.81,1.35,3.46,1.86,5.26.5,1.81,1.49,3.4,2.73,4.82.31.35.97.4,1.33.05,1.25-1.2,2.5-2.42,3.51-3.83.87-1.22,1.98-2.22,2.92-3.37.23-.29.52-.54.81-.75,1.69-1.24,3.29-2.65,5.47-3.01.78-.38,1.56-.75,2.34-1.14.56-.29,1.16-.41,1.78-.47.36-.03.74-.1,1.08-.23.21-.08.44-.27.54-.48.16-.33.3-.7.3-1.06,0-.74-.03-1.49-.16-2.22-.21-1.26-.77-2.33-1.82-3.13-1.38-1.05-2.72-2.15-4.07-3.24-.39-.31-.81-.6-1.11-.98-.77-.98-1.65-1.84-2.57-2.68-.27-.25-.45-.59-.67-.88-.3-.39-.58-.81-.92-1.17-.44-.46-1.01-.82-1.65-.62-1.46.46-2.93.39-4.42.31-1.64-.08-3.17-.57-4.62-1.3-.77-.39-1.49-.88-2.26-1.3-1-.54-1.82-1.29-2.51-2.18-.76-.97-1.53-1.94-2.26-2.94-.21-.29-.36-.65-.45-1-.13-.48-.2-.97-.27-1.46-.43-3.13-.28-6.19,1.28-9.04.06-.11.11-.22.16-.34.55-1.42,1.4-2.62,2.63-3.53.2-.15.37-.33.57-.48.6-.45,1.21-.86,1.99-.94.49-.05.98-.15,1.47-.2,1.03-.1,1.92-.5,2.66-1.21,1.25-1.2,2.51-2.4,3.74-3.62,1.14-1.14,2.33-2.24,3.35-3.48,1.04-1.26,2.24-2.31,3.48-3.33.1-.08.18-.17.26-.26,1.7-1.97,3.42-3.92,5.09-5.92,1.11-1.34,1.93-2.88,2.86-4.35.59-.95,1.17-1.9,1.31-3.05.03-.23.18-.46.34-.65.4-.47.79-.96,1.25-1.36.38-.33.91-.48,1.4-.36.73.19,1.36.63,1.77,1.27.19.29.28.69.31,1.05.07.77.39,1.4.85,2.01,1.79,2.4,3.93,4.47,6.12,6.48,1,.92,2.03,1.82,3.35,2.29.33.12.62.41.86.68.74.85,1.58,1.57,2.51,2.21,1.63,1.13,3.25,2.27,4.9,3.38.51.34,1.07.62,1.64.87.56.25,1.16.44,1.74.65,1.14.42,1.79,1.29,2.21,2.37.09.23.14.47.2.71.57,2.28.95,4.61,1.58,6.88.5,1.82.69,3.64.7,5.51,0,1.24-.04,2.48-.04,3.72,0,3.01-.71,5.9-1.61,8.74-.37,1.18-.81,2.36-1.56,3.36-.88,1.2-1.82,2.35-2.73,3.53-1.42,1.19-2.6,2.66-4.13,3.73-.3.21-.62.42-.88.68-.46.46-.66,1.04-.53,1.7.2.99,1.13,3.92,1.55,4.95.05.11.11.22.17.33.19.4.48.52.86.45.86-.16,1.66-.48,2.46-.82.35-.15.74-.14,1.09.01,1.01.46,2.01.97,3.03,1.41,1.25.55,2.5,1.08,3.65,1.83.28.18.83.1,1.03-.11,1.42-1.51,2.19-3.28,2.14-5.38,0-.37-.04-.74-.06-1.11-.23-3.46-.66-6.91-.77-10.38-.01-.49-.08-1-.23-1.47-.45-1.45-.24-2.96-.48-4.43-.24-1.47-.64-2.91-.69-4.4-.05-1.49-.22-2.97-.59-4.42-.12-.48-.16-.98-.24-1.47-.26-1.59-.4-3.21-.83-4.76-.44-1.56-.5-3.18-.96-4.73-.35-1.18-.51-2.43-.97-3.58-.29-1.85-.89-3.59-1.72-5.28-.6-1.22-.93-2.57-1.51-3.8-.57-1.23-1.36-2.36-1.95-3.59-.98-2.02-2.5-3.68-3.66-5.59-.06-.1-.16-.19-.25-.28-1.31-1.32-2.61-2.64-3.93-3.96-.79-.79-1.63-1.53-2.39-2.34-.85-.91-1.82-1.68-2.73-2.53-.55-.51-1.18-.9-1.85-1.23-.44-.22-.88-.45-1.32-.68-1.44-.77-3.04-1.03-4.6-1.43-.24-.06-.49-.06-.74-.06-2.11,0-4.21.14-6.31.34-.61.06-1.24.16-1.82.35-1.65.54-3.35.87-5.01,1.38-.36.11-.71.22-1.06.35-2.89,1.15-5.62,2.62-8.1,4.5-1.49,1.13-2.81,2.44-4.06,3.81-2.94,4.03-5.38,8.32-6.88,13.11-.56,1.78-1.02,3.58-1.32,5.41-.41,2.44-.77,4.9-.82,7.39-.02.74-.09,1.49-.2,2.22-.38,2.46-.38,4.94-.39,7.42ZM79.67,104.5c.12-1.74.09-3.23-.09-4.71-.24-1.97-.71-3.9-1.19-5.82-.15-.6-.28-1.2-.43-1.8-.12-.47-.36-.92-.54-1.38-.26-.67-.82-.86-1.46-.94-.38-.05-.81.23-.77.54.12.98.28,1.96.37,2.95.07.76-.13,1.47-.49,2.15-.25.48-1.08.94-1.55.87-1-.16-1.92-.54-2.64-1.26-.9-.9-1.36-2.06-1.63-3.28-.05-.23,0-.5.04-.74.13-.76.48-1.41,1.06-1.91.37-.32.81-.57,1.21-.86.29-.2.26-.61-.04-.91-.71-.69-1.47-1.33-2.34-1.82-.44-.25-.91-.37-1.42-.34-.49.03-.99.08-1.48.06-.23,0-.49-.11-.69-.24-.31-.2-.6-.44-.88-.68-.52-.43-.77-.96-.46-1.62.24-.51.14-.93-.23-1.34-.49-.56-1.02-1.09-1.64-1.51-1.45-.98-2.71-2.15-3.89-3.44-.84-.91-1.78-1.72-2.68-2.58-.26-.25-.68-.16-.91.2-1.32,2.1-2.65,4.18-4.24,6.09-.22.26-.2.76.04,1,.26.26.55.51.8.78.25.27.49.56.71.85.24.31.26.68.2,1.05-.05.28-.48.63-.82.65-.74.05-1.5.03-2.22.15-1.48.25-2.88.69-3.95,1.86-.33.36-.71.71-1.13.94-.55.29-1.08.56-1.48,1.07-.3.39-.68.72-1.06,1.04-1.73,1.44-3,3.29-4.47,4.96-.08.36-.25.73-.21,1.07.06.48.28.94.44,1.42.36,1.09.36,2.19.07,3.29-.07.26-.27.39-.52.49-.51.2-1.01.11-1.4-.2-.79-.6-1.54-1.26-2.26-1.93-.59-.54-1.29-.73-2.04-.74-.75-.01-1.44.2-2.09.65-1.16.8-2.02,1.82-2.55,3.12-.05.11-.07.24-.13.35-1.05,2.07-1.31,4.24-.9,6.51.13.74.36,1.43.71,2.1.48.89,1.12,1.63,1.78,2.37.51.56,1.15.95,1.83,1.24,1.74.75,3.53,1.14,5.43.64.96-.25,1.95-.39,2.94-.43.37-.02.74-.06,1.11-.05.63.03,1.21.23,1.71.64.48.4.93.83,1.25,1.36.45.74.87,1.5,1.33,2.23.26.42.52.87.88,1.19,1.59,1.38,3.55,3.67,6.65,4.57.23.07.43.24.65.36.66.38,1.15.9,1.51,1.59.63,1.22,1.06,2.51,1.57,3.77.63,1.56.65,3.14.51,4.75-.02.24-.08.49-.15.73-.11.35-.26.7-.39,1.04-.27.69-.54,1.39-.8,2.08-.16.42.05,1.05.43,1.32,1.53,1.06,3.14,1.99,4.78,2.87.43.23.89.42,1.34.63,1.05.48,2.1.67,3.22.16.44-.2.97-.19,1.45-.32.35-.1.7-.26,1.02-.44.86-.49,1.69-1.05,2.29-1.87.6-.8,1.32-1.47,2.07-2.13.85-.75,1.48-1.66,2.04-2.63.21-.36.13-.83-.22-.9-.76-.14-1.38-.52-1.95-1.01-.78-.66-1.39-1.46-1.46-2.5-.09-1.26-.6-2.39-.99-3.56-.06-.19-.34-.38-.55-.45-.47-.14-.98-.16-1.45-.29-.22-.06-.47-.22-.58-.41-.32-.59-.41-1.54-.22-2.16.11-.36.35-.65.73-.77.71-.23,1.41-.48,2.12-.69,1.94-.57,3.65-1.51,5.05-2.98.6-.63,1.26-1.2,1.83-1.85,1.23-1.4,2.26-2.92,2.97-4.68.57-1.4.71-2.88,1.11-4.31.33-1.2.43-2.44.45-3.68,0-.62,0-1.24,0-1.6Z"/>
  <path class="cls-1" d="M145.87,46.36c.76.24,1.38.19,1.99.09,1.12-.18,2.24-.13,3.33.1.98.21,1.95.33,2.94.41.74.06,1.47.19,2.18.44.35.12.72.23,1.08.26,1.64.12,3.14.7,4.63,1.32.81.33,1.59.68,2.31,1.19.4.29.82.55,1.25.8.64.38,1.32.7,1.92,1.12.71.5,1.36,1.08,2.03,1.63,3.05,2.56,5.73,5.48,8.22,8.57.23.29.45.61.56.96.46,1.42,1.31,2.66,1.83,4.06.51,1.39,1.01,2.79,1.5,4.19.54,1.52.97,3.07,1.24,4.66.19,1.1.76,2.1.83,3.23.06.99.13,1.98.21,2.97.04.49.12.99.16,1.48.1,1.36.09,2.72-.14,4.08-.25,1.46-.36,2.94-.79,4.38-.25.83-.46,1.66-.79,2.47-.56,1.37-1.07,2.77-1.61,4.16-.46,1.16-1.03,2.25-1.89,3.17-.77.82-1.19,1.88-1.78,2.83-.46.75-.96,1.44-1.59,2.05-.8.77-1.58,1.58-2.41,2.32-.83.74-1.71,1.42-2.55,2.15-.85.74-1.77,1.4-2.8,1.8-1.28.51-2.33,1.42-3.64,1.85-1.91,1.16-3.98,2.01-6.04,2.86-1.59.66-3.22,1.2-4.99,1.38-2.09.21-4.17.59-6.27.73-1.69.5-3.43.49-5.16.59-2.24.13-4.46.11-6.64-.51-1.85-.2-3.66-.67-5.45-1.15-2.04-.54-4-1.29-5.84-2.36-1.82-1.06-3.72-1.98-5.43-3.23-.5-.36-1.01-.72-1.45-1.16-.7-.7-1.44-.84-2.36-.51-3.51,1.27-4.96,1.62-8.27,2.02-.36.04-.76.07-1.11-.02-1.34-.32-2.71-.34-4.06-.53-.73-.1-1.45-.31-2.17-.49-1.45-.35-2.31-1.36-2.9-2.66-.24-.53.05-1.38.54-1.62.22-.11.43-.26.66-.33,2.06-.59,3.82-1.68,5.51-2.99,2.18-1.7,4-3.68,5.47-6.01.13-.21.26-.43.34-.66.17-.47.26-.97,0-1.44-.3-.54-.67-1.04-.96-1.59-.52-.98-1.05-1.96-1.29-3.07-.18-.85-.45-1.68-.75-2.49-.49-1.3-.68-2.64-.67-4.01,0-1.12,0-2.23.03-3.35.07-2.24.32-4.45,1.13-6.57.18-.46.28-.95.34-1.44.07-.62.23-1.2.42-1.8.61-1.89,1.53-3.65,2.27-5.49.37-.92.97-1.73,1.6-2.5.39-.48.9-.89,1.2-1.41,1.3-2.31,3.4-3.92,5.1-5.88,1.06-1.22,2.38-2.17,3.76-3.02.32-.2.64-.38.96-.57,1.59-.97,3.12-2.05,4.78-2.87,1.89-.92,3.88-1.64,5.85-2.36.7-.26,1.4-.47,2.06-.83.77-.42,1.59-.66,2.47-.74,1.36-.13,2.71-.3,4.06-.52,1.73-.28,3.46-.19,5.04-.19ZM145.81,50.73c-.49.01-1.73.06-2.97.08-1.49.02-2.96.19-4.42.56-.72.18-1.43.38-2.14.62-1.89.62-3.69,1.43-5.55,2.12-2.34.87-4.45,2.16-6.59,3.41-.32.19-.62.41-.91.64-2.06,1.59-4.07,3.25-5.79,5.23-.24.28-.52.54-.7.86-.61,1.09-1.41,2.04-2.19,2.99-.47.58-.89,1.19-1.26,1.83-.89,1.5-1.68,3.04-2.15,4.73-.2.71-.5,1.4-.74,2.1-.12.35-.28.69-.34,1.06-.33,2.08-.87,4.12-.99,6.24-.14,2.49-.05,4.96.43,7.4.41,2.1,1.15,4.05,2.59,5.69.16.19.31.39.45.6.5.78.55,1.63.29,2.5-.07.24-.15.47-.26.7-1.09,2.25-2.67,4.18-4.25,6.09-.16.19-.35.35-.54.5-.38.32-.78.62-1.16.93-.29.24-.59.46-.82.74-.14.18-.21.46-.21.69,0,.19.26.32.55.31,1.75-.08,3.41-.6,5.07-1.09,1.1-.32,2.04-.89,2.87-1.65.36-.34.71-.69,1.08-1.02.43-.38,1.25-.42,1.74-.13.75.45,1.49.91,2.04,1.6.7.87,1.5,1.65,2.32,2.41.54.5,1.03,1.08,1.51,1.64.33.39.71.69,1.14.94.86.49,1.73.97,2.6,1.43.33.17.67.33,1.02.43,2.97.89,5.96,1.7,9.05,2.05,1.85.21,3.7.29,5.57.16,2.48-.18,4.94-.43,7.41-.68.49-.05.99-.1,1.47-.2.85-.18,1.7-.36,2.53-.62,1.18-.37,2.35-.77,3.5-1.23,3.24-1.27,6.33-2.84,9.37-4.52.43-.24.85-.51,1.26-.79,1.65-1.13,3.02-2.56,4.37-4.01,1.44-1.56,2.57-3.34,3.82-5.03.44-.59.77-1.27,1.08-1.95,1.46-3.18,2.28-6.54,2.84-9.98.16-.98.16-1.97.13-2.97-.07-2.24-.67-4.41-.76-6.65,0-.24-.15-.47-.23-.7-.42-1.29-.86-2.59-1.09-3.92-.23-1.37-.67-2.65-1.23-3.87-.73-1.57-1.49-3.14-2.23-4.7-.26-.56-.61-1.08-.99-1.57-.61-.78-1.25-1.55-1.94-2.25-1.31-1.32-2.58-2.68-4.09-3.79-.6-.44-.98-1.11-1.63-1.51-.85-.52-1.65-1.11-2.47-1.65-.31-.2-.62-.42-.97-.54-1.63-.59-3.27-1.18-4.99-1.45-1.84-.28-3.68-.58-5.53-.73-1.48-.12-2.97-.03-4.46-.04-.25,0-.5,0-1.49,0Z"/>
  <path class="cls-1" d="M84.8,59.8c-.05-.24-.08-.49-.15-.73-.27-.88-.06-1.71.24-2.54.3-.82.99-1.44,1.18-2.31.19-.84.28-1.72.54-2.54.35-1.07.59-2.15.77-3.25.04-.26-.24-.79-.5-.93-.65-.35-1.31-.7-1.96-1.05-2.68-1.4-4.84-3.42-6.8-5.68-.41-.47-.76-.98-1.04-1.53-.78-1.55-1.61-3.06-2.05-4.76-.25-.96-.58-1.9-.94-2.82-.51-1.28-.68-2.64-1-3.96-.32-1.32-.27-2.72-.06-4.07.26-1.71.55-3.41,1.19-5.05.27-.69.51-1.39.87-2.04,1.27-2.34,3.49-5.59,5.24-7.64.32-.38.63-.78,1.01-1.08,1.37-1.06,2.72-2.16,4.16-3.11,1.35-.88,2.84-1.51,4.31-2.17,2.04-.42,3.94-1.53,6.12-1.31.36.04.73-.09,1.1-.15,1.35-.23,2.71-.23,4.07-.22,2.25,0,4.44.35,6.59.98.36.1.71.26,1.07.29,1.79.16,3.31.96,4.79,1.89.84.52,1.7,1.01,2.56,1.51,1.94,1.12,3.71,2.47,5.33,4.01,1.08,1.02,2.14,2.07,2.77,3.46.31.69.86,1.21,1.36,1.76.67.74,1.17,1.59,1.53,2.53.35.93.76,1.83,1.15,2.74.54,1.26.94,2.57,1.06,3.93.11,1.24.28,2.45.62,3.65.27.96.28,1.96.16,2.95-.16,1.35-.32,2.71-.48,4.06-.03.24-.08.49-.17.72-.65,1.75-1.38,3.45-2.65,4.85-.41.46-.85.9-1.25,1.37-1.56,1.82-3.45,3.18-5.62,4.17-.56.26-1.12.53-1.67.81-1.11.56-2.17,1.21-3.32,1.65-1.03.39-2.2.36-3.22.84-1.24.11-2.38.69-3.61.83-1.6.17-3.21.27-4.81.43-1,.1-1.97-.17-2.96-.17-.51,0-.96.21-1.28.63-.08.1-.15.2-.22.3-.78,1.11-1.33,2.39-2.38,3.3-2.34,2.02-4.44,4.34-7.28,5.71-.33.16-.66.32-1.01.46-.48.19-.98.19-1.44-.04-.44-.22-.86-.48-1.3-.71-.22-.11-.45-.07-.68.09l.1-.1ZM100.38,46.06c1.49,0,2.12.04,2.73,0,.99-.08,1.96-.27,2.95-.35,2.88-.23,5.58-1.1,8.16-2.35,1.11-.54,2.23-1.07,3.33-1.65,1.77-.93,3.34-2.13,4.73-3.57.6-.63,1.07-1.34,1.5-2.11.87-1.54,1.37-3.17,1.49-4.93.03-.49.12-.98.19-1.47.12-.87.07-1.72-.12-2.58-.42-1.81-.93-3.6-1.28-5.42-.16-.85-.44-1.68-.73-2.5-.2-.58-.43-1.17-.75-1.7-.9-1.48-2.04-2.8-2.86-4.34-.11-.21-.31-.39-.48-.57-2.32-2.45-4.89-4.56-7.98-5.98-.34-.15-.67-.35-1.02-.43-1.81-.41-3.58-1.02-5.43-1.21-1.36-.14-2.73-.3-4.08-.06-1.11.19-2.21.29-3.33.31-1.39.02-2.69.38-3.97.87-1.04.4-2.06.85-3.05,1.36-1.77.91-3.4,2.03-5.05,3.13-.62.42-1.13.97-1.55,1.59-1.32,1.95-2.65,3.89-3.95,5.85-.97,1.47-1.45,3.15-1.82,4.84-.43,1.94-.51,3.93-.15,5.91.07.37.08.75.2,1.1.75,2.23,1.27,4.53,2.21,6.69.2.45.41.9.66,1.32,1.11,1.82,2.55,3.35,4.26,4.61.7.51,1.44.97,2.29,1.21.48.13.97.25,1.42.45.56.25,1.1.56,1.63.87.56.33.87.85.96,1.5.13.99.09,1.97-.14,2.95-.2.84-.56,1.64-.48,2.54.03.35.17.45.49.33,1.19-.45,2.18-1.17,2.85-2.25.52-.84,1-1.71,1.49-2.57.19-.32.34-.66.57-.95.32-.4.77-.67,1.28-.65,1.24.06,2.47.18,2.83.21Z"/>
  <path class="cls-1" d="M84.7,59.9c0-.06,0-.12,0-.17-.11.2-.07.22.1.07,0,0-.11.11-.11.11Z"/>
  <path class="cls-1" d="M67.49,104.63c.9.12,1.5.5,2.03,1.07.74.79,1,1.69.79,2.73-.17.85-.3,1.71-.54,2.54-.45,1.54-.88,3.08-1.38,4.61-.7,2.15-1.79,4.07-3.08,5.9-.39.55-1.41.74-2.01.37-.53-.32-1.03-.69-1.57-.99-.99-.55-1.84-1.25-2.55-2.13-.31-.38-.64-.76-1.01-1.09-.66-.59-1.14-1.3-1.55-2.06-.54-.98-1.12-1.92-1.91-2.72-.88-.9-1.24-2.13-1.77-3.23-.43-.89.26-2.07,1.31-2.2,1.96-.25,3.86-.85,5.85-.97.49-.03.99-.14,1.44-.33,1.49-.61,3.08-.91,4.61-1.38.5-.15.97-.12,1.33-.11ZM64.8,109.46c-.44.06-.96.03-1.4.21-1.05.41-2.12.6-3.24.6-.24,0-.49.05-.73.08-.12.02-.24.05-.36.07-.47.07-.82.72-.59,1.12.88,1.47,1.76,2.95,2.67,4.4.26.41.62.77,1.08.98.24.11.53.09.67-.07.31-.37.68-.75.84-1.19.57-1.62,1.06-3.27,1.57-4.91.07-.23.09-.51.01-.72-.07-.2-.31-.34-.52-.56Z"/>
  <path class="cls-1" d="M50.92,99.25c-.12.36-.21.72-.35,1.06-.41.98-1.42,1.14-2.17.93-.74-.2-1.36-.61-1.89-1.13-.44-.43-.81-.94-1.25-1.37-.66-.64-.93-1.44-1.12-2.3-.14-.62-.14-1.22.17-1.8.29-.55.54-1.11.81-1.67.18-.37.52-.56.89-.57,1.33-.04,2.47.38,3.1,1.63.67,1.32,1.24,2.7,1.67,4.12.11.35.1.73.14,1.1Z"/>
  <path class="cls-1" d="M102.11,38.37c-.6,0-.99.07-1.34-.02-.59-.14-1.24-.28-1.73-.6-2.17-1.43-4.14-3.12-6.03-4.91-.27-.25-.53-.53-.73-.83-1.04-1.53-2.15-3.02-3.04-4.66-.59-1.09-1.07-2.23-1.47-3.39-.41-1.18-.53-2.37-.35-3.64.23-1.6.55-3.16,1.13-4.67.28-.72.78-1.26,1.37-1.72.69-.53,1.49-.9,2.34-1.09,1.23-.27,2.46-.17,3.62.4,1.11.54,2.19,1.15,3.18,1.9.49.37,1.01.71,1.52,1.06.25.17.77.06,1-.21.4-.47.78-.96,1.19-1.42.5-.56,1.08-1,1.7-1.43,1.75-1.22,3.66-1.47,5.66-.86,2.73.83,2.77.92,4.28,3.22.27.41.53.84.78,1.26.44.75.8,1.53.89,2.41.06.61.21,1.22.31,1.83.08.49.04.98-.05,1.47-.14.73-.22,1.47-.34,2.2-.21,1.24-.71,2.34-1.42,3.38-.92,1.33-2.03,2.5-3.1,3.7-1.31,1.47-2.66,2.92-4.12,4.26-.92.84-1.93,1.54-2.97,2.21-.43.28-.88.43-1.4.32-.36-.08-.72-.14-.86-.17ZM111.97,21.34c-.03-1-.1-1.98-.35-2.95-.19-.74-.58-1.37-1.08-1.91-.44-.47-.99-.71-1.67-.5-.6.18-1.15.43-1.65.82-1.49,1.18-2.56,2.65-3.12,4.48-.07.23-.13.47-.22.7-.39.97-1.61,1.38-2.46.83-.1-.07-.21-.13-.31-.2-1.04-.69-1.95-1.44-2.37-2.73-.31-.94-1.06-1.63-1.88-2.23-.64-.47-1.34-.67-2.07-.66-.75.01-1.43.32-1.87,1-.41.63-.67,1.32-.74,2.07-.04.49.02.99-.06,1.48-.28,1.79.24,3.44.97,5.01.83,1.79,2.09,3.34,3.27,4.91.07.1.16.19.26.27,1.07.83,2.13,1.67,3.23,2.47.41.3.95.27,1.43.11.35-.12.68-.28,1-.47.75-.43,1.43-.96,2.05-1.57,1.06-1.04,2.09-2.09,3.17-3.11,1.17-1.11,2.12-2.4,3.08-3.69.91-1.23,1.28-2.65,1.39-4.14Z"/>
  <path class="cls-1" d="M133.34,69.95c-.02.72.12,1.82-1.56,1.73-.58-.22-1.33-.6-1.34-1.76,0-1.08.55-1.64,1.56-1.75,1.38-.16,1.36.96,1.34,1.77M136.08,69.74c-.03-2.2-1.73-3.68-4.22-3.66-2.29.01-4.01,1.66-4.02,3.85-.01,2.19,1.87,3.92,4.26,3.89,2.35-.03,4.01-1.72,3.98-4.07M141.82,77.8c.01-.24.02-.47.03-.71-.39-.24-.8-.71-1.18-.68-1.39.08-2.15-.26-1.92-1.86.04-.28-.55-.65-.85-.98-.35.35-.99.7-.98,1.04.05,1.3-.33,1.9-1.74,1.8-.34-.03-.92.54-1.05.94-.25.8.36,1.03,1.04.93,1.35-.21,1.87.33,1.71,1.68-.08.68.05,1.23,1.01,1.23,1.03,0,.99-.68.9-1.29-.23-1.46.48-1.74,1.73-1.65.42.03.86-.3,1.3-.46M152.27,76.98c-.46,1.15-.21,2.24-1.61,2.17-1.13-.06-1.53-.76-1.54-1.77,0-1.02.44-1.87,1.52-1.7.59.09,1.09.85,1.63,1.3M150.52,73.2c-1.01.47-2.21.75-2.98,1.48-.66.62-1.05,1.73-1.15,2.67-.21,1.98,1.96,3.9,4.17,3.91,2.32,0,4.06-1.59,4.09-3.76.03-2.39-1.54-3.96-4.13-4.3M158.42,69.95h.03s0-.02,0-.03c0,0-.02,0-.03,0v.02M162.09,70.78c-.34-.29-.65-.78-1.01-.82-.86-.11-1.75-.02-2.63,0,0,.59-.01,1.18-.02,1.77-.8-.1-2.16.49-1.75-1.17.08-.33,1.12-.42,1.74-.62,0-.93-.02-1.87.02-2.8.05-.95-.52-1.06-1.24-.98-1.21.13-.78,1.09-.81,1.73-.08,2.02-.04,2.02-2.05,2.03-.15,0-.3,0-.45,0-.61,0-1.15-.05-1.16.88-.01.93.44,1.03,1.17,1.07,2.33.13,2.34.14,2.47,2.5.04.68.05,1.24,1.02,1.24.94,0,1.06-.46,1.04-1.2-.02-.89,0-1.78,0-2.67h0c.88.03,1.79.18,2.65.06.38-.05.67-.65,1.01-1.01M168.36,99.68c-2.3,1.88-5.57.16-6.36-2.18-.64-1.91-1.65-3.69-2.56-5.5-.7-1.4-.17-3.75,1.11-5.41.89-1.17,1.68-2.45,2.33-3.77.21-.43.02-1.51-.3-1.67-1.23-.61-1.78.57-2.28,1.32-1.18,1.79-2.17,3.72-3.33,5.52-.2.31-.87.42-1.33.42-7.24.03-14.48-.02-21.73.05-1.65.01-1.78-1.43-2.53-2.23-1.33-1.43-2.37-3.13-3.67-4.58-.35-.39-1.22-.3-1.85-.43.12.64.06,1.4.39,1.9,1.29,1.9,2.71,3.72,4.06,5.58.1.13.11.41.05.57-.82,1.82-1.68,3.62-2.49,5.45-.43.96-.86,1.94-1.16,2.95-.52,1.78-2.06,2.38-3.49,2.83-1.62.5-2.84-.73-3.71-1.89-.82-1.08-1.76-2.38-.59-3.88.14-.18.22-.45.25-.69.38-2.52.66-5.06,1.13-7.57.47-2.51,1.12-4.98,1.69-7.46.22-.95.43-.88,1.04-.18.28.33,1.08.21,1.65.3,0-.56.25-1.41-.02-1.64-2.24-1.91-2.19-4.57-1.46-6.78.99-2.96,2.96-5.29,6.28-6.53,2.55-.95,4.99-.68,7.47-.71,6.5-.1,13-.19,19.49.06,3.42.13,6.3,1.93,8.11,4.91.77,1.27,1,2.87,1.61,4.7-.56,1.12-1.16,2.32-1.75,3.52-.21.43-.52.88-.54,1.34-.02.41.25,1.16.46,1.18.49.05,1.2-.08,1.48-.42.49-.6.55-.57.94.07.8,1.32.75,2.75.96,4.2.35,2.39,1.03,4.73,1.56,7.1.1.43.08.89.16,1.32.25,1.28.46,2.57.8,3.82.31,1.15-.71,3.46-1.88,4.43M157.04,60.88c-.15.17-.3.48-.46.49-.98.05-1.96.02-2.95.02v.07c-.64,0-1.29.05-1.92-.02-.5-.05-.99-.24-1.48-.37.51-.42.99-1.11,1.55-1.19,1.25-.18,2.56-.15,3.82,0,.51.06.96.65,1.44,1.01M138.56,60.86c-.14.17-.28.47-.43.48-1.03.09-2.07.11-3.11.16,0-.01,0-.03,0-.04-.64,0-1.29.06-1.93-.02-.54-.06-1.07-.27-1.6-.41.55-.4,1.07-1.08,1.66-1.15,1.31-.17,2.68-.14,4,0,.5.05.94.64,1.41.98M172.12,92.69c-.74-2.41-1.19-4.91-1.64-7.39-.44-2.41-.71-4.85-1.06-7.27-.01-.1-.03-.2-.05-.29-.56-2.41-1.24-4.8-1.65-7.23-.34-2-1.33-3.65-2.47-5.17-1.13-1.5-2.66-2.57-4.63-2.96-.51-.1-1.1-.93-1.24-1.53-.44-1.76-1.89-3.1-3.69-3.11-1.24,0-2.48,0-3.72,0-2.04.01-3.37,1.09-4,3.12-.09.28-.6.59-.93.6-1.78.06-3.57.06-5.36,0-.33-.01-.87-.33-.95-.61-.54-1.89-2.09-3.49-4.29-3.11-.43.08-.89.01-1.34.01-2.03-.25-3.96-.16-5.16,1.84-.35.59-.37,1.48-.84,1.89-.84.75-1.84,1.42-2.9,1.8-2.26.81-3.25,2.72-4.2,4.61-.56,1.1-.77,2.39-1.07,3.61-.59,2.41-1.22,4.81-1.66,7.25-.47,2.59-.75,5.22-1.11,7.83-.02.15-.07.29-.1.43-.78,3.03-1.64,6.04-1.65,9.21-.01,2.56.95,4.38,3.3,5.6,3.37,1.76,7.54.39,9.03-3.14.35-.83.68-1.67,1.03-2.5.52-1.24,1.17-2.44,1.55-3.73.35-1.21.89-1.94,2.21-1.94,7.24,0,14.49-.03,21.73.05.63,0,1.49.52,1.83,1.06.58.92.77,2.08,1.24,3.08.87,1.89,1.61,3.89,2.77,5.59,2.27,3.32,6.59,2.73,9,1.01,2.12-1.51,2.86-5.86,2.02-8.6"/>
</svg>