<?xml version="1.0" encoding="UTF-8"?>
<svg id="Capa_3" data-name="Capa 3" xmlns="http://www.w3.org/2000/svg" viewBox="0 0 200 200">
  <defs>
    <style>
      .cls-1 {
        fill: #72a888;
      }
    </style>
  </defs>
  <path class="cls-1" d="M125.23,170.73c-.03,1.64-.16,3.11-.49,4.58-.64,2.9-1.23,5.82-1.7,8.76-.27,1.72-.71,3.4-1.11,5.08-.51,2.17-1.2,4.29-1.52,6.51-.07.47-.34.94-.63,1.33-.53.71-1.65.91-2.3.27-.62-.62-1.08-1.35-1.34-2.19-.22-.74-.27-1.47.11-2.16.36-.65.65-1.32.79-2.07.34-1.83.55-3.68,1.1-5.46.11-.35.17-.73.17-1.1.01-2.87.67-5.65,1.17-8.46.05-.28-.13-.47-.38-.5-.11-.01-.24.02-.34.07-.11.05-.22.13-.29.22-1.64,2.03-3.49,3.87-5.29,5.74-1.46,1.52-3,2.96-4.52,4.42-1.34,1.3-2.57,2.69-3.66,4.21-.72,1.01-1.49,1.97-2.4,2.83-.72.68-1.35,1.45-2.06,2.14-.14.13-.49.15-.7.09-.73-.21-1.36-.6-1.67-1.34-.19-.46-.38-.91-.54-1.38-.24-.72.03-1.59.6-2.01.2-.15.41-.28.62-.41.76-.45,1.4-1.04,1.83-1.82.6-1.09,1.3-2.11,2.16-3.01.17-.18.37-.34.5-.55,1.46-2.37,3.61-4.07,5.62-5.9.74-.67,1.45-1.34,2.09-2.11.79-.96,1.66-1.84,2.47-2.78,1.71-1.96,3.39-3.95,5.35-5.68.46-.41.81-.94,1.26-1.36.45-.43.97-.78,1.57-.96.22-.07.51-.08.72,0,1.06.46,1.82,1.27,2.44,2.22.13.2.2.46.22.7.07.74.1,1.48.13,2.07Z"/>
  <path class="cls-1" d="M123.62,41.94c.03-.14.09-.51.21-.85.14-.37.47-.56.84-.62,1.07-.15,2.09.35,2.47,1.21.3.67.68,1.33.83,2.04.42,1.93,1.46,3.65,1.78,5.61.04.24.06.48.09.73.11.89-.65,1.64-1.58,1.56-1.03-.09-1.87-.54-2.51-1.35-.15-.19-.3-.41-.35-.64-.4-1.93-1.07-3.77-1.64-5.65-.18-.59-.26-1.2-.15-2.04Z"/>
  <path class="cls-1" d="M123.65,54.53c.03,1.02-1.07,1.5-1.84,1.1-1.12-.57-2.05-1.39-2.79-2.38-1.12-1.48-2.17-3-3.24-4.51-.14-.19-.19-.45-.27-.68-.18-.49-.06-1.13.23-1.37.42-.34.92-.39,1.4-.26.99.26,1.79.84,2.4,1.64,1.27,1.67,2.5,3.37,3.73,5.07.14.2.24.43.31.67.07.23.06.48.09.73Z"/>
  <path class="cls-1" d="M113.1,56.74c.24.03.49.04.73.09,1.1.24,4.12,1.22,4.9,1.56.8.35,1.52.82,2.16,1.4.39.35.51.81.37,1.33-.07.26-.22.43-.43.57-.43.29-.91.36-1.41.3-.36-.04-.73-.14-1.07-.28-.57-.23-1.14-.48-1.75-.55-.75-.08-1.43-.37-2.07-.74-.64-.37-1.28-.73-1.88-1.16-.4-.29-.65-.72-.78-1.22-.18-.69.2-1.3.85-1.29.12,0,.24-.01.37-.02Z"/>
  <path class="cls-1" d="M188.76,91.23c-.14-.6-.27-1.23-.22-1.84.16-1.86.05-3.72.2-5.57.24-2.81-.39-5.41-1.57-7.92q-2.04-4.35-4.94-7.81c-.8-.95-1.63-1.87-2.52-2.74-.89-.86-1.77-1.73-2.53-2.72-.83-1.09-1.84-2.01-3.02-2.73-.32-.19-.62-.42-.89-.67-1.82-1.7-3.81-3.17-5.84-4.59-.72-.5-1.36-1.08-1.92-1.75-.88-1.04-1.78-2.06-2.81-2.97-1.52-1.34-2.52-3.04-2.95-5.05-.16-.73-.3-1.46-.47-2.18-.09-.36-.2-.71-.34-1.06-.29-.75-.83-1.23-1.66-1.28-.62-.03-1.24-.01-1.85,0-.4,0-.7.23-.94.52-.32.38-.57.8-.99,1.1-.3.22-.67.07-.8-.36-.33-1.06-.63-2.14-1.01-3.18-.17-.48-.62-.8-1.13-.87-.61-.08-1.24-.08-1.86-.07-.5,0-.98.15-1.34.53-.42.45-.82.93-1.28,1.35-1.03.92-1.91,1.94-2.62,3.12-.12.2-.37.31-.56.47-.26.23-.45.19-.61-.12-.11-.22-.29-.41-.39-.63-.15-.34-.26-.69-.4-1.04-.33-.89-.92-1.45-1.92-1.47-.5-.01-.99-.01-1.49-.01-.53,0-.97.22-1.25.66-.92,1.47-1.66,3.04-2.35,4.63-.14.34-.24.71-.26,1.08-.12,2.72-.4,5.44.24,8.14.09.39-.15.72-.47.93-1.04.68-2,1.46-2.96,2.25-.96.8-1.81,1.7-2.6,2.65-.63.76-1.22,1.56-1.84,2.34-.69.88-1.29,1.82-1.81,2.81-2.66,5.06-4.74,10.35-6.4,15.82-1.02,3.33-1.51,6.77-2.18,10.17-.19.97-.3,1.97-.28,2.96.03,1.5-.09,2.97-.25,4.45-.3,2.62,0,5.2.51,7.76.1.49.27.94.56,1.36.35.51.68,1.04,1.01,1.56,1.07,1.7,2.44,3.1,4.02,4.33.99.77,2.05,1.44,3.23,1.82,2.12.68,4.2,1.52,6.45,1.69.37.03.75.1,1.08.25.92.45,1.9.52,2.9.54.49.01,1-.03,1.46.21.07.04.1.19.1.3,0,.24-.11.48-.36.58-.81.3-1.64.56-2.45.83-.96.82-2.23,1.06-3.25,1.77-1.02.7-2.1,1.31-3.15,1.98-.21.13-.41.29-.58.47-.26.27-.45.59-.5.97-.04.37-.11.74-.09,1.11.06.86.16,1.72.25,2.58.05.48-.23.97-.67,1.22-.43.25-.88.47-1.38.51-.76.06-1.43.36-2.09.72-2.75,1.49-5.12,3.48-7.5,5.47-.19.16-.34.36-.49.55-.79.96-1.62,1.87-2.33,2.89-.35.5-.76.97-1.16,1.43-.07.08-.21.12-.33.15-.3.07-.5-.04-.57-.31-.73-3.14-.85-6.38-1.47-9.54-.14-.72-.08-1.48-.11-2.23-.04-.87-.04-1.74-.11-2.6-.07-.86-.12-1.74-.3-2.58-.31-1.47-.37-2.94-.37-4.43,0-3.35-.05-6.7-.5-10.03-.1-.74-.14-1.48-.18-2.23-.12-2.23-.2-4.46-.17-6.69.03-2.11,0-4.21-.34-6.31-.23-1.47-.26-2.96-.25-4.45.02-3.47.12-6.94-.02-10.41-.1-2.48,0-4.96.24-7.43.17-1.85.25-3.71.25-5.57.01-5.95.02-11.91.03-17.86-.03,0-.05,0-.08,0,0-3.84,0-7.69,0-11.53,0-2.23.06-4.46.02-6.69-.05-2.85-.16-5.7-.27-8.55-.07-1.86-.12-3.72,0-5.58.04-.62.06-1.24.02-1.86-.2-3.47-.36-6.94-.26-10.41,0-.12-.02-.25-.04-.37-.07-.38-.29-.67-.57-.93-.47-.43-1.14-.47-1.66-.81-.42-.27-.87-.48-1.37-.56-2.2-.35-4.4-.77-6.64-.76-.99,0-1.98-.07-2.97-.1-.49-.01-.99-.04-1.48,0-2.85.26-5.7.24-8.55.14-1.49-.05-2.97.01-4.45.27-.73.13-1.47.24-2.21.29-3.34.2-6.65.74-10,.93-.37.02-.75.05-1.1.16-1.56.49-3.18.49-4.79.59-.74.05-1.5,0-2.21.25-1.31.46-2.68.49-4.04.55-1.12.05-2.22.08-3.3.48-.45.17-.97.22-1.46.23-1.49.03-2.96.1-4.42.49-.71.19-1.48.15-2.22.22-.74.07-1.49.08-2.22.21-2.21.39-4.43.57-6.67.57-.49,0-1.02-.01-1.47.16-1.67.62-3.42.64-5.14.63-1.87,0-3.71.09-5.56.38-1.22.19-2.46.36-3.7.39-.98.02-1.97-.18-2.96-.27-.51-.05-1,.09-1.42.35-.53.32-1.03.69-1.51,1.07-.18.15-.36.37-.42.59-.54,1.79-.76,3.63-.74,5.5,0,.49.1.99.08,1.48-.25,6.45.06,12.9-.21,19.35-.07,1.61,0,3.22-.13,4.83-.08,1.11-.07,2.22-.06,3.34.04,2.98-.03,5.95-.07,8.93-.01.87-.07,1.74.07,2.6.33,2.1.27,4.2.18,6.31-.09,1.98-.32,3.96.08,5.93.1.48.03.99.05,1.49.15,2.85.13,5.7.44,8.54.07.61.03,1.24.04,1.86,0,.99-.07,1.99.03,2.97.38,3.83.3,7.68.84,11.5.07.49.07.99.06,1.48-.03,1.74.11,3.48.43,5.18.21,1.1.31,2.21.34,3.33.05,1.49.08,2.98.11,4.46.03,1.36.1,2.72.2,4.08.26,3.34.58,6.67.55,10.03-.02,1.73.1,3.48.37,5.19.35,2.22.48,4.44.51,6.67.04,2.98.29,5.94.46,8.91.09,1.61.24,3.22.24,4.83,0,1.85.16,3.73-.8,5.45-.11.2-.09.48-.12.73-.11,1.06.59,2.31,1.53,2.74.34.15.68.29,1.02.45.59.27,1.24.35,1.8.07,1.04-.52,2.13-.62,3.25-.62.25,0,.5-.03.74-.02,1.74.08,3.45-.04,5.17-.45,1.56-.37,3.18-.57,4.78-.71,1.98-.17,3.94-.38,5.89-.77.97-.2,1.99-.15,2.95-.34,2.08-.42,4.18-.54,6.29-.59,1.36-.04,2.73-.09,4.09-.12.87-.02,1.72-.15,2.58-.32,1.46-.28,2.94-.51,4.42-.61,3.34-.22,6.69-.34,10.03-.5,1.24-.06,2.48-.08,3.71-.21,3.09-.31,6.18-.46,9.29-.41,2.23.03,4.46-.01,6.68-.42.85-.16,1.73-.18,2.59-.21,3.22-.11,6.45-.19,9.67-.28.12,0,.24.06.36.06.28,0,.61.6.49.85-.5,1-1.18,1.89-1.84,2.79-.81,1.1-1.68,2.16-2.41,3.31-.72,1.15-1.72,2.12-2.3,3.37-.15.32-.41.64-.71.85-1.14.8-1.95,1.89-2.76,2.99-.58.8-1.17,1.59-1.55,2.53-.28.69-.85,1.21-1.39,1.73-.73.7-1.3,1.5-1.52,2.51-.05.24-.15.48-.29.68-.85,1.22-1.67,2.47-2.61,3.61-.79.96-1.54,1.95-2.16,3.02-.63,1.08-1.3,2.13-2.11,3.05-1.17,1.33-1.86,2.92-2.64,4.46-.39.77-.71,1.58-1.05,2.38-.25.58-.36,1.19-.36,1.81,0,.62.05,1.24.12,1.85.03.24.14.47.23.7.09.24.29.42.56.42.22,0,.5-.08.66-.22.27-.25.49-.56.7-.86.62-.92,1.19-1.89,1.85-2.79,1.62-2.2,3.08-4.5,4.61-6.76,2.09-3.07,4.09-6.22,6.56-9.02.41-.46.76-.98,1.09-1.51,1.39-2.21,3.05-4.22,4.66-6.26,1.77-2.24,3.51-4.5,5.25-6.76.45-.59.92-1.19,1.25-1.84.51-1.01,1.21-1.87,1.91-2.74.86-1.06,1.76-2.08,2.72-3.05,1.04-1.05,1.97-2.22,2.95-3.34.08-.09.17-.19.26-.26.79-.62,1.38-1.42,1.98-2.21,1.05-1.39,2.18-2.7,3.13-4.16.68-1.05,1.57-1.91,2.53-2.71,1.53-1.27,3.12-2.45,4.82-3.49.63-.38,1.32-.67,2.01-.96.22-.09.49-.06.73-.08.3-.03.81.29.87.57.36,1.58.98,3.07,1.64,4.54.2.45.46.89.59,1.37.4,1.47,1.18,2.72,2.08,3.92.75.99,1.44,2.02,2.19,3.01.45.59.92,1.18,1.48,1.66,1.32,1.13,2.57,2.33,3.81,3.54.44.43.93.86,1.48,1.11,1.72.77,3.2,1.86,4.72,2.94,1.21.86,2.41,1.79,3.84,2.26,1.77.59,3.43,1.42,5.15,2.13.46.19.93.37,1.41.45,1.1.2,2.2.37,3.31.49.87.09,1.74-.02,2.53-.45.88-.48,1.78-.86,2.79-.97.48-.05.95-.27,1.42-.43,1.05-.36,2.06-.85,3.14-1.16,1.09-.31,1.91-1.13,2.86-1.71.21-.13.45-.22.68-.3.59-.21,1.11-.56,1.6-.94.78-.61,1.53-1.26,2.32-1.86.59-.45,1.18-.9,1.89-1.17.3-.11.73.11.83.49.12.48.29.96.31,1.45.12,2.73.19,5.45.29,8.18.06,1.73.01,3.48.22,5.2.24,1.99.23,3.96.04,5.94-.16,1.61-.2,3.22-.25,4.83-.05,1.36-.03,2.73-.07,4.09-.06,1.98-.15,3.97-.22,5.95-.41,1.69-.83,3.37-1.22,5.06-.21.92.03,1.72.76,2.35.37.33.75.66,1.14.95.51.38,1.1.54,1.73.58.41.03,1.05-.4,1.13-.8.08-.36.16-.72.22-1.09.14-.86.18-1.74.41-2.57.42-1.57.57-3.17.86-4.76.11-.61.18-1.23.17-1.85-.07-2.73.11-5.46.14-8.18.03-3.22.17-6.45,0-9.67-.06-1.11-.04-2.23-.03-3.35.02-2.11-.1-4.21-.27-6.32-.1-1.24-.18-2.47-.27-3.71-.15-1.98-.24-3.96-.77-5.89-.13-.49,0-.98.29-1.41.2-.31.4-.63.62-.93.46-.62.64-1.33.69-2.09.03-.37.06-.75.03-1.11-.14-2.1-.26-4.21-.45-6.31-.07-.75-.11-1.48-.01-2.22.33-2.47.34-4.95.27-7.43-.03-.89-.28-1.69-.68-2.48-.84-1.67-2.16-2.73-3.96-3.07-2.18-.42-4.36-.91-6.62-.82-2.73.11-5.45-.24-8.16-.52-.42-.04-.8-.57-.8-1.09,0-.73.38-1.22,1.02-1.32.12-.02.24-.07.36-.07,1.52.04,2.92-.5,4.37-.82,1.23-.27,2.34-.82,3.35-1.55,1.51-1.08,3.02-2.19,4.35-3.49,1.07-1.04,2.16-2.04,3.32-2.98,1.07-.87,1.91-1.94,2.48-3.21.2-.45.39-.93.69-1.3,1.13-1.37,1.69-3.02,2.3-4.64.31-.81.52-1.65.81-2.47.62-1.78.89-3.6.83-5.48-.03-1-.18-1.97-.41-2.94ZM106.47,146.57c-.37-.05-.73-.09-1.1-.16-.98-.2-1.97-.27-2.96-.11-1.97.32-3.95.32-5.93.35-2.11.03-4.21.13-6.32.25-.99.05-1.98.15-2.95.33-1.6.29-3.2.4-4.81.36-.74-.02-1.49,0-2.23-.01-2.36-.04-4.71.12-7.05.39-1.35.16-2.72.25-4.08.25-2.48-.01-4.96.15-7.43.3-.62.04-1.24.14-1.85.1-1.13-.07-2.23.05-3.32.29-.97.21-1.97.25-2.96.28-4.1.09-8.16.53-12.21,1.19-.61.1-1.23.15-1.85.21-.37.04-.75.02-1.11.07-1.35.19-2.69.45-4.04.6-1.23.13-2.48.11-3.71.23-.74.07-1.46.27-2.19.39-2.45.39-4.91.73-7.4.39-.24-.03-.75-.49-.77-.71-.02-.25-.07-.49-.07-.74,0-.62.02-1.24.03-1.86.02-1.37,0-2.73-.18-4.09-.46-3.7-.55-7.42-.7-11.13-.05-1.36-.09-2.72-.35-4.07-.3-1.59-.27-3.21-.34-4.82-.05-1.36-.1-2.72-.36-4.07-.28-1.47-.27-2.96-.31-4.45-.06-2.23-.04-4.46-.21-6.69-.1-1.23.04-2.46-.21-3.7-.24-1.21-.23-2.46-.28-3.7-.05-1.24-.26-2.46-.43-3.69-.12-.86-.17-1.73-.22-2.59-.09-1.86-.16-3.72-.24-5.58-.03-.74,0-1.5-.12-2.23-.55-3.07-.46-6.18-.53-9.27-.06-2.98-.14-5.95-.46-8.91-.27-2.47-.23-4.95-.19-7.43.05-2.6.03-5.21,0-7.81-.07-4.59.03-9.18.05-13.77,0-.99.02-1.98.03-2.97,0-.62-.04-1.24.01-1.86.29-3.46.15-6.94.27-10.41.04-1.24-.02-2.48-.02-3.72.02-2.85.29-5.7.2-8.55-.02-.67.32-1.13,1.02-1.35.46-.15.87-.46,1.32-.67.33-.16.68-.33,1.04-.4,2.34-.47,4.67-.52,6.97.24l10.15-.46c1.72-.22,3.45-.27,5.16-.63,1.2-.25,2.47-.17,3.7-.31,1.11-.12,2.2-.39,3.31-.5,1.85-.19,3.71-.25,5.52-.76.35-.1.74-.11,1.11-.12,2.23-.04,4.44-.37,6.66-.61.61-.07,1.23-.15,1.85-.16,1-.02,1.99-.09,2.94-.39,1.08-.33,2.19-.44,3.31-.46,1.37-.02,2.71-.2,4.07-.37,1.47-.19,2.97-.19,4.45-.31.49-.04,1.02-.07,1.45-.28.82-.4,1.64-.49,2.53-.35,1.48.24,2.95.17,4.44.07,2.6-.16,5.2-.16,7.81-.19,1.99-.02,3.97-.05,5.91-.51.12-.03.25.01.37,0,.36-.04,1.01.5,1.1.86.17.73.22,1.47.17,2.22-.06.89.04,1.72.54,2.49.19.3.26.69.31,1.05.07.49.11.99.07,1.48-.15,1.74-.03,3.47,0,5.2.05,2.36.06,4.71.04,7.07-.02,2.73.1,5.45.07,8.18-.07,5.58,0,11.16,0,16.74,0,3.97,0,7.93,0,11.9-.02,0-.03,0-.05,0,0,2.6,0,5.21,0,7.81,0,1.11,0,2.23-.11,3.34-.24,2.6-.17,5.2-.06,7.8.05,1.24.06,2.48.01,3.72-.2,4.96.12,9.91.4,14.86.03.49.12.99.12,1.48-.02,4.22.31,8.42.73,12.62.05.49.04.99.04,1.48.04,2.11.03,4.22.12,6.32.11,2.48.31,4.95.49,7.42.1,1.48.23,2.97.35,4.45.09,1.11.18,2.22.44,3.32.17.72.28,1.47.31,2.2.05,1,.19,1.97.49,2.92.11.35.18.73.17,1.1-.02,1.01.33,1.93.69,2.84.11.27-.34.79-.63.75ZM121.64,101.95c-.23.08-.48.11-.72.16-.31.07-.82-.23-.85-.5-.08-.73-.15-1.47-.15-1.47-.1-2.85.26-4.91.78-6.96.08-.31.53-.51.89-.36.92.37,1.83.75,2.75,1.11,1.28.5,2.39,1.27,3.46,2.1.23.18.34.77.18,1.01-.21.3-.36.66-.62.91-1.7,1.63-3.46,3.18-5.72,4ZM134.81,113.28c-.87-.06-1.71-.22-2.56-.42-2.29-.55-4.53-1.24-6.83-1.73-1.49-.69-2.77-1.61-3.53-3.12-.16-.31.02-.84.3-.96,1.02-.44,2.08-.76,3.16-1.04.49-.13.89-.4,1.27-.72.75-.64,1.5-1.3,2.31-1.87,1.02-.72,1.9-1.59,2.68-2.56.7-.87,1.36-1.76,2.04-2.65.23-.31.29-.68.3-1.05.03-.92-.28-1.7-1.02-2.28-.39-.31-.78-.62-1.2-.87-1.59-.96-3.18-1.92-4.8-2.84-.64-.37-1.34-.62-2.02-.94-1.01-.47-2.02-.94-3.03-1.42-.24-.11-.47-.67-.4-.97,1.03-4.33,2.1-8.64,3.89-12.74.99-2.27,2-4.53,3.16-6.72.64-1.21,1.35-2.37,2.22-3.42.95-1.15,1.87-2.32,2.85-3.43.49-.55,1.07-1.03,1.66-1.48.28-.22.67-.29,1.02-.44.26-.11.48-.06.66.18.23.29.51.55.69.87.98,1.76,2.38,3.13,3.92,4.41,1.81,1.5,3.52,3.12,5.25,4.72.26.24.36.66.28,1.04-.33,1.72-.26,3.46-.32,4.48-.05,2.07-.1,3.43-.12,4.8-.02,1.49.09,2.97.49,4.42.3,1.07.54,2.16.73,3.26.13.72.11,1.47.21,2.21.13,1,1.38,1.97,2.43,1.89.51-.04.96-.24,1.24-.7.25-.43.49-.86.69-1.32.59-1.33,1.61-2.16,2.93-2.69.23-.09.45-.21.69-.28.51-.15.98-.03,1.39.3.19.15.39.31.54.5,1.23,1.62,2.04,4.21,1.96,6.26-.05,1.27-.33,2.45-1.2,3.44-.32.37-.56.82-.88,1.2-1.62,1.97-3.59,3.39-6.13,3.92-.74.16-1.45.28-2.19.01-.46-.16-.97-.21-1.45-.3-.64-.12-1.13.34-1.19,1.09-.02.25-.03.49-.03.74,0,.65.24,1.21.73,1.64.38.32.77.63,1.18.9.42.27.8.57,1.16.92.48.47.6,1.04.24,1.65-.25.43-.54.84-.64,1.33-.05.24-.11.49-.09.73.1,1.15.52,2.16,1.32,3,.53.56,1.18.92,1.93,1.05.85.14,1.72.17,2.58.31.51.08.88.38.99.95.18,1.01.72,1.82,1.37,2.59.52.61,1.1.96,1.89,1.03.58.05.8.5.94.99.07.24.1.48.15.73.02.12.03.25.04.37.01.12.03.25.02.37-.11,1.86.06,3.72.23,5.57.17,1.86,1.07,3.54,1.53,5.33.08.32-.23.72-.6.75-1.73.16-3.46.26-5.2.14-2-.14-3.91-.62-5.72-1.48-1.45-.69-2.87-1.46-4.35-2.08-1.03-.44-2.83-1.71-3.69-2.45-.09-.08-.21-.18-.23-.29-.11-.85-.38-1.69-.23-2.56.06-.37.17-.72.24-1.09.14-.74.2-1.48.05-2.22-.27-1.34-.41-2.7-.5-4.06-.1-1.43-.66-2.63-1.77-3.55-.19-.16-.37-.32-.55-.5-.28-.27-.64-.4-1.01-.44-1.35-.15-2.71-.29-4.07-.39ZM166.31,127.52c.96-.14,1.93-.23,2.74-.32,1.13.17,2.09.32,3.05.47.08.21.25.42.23.62-.02.22-.18.45-.33.64-.3.38-.63.74-.96,1.1-.58.63-1.23,1.18-2.04,1.52-.67.28-1.33.61-1.99.92-.27.12-.8-.19-.82-.48-.03-.36-.11-.73-.09-1.09.04-.98-.03-1.95-.22-2.91-.04-.19.16-.44.43-.48ZM167.28,138.31c.46-.2.93-.36,1.37-.58,1.33-.67,2.64-1.37,3.96-2.05.9-.46,1.64-1.1,2.28-1.88.55-.68,1.03-1.4,1.39-2.19.15-.33.23-.71.28-1.07.11-.81-.18-1.46-.85-1.93-.2-.14-.42-.26-.65-.34-.26-.1-.41-.26-.37-.52,0-.06.22-.11.34-.11.62-.04,1.24-.07,1.76-.1.72.04,1.34.06,1.96.11.24.02.49.1.73.15.48.11,1.13.83,1.2,1.31.23,1.6.31,3.21-.02,4.81-.38,1.85-.37,3.68.06,5.54.39,1.71.3,3.45.21,5.19-.01.24-.08.5-.21.7-.45.74-.89,1.49-1.41,2.18-.29.39-.69.72-1.1.98-.73.47-1.48.9-2.12,1.51-.54.52-1.15.95-1.82,1.28-.11.06-.22.11-.33.17-.99.53-1.76,1.36-2.69,1.98-.93.62-2.05.9-2.93,1.61-1.18.95-2.6,1.43-3.94,2.08-.33.16-.71.28-1.07.29-1.39.06-2.67.53-3.97.93-.49.15-.95.11-1.46.05-1.87-.24-3.62-.81-5.32-1.61-.34-.16-.67-.32-1.02-.45-2.01-.72-3.83-1.73-5.39-3.21-.45-.43-.99-.73-1.54-1.03-2.66-1.43-4.83-3.47-6.83-5.68-.82-.91-1.49-1.97-2.17-3-.41-.62-.76-1.28-.97-2-.14-.47-.36-.92-.56-1.38-1.35-3.11-1.37-3.11-1.92-5.99-.37-1.95-.7-3.9-1-5.86-.1-.64.15-1.23.71-1.62.61-.42,1.22-.83,1.85-1.24.31-.2.86-.12,1.01.12.19.32.4.63.56.96.55,1.15,1.38,2.03,2.36,2.82.87.7,1.7,1.43,2.66,2.01.21.13.41.28.61.43,2.55,2.01,5.4,3.5,8.31,4.9,2.02.97,4.11,1.74,6.31,2.18.61.12,1.22.21,1.82.37.98.26,1.98.29,2.96.15,1.48-.21,2.96-.28,4.45-.37.88-.05,1.72-.25,2.52-.6ZM184.25,95.86c-.46,1.93-1.04,3.82-1.66,5.7-.15.47-.36.92-.61,1.35-.55.97-1.15,1.91-1.7,2.88-.31.55-.7,1.03-1.18,1.42-.87.7-1.67,1.47-2.42,2.29-.92,1.01-1.91,1.94-3.16,2.56-.68.33-1.17.91-1.7,1.43-1.29,1.24-2.84,1.95-4.62,2.18-1.11.14-2.2.34-3.31.45-.61.06-1.23,0-1.85-.02-.52-.02-.98-.46-.97-.92,0-.37.05-.74.05-1.11,0-1.32-.83-2.32-2.07-2.75-1.1-.38-2.2-.1-3.29-.19-.29-.02-.45-.22-.35-.52.15-.47.32-.93.54-1.36.31-.6.27-1.17.01-1.78-.17-.4-.04-.78.23-.97,1-.72,2.05-1.39,2.96-2.24.63-.59,1.27-1.18,1.88-1.8,1.05-1.07,1.91-2.31,2.52-3.65.56-1.24.62-2.67.6-4.02-.07-3.7-1.09-7.09-3.68-9.86-.6-.64-1.26-1.19-2.12-1.46-.59-.18-1.17-.41-1.76-.59-1.19-.35-1.29-.32-2.5.13-.93.34-1.78.88-2.75,1.08-.17.03-.49-.18-.57-.36-.15-.33-.23-.71-.24-1.08-.03-1.24-.01-2.48-.01-3.71.03,0,.05,0,.08,0,0-.62.02-1.24,0-1.86-.06-1.49.05-2.96.4-4.43.2-.83.23-1.72.27-2.58.04-.89-.18-1.72-.91-2.34-.47-.4-.9-.85-1.4-1.21-2.23-1.6-4.13-3.56-5.99-5.55-1.44-1.54-2.58-3.33-3.31-5.34-.34-.93-.67-1.86-1-2.8-.08-.23-.13-.48-.14-.73-.03-1.61-.14-3.22.16-4.82.05-.28.18-.44.43-.55.23-.1.47-.14.68.04.18.16.3.38.47.56.34.35.67.74,1.07,1.03.4.28.86.49,1.32.67.35.14.72.1,1.08-.04.84-.32,1.49-.85,1.94-1.64.62-1.07,1.09-2.23,1.86-3.21.15-.19.34-.4.55-.46.26-.08.55.07.59.28.2.97.28,1.96.54,2.91.28,1.01.99,1.7,2.02,1.99.23.06.49.07.73.03.75-.13,1.42-.4,1.94-1,.32-.37.72-.67,1.07-1.01.24-.23.45-.23.62.03.6.94,1.16,1.89,1.78,2.82.55.82,1.1,1.68,1.89,2.28,1.2.91,2.14,2.05,3.1,3.19.73.86,1.54,1.62,2.48,2.22,2,1.27,3.77,2.81,5.56,4.33,1.61,1.36,3.18,2.76,4.69,4.22,2.06,1.99,3.81,4.23,5.44,6.57.21.3.39.63.54.97.76,1.83,1.67,3.59,2.38,5.44.32.82.5,1.66.52,2.53.02.87.01,1.73,0,2.6,0,.37,0,.77-.14,1.1-.54,1.21-.34,2.4-.09,3.64.22,1.09.31,2.21.37,3.32.05.87.07,1.73.2,2.59.05.36.03.75-.06,1.1Z"/>
  <path class="cls-1" d="M57.76,58.29c.35.24.73.21.97-.09.69-.87,1.44-1.7,1.99-2.68.42-.75.96-1.44,1.48-2.14.14-.19.35-.38.57-.45.74-.27,1.47-.21,2.12.25.75.53.99,1.52.63,2.31-.72,1.57-1.63,3.06-2.13,4.74-.07.23-.21.45-.36.64-.83,1.04-.89,2.27-.94,3.52-.08,1.79.39,3.43,1.2,5,.4.77.83,1.52,1.22,2.29.28.56.64,1.06,1.08,1.5.26.26.54.52.77.8,1.42,1.72,3.27,2.1,5.36,1.74.23-.04.47-.17.64-.33.27-.25.57-.53.69-.86.48-1.3,1.46-2.29,2.06-3.51.54-.55.75-1.26.97-1.98.22-.7.88-1.17,1-1.96.09-.6.38-1.18.54-1.77.35-1.34,1.25-2.41,1.77-3.67.14-.33.43-.6.68-.87.68-.72,1.46-1.34,2.28-1.91.61-.42,1.2-.87,1.83-1.27.79-.51,1.64-.52,2.49-.15.93.4,1.7,1.01,2.19,1.92.12.22.24.43.37.64.34.54.49,1.14.49,1.77,0,.87-.08,1.73-.08,2.6.02,1.91-.59,3.65-1.42,5.33-.16.33-.32.67-.51.99-.43.73-.38,1.23.52,1.83.41.27.8.59,1.14.94.25.26.41.62.57.94.18.35.12.72,0,1.08-.21.6-.56,1.12-1.07,1.49-.5.37-1.04.66-1.57.99-.82.51-.81.94.02,1.69.09.08.19.16.28.24,1.6,1.38,3.02,2.94,4.43,4.5.85.94,1.42,2.03,1.88,3.18.29.72.21,1.47-.04,2.19-.33.95-.87,1.78-1.59,2.48-.26.26-.57.48-.89.66-.54.3-1.1.58-1.67.81-.6.24-.81,1.01-.69,1.56.08.36.17.72.25,1.09.33,1.46.44,2.94.34,4.43-.02.36-.1.74-.24,1.08-.29.72-.78,1.27-1.6,1.38-.49.07-.99.09-1.48.14-.54.06-.95.46-.98.93-.06.99-.07,1.98-.22,2.96-.19,1.25-1.33,2.39-2.95,2.23-1.24-.12-2.44-.37-3.56-.98-.41-.22-1.08,0-1.31.38-.45.74-.89,1.48-1.33,2.23-.19.33-.26.71-.21,1.08.21,1.47.46,2.94.47,4.43,0,.49-.05.99-.08,1.48-.02.28-.46.67-.78.68-.37.01-.77,0-1.04-.29-.79-.81-1.4-1.76-1.61-2.87-.24-1.23-.67-2.38-1.09-3.54-.08-.21-.29-.41-.5-.52-.54-.29-1.05-.66-1.68-.75-.26-.04-.83.19-.94.47-.09.22-.21.5-.14.69.61,1.49.89,3.1,1.58,4.56.3.64.08,1.19-.32,1.71-.36.47-1.17.72-1.65.45-.43-.24-.84-.52-1.24-.81-.4-.3-.73-.67-.89-1.16-.19-.59-.36-1.18-.56-1.77-.2-.61-.49-1.13-1.26-1.11-.87.01-1.73-.15-2.56-.39-.25-.07-.48-.1-.72,0-.35.13-.7.25-1.06.36-1.71.49-1.81.95-1.95,2.7-.06.74.14,1.48-.02,2.22-.1.43-.52.86-1.03.89-.66.05-1.21-.17-1.64-.68-.67-.78-1.05-1.68-1.02-2.72.04-1.11.28-2.22,0-3.33-.06-.24-.57-.64-.83-.6-.24.03-.5.03-.72.11-.35.12-.68.29-1.02.44-.37.16-.6.47-.61.84-.02.99-.02,1.98.04,2.97.03.49.15.98.29,1.45.19.67-.07,1.21-.38,1.75-.13.24-.75.47-.99.39-1.26-.42-2.1-1.27-2.51-2.53-.04-.12-.08-.24-.09-.36-.23-1.72-.71-3.39-.71-5.14,0-.35-.18-.72-.59-.86-.35-.12-.69-.29-1.05-.37-1.05-.24-1.74-.93-2.28-1.78-.4-.62-.69-1.31-1.07-1.95-.38-.64-.82-1.24-1.19-1.88-.31-.55-.4-1.15-.19-1.79.27-.82.5-1.66.73-2.49.07-.24-.02-.52-.26-.61-.2-.08-.5-.06-.71.03-.57.24-1.1.55-1.67.8-.39.17-.72-.04-1.02-.26-.52-.38-.83-.93-1.05-1.5-.38-1.04-.9-5.01-.91-6.23-.02-2.16.6-4.17,1.52-6.07.86-1.78,1.72-3.57,2.75-5.27.7-1.16,1.27-2.41,1.85-3.64.69-1.46,1.59-2.8,2.52-4.11.74-1.04,1.68-1.81,2.97-2.07.12-.02.22-.11.33-.17.11.21.18.47.35.62.37.33.72.67.98,1.1.21.34.2,1.13-.03,1.43-.08.1-.13.21-.22.3-1.78,1.78-3.04,3.9-4.08,6.16-.72,1.58-1.56,3.1-2.49,4.57-.93,1.48-1.65,3.05-2.27,4.67-.5,1.3-.69,2.63-.58,4.01.04.49.11.98.17,1.47.06.47.66.69,1.15.42.33-.18.67-.35.87-.68.38-.64.79-1.26.91-2.01.17-.98.47-1.92.95-2.79.13-.24.37-.32.63-.31,1.01.05,2.03.88,2.11,1.75.12,1.23.2,2.46.32,3.69.03.27.26.33.56.19.23-.11.41-.28.5-.53.32-.94.6-1.89.95-2.81.22-.58.59-1.08,1.02-1.54.18-.19.4-.28.66-.29.78-.02,1.48.19,2.03.74.71.71,1.19,1.58,1.4,2.57.11.48.17.97.27,1.45.02.07.17.19.21.18.11-.05.22-.14.27-.25.14-.34.29-.69.36-1.05.19-.97.32-1.95.5-2.93.07-.36.18-.72.31-1.06.27-.71,1.13-1.08,1.82-.8.59.23,1.12.56,1.49,1.07.58.8,1.13,1.63,1.68,2.45.48.72.94,1.45,1.44,2.16.16.22.42.24.66.2.26-.05.43-.21.5-.48.06-.24.1-.48.16-.72.09-.36.47-.67.77-.68.64-.01,1.27.09,1.76.49,1.25,1.01,2.45,2.08,3.7,3.1.38.31.82.56,1.28.74.6.24,1.21.19,1.72-.29.38-.36.32-.65.09-.93-.24-.28-.5-.55-.7-.86-.15-.22-.11-.47-.01-.7.16-.36.54-.61.86-.57.24.04.51.02.72.11,1.06.44,2.19.49,3.29.45.99-.03,1.98-.03,2.96-.08.65-.04,1.16-.4,1.62-.82.47-.43.66-1.15.45-1.68-.35-.93-.8-1.81-1.35-2.64-.42-.62-.73-1.29-.95-2.01-.33-1.07-.68-2.12-.99-3.19-.07-.23-.04-.49-.01-.73.06-.6,1.08-1.32,1.69-1.18.48.11.95.27,1.43.4.72.18,1.46.29,2.21.18.26-.04.4-.28.42-.51.01-.12.01-.26-.04-.37-.43-.91-1.33-1.46-1.82-2.33-.12-.21-.27-.43-.31-.66-.17-.98-.33-1.96-.15-2.95.09-.49.36-.92.8-1.2.21-.13.43-.24.66-.34.56-.26,1.13-.51,1.69-.76.3-.13.38-.67.17-.92-.4-.49-.98-.75-1.42-1.18-.46-.44-.78-.95-.91-1.58-.11-.52-.02-.99.33-1.38.5-.55,1.12-1.01,1.52-1.62,1.34-2.03,1.89-4.28,1.59-6.71-.03-.24-.3-.39-.57-.27-1.78.73-3.18,1.81-3.89,3.71-.39,1.04-.77,2.09-1.07,3.16-.14.48-.22.97-.37,1.44-.59,1.76-1.17,3.55-2.21,5.1-1.03,1.54-2.19,3-3.34,4.46-.4.5-1.06.7-1.69.61-2.99-.4-5.82-1.24-8.16-3.27-.85-.74-1.76-1.34-2.86-1.67-.6-.18-1.03-.67-1.38-1.2-.42-.64-.6-1.36-.54-2.12.04-.5.12-.99-.09-1.46-.83-1.83-1.15-3.78-1.43-5.74-.04-.29-.44-.66-.75-.74-1.09-.3-2.2-.35-3.31-.42-1.24-.07-2.34-.84-3.62-.77-.24.01-.5-.03-.74-.09-.24-.06-.46-.17-.69-.25,0,0-.19.13-.19.13,0,0,.24-.07.24-.07-.12.2-.34.4-.34.6,0,.48.17.95.16,1.43,0,.48-.16.96-.18,1.44-.02.48,0,.97.05,1.45.07.6.17,1.2.28,1.8.13.72.29,1.43.42,2.14.12.65-.35,1.24-.98,1.22-.48-.01-.97-.05-1.45-.07-.06-.23-.05-.54-.19-.68-.75-.7-1.17-1.53-1.47-2.52-.62-2.06-.67-4.14-.4-6.24.05-.38.32-.66.52-.97.23-.34.14-.75-.15-.94-.83-.55-1.72-.97-2.65-1.32-.35-.13-.71-.24-1.01-.45-2.04-1.39-4.18-2.64-6.18-4.09-.72-.52-1.21-1.23-1.72-1.92-.21-.28-.28-.68-.37-1.04-.06-.26.05-.48.23-.66.18-.18.42-.29.67-.21.46.16.95.32,1.35.58,1.77,1.14,3.5,2.32,5.27,3.46.62.4,1.25.84,1.94,1.07,1.07.35,2.06.83,3.05,1.33,2.12,1.07,4.42,1.57,6.75,1.94.73.11,1.48.15,2.22.21.76.06,1.47-.12,2.16-.42.37-.16.54-.49.73-.8l-.12-.09ZM44.16,104.46c.1.24.06.28-.11.11.07-.02.14-.03.21-.05-.02.91.32,1.7.84,2.41.14.19.34.38.56.47,1.37.61,2.84.84,4.29,1.14.22.05.5-.04.72-.14.8-.37,1.44-.95,2.05-1.57.16-.16.22-.44.26-.68.21-1.14.1-2.2-.69-3.15-.72-.87-1.16-1.89-1.45-2.99-.03-.11-.14-.2-.24-.28-.18-.14-.44-.2-.67-.06-.19.12-.33.36-.42.58-.38.92-.65,1.87-.86,2.84-.15.74-.54,1.38-1.01,1.97-.45.56-1.31.76-2.02.45-.23-.1-.45-.21-.65-.35-.3-.22-.56-.49-.82-.72ZM56.3,103.58c-.21,1.2.06,2.53.32,3.88.12.61.19,1.22.29,1.83.05.34.5.63.81.59.87-.13,1.61-.62,2.44-.85.25-.07.4-.28.5-.52.19-.46.44-.89.58-1.37.31-1.08.88-2.04,1.33-3.06.09-.21.31-.38.51-.51.89-.6,2.46.05,2.66,1.13.11.6.07,1.23.18,1.84.03.18.31.38.52.45.22.07.49,0,.74,0,.88-.03,1.71-.18,2.47-.68.44-.29.97-.2,1.44-.07.35.1.64.36.98.49.35.13.72.15,1.03-.13.46-.41.91-.83,1.35-1.26.92-.89,2.01-.84,3.13-.53.35.1.67.32,1.01.46.46.18.92.35,1.39.51.41.14.7-.09.98-.34.2-.17.3-.38.31-.65.05-.74.04-1.49.17-2.22.24-1.3.96-2.27,2.25-2.72.35-.12.72-.16,1.08-.26.26-.07.56-.57.53-.89-.02-.24-.04-.49-.12-.72-.1-.29-.34-.45-.5-.34-1.61,1.07-3.39,1.44-5.3,1.36-.37-.02-.74.01-1.11.03-.38.01-.74.14-1.02.39-.37.33-.7.7-1.05,1.05-.82.82-1.83,1.25-2.98,1.37-.37.04-.74.12-1.11.12-1.13,0-2.23-.2-3.18-.85-.71-.49-1.4-1.01-2.11-1.51-.34-.24-.73-.22-.97.05-.24.28-.47.58-.73.84-.97.96-2.26.98-3.31.03-.64-.58-1.31-1.15-1.88-1.79-.57-.64-1.04-1.38-1.57-2.06-.06-.08-.22-.12-.33-.13-.22-.02-.43.11-.51.38-.39,1.3-.49,2.68-1.09,3.93-.17.35-.21.71-.2,1.08.01.49.05.99.1,1.66ZM86.1,91.08c.94-.45,1.5-.7,2.04-.99.32-.17.62-.4.89-.64.59-.52.84-1.2.79-1.97-.03-.36-.14-.72-.25-1.07-.15-.49-.87-.72-1.14-.34-.7.98-1.65,1.44-2.81,1.49-.86.04-1.71.03-2.57.04-.32,0-.66.49-.54.78.4,1.03.83,2.05,1.56,2.91.16.18.35.34.55.48.08.06.24.11.3.08.52-.32,1.04-.66,1.19-.76Z"/>
  <path class="cls-1" d="M42.9,31.15c-.03-.5-.05-1.12-.11-1.73-.14-1.36-.28-2.71-.45-4.07-.17-1.36-.23-2.72-.18-4.08.04-1.07.59-1.91,1.51-2.41,2.23-1.2,4.18-1.9,6.6-2.41,1.35-.29,2.71-.3,4.07-.06.24.04.49.11.72.1.24-.02.54-.07.69-.22.71-.72,1.64-1.09,2.48-1.59.76-.45,1.54-.77,2.39-.99.6-.15,1.12-.51,1.66-.82.42-.24.91-.39,1.38-.53,1-.3,1.98.12,2.51,1.07.11.21.17.46.19.7.03.51-.19.96-.36,1.43-.18.5-.14.97.17,1.4.29.4.63.78.85,1.21.55,1.08.45,2.17-.22,3.17-.2.3-.49.58-.81.75-1.43.77-2.96,1.29-4.53,1.64-1.69.38-3.35.88-5.01,1.38-1.31.39-2.6.81-3.98.84-.12,0-.24.06-.36.08-.66.12-1.17.66-1.15,1.26.03.74.08,1.48.14,2.22.03.43.39.71.71.57.46-.19.91-.39,1.37-.58.71-.3,1.23-.78,1.58-1.49.16-.31.48-.54.75-.8.09-.08.21-.17.32-.18.61-.05,1.22.13,1.84-.06.47-.14.97-.21,1.46-.24,1.3-.07,2.43.42,3.42,1.23.49.4.74.99.84,1.61.27,1.64.25,1.65,1.11,2.6.08.09.17.18.24.28.22.3.35.63.3,1.03-.09.61-.16,1.23-.22,1.84-.04.33.22.69.61.83.35.13.71.23,1.06.35.51.17.84.54,1.04,1,.2.45.36.93.42,1.42.14,1.23.22,2.47.3,3.7.12,1.65-.22,3.2-1.11,4.61-.27.42-.55.83-.82,1.24-1.14,1.69-2.68,2.51-4.75,2.24-.36-.05-.74-.04-1.1-.04-.28,0-.46.15-.59.37-.33.53-.56,1.1-.69,1.71-.1.48-.19.98-.38,1.43-.31.7-.78,1.27-1.63,1.33-1.48.1-2.97.21-4.45.26-1.37.05-2.73-.11-3.98-.73-3.21-.85-5.78-2.78-8.2-4.94-.57-.5-.87-1.18-1.01-1.94-.06-.36.18-.65.63-.72.38-.06.76-.03,1.08.16.74.45,1.46.94,2.17,1.42.72.49,1.41,1.02,2.13,1.5.41.28.83.55,1.28.75,1.26.54,2.57.92,3.9,1.19.23.05.52.04.72-.07,1.03-.51,2.13-.62,3.25-.71.27-.02.46-.18.59-.4.43-.75.85-1.51,1.3-2.25.24-.4.07-.73-.15-1.01-.59-.79-1.33-1.47-1.76-2.39-.28-.6-.8-.92-1.41-1.11-.6-.19-1.17-.45-1.56-.95-.69-.89-1.64-1.51-2.41-2.31-.36-.37-.61-.79-.63-1.3-.06-1.36-.12-2.72-.14-4.09-.02-.99-.07-1.97-.26-2.96-.21-1.1-.17-2.23.15-3.32.3-1,.21-1.95-.16-2.91-.33-.86-.22-1.7.22-2.51.12-.22.2-.46.35-.66.15-.19.33-.41.54-.49.93-.34,1.85-.74,2.84-.85,1.61-.19,3.15-.62,4.64-1.25.92-.39,1.88-.62,2.88-.68.87-.05,1.7-.31,2.5-.67.74-.32.89-.87.34-1.38-.18-.17-.36-.34-.55-.5-.3-.25-.66-.34-1.04-.28-.24.04-.49.1-.71.2-.34.15-.66.34-.99.52-.45.24-.94.34-1.44.29-.87-.09-1.71-.19-2.44.45-.17.15-.45.21-.69.26-.48.11-.98.18-1.46.28-3.43.74-3.42.76-6.59,2.39-.77.39-1.04,1.01-1.06,1.8-.02.74-.04,1.49.02,2.23.08.99.15,1.99.38,2.95.31,1.34.5,2.68.55,4.05.07,1.75.44,3.45.97,5.1.49,1.54.82,3.11,1.13,4.69.1.49.09,1.01.26,1.46.6,1.59.34,3.18.12,4.77-.03.23-.19.45-.31.67-.24.42-.85.58-1.3.35-.22-.12-.45-.22-.64-.37-.58-.47-1.14-1-1.14-1.82,0-1.14-.48-2.17-.63-3.27-.16-1.1-.24-2.21-.53-3.3-.25-.96-.37-1.94-.81-2.85-.33-.68-.22-1.47-.41-2.18-.42-1.58-.6-3.16-.32-4.91ZM59.83,38.77c-.12.01-.26-.01-.35.04-.89.53-1.53,1.29-1.82,2.27-.32,1.08-.37,2.22.01,3.3.49,1.38,1.43,2.29,2.92,2.56.52.09.98-.05,1.42-.3.72-.42.99-1.18.67-1.88-.15-.34-.37-.65-.49-.99-.27-.75-.17-1.47.34-2.1.23-.29.51-.54.76-.81.46-.51.51-1.09.29-1.72-.11-.3-.28-.42-.55-.31-.94.36-1.88.67-2.83,0-.09-.06-.24-.04-.36-.06ZM51.64,36.22h.07c0,.49-.02.99,0,1.48.02.38.18.71.43.99.32.37.66.73.96,1.12.22.28.37.33.53.09.06-.1.13-.21.15-.32.06-.37.04-.73-.17-1.07-.27-.43-.35-.92-.34-1.42.01-.37.11-.73.11-1.1,0-.51-.2-.95-.64-1.25-.22-.16-.44-.21-.68-.16-.25.06-.4.23-.41.52-.01.37,0,.74,0,1.11ZM56.07,31.46c-.07-.06-.17-.22-.25-.21-.4.05-.59.39-.79.69-.16.23-.13.47.06.62.19.15.42.1.62-.09.26-.27.38-.59.36-1Z"/>
  <path class="cls-1" d="M70.58,140.43c.97-.11,1.46-.16,1.95-.24.08-.01.15-.18.21-.28.06-.11.13-.22.14-.34.04-.49.06-.99.07-1.49.03-1.12.23-2.22.33-3.32.09-.97-.13-1.97-.18-2.96-.02-.37,0-.77.14-1.1.41-.93.45-1.92.54-2.9.06-.61.7-1.02,1.34-.98.98.06,1.61.61,2.02,1.42.34.66.69,1.35.83,2.06.21,1.11.72,2.11.95,3.2.06.26.19.46.45.54.03.01.16-.17.19-.28.32-1.07.33-2.19.7-3.26.23-.69.2-1.47.26-2.21.04-.49.04-.99.07-1.48.04-.68,1.34-1.43,2.04-1.16.21.08.43.27.52.47.32.69.21,1.46.34,2.19.02.12.09.31.15.32.27.03.42-.14.55-.38.69-1.31,1.29-2.68,2.23-3.85.44-.55,1.28-.84,1.99-.65.87.23,1.59.66,2.1,1.42.33.49.28,1.35-.15,1.71-.38.32-.79.59-1.17.91-.18.15-.39.34-.46.55-.55,1.52-.96,3.07-.91,4.72.03.99-.12,1.98.25,2.94.1.26.28.4.57.32.83-.22,1.66-.46,2.48-.71.08-.02.13-.19.17-.29.21-.6.14-1.23.17-1.84.06-1.24.07-2.48.16-3.72.07-.86.24-1.71.57-2.53.38-.94.9-1.76,1.69-2.4.86-.71,1.73-1.41,2.77-1.86.48-.21.95-.24,1.43-.02.23.1.47.16.69.27.22.11.48.2.62.38.98,1.28,1.94,2.58,2.41,4.15.14.47.25.96.3,1.45.27,2.63-.04,5.2-.95,7.68-.08.23-.2.45-.32.67-.61,1.17-1.77,1.81-3.06,1.71-1.12-.09-2.26-.2-3.24-.74-1.11-.61-1.86-.25-2.62.57-.42.46-.98.76-1.56.98-.72.28-1.45.29-2.18.02-1.19-.44-2.18-1.18-3.02-2.1-.31-.34-.42-.88-.64-1.31-.12-.24-.32-.38-.56-.41-.11-.01-.32.02-.33.07-.3,1.09-.17,2.22-.31,3.32-.09.74-.17,1.48-.29,2.21-.04.24-.17.46-.28.68-.27.54-1.05.83-1.58.56-.9-.45-1.69-1.05-2.2-1.93-.44-.75-.89-1.49-1.56-2.06-.08-.07-.23-.09-.35-.08-.09,0-.22.08-.26.15-.48,1.15-.34,2.46-.92,3.58-.12.23-.28.39-.55.44-.12.02-.25.07-.36.05-1.14-.15-2.21-.04-3.15.73-.9.73-2.05.86-3.11,1.18-.79.24-1.49-.11-2.06-.58-.56-.47-.98-1.11-1.23-1.82-.08-.23-.12-.49-.1-.73.46-4.2.33-8.41.25-12.62-.02-.99-.03-1.98-.02-2.97,0-.8.8-1.63,1.64-1.78,1.37-.23,2.71-.17,4.05.19.77.46,1.38,1.05,1.48,2,.03.3-.09.48-.32.57-.73.28-1.47.05-2.21.09-.3.02-.76.41-.79.67-.17,1.6-.32,3.2-.24,4.81.02.52.29.94.78,1.17.22.11.45.21.68.31.61.26.92.79,1.21,1.34.21.39.03,1.09-.43,1.25-.46.16-.94.3-1.42.4-.43.09-.63.39-.72.74-.15.6-.2,1.22-.1,1.84.06.34.38.56.77.48.36-.07.72-.15.62-.13ZM95.03,132.29c-.03.87-.02,1.74.18,2.59.06.25.62.64.87.56.48-.15.93-.39,1.16-.86.9-1.83,1.21-3.76.91-5.78-.04-.24-.14-.47-.24-.69-.26-.58-1.13-.75-1.56-.33-.45.44-.82.95-.93,1.57-.18.97-.26,1.96-.39,2.95Z"/>
  <path class="cls-1" d="M45.36,137.34s-.04-.5-.07-.99c-.07-1.62.1-3.22.48-4.79.14-.6.31-1.21.35-1.82.11-1.74.63-3.41.81-5.13.04-.39.32-.66.61-.9.31-.26.7-.28,1.05-.17.35.11.69.3.97.53.38.31.73.69.83,1.2.36,1.95.91,3.85,1.13,5.84.16,1.47.52,2.91.81,4.37.02.09.13.16.2.24.09-.09.23-.15.26-.26.52-1.66.8-3.36.86-5.1.03-.74.03-1.49.03-2.23,0-.7.44-1.12.95-1.5.38-.28.98-.23,1.38.07.61.46,1.09,1,1.31,1.75.11.35.18.74.5.97.2.14.51.15.65-.02.61-.79.99-1.71,1.18-2.69.05-.24.06-.49.11-.73.15-.63.67-1.05,1.29-1.14,1.45-.23,2.23.71,2.47,1.7.12.48.19.98.21,1.47.09,2.1.17,4.21.23,6.31.05,1.61.08,3.22.1,4.83.01.87.16,1.72.38,2.56.17.66-.52,1.5-1.24,1.55-.36.02-.74,0-1.1-.07-.37-.08-.68-.29-.84-.66-.3-.68-.51-1.39-.6-2.13-.19-1.72-.17-3.46-.52-5.17-.06-.29-.29-.42-.5-.37-.6.15-1.2.31-1.79.47-.29.07-.67.48-.69.76-.04.62-.11,1.24-.08,1.85.05.99.19,1.97.25,2.96.04.62.02,1.24-.03,1.85-.04.5-.26.94-.77,1.17-.49.22-.97.14-1.42-.08-.21-.11-.39-.31-.54-.5-.32-.42-.7-.7-1.24-.67-1.08.06-1.91-.39-2.6-1.19-.16-.19-.35-.34-.54-.5-.21-.18-.87-.04-.99.21-.32.67-.63,1.35-.98,2-.11.2-.33.36-.54.49-.41.26-1.03.15-1.36-.17-.56-.54-.95-1.17-.98-1.94-.04-1.24-.01-2.48-.01-4.21Z"/>
  <path class="cls-1" d="M26.01,132.08c-.21-1.19-.19-2.3-.12-3.41.01-.24.09-.48.18-.71.19-.49.58-.81,1.07-.91.35-.08.74,0,1.11-.02.37-.02.73-.1,1.03-.33.2-.15.4-.29.59-.45.68-.62,1.52-.78,2.4-.8.37,0,.73.06,1.1.11.28.04.7.52.67.79-.03.24-.08.49-.2.69-.12.2-.32.37-.51.52-1.09.81-2.23,1.54-3.21,2.49-.69.67-.81,1.48-.51,2.38.1.3.56.63.83.63.88,0,1.68-.38,2.53-.5.37-.05.71.16,1,.39.37.3.46,1,.21,1.33-1.06,1.39-2.37,2.49-3.85,3.41-.18.11-.33.4-.34.61-.05.86-.06,1.72-.03,2.58.04,1.48.13,2.95.18,4.43,0,.24-.09.48-.14.72-.13.63-.85.92-1.44.59-.32-.18-.66-.38-.79-.74-.21-.58-.39-1.17-.52-1.76-.14-.6-.28-1.21-.28-1.82-.01-2.85-.86-5.6-.87-8.45,0-.62-.05-1.23-.07-1.76Z"/>
  <path class="cls-1" d="M36.44,135.97c.05-2.06.11-4.9.19-7.75.02-.78.69-1.34,1.49-1.31.72.03,1.47.57,1.69,1.23.08.23.17.47.2.71.05.49.12.99.09,1.48-.2,3.59.06,7.17.02,10.75,0,.37.02.74.03,1.11,0,.26.46.74.74.74,1-.02,1.97.05,2.9.48.36.17.57.44.75.78.13.25.14.48-.02.71-.14.2-.26.42-.44.58-.18.17-.4.3-.62.4-1.48.67-3.01,1.09-4.64,1.21-1.42.11-2.49-.89-2.42-2.18.15-2.72.22-5.44.03-8.94Z"/>
  <path class="cls-1" d="M29.6,40.9c.03-.27.06-.51.1-.76.07-.45.6-.94,1.01-.91.74.05,1.47.11,2.21.19.35.04.67-.21.72-.66.05-.49.06-.98.13-1.47.07-.55.76-1.01,1.38-.99.52.02.96.23,1.32.58.45.44.78.96.94,1.57.64,2.39.96,4.84,1.28,7.28.07.5-.17.97-.44,1.39-.38.58-1.54.57-1.93,0-.56-.82-1.01-1.68-1.1-2.71-.05-.55-.31-.72-1.02-.82-.4-.06-.8.23-.77.58.04.49.05.99.14,1.47.12.6.32,1.19.5,1.78.08.27.03.5-.25.61-.21.08-.46.1-.7.11-.11,0-.26-.04-.35-.12-.47-.4-.93-.8-1.38-1.23-.17-.17-.35-.37-.42-.59-.47-1.4-.93-2.81-1.34-4.23-.1-.34-.01-.73-.01-1.08Z"/>
  <path class="cls-1" d="M102.28,15.34c-.08.52-.12,1.01-.25,1.48-.26,1.01-.84,1.73-1.89,2.05-.6.18-1.19.29-1.81.21-.62-.08-1.2-.27-1.63-.76-.4-.46-.81-.92-1.18-1.41-.65-.85-.81-1.76-.27-2.74.47-.86.94-1.72,1.42-2.57.44-.76,1.62-1.2,2.59-.85,1.33.49,2.18,1.52,2.74,2.79.05.11.07.24.08.36.06.48.12.97.18,1.43Z"/>
  <path class="cls-1" d="M19.42,13.62c.2.02.69.04,1.18.12.36.06.7.18.94.51.52.68,1.09,1.33,1.61,2.01.23.3.32.67.27,1.04-.08.61-.19,1.22-.3,1.82-.17.88-.66,1.58-1.36,2.13-.61.48-1.32.67-2.07.6-.35-.03-.72-.19-1.01-.39-.63-.42-1.06-1.04-1.33-1.73-.22-.57-.37-1.18-.49-1.78-.07-.35-.08-.74-.03-1.09.13-.85.31-1.69.46-2.54.07-.37.41-.7.73-.7.37,0,.74,0,1.4,0Z"/>
  <path class="cls-1" d="M57.89,58.38h-.28c.12.26.18.23.16-.09,0,0,.11.09.11.09Z"/>
  <path class="cls-1" d="M141.41,72.71c-.06.45-.09.69-.12.94-.07.48-.45.83-1.01.94-.4.08-.74-.07-1.01-.32-.62-.61-1.1-1.34-1.39-2.16-.33-.93-.62-1.87-.92-2.81-.09-.29-.57-.6-.87-.55-.36.06-.72.18-1.08.23-.23.03-.49,0-.72-.06-.63-.18-1.09-.62-1.35-1.18-.31-.67-.48-1.41-.4-2.16.04-.37.25-.7.63-.84.34-.12.7-.27,1.05-.29,1.38-.07,2.71.2,3.97.75,1.46.64,2.36,1.75,2.66,3.32.16.85.31,1.7.42,2.55.08.61.1,1.23.14,1.64Z"/>
  <path class="cls-1" d="M134.73,77.4c.04,1.69-.14,2.65-.52,3.59-.45,1.11-1.26,1.82-2.31,2.29-.21.09-.5.11-.72.05-1.9-.52-2.84-1.86-3.17-3.72-.13-.74-.08-1.48.02-2.22.09-.63.32-1.19.79-1.64.27-.26.52-.54.82-.76.3-.22.66-.38,1.04-.35.74.05,1.48.1,2.21.2.74.1,1.59,1.02,1.71,1.78.04.24.1.49.12.73.02.25,0,.5,0,.05Z"/>
  <path class="cls-1" d="M49.17,62.04l-.24.07s.19-.12.19-.13c0,0,.06.06.06.06Z"/>
  <path class="cls-1" d="M44.26,104.52c-.07.02-.14.03-.21.05.17.16.2.12.1-.12,0,0,.11.07.11.07Z"/>
</svg>