<?xml version="1.0" encoding="UTF-8"?>
<svg id="Capa_1" data-name="Capa 1" xmlns="http://www.w3.org/2000/svg" viewBox="0 0 614.59 614.59">
  <defs>
    <style>
      .cls-1 {
        fill: #102318;
      }
    </style>
  </defs>
  <path class="cls-1" d="M394.38,576.41c1.19,9.49,2.12,16.71,2.97,23.93.1.87-.16,1.78-.25,2.67-.1.92-1.69,2.71-2.56,2.95-4.16,1.11-8.09.74-11.82-1.56-1.27-.78-2-1.87-2.3-3.18-.3-1.31-.24-2.7-.36-4.06-.32-3.62-.27-7.33-1.05-10.85-1.1-4.95-1.49-9.9-1.35-14.92.17-5.95-.33-11.8-1.66-17.63-.81-3.53-1.09-7.2-1.43-10.82-.12-1.32.09-2.76.52-4.01.43-1.25,1.25-2.35,2.75-2.74,3.21-.83,6.3-.49,9.32.78,1.75.74,3.2,1.96,3.64,3.79.96,3.98,1.73,8,2.49,12.02.84,4.49.96,9.05.98,13.61.02,4.1.09,8.19.11,10.01Z"/>
  <path class="cls-1" d="M211.49,596.68c0,.17.31-2.14.04-4.39-.81-6.85-.37-13.73-.67-20.58-.4-9.18,1.18-18.26,2.1-27.37.28-2.76,1.5-5.3,2.94-7.64.7-1.14,2.03-2.01,3.44-1.96,2.73.08,5.47.39,7.99,1.59.82.39,1.42,1.11,1.53,2.1.14,1.35.39,2.78.1,4.07-3.02,13.57-2.38,27.34-2.22,41.07.03,2.74.28,5.5.76,8.19.68,3.79-.12,7.29-1.53,10.72-.52,1.26-1.09,2.52-1.87,3.63-.49.7-1.32,1.41-2.12,1.6-3.2.77-6.32.29-9.32-1.03-.77-.34-2.04-2.57-1.95-3.46.14-1.36.32-2.73.77-6.53Z"/>
  <path class="cls-1" d="M322.86,271.43c.24-.09.7-.24.69-.27-.25-.96-.59-1-.98-.1,0,.02.29.37.29.37Z"/>
  <path class="cls-1" d="M320.13,275.43c.31-1.74,1.87-2.62,2.73-3.99,0-.02-.29-.37-.29-.39-.89,1.34-1.78,2.7-2.66,4.07,0,.01.22.32.22.32Z"/>
  <path class="cls-1" d="M268.98,372.72c-.1-.9-.26-1.8-.28-2.7-.02-1.5.94-2.51,2-3.37,2.4-1.93,6.59-1.92,8.7.43,1.55,1.73,2.91,3.53,3.47,5.78.44,1.76.64,3.58.94,5.37.39,2.34,1.57,4.26,3.21,5.89,1.29,1.28,2.69,2.44,4.07,3.63,3.36,2.92,7.29,3.52,11.52,2.7.88-.17,1.85-.39,2.55-.91,2.93-2.18,5.6-4.59,7.14-8.07.92-2.09,1.7-4.19,2.36-6.38.82-2.77,3-4.57,5.33-5.99,1.56-.96,3.44-.98,5.28-.42,1.85.56,3.27,1.82,4.17,3.33,1.4,2.36,2.35,5.1,2.12,7.81-.3,3.6-1.06,7.19-2,10.68-.45,1.68-1.53,3.38-2.77,4.63-2.88,2.9-5.96,5.62-9.1,8.26-3.59,3.01-7.96,4.33-12.47,5.2-.87.17-1.82.09-2.71-.04-4.54-.66-8.97-1.62-12.61-4.72-.69-.59-1.41-1.19-2.21-1.6-6.72-3.47-11.29-9.03-15.2-15.3-2.47-3.96-4.1-8.08-3.35-12.86.07-.43-.1-.9-.16-1.35Z"/>
  <path class="cls-1" d="M335.5,318.65c-.34-1.78-.7-3.56-1.01-5.34-.17-.96.32-1.69.9-2.49,1.44-1.96,3.34-3.02,5.69-3.43,3.23-.56,6.42-.27,9.49.71,2.26.72,3.87,2.5,4.66,4.73,1.61,4.53,1.1,9.04-.82,13.34-.54,1.2-1.55,2.32-2.6,3.14-1.8,1.4-3.87,2.48-6.14,2.9-1.83.33-3.64.05-5.12-1.26-2.11-1.86-3.67-4.04-4.05-6.92-.24-1.81-.51-3.62-.76-5.43-.07.01-.15.03-.22.04Z"/>
  <path class="cls-1" d="M269.07,313.94c-.38,3.18-.97,6.33-2.99,8.92-.81,1.05-1.93,1.92-3.06,2.62-.71.45-1.79.77-2.57.58-5.08-1.23-9.1-3.91-11.62-8.67-1.61-3.03-1.84-6.03-.42-9.13,1.35-2.94,3.28-5.4,6.02-7.23,1.67-1.12,3.51-1.25,5.2-.63,2.56.95,4.72,2.68,6.74,4.54.33.3.59.7.79,1.11,1.24,2.48,1.64,5.17,1.91,7.89Z"/>
  <path class="cls-1" d="M446.83,595.03c-.65-1.63-.61-3.6-.62-5.42,0-5.95-.07-11.91.23-17.85.37-7.36-.28-14.61-1.26-21.89-1.29-9.55-3.73-18.84-5.58-28.26-1.81-3.79-1.4-8.09-2.85-11.99-2.39-6.44-4.92-12.79-8.58-18.66-4.6-7.38-9.52-14.51-14.95-21.34-3.46-4.35-7.31-8.21-11.52-11.72-3.51-2.92-7.3-5.52-11.02-8.18-4.13-2.95-8.67-5.31-13.48-6.66-7.92-2.22-15.88-4.4-24.01-5.84-2.24-.4-4.58.09-6.75-.89-.89-.4-1.43-1.02-1.46-2.08-.04-1.42.4-2.52,1.63-3.45,2.24-1.71,5.07-2.13,7.34-3.68,2.65-1.8,5.24-3.69,7.88-5.5.75-.51,1.57-.93,2.39-1.34,2.48-1.25,4.59-3.01,6.65-4.83,5.16-4.56,9.81-9.6,13.81-15.21,1.59-2.24,3.16-4.49,4.79-6.69.54-.73,1.21-1.41,1.95-1.92.73-.5,1.6-.94,2.46-1.07,2.28-.34,4.59-.25,6.78.55,2.75,1.01,5.38.47,8.07-.23,4.53-1.18,8.48-3.32,11.9-6.53,3.7-3.48,6.98-7.23,8.94-12.02,1.04-2.54,2.33-4.97,3.61-7.4,1.32-2.49,1.98-5.11,2-7.9.02-3.21.13-6.42,0-9.61-.09-2.28-.24-4.62-.84-6.8-2.06-7.49-3.8-15.11-7.67-21.98-1.42-2.52-1.77-5.23-.97-7.96,2.22-7.56,2.81-15.25,2.56-23.1-.16-5.01-.16-10.03,1.37-14.95.52-1.66.54-3.75.04-5.42-1.84-6.17-2.92-12.47-3.99-18.79-1.22-7.21-3.76-14.13-4.95-21.37-.29-1.75-1.28-3.43-2.14-5.03-1.75-3.21-3.89-6.23-5.4-9.55-2.49-5.48-5.93-10.28-9.66-14.93-4.01-5.01-8.2-9.83-13.11-14.02-2.78-2.37-5.22-5.13-7.88-7.65-1.32-1.26-2.68-2.53-4.2-3.52-4.98-3.23-9.98-6.45-15.1-9.45-3.55-2.08-7.2-4.06-11.01-5.57-3.83-1.52-7.63-3.05-11.24-5.05-.78-.43-1.72-.7-2.61-.78-3.24-.28-6.16-1.56-9.2-2.56-4.33-1.44-8.83-2.38-13.29-3.41-1.31-.3-2.74-.42-4.07-.24-3.61.47-7.35.32-10.76,1.92-2.64,1.24-5.36,1.15-8.02.19-2.7-.97-5.28-.96-8.04-.15-2.17.64-4.49.82-6.77,1.01-2.74.23-5.49.33-8.23.36-4.16.05-8.13.79-12.09,2.15-4.32,1.49-8.85,2.34-13.22,3.68-5.69,1.74-11.42,3.49-16.41,6.85-6.07,4.09-12.07,8.3-17.94,12.68-2.54,1.9-4.65,4.37-7.01,6.51-5.46,4.96-10,10.68-14.1,16.78-.76,1.13-1.45,2.33-2.07,3.55-3.94,7.78-6.51,16.1-9.55,24.24-1.66,8.53-3.93,16.98-4.24,25.7-.31,8.68-1.06,17.34-1.1,26.03,0,1.81.21,3.64.49,5.44.98,6.34,2.62,12.55,4.23,18.75.84,3.24.85,6.29-.59,9.35-3.55,7.51-5.31,15.57-6.93,23.64-1.3,6.45-.55,12.86,2.01,18.86,2.34,5.47,5.57,10.49,9.74,14.83,2.25,2.34,4.8,4.23,7.72,5.64,2.06.99,4.14,1.96,6.21,2.92,4.2,1.95,8.53,3.26,13.23,3.03.45-.02.96.05,1.34.25.78.42,1.88.8,2.18,1.49,2.55,5.9,6.15,11.23,9.03,16.94,2.09,4.15,4.79,7.75,8.24,10.86,4.41,3.98,8.92,7.87,12.61,12.61,1.1,1.41,2.67,2.53,4.21,3.49,2.32,1.45,4.79,2.67,7.22,3.93,2.02,1.05,4.09,2.03,6.13,3.05,1,.5,1.27,1.28.82,2.33-.36.86-1.01,1.56-1.94,1.54-2.28-.05-4.55-.29-6.82-.45-4.44,1.38-9.08.9-13.61,1.42-2.74.31-5.37.99-8,1.83-6.25,2-11.35,5.84-16.26,9.92-3.51,2.92-6.56,6.38-9.87,9.55-3.68,3.51-6.56,7.6-9.16,11.94-3.99,6.67-7.48,13.63-11.49,20.3-2.35,3.91-3.92,8.26-5.11,12.7-1.65,6.19-3.3,12.37-4.95,18.56-.47,1.77-1.1,3.51-1.37,5.31-1.8,12.24-3.5,24.49-2.84,36.92.1,1.83.08,3.66.13,5.49.18,6.88-.04,13.73-1.1,20.55-.42,2.7-.6,5.47-.6,8.2,0,4.26,1.37,8.06,4.28,11.29.95,1.05,1.93,2.02,3.22,2.47,3,1.04,6.05,1.94,9.1,2.82.38.11.92-.11,1.32-.29,2.62-1.19,4.15-3.95,3.72-6.67-.79-4.97-1.54-9.95-2.38-14.91-.69-4.08-1.21-8.15-.8-12.3.13-1.36.04-2.74-.04-4.11-.57-10.08-.38-20.12,1.37-30.1.39-2.25.43-4.56.72-6.83.29-2.27.54-4.56,1.1-6.77,1.83-7.08,3.67-14.17,5.75-21.18,1.44-4.83,3.34-9.54,6.25-13.7,3.68-5.28,6.73-10.89,9.54-16.66.79-1.62,1.9-3.16,3.13-4.48,3.43-3.69,6.98-7.26,10.52-10.84,3.24-3.28,7.09-5.77,11.01-8.16.77-.47,1.63-.9,2.5-1.11,7.59-1.8,15.21-3.4,23.09-2.37.81.11,2.68,1.79,2.84,2.73.33,1.87.24,3.7-1.29,5.02-1.02.88-2.28,1.48-3.38,2.27-.73.52-1.69,1.03-2,1.77-1.07,2.52-2.11,5.11-1.26,7.95,1.87,6.25,4.69,11.9,10.08,15.94,1.84,1.38,3.49,2.96,4.77,4.9,1.54,2.34,3.86,3.88,5.89,5.72.66.6,1.47,1.18,2.31,1.41,5.27,1.44,10.28,3.86,15.91,3.98,3.2.07,6.39.5,9.57.86,5.98.68,11.88.05,17.77-.91,1.34-.22,2.69-.6,3.94-1.12,10.26-4.27,19.5-9.95,26.9-18.49,4.01-4.63,6.4-9.96,8.31-15.61.45-1.33.07-2.77-.57-3.98-1.08-2.05-2.57-3.81-4.82-4.66-2.57-.96-5.16-1.88-7.79-2.66-1.15-.34-1.61-.8-1.34-1.97.19-.82.67-1.58,1.71-1.72,4.59-.63,9.11.33,13.65.83,1.36.15,2.76.33,4.03.8,6.02,2.19,12.01,4.46,17.99,6.76,2.6,1,4.81,2.69,6.77,4.61,3.26,3.21,6.52,6.44,9.55,9.86,3.34,3.76,6.85,7.43,9.32,11.84,3.35,5.98,6.48,12.07,9.63,18.16.63,1.21,1.12,2.54,1.36,3.88,1.38,7.66,3.98,15.01,5.4,22.68,2.43,13.13,3.27,26.32,3.15,39.62.08,8.24.11,16.47.29,24.71.03,1.32.52,2.71,1.1,3.93.79,1.64,1.8,3.19,2.86,4.68.51.72,1.3,1.29,2.07,1.76,2.87,1.77,7.96,1.07,10.15-1.42.58-.66,1.07-1.53,1.26-2.38.3-1.33.25-2.73.43-4.09.3-2.25.61-4.4-.3-6.7ZM401.67,365.9c2.1-5.42,3.06-9.8,3.63-14.34.95-7.64,2.26-15.24,3.45-22.85.07-.42.43-.79.55-1.21.47-1.72,3.06-2.35,4.37-.98.62.64,1.37,1.29,1.65,2.09.92,2.55,1.92,5.13,2.38,7.78.54,3.11.58,6.31.76,9.48.05.89-.05,1.83-.31,2.68-1.34,4.32-2.24,8.74-4.33,12.85-2.56,5.04-6.09,8.95-11.11,11.49-.99.5-1.82.22-2.24-.54-.21-.38-.55-.88-.46-1.22.63-2.16,1.37-4.28,1.68-5.24ZM202.12,360.38c-1.78-.21-3.68-.31-5.28-1.03-2.47-1.1-4.73-2.65-6.71-4.56-2.82-2.72-4.06-6.2-3.67-9.87.76-7.21,2.53-14.25,5.18-21.02.31-.79,1.07-1.43,1.72-2.03.3-.28.85-.42,1.27-.39.3.02.66.38.84.68.73,1.21.7,2.58.79,3.93.12,1.8-.07,3.75.56,5.37,2.16,5.53,2.9,11.4,4.31,17.1.66,2.66,1.54,5.18,2.61,7.68.34.79.23,1.77.33,2.66-.45.89-1.12,1.58-1.96,1.48ZM326.84,481.94c-.69.59-1.46,1.13-2.28,1.5-2.49,1.13-5.07,2.1-7.54,3.27-5.65,2.69-11.43,2.89-17.4,1.3-2.2-.59-4.48-.94-6.74-1.23-3.78-.48-6.92-2.31-9.87-4.51-1.5-1.12-2.4-2.75-2.36-4.7.07-2.74.32-5.48.33-8.22.01-4.58-.25-9.13-1.23-13.65-.98-4.47-1.58-9-1.41-13.61.07-1.92,1.7-3.3,3.66-2.86,2.68.6,5.34,1.23,6.68,1.53,9.01,1.91,16.73,2.35,24.52,1.38,4.08-.51,8.17-1,12.25-1.49,1.06-.13,2.42,1.2,2.5,2.5.13,2.28.31,4.57.33,6.85.08,8.69.18,17.37,1.45,26.01.35,2.36-1.1,4.37-2.91,5.92ZM342.88,411.37c-10.73,5.08-21.13,10.99-33,13.21-4.07.76-8.14,1.05-12.25.24-2.24-.44-4.49-.89-6.75-1.14-3.21-.35-6.26-1.17-9.32-2.2-6.93-2.34-13.95-4.45-20.95-6.56-2.24-.68-4.21-1.76-6.01-3.2-5.4-4.3-9.4-9.96-14.27-14.79-2.57-2.55-4.44-5.8-6.59-8.76-4.62-6.36-7.89-13.38-10.17-20.87-1.87-6.12-3.75-12.24-6.13-18.19-1.02-2.55-1.63-5.21-2.28-7.89-2.4-9.79-3.52-19.8-5.47-29.67-.62-3.14-1.15-6.3-1.64-9.47-.21-1.35-.51-2.79-.24-4.08,2.48-11.64,3.37-23.53,5.57-35.21.07-.35.43-.77.76-.92.94-.43,1.88-.25,2.52.57,1.68,2.15,3.3,4.36,4.94,6.54.28.37.67.69.81,1.1.3.85.68,1.75.64,2.61-.12,2.74-.32,5.46.1,8.2.52,3.41,2.25,5.91,5.17,7.66.93.56,3.06.54,3.89-.18,1.03-.89,1.98-1.87,2.99-2.78.68-.61,1.32-1.41,2.13-1.7,3.85-1.38,7.55-3.26,11.76-3.51,4.16-.25,8.21-.04,12.05,1.87,2.86,1.42,5.75,2.78,8.7,4.01,4.24,1.77,5.39.73,7.04-3.65,1.27-3.37.42-6.45-1.9-8.9-5.92-6.26-13.43-9.32-21.9-10.15-2.72-.27-5.46-.39-8.19-.62-1-.08-1.55-.83-1.25-1.95,1.77-6.66,5.08-12.68,8.08-18.82.44-.9,1.38-1.2,2.34-1.1.88.09,1.67.53,2.09,1.44,1.17,2.48,2.27,4.99,3.37,7.5,1.47,3.36,3.07,6.66,5.18,9.67,1.05,1.49,2.3,2.83,3.48,4.22,3.17,3.74,8.93,2.44,11.24.46,1.73-1.48,3.38-3.11,4.78-4.89,3.98-5.02,7.78-10.19,11.74-15.22.5-.63,1.55-.87,2.39-1.18.35-.13.9-.1,1.21.1.35.23.62.69.78,1.11,2.1,5.57,4.26,11.11,6.22,16.72,1.08,3.09,2.78,5.72,4.74,8.28,1.73,2.27,3.82,3.86,6.56,4.71.26.08.49.25.72.39,1.19-1.6,3.75-4.85,7.34-8.23,3.52-3.32,10.99-8.8,15.2-11.83.89-.89,1.75-1.8,2.64-2.68.56-.55,1.65-.56,2.7-.88.66,1.65,1.28,3.33,2.01,4.97.55,1.23,1.3,2.38,1.85,3.61.73,1.65,1.36,3.34,2.02,5.02.32.82.03,3.73-.42,3.89-.84.3-1.71.64-2.58.73-1.34.14-2.71.14-4.06.07-.37-.02-.73-.07-1.1-.1v.02s-11.15-.76-15.1.82c-3.38,1.35-8.17,5.13-9.49,6.21-.82,2.26-1.39,4.48.09,6.87.95,1.54,1.48,3.33,2.32,4.95.41.79,1.08,1.45,1.65,2.15.54.67,3.13.98,3.87.45.74-.54,1.51-1.06,2.15-1.71,2.39-2.44,5.41-3.48,8.68-3.56,4.57-.11,9.14.09,13.71.16,3.33.05,6.27,1.15,8.82,3.28.35.29.71.58,1.1.82,3.16,1.95,7.01,1.32,8.59-3.4,1.1-3.3.72-6.3-1.44-9.05-.63-.81-.57-1.65.2-2.45,1.25-1.32,2.44-2.73,3.81-3.91,1.69-1.45,3.98-.61,4.4,1.03,1.25,4.87,2.44,9.74,2.66,14.81.12,2.74.54,5.47.99,8.18.98,5.92,2.38,11.66,6.87,16.12.95.95,1.68,2.17,2.32,3.37.42.78.67,1.74.67,2.63,0,2.28.18,4.65-.35,6.83-1.18,4.92-1.86,9.88-2,14.92-.17,6.03-1.59,11.76-3.83,17.33-2.55,6.37-4.96,12.79-7.54,19.14-1.9,4.7-4.53,8.98-8,12.71-1.25,1.34-2.48,2.7-3.66,4.1-11.16,13.15-9.91,10.28-21.63,18.81-.37.27-.73.57-1.14.76Z"/>
</svg>