<?xml version="1.0" encoding="UTF-8"?>
<svg id="Capa_3" data-name="Capa 3" xmlns="http://www.w3.org/2000/svg" viewBox="0 0 200 200">
  <defs>
    <style>
      .cls-1 {
        fill: #72a888;
      }
    </style>
  </defs>
  <path class="cls-1" d="M132.22,44.06c0-.56-.04-.81,0-1.05.11-.48.25-.97.75-1.21.56-.26,1.13-.52,1.71-.72.82-.29,1.63-.6,2.48-.76,1.73-.34,3.22-1.24,4.82-1.89.33-.14.52-.5.59-.89.12-.74.13-1.47-.04-2.21-.3-1.32-.48-2.69-.89-3.98-.41-1.31-.43-2.69-.83-3.99-.26-.84-.25-1.71-.22-2.58.06-2.11.45-4.17.99-6.21.45-1.72,1.42-3.14,2.39-4.58.2-.3.49-.56.78-.79.77-.62,1.51-1.3,2.35-1.81.91-.55,1.44-1.31,1.81-2.26.27-.69.57-1.37.93-2.01.25-.44.72-.65,1.24-.72.51-.07.99.07,1.46.2.95.28,1.88.62,2.81.94,1.38.47,2.27,1.47,2.82,2.77.13.32.12.75.03,1.09-.13.47-.38.91-.59,1.36-.37.78-.75,1.56-.99,2.4-.14.49-.23.96-.07,1.45.15.47.28.96.48,1.41.63,1.4.7,2.87.59,4.37-.04.49-.1.99-.18,1.47-.29,1.74-.13,3.45.18,5.17.05.29.46.65.77.7.63.1,1.23.05,1.82-.21.34-.15.7-.26,1.01-.46,1.25-.81,2.65-1.33,3.93-2.08.32-.19.58-.45.88-.67.2-.15.4-.28.61-.42.22-.15.46-.21.7-.13.47.14.94.3,1.41.45.37.11.64.37.86.67.22.3.44.6.6.93.26.56.47,1.15.7,1.72,1.07,2.66,2.53,5.08,4.46,7.21.77.85,1.14,1.9,1.51,2.94.17.49-.11,1.41-.52,1.69-.82.55-1.71,1.05-2.35,1.81-1.94,2.32-4.47,3.44-7.39,3.85-.12.02-.24.09-.33.16-.09.07-.15.17-.21.26-.15.24-.15.51.07.69,1.89,1.58,3.76,3.21,6.13,4.08.95.57,1.9,1.15,2.85,1.73.1.06.21.15.28.24.83,1.08,1.67,2.15,2.46,3.25.21.29.29.68.37,1.04.21.97.22,1.97.22,2.96,0,1.03-.83,2.19-1.85,2.56-.35.12-.71.2-1.06.31-.35.11-.7.32-1.05.34-1.38.07-2.56.93-3.95.96-.73.25-1.47.15-2.2,0-.48-.11-.98-.18-1.44-.35-1.41-.5-2.87-.76-4.32-1.09-.24-.05-.49-.08-.73-.14-1.69-.44-3.3-1.03-4.64-2.21-.84-.74-1.74-1.4-2.55-2.16-.9-.84-1.78-1.72-2.41-2.81-.25-.43-.89-.6-1.29-.46-1.41.48-2.78,1.04-4,1.92-1.32.95-2.81,1.54-4.4,1.92-.72.17-1.42.41-2.15.57-.22.05-.51,0-.72-.11-1.15-.55-2.06-1.37-2.53-2.59-.62-1.62-1.25-3.23-1.84-4.86-.81-2.21-1.73-4.37-2.43-6.62-.11-.35-.32-.67-.44-1.02-.08-.23-.11-.48-.13-.73-.04-.37-.06-.74-.06-.8ZM161.32,44.72c0,.21-.01-.16,0-.53,0-.25.06-.49.08-.74.06-.61.66-1.06,1.32-1,.12.01.26-.01.36.04.33.17.65.36.96.56.44.29.91.31,1.42.2.49-.11.94-.28,1.38-.51,1.77-.94,3.19-2.33,4.67-3.64.37-.33.45-.94.18-1.35-.54-.83-1.14-1.62-1.63-2.48-.54-.97-.98-1.99-1.48-2.98-.11-.22-.3-.39-.44-.59-.29-.4-1.19-.64-1.7-.46-.23.08-.49.13-.69.27-1.44,1-2.99,1.74-4.67,2.22-.41.12-.7.78-.58,1.23.06.24.09.49.17.72.19.59.41,1.17.59,1.76.07.23.07.49.11.73.05.35-.37,1.02-.74,1.19-.88.4-1.65.17-2.19-.68-.07-.1-.08-.24-.15-.34-.46-.65-1.31-.77-1.94-.27-.48.38-.95.79-1.43,1.19-.97.81-2.07,1.35-3.3,1.62-.24.05-.49.09-.73.14-.24.05-.48.12-.72.18-.42.11-.76.75-.65,1.17.19.71.6,1.35.53,2.14-.04.46-.47.94-.95.93-.51-.02-.94-.2-1.29-.6-.58-.66-1.01-1.39-1.38-2.18-.25-.54-.46-.62-.83-.45-1.24.56-2.46,1.16-3.75,1.61-1.4.49-2.61,1.4-4.06,1.8-.24.07-.36.36-.34.61.03.49.03,1,.17,1.47.77,2.61,1.82,5.12,3,7.57.14.29.58.41.97.23.9-.4,1.84-.72,2.66-1.3,1.21-.86,2.47-1.65,3.71-2.46.53-.35,1.13-.5,1.76-.5.49,0,.99.03,1.48.1.64.09,1.22-.06,1.8-.3.34-.14.7-.22,1.08-.17.9.12,1.71-.15,2.46-.63,1.04-.66,2.09-1.31,3.14-1.97.53-.33.99-.74,1.4-1.21.26-.3.36-.65.37-1.02.01-.24-.05-.49-.13-1.32ZM144.93,25.83s.03,0,.05,0c0,.74-.01,1.48,0,2.22,0,.24.04.5.14.72,1.07,2.37,1.66,4.89,2.45,7.35.07.23.2.46.36.64.24.28.54.47.95.45.75-.03,1.47-.18,2.12-.57,1.16-.71,2.23-1.55,3.22-2.48.27-.26.38-.63.36-1.01-.02-.37,0-.75-.09-1.1-.25-.95-.53-1.9-.85-2.84-.36-1.07-.48-2.16-.51-3.28-.04-1.73.03-3.46.19-5.18.12-1.26-.03-2.46-.53-3.62-.47-1.08-.43-2.15,0-3.23.14-.34.28-.69.33-1.04.04-.28-.13-.48-.33-.49-.11-.01-.27.03-.35.11-.36.36-.5.83-.66,1.3-.16.48-.47.85-.92,1.11-.85.49-1.7,1-2.53,1.53-.31.2-.61.45-.82.74-.66.89-1.32,1.82-1.66,2.88-.49,1.52-1.04,3.05-.94,4.69.02.37,0,.74,0,1.11ZM171.6,58.57c0-.69-.01-1.19,0-1.68.02-.54-.17-.96-.66-1.21-1.66-.85-3.18-1.89-4.65-3.03-.58-.45-1.21-.86-1.87-1.19-.3-.15-.72-.06-1.08-.08-1.19.65-2.38,1.32-3.58,1.95-.99.52-2,.98-3.12,1.15-.11.02-.22.11-.32.18-.19.15-.34.4-.23.64.64,1.52,1.63,2.7,3.07,3.58,1.94,1.18,4.01,1.88,6.24,2.2.61.09,1.22.19,1.83.32.38.08.74.06,1.1-.03.72-.18,1.44-.38,2.14-.6.23-.07.43-.23.65-.35.24-.13.4-.32.42-.57.04-.49.05-.98.07-1.28Z"/>
  <polygon class="cls-1" points="70.48 160.1 70.62 160.17 70.56 160.02 70.48 160.1"/>
  <path class="cls-1" d="M82.27,40.22c-.07.5-.12,1.11-.26,1.7-.17.77-.67,1.28-1.41,1.56-.35.13-.7.24-1.07.12-.58-.18-1.17-.35-1.73-.6-.68-.3-1.25-.77-1.74-1.33-.24-.28-.45-.58-.66-.88-.96-1.37-1.25-2.91-1.1-4.54.04-.49.28-.96.75-1.2.54-.28,1.09-.58,1.67-.73,1.12-.29,2.13-.08,3.09.67,1.35,1.04,1.97,2.46,2.37,4.02.09.35.06.73.09,1.21Z"/>
  <path class="cls-1" d="M127.55,61.26c-.27-1.21-.51-2.43-.84-3.62-.2-.71-.52-1.39-1.09-1.92-.64-.59-1.23-1.21-1.75-1.92-.3-.41-.54-.82-.63-1.32-.39-2.08-.56-4.17-.27-6.28.15-1.1.22-2.22.33-3.33.16-1.49.12-2.97.05-4.46-.02-.37-.08-.75-.2-1.09-.24-.7-.53-1.39-.83-2.07-.15-.34-.38-.65-.73-.81-1-.49-2-.98-3.16-.99-.87,0-1.73-.13-2.6-.14-2.11-.02-4.21,0-6.32,0-.37,0-.74-.04-1.1-.12-1.08-.24-2.17-.49-3.24-.78-.5-.14-.96-.09-1.45.04-.72.18-1.46.29-2.18.43-.12.02-.25.04-.37.07-.76.2-1.35.64-1.65,1.36-.48,1.16-.69,2.38-.69,3.63,0,2.24-.26,4.46-.57,6.67-.03.24-.05.5-.13.73-.13.35-.31.65-.73.76-1.31.32-2.14,1.17-2.6,2.42-.26.7-.58,1.37-.88,2.05-.16.36-.18.73-.05,1.08.3.81.65,1.61.95,2.42.14.37.01.73-.2,1.05-.41.61-1.08,1.04-1.25,1.81-.27.23-.4.16-.39-.22,0-.12-.04-.24-.05-.37-.06-1.36-.15-2.73-.15-4.09,0-1.51-.57-2.92-.66-4.41-.01-.25-.06-.49-.07-.74-.07-1.37-.38-2.7-.77-4.01-.31-1.07-.58-2.15-.88-3.22-.52-1.91-1.12-3.81-1.84-5.65-.78-1.96-1.67-3.87-2.75-5.68-.19-.32-.38-.65-.48-1-.09-.35-.12-.74-.06-1.09.05-.36.22-.71.37-1.05.53-1.19.59-2.39.14-3.62-.22-.59-.35-1.19-.39-1.81-.08-1.16-.67-2.11-1.28-3.04-.48-.72-1.06-1.38-1.59-2.06-.85-1.09-1.86-1.96-3.06-2.67-1.28-.75-2.52-1.57-3.86-2.22-1.44-.7-5.22-2.13-7.6-2.97-.95-.34-1.95-.35-2.91-.61-2.18-.59-4.4-.75-6.49-.51-1.14.04-2.13.07-3.12.1-.87.03-1.73.14-2.57.39-.47.15-.95.28-1.44.36-1.73.29-3.32,1-4.9,1.7-.79.35-1.52.88-2.33,1.14-1.21.38-2.24,1.04-3.26,1.76-1.53,1.07-2.94,2.29-4.25,3.61-1.05,1.05-2.05,2.16-2.82,3.45-1.01,1.7-2.06,3.39-2.65,5.31-.18.59-.48,1.14-.71,1.72-.64,1.62-1.19,3.27-1.56,4.96-.66,3.03-1.01,6.11-1.14,9.22-.05,1.11.03,2.23.23,3.33.31,1.71.68,3.4.74,5.15,0,.24.05.5.13.73.5,1.4.76,2.88,1.47,4.2.58,1.09,1.13,2.2,1.71,3.3.35.66.75,1.28,1.25,1.84.65.74,1.19,1.6,1.89,2.29.61.6,1.39,1.03,2.08,1.56.3.22.57.48.85.72.86.72,1.8,1.32,2.81,1.8.56.26,1.1.56,1.62.9.94.61,1.97,1.06,3.04,1.39,2.13.66,4.22,1.44,6.41,1.91.62.13,1.1.56,1.32,1.19.36,1.05.74,2.07.74,3.23,0,1.48.34,2.94.04,4.44-.17.85.02,1.73.27,2.57.12.4-.07.75-.4.89-1.93.86-3.96,1.42-5.92,2.19-.33.13-.73.11-1.1.15-.38.05-.74-.06-1.05-.27-.41-.27-.77-.64-1.2-.88-1.63-.9-3.27-1.75-4.91-2.63-.65-.35-1.26-.82-1.95-1.06s-1.46-.23-2.19-.37c-.48-.09-.96-.25-1.43-.38-.24-.07-.46-.19-.7-.24-1.75-.4-3.44-.36-4.99.71-.41.28-.87.48-1.28.76-.41.28-.83.56-1.15.93-1.23,1.4-2.6,2.65-3.94,3.94-.75.72-.98,2.14-.21,3.07.71.86,1.51,1.64,2.18,2.53,1.35,1.79,2.91,3.38,4.63,4.81.3.25.45.58.36.98-.21.97-.43,1.93-.66,2.9-.11.49-.13.98-.05,1.48.05.37.12.74.12,1.11.04,3.23.25,6.44.69,9.64.17,1.22.15,2.47.19,3.71.04,1.24.02,2.48.06,3.72.06,1.73.13,3.47.22,5.2.02.49.09.99.17,1.48.28,1.84.44,3.68.31,5.55-.11,1.61,0,3.24.34,4.81.34,1.6.4,3.19.38,4.8-.02,1.36.04,2.72.41,4.06.16.59.18,1.22.22,1.84.1,1.61.17,3.22.28,4.83.06.86.14,1.73.26,2.59.18,1.23.38,2.45.61,3.66.25,1.34.53,2.68.83,4.01.14.6.33,1.2.58,1.76.35.79.69,1.6,1.18,2.3.42.6,1.05,1.04,1.58,1.56.27.26.5.55.78.8,1.4,1.24,2.9,2.3,4.73,2.85.94.28,1.82.78,2.73,1.16,2.06.84,1.9,1.3,2.04,3.09.09,1.12.04,2.23-.31,3.31-.11.35-.14.73-.14,1.1,0,.23.08.5.21.69.21.3.46.58.74.83.7.61,1.04,1.39,1.03,2.3-.03,2.23.25,4.45.25,6.68,0,.49.08.99.14,1.48.03.24.1.49.19.72.46,1.19,1.2,2.16,2.3,2.83.48.3,1.31.2,1.71-.23.26-.27.46-.59.52-.96.11-.62.05-1.24-.07-1.85-.6-3.18-.6-6.41-.9-9.62-.05-.53.21-.96.7-1.2,2.23-1.08,4.46-2.16,6.84-2.89,2.01-.62,4.02-1.24,5.94-2.12,1.01-.46,2.06-.84,3.11-1.23,1.16-.43,2.34-.8,3.5-1.23,1.04-.39,2.07-.82,3.11-1.23.23-.09.47-.18.71-.22,2.43-.49,4.75-1.4,7.2-1.85.61-.11,1.21-.26,1.83-.27,1.12-.02,2.23-.07,3.35-.06.74,0,1.5.02,2.22.18,1.35.31,2.7.35,4.06.36.99,0,1.98.07,2.97.15.36.03.71.17,1,.44.93.85,1.68,1.82,2.18,2.98.25.57.54,1.12.74,1.71.49,1.4,1.01,2.8,1.38,4.24.43,1.68.71,3.39,1.05,5.1.07.36.09.74.16,1.1.12.63.45,1.13.97,1.53.5.38,1.01.71,1.63.84.76.15,1.51-.42,1.55-1.19.02-.49.09-1.01-.02-1.48-.31-1.21-.5-2.43-.63-3.66-.05-.49-.12-.99-.28-1.45-.89-2.57-1.35-5.29-2.54-7.76-.22-.45-.29-.97-.17-1.45.15-.62.22-1.22.06-1.83-.33-1.33-.45-2.69-.57-4.05-.21-2.48-.8-4.89-1.37-7.3-.4-1.68-.9-3.34-1.12-5.07-.15-1.23-.45-2.44-.79-3.63-.73-2.63-1.13-5.33-1.92-7.94-.07-.23-.04-.49-.09-.74-.07-.39.02-.74.2-1.07.3-.54.59-1.1.97-1.58,1.1-1.37,1.9-2.89,2.46-4.55.27-.82.63-1.6.97-2.4.1-.24.35-.29.63-.26.51.06.93.32,1.32.62,1.79,1.42,3.82,2.23,6.08,2.57,2.58.39,3.33.63,5.72-1.61.27-.25.61-.46.8-.76,1.16-1.91,2.23-3.86,2.67-6.09.22-1.09.37-2.2.79-3.25.51-1.28.35-2.7.8-4,.16-.45.11-.98.16-1.47.16-1.85.04-3.72.53-5.54.06-.23.04-.49.05-.74.09-2.61.32-5.19.81-7.76.24-1.21.22-2.48.47-3.69.32-1.59.48-3.18.55-4.8.03-.62,0-1.27.18-1.85.39-1.21.18-2.46.36-3.68.06-.38,0-.74-.14-1.09-.28-.69-.55-1.38-.85-2.06-.27-.59-.33-1.19-.19-1.81.23-.96.54-1.91.71-2.89.17-.97.16-1.97.31-2.95.2-1.23.27-2.46.32-3.7.04-1.11.07-2.24.28-3.33.24-1.23.35-2.45.36-3.69.01-1.37.1-2.72.53-4.04.15-.47.16-.98.05-1.47ZM105.09,55.67c.11-.98.23-1.97.28-2.96.05-.99.09-1.98.04-2.97-.12-2.48-.05-4.95.26-7.41.08-.61.06-1.23.24-1.84.11-.4.61-.93,1.01-.99.37-.06.73-.15,1.1-.16,2.25-.11,4.46.12,6.6.82.34.11.63.39.74.78.03.12.11.23.13.35.48,2.32.62,4.66.41,7.02-.03.34-.23.67-.64.83-.34.13-.65.35-.94.58-.18.15-.36.36-.43.58-.32,1.07-.48,2.14-.27,3.28.27,1.46.54,2.92.94,4.35.3,1.07.52,2.17.88,3.22.35,1.05.05,1.95-.48,2.81-.1.17-.4.24-.63.32-.11.04-.24-.01-.37-.03-.12-.02-.25-.04-.36-.08-1.19-.48-2.41-.46-3.66-.32-1.11.13-2.22.18-3.33.23-.86.04-1.3-.41-1.32-1.37-.03-1.24,0-2.47,0-3.71,0,0,0,0,.01,0,0-.12,0-.25,0-.37.03-.99-.3-1.96-.19-2.96ZM96.8,58.63c.08-.38.33-.61.66-.78.31-.16.54.08.57.61,0,.12.02.24.02.36,0,.24,0,.48,0,.72h.03c0,.24.04.49-.01.72-.05.22-.16.44-.3.61-.11.14-.8-.24-.89-.48-.04-.11-.09-.22-.12-.34-.12-.48-.06-.95.04-1.42ZM88.73,69.82c.26-.42.6-.8.8-1.24.55-1.24,1.05-2.5,1.53-3.77.17-.46.25-.95.34-1.44.18-.98.44-1.93.94-2.79.03-.05.23-.07.28-.03.85.73,1.55,1.58,2.02,2.59.15.33.26.69.34,1.05.08.36.1.73.15,1.1.07.51.33.94.71,1.26.76.64,1.53,1.25,2.31,1.86.44.34.55.8.61,1.29.04.37,0,.74.04,1.11.05.51.26.94.72,1.22,1.38.84,2.84,1.48,4.45,1.77.18.03.45.34.45.52,0,.94.42,1.64,1.07,2.27.56.55.9,1.18.41,1.97-.29,1.33-.69,2.62-1.1,3.92-.18.59-.33,1.19-.48,1.79-.12.48-.24.96-.32,1.44-.11.61-.19,1.22-.28,1.83-.38,1.82-.82,3.61-1.4,5.37-.27.83-.43,1.67-.63,2.51-.17.72-.44,1.41-.63,2.13-.08.31-.64.53-.87.35-.19-.15-.43-.25-.62-.41-1.68-1.46-3.36-2.92-5.04-4.38-1.73-2.12-3.8-3.88-5.79-5.74-.99-.93-1.86-1.99-2.91-2.86-.38-.31-.72-.7-.96-1.12-.51-.87-1.26-1.52-1.88-2.28-1.11-1.36-2.63-2.24-3.83-3.49-.27-.28-.36-.63-.42-1-.05-.28,0-.54.25-.64,1.26-.49,2.51-1.02,3.8-1.41.97-.3,1.8-.8,2.58-1.42.68-.54,1.32-1.12,1.65-1.96.55-.48,1.29-.73,1.7-1.39ZM82.39,60.93c.03-.64.27-1.19.68-1.67.76-.89,1.71-1.37,3.01-1.41.23.07.59.15.93.27.29.11.57.64.51.9-.05.24-.06.5-.17.71-.27.56-.48,1.13-.52,1.75-.08,1.28-.71,2.33-1.42,3.35-.22.32-.59.36-.94.17-.79-.44-1.24-1.16-1.64-1.93-.35-.68-.48-1.39-.44-2.14ZM53.39,62.94c-.7-.52-1.36-1.07-2.21-1.33-.23-.07-.43-.24-.66-.34-1.65-.71-2.84-1.96-3.89-3.35-.22-.29-.4-.63-.54-.97-.72-1.75-1.08-3.55-.9-5.45.01-.12.02-.25.03-.37.08-1.18.59-2.14,1.5-2.88.29-.23.6-.43.9-.65,1.51-1.1,3.03-.84,4.55-.05.22.11.42.27.58.45.5.55.97,1.12,1.47,1.68.59.66,1.33,1.1,2.14,1.43.53.22,1.3-.1,1.57-.66.21-.46.32-.93.05-1.41-.12-.21-.2-.46-.33-.67-.21-.33-.33-.71-.23-1.06.35-1.2.38-2.44.53-3.67.17-1.36.1-2.72.01-4.08-.03-.53.21-.94.62-1.27.29-.23.59-.46.84-.73.33-.38.54-.84.54-1.35,0-.62,0-1.24-.06-1.85-.06-.61-.2-1.22-.29-1.83-.08-.51.39-1.04.85-.94.72.16,1.44.35,2.19.35,1.16,0,2.21-.28,3.11-1.02.67-.55,1.29-1.16,1.96-1.7.17-.14.48-.2.7-.16,1.21.24,2.41.54,3.62.8.74.16,1.48.1,2.21-.07.63-.14,1.15-.46,1.51-1,.28-.41.52-.84.79-1.26.2-.32.51-.37.94-.21.7.26,1.27.83,2.04.88,1.41.09,2.19.99,2.86,2.08.32.53.61,1.07.87,1.64.97,2.15,1.74,4.37,2.48,6.61.08.24.2.47.23.71.19,1.74.8,3.37,1.34,5.02.24.72.35,1.44.37,2.19.04,1.49.12,2.97.42,4.44.2.98-.06,1.96-.13,2.94-.02.28-.2.47-.49.46-.99-.02-1.97-.07-2.96-.12-1.41-.07-2.7.38-3.89,1.08-.86.51-1.57,1.2-2.04,2.11-.4.77-.72,1.58-.94,2.42-.13.49-.17.98-.03,1.47.27.95.5,1.92,1.06,2.76.14.21.25.43.38.64,1.08,1.74.49,1.69,2.98,3.16.1.06.16.18.26.26.2.17.2.76.04,1.03-.27.43-.61.79-1.04,1.04-.86.5-1.8.87-2.76,1.08-1.21.27-2.45.38-3.65-.17-.64-.29-1.2-.11-1.69.34-.2.18-.31.42-.24.65.19.58.42,1.16.62,1.74.08.24-.3.83-.56.87-.98.16-1.95.37-2.94.45-1.5.12-2.92.54-4.33,1.01-2,.67-3.94,1.48-5.87,2.32-.55.24-1.05,0-1.05-.52,0-.74,0-1.49,0-2.07-.15-1.4-.2-2.62.02-3.87.2-1.11-.05-2.23-.33-3.31-.19-.73-.61-1.36-1.13-1.9-.6-.62-1.29-1.17-1.84-1.83-.63-.78-1.35-1.43-2.15-2.03ZM76.65,81.65c-.08.09-.16.24-.26.26-1.45.31-2.91.56-4.38.66-1.37.1-2.69.4-4.01.75-.85.22-1.66.49-2.42.93-.97.56-2.02.93-3.11,1.18-.34.08-.77-.12-.9-.47-.13-.35-.26-.7-.37-1.05-.14-.47.11-1,.56-1.25.32-.18.63-.4.97-.55,1.13-.5,2.28-.98,3.42-1.45,2.56-1.07,5.23-1.48,8-1.23,1.09.1,1.85.63,2.37,1.54.11.19.09.45.13.68ZM47.99,88.1c.43-.17.92.02,1.1.45.03.07,2.85,6.89,4.24,13.95.7,3.53,1.79,11.03,2.72,17.63.17.65.33,1.31.35,1.99.02.62.08,1.23.3,1.82.36.98.41,1.98.29,3,.43,3.17.71,5.34.72,5.41.06.46-.26.88-.72.94-.04,0-.07,0-.11,0-.41,0-.77-.31-.83-.73-.01-.1-.58-4.43-1.33-9.87-.03-.18-.07-.37-.12-.55-.52-1.58-.6-3.2-.63-4.82-.13-.88-.25-1.77-.38-2.64-.13-.4-.18-.81-.18-1.22-.64-4.34-1.26-8.35-1.72-10.64-1.36-6.89-4.11-13.56-4.14-13.63-.18-.43.02-.92.45-1.09ZM31.82,82.66c-.18.05-.32.1-.42.12-.49.23-2.46,1.91-2.55,2.88-.11,1.19-.2.93.07,1.67,1.03.59,2.55,2.5,2.87,2.88.42.49.36,1.23-.14,1.65-.22.19-.49.28-.76.28-.33,0-.66-.14-.89-.41-.8-.94-1.92-2.11-2.35-2.37-1.36-.83-1.32-1.97-1.14-3.92.22-2.28,3.4-4.71,4.32-4.93.07-.02.17-.05.3-.09.83-.25,2.38-.72,3.71-.38,2.06.53,3.63,1.22,4.81,2.1,1.08.81,2.41,1.91,2.58,2.59.16.63-.22,1.27-.84,1.43-.15.04-.29.04-.43.02-.38.08-.84-.04-1.04-.33-.25-.37-.5-.73-.75-1.1-.26-.22-.55-.46-.92-.73-.93-.69-2.23-1.25-3.99-1.7-.69-.18-1.87.18-2.43.35ZM37.13,88.54c-.36.34-.73.65-1.23.73-.36.06-.71.11-1.03-.18-.55-.5-.97-1.08-1.31-1.74-.24-.48-.02-.91.57-1.08.12-.03.23-.05.35-.08.24.05.5.06.7.17.75.41,1.43.92,2,1.56.19.22.18.38-.06.6ZM99.97,160.75c.43,1.42.49,2.92.53,4.41.01.37-.06.73-.24,1.06-.14.25-.31.39-.58.36-.24-.02-.5,0-.73-.09-.95-.32-1.92-.46-2.92-.46-.99,0-1.98-.03-2.97-.03-1,0-1.98-.05-2.92-.41-.59-.22-1.21-.24-1.83-.22-1.36.05-2.72.1-4.08.16-2.01-.31-3.93.32-5.89.54-.84.09-1.65.49-2.48.72-1.67.46-3.33.93-4.93,1.59-.8.33-1.63.58-2.45.86-2.57.89-5.1,1.87-7.57,3.01-.45.21-.91.38-1.39.49-1.81.41-3.56,1.01-5.22,1.87-.55.29-1.15.43-1.78.47-.34.02-.68-.27-.72-.67-.03-.37-.06-.74-.09-1.16.05-.31.07-.69.19-1.03.07-.21.27-.41.46-.55.19-.15.43-.27.66-.32,2.67-.6,5.2-1.57,7.72-2.61,1.26-.52,2.55-.94,3.81-1.45,1.14-.47,2.26-.99,3.45-1.36,1.18-.38,2.22-1.07,3.22-1.8.61-.45,1.02-1.07,1.34-1.75.11-.23.32-.4.57-.38.75.07,1.47,0,2.19-.25.58-.21,1.18-.38,1.78-.54,1.22-.31,2.31-.85,3.28-1.66.67-.56,1.41-.98,2.21-1.35.67-.3,1.29-.74,1.9-1.15.82-.55,1.62-1.14,2.43-1.7,2.8-1.92,2.16-1.38,4.27-4.05,1.53-1.94,3.06-3.88,4.67-5.76.18-.21.48-.11.62.08.36.52.59,1.1.68,1.71.33,2.21.84,4.37,1.39,6.53.31,1.19.22,2.46.74,3.62.45,1.02.33,2.18.66,3.26ZM100.42,127.99c-.34.66-.78,1.24-.98,1.99-.32,1.2-.95,2.28-1.54,3.37-.53.98-1.15,1.9-1.61,2.93-.35.78-.95,1.45-1.47,2.13-.61.79-1.24,1.57-1.64,2.48-.51,1.15-1.31,2.1-2.06,3.08-.98,1.28-2,2.53-2.94,3.84-1.26,1.73-2.78,3.15-4.57,4.32-1.97,1.29-3.97,2.53-6.01,3.7-1.51.87-3.04,1.67-4.73,2.12-1.04.28-1.74.88-2.17,1.85-.04.09-.11.17-.17.25-1.14.73-2.39,1.23-3.66,1.68-3.39,1.2-6.77,2.38-10.09,3.78-1.37.58-2.76,1.11-4.24,1.37-1.07.57-2.14.4-3.23.02-.61-.21-1.22-.1-1.78.25-.11.06-.22.11-.33.17-.47.25-.96.28-1.43.08-1.25-.53-2.48-1.13-3.8-1.48-.12-.03-.24-.07-.35-.14-.21-.13-.43-.25-.62-.41-.65-.57-1.25-1.2-1.73-1.93-1.03-1.58-1.78-3.29-2.07-5.14-.39-2.45-.89-4.88-1.16-7.35-.23-2.1-.45-4.19-.51-6.3-.04-1.36-.13-2.72-.35-4.08-.31-1.96-.47-3.95-.45-5.93.02-3.23-.32-6.44-.52-9.66-.07-1.11-.13-2.23-.15-3.34-.05-2.73-.12-5.46-.15-8.19-.03-1.98-.22-3.95-.37-5.92-.17-2.22-.3-4.45-.24-6.69.04-1.26.18-2.45.59-3.64.29-.86.74-1.55,1.47-2.07.3-.22.6-.43.91-.65.31-.21.59-.47.93-.62,2.03-.95,3.8-2.33,5.78-3.36.29-.15.73.01.93.34.13.21.29.41.39.63.3.68.56,1.37.89,2.04.27.56.51,1.13.55,1.76.13,1.89.9,3.6,1.51,5.35.12.34.38.64.55.97.17.33.35.67.43,1.02.22,1.09.41,2.19.58,3.3.39,2.57.76,5.15,1.13,7.73.05.37.13.74.13,1.1-.01,3.62.81,7.13,1.48,10.66.07.36.24.72.25,1.08.08,2.13.69,4.15,1.22,6.18.12.48.19.97.3,1.46.13.62.46,1.14.82,1.65.7.98,1.69,1.41,2.85,1.51.23.02.51-.04.71-.16.84-.52,1.66-1.07,2.48-1.61.1-.07.2-.16.27-.26.13-.2.3-.41.34-.64.09-.61.19-1.23.16-1.84-.12-2.48-.14-4.96-.62-7.41-.19-.97-.13-1.99-.36-2.95-.44-1.81-.62-3.66-.93-5.5-.13-.73-.21-1.47-.32-2.21-.09-.61-.12-1.24-.27-1.84-.43-1.69-.64-3.4-.8-5.14-.14-1.47-.51-2.93-.88-4.37-.43-1.68-.74-3.39-1.22-5.06-.31-1.07-.51-2.16-.61-3.29-.25-2.89-1.17-5.56-2.81-7.96-.19-.27-.06-.73.26-.94.21-.13.41-.3.64-.36.48-.12.97-.23,1.46-.25.94-.03,1.69.36,2.1,1.24.37.78.77,1.56,1.06,2.37.5,1.4.91,2.83,1.54,4.18.16.33.24.7.32,1.07.83,3.62,1.78,7.23,2.44,10.88.74,4.02,1.66,8.01,2.15,12.08.25,2.08.57,4.17,1.04,6.23.38,1.69.58,3.42.86,5.13.12.73.21,1.48.4,2.19.19.73.31,1.46.36,2.2.09,1.24.43,2.44.56,3.67.13,1.23.14,2.48.23,3.71.03.49.04,1.02.22,1.46.38.94.27,1.96.63,2.89.09.23.23.44.33.67.15.35.2.71.14,1.09-.12.73-.27,1.46-.37,2.2-.12.82.26,1.45.89,1.92.49.37,1.07.63,1.56.99.39.29.71.69,1.07,1.02.47.43,1.05.65,1.66.8.63.15,1.25.08,1.8-.23.54-.3,1.06-.66,1.53-1.05,1.33-1.12,2.7-2.19,3.91-3.43,1.46-1.51,2.79-3.15,4.14-4.77,1.43-1.72,2.61-3.63,3.65-5.6.7-1.31,1.4-2.62,2.02-3.98.76-1.69,1.7-3.3,2.61-4.93.79-1.41,1.53-2.83,2.08-4.36.36-1,.87-.96,1.76-.44,1.19.7,2.11,1.73,3.13,2.62.22.19.26.44.14.66ZM121.74,89.27c-.39,1.95-.48,3.94-.69,5.91-.26,2.34-.64,4.66-.8,7.02-.02.25-.06.5-.13.73-.55,1.81-.58,3.67-.58,5.53,0,1.62-.2,3.21-.36,4.82-.41,4.09-1.6,8.01-2.61,11.96-.41,1.6-1.45,2.86-2.79,3.84-.19.14-.43.25-.67.31-1,.21-1.98.13-2.91-.27-.34-.14-.67-.33-.98-.53-1.87-1.21-3.76-2.4-5.6-3.66-.81-.56-1.55-1.24-2.28-1.91-1.75-1.59-3.61-3.01-5.76-4.04-.67-.32-1.27-.78-1.92-1.13-.78-.41-1.46-.92-2.12-1.5-1.39-1.23-2.8-2.45-4.2-3.68-.56-.49-1.1-.99-1.65-1.5-1.82-1.7-3.82-3.16-5.84-4.59-.3-.21-.63-.4-.95-.59-.63-.35-2.07-.3-2.61.72-.12.22-.25.44-.31.67-.1.37-.05.73.2,1.04.15.19.3.41.49.55.49.38.98.76,1.51,1.08,2.02,1.23,3.81,2.76,5.5,4.41.62.61,1.27,1.18,1.89,1.79.71.69,1.6,1.24,2.03,2.15.36.77.5,1.65.75,2.48.31,1.07.62,2.14.96,3.2.11.35.31.67.5.99.3.48.2,1.01,0,1.43-.81,1.67-1.67,3.32-2.55,4.95-.94,1.74-1.94,3.46-2.89,5.2-.54.98-1.08,1.95-1.91,2.73-.27.25-.44.59-.65.9-.84,1.23-1.78,2.37-2.85,3.42-.97.95-1.89,1.97-2.83,2.95-.69.72-1.41,1.39-2.29,1.88-.32.18-.85.09-.94-.21-.54-1.65-.95-3.33-.96-5.09,0-.74-.07-1.49-.21-2.22-.36-1.83-.49-3.7-.53-5.55-.05-2.13-.44-4.18-1.06-6.2-.11-.35-.27-.72-.27-1.08.02-1.63-.43-3.19-.7-4.77-.25-1.47-.3-2.96-.66-4.41-.12-.48-.14-.98-.18-1.47-.11-1.23.02-2.5-.37-3.69-.39-1.18-.42-2.44-.84-3.62-.46-1.28-.49-2.67-.81-4-.38-1.56-.48-3.17-.92-4.74-.43-1.55-.54-3.18-.91-4.74-.34-1.44-.57-2.92-1.15-4.3-.11-.25-.12-.47-.02-.71.19-.45.42-.91.53-1.38.32-1.37,1.28-2.13,2.53-2.45,1.2-.31,2.42-.61,3.54-1.1,1.98-.86,4-1.3,5.38-1.18,2,.03,3.24-.02,4.47.22,1.39.27,2.55.93,3.58,1.85,1.39,1.24,2.75,2.51,4.13,3.75,1.01.91,2.09,1.75,2.95,2.82.31.38.72.68,1.1,1,1.33,1.11,2.62,2.27,3.89,3.45,1.55,1.43,3.06,2.9,4.36,4.56.56.72,1.35,1.08,2.17,1.37,1.15.41,2.22-.07,2.87-1.11.13-.2.26-.44.29-.67.13-.99.33-1.96.69-2.89.18-.47.28-.93.33-1.43.1-1.11.2-2.21.53-3.3.28-.94.29-1.96.53-2.91.22-.84.51-1.65.68-2.51.26-1.34.61-2.66.75-4.02.05-.48.2-.97.38-1.43.23-.57.58-1.09.8-1.66.17-.45.21-.96.35-1.43.08-.27.32-.38.59-.34.36.06.75.08,1.08.22,2.53,1,5.06,2.01,7.56,3.09.57.25,1.13.57,1.46,1.11.51.86.85,1.79.96,2.79.04.37.06.75,0,1.11ZM122.32,64.87c.17.73.22,1.47.12,2.21-.02.12-.03.25-.05.37-.59,3.8-.65,7.64-.73,11.48,0,.25-.07.49-.09.74-.04.39-.29.67-.5.98-.18.26-.7.45-.97.35-1.29-.45-2.57-.89-3.85-1.34-.35-.12-.7-.25-1.02-.43-1.41-.78-2.9-1.39-4.37-2.04-.73-.33-1.01-1.03-.98-1.84.01-.26.09-.49.31-.65.61-.44,1.26-.77,2.05-.62.36.07.73.15,1.12.23.34.03.71.08,1.08.1.64.03,1.19.25,1.71.62.4.29.82.57,1.27.75.33.13.73.13,1.09.11.6-.03,1.1-.71,1.03-1.31-.03-.24-.03-.5-.11-.73-.3-.94-.62-1.87-.94-2.81-.31-.95-.39-1.94-.46-2.93-.03-.36.06-.74.15-1.1.09-.36.24-.7.4-1.04.79-1.6.95-3.31.91-5.06-.01-.5-.08-.99-.34-1.43-.71-1.18-1.08-2.49-1.54-3.77-.12-.34.17-.79.51-.79.5,0,.99.03,1.4.37.29.23.56.5.86.71,1.83,1.27,2.2,3.18,2.26,5.21.01.49-.12.98-.19,1.47-.06.37-.17.73-.19,1.1-.03.36-.03.74.05,1.1Z"/>
</svg>
