<?xml version="1.0" encoding="UTF-8"?>
<svg id="Capa_2" data-name="Capa 2" xmlns="http://www.w3.org/2000/svg" viewBox="0 0 924.67 439.56">
  <defs>
    <style>
      .cls-1, .cls-2 {
        fill: #72a888;
      }

      .cls-2 {
        stroke: #72a888;
        stroke-miterlimit: 10;
        stroke-width: 4px;
      }
    </style>
  </defs>
  <g id="Capa_2-2" data-name="Capa 2">
    <g>
      <g>
        <path class="cls-1" d="M475.89,65.31c.81,25.37,2.95,50.81,3.91,76.16.84,22.25.94,44.55,1.87,66.8-1.84,13.33-18.95,15.18-22.13,2.77-1.6-6.24-1.97-19.16-2.24-26.08-.55-14.16-.4-28.38-.94-42.52-.23-6.06.68-13.29.04-19.08-.16-1.46-.2-3.01-1.98-3.38-1.11,7.59-3.26,14.98-4.89,22.46-2.73,12.49-4.51,34.41-8.33,44.89-2.65,7.26-10.79,10.72-16.99,5.33-5.53-4.82-10.48-28.39-12.76-36.55-.63-2.27-5.23-21.53-6.35-21.49.45,7.13.45,14.32.49,21.49.06,13.81.69,36.02-2.19,49.08-3.26,14.79-16.54,15.59-22.15,2.06-.74-15.09.91-30.17.91-45.28,0-4.87.1-9.78,0-14.65-.53-27.18-2.52-54.74-2.93-82.02-.19-12.44-3.27-32.35,15.16-30.29,6.79.76,9.92,7,12.18,12.71,6.17,15.61,11.06,37.11,15.62,53.7,1.95,7.07,3.21,14.44,5.37,21.48.41,1.33.87,4.67,2.43,4.88,2.68-11.99,5-24.17,7.82-36.12,3.35-14.17,6.41-28.94,10.26-42.96,1.54-5.61,5.76-21.02,9.89-24.28,5.41-4.27,15.43-2.04,17.5,4.7s.16,27.54.44,36.18Z"/>
        <path class="cls-1" d="M753.2,245.95c14.76,6.9,22.32,21.16,23.43,37.11,1.75,25.14-9.45,45.02-31.18,57.22,3.3,6.51,8.2,12.06,11.54,18.58,7.56,14.73,14.93,45.81,12.56,62.12-1.18,8.12-6.95,17.32-15.86,11.49-9.36-6.14-8.5-22.76-10.51-32.45-3.66-17.64-9.45-40.16-25.11-50.55-.13,26.45-.53,53-2.19,79.35-3.17,13.23-20.25,13.3-21.29-1.68-2.16-31.19,1.56-68.78,2.03-100.58.32-21.35,1.98-43.87-.98-64.56-.77-5.4,2.71-12.13,6.88-15.48,12.63-10.13,36.89-7.02,50.7-.56ZM718.05,324.06c17.73-2.94,34.23-14.07,34.23-33.69,0-21.28-16-25.68-34.23-24.9v58.59Z"/>
        <path class="cls-1" d="M632.79,242.35c1.88,1.74,2.57,5.74,2.96,8.26,1.83,11.97.28,21.49.23,32.88-.12,25.2-.84,52.23,1.03,77.18,1.23,16.35,4.08,32.7,8.79,48.34,10.74-11.13,13.73-31.27,14.63-46.39,2.15-36.33,1.43-73.54-2.95-109.32-1.09-8.89.47-20.29,11.27-21.09,3.22-.24,10.37,2.63,11.79,5.38,2.34,4.55,2.07,24.96,2.37,31.29,1.71,36.86,5.19,108.96-9.61,141.76-6.87,15.22-22.05,32.92-40.13,22.22-18.22-10.79-18.69-57.98-19.56-77.11-1.28-28.38-3.56-68.86,1.04-96.53,1.23-7.44,7.65-26.62,18.15-16.88Z"/>
        <path class="cls-1" d="M851.82,367.03c.49,5.56,1.95,14.26,1.95,19.04v16.6c0,7.07,2.03,16.25.98,23.92-1.81,13.21-21.64,16.42-23.42-3.43-.86-9.6-.4-20.14-.99-29.77-.32-5.21.79-10.59-.99-15.63-.6-.42-5.49,1.67-6.82,1.96-5.74,1.25-11.81,2.96-17.57.98-.25,10.58-1.3,21.98-3.22,32.42-1.7,9.26-3.48,24.95-16.92,19.5-5.04-2.04-5.41-16.3-5.25-21.16,1.11-32.3,6.41-70.05,11.71-102.05,1.55-9.38,2.89-19.03,4.88-28.32,2.15-10,6.57-36.41,18.28-38.83,14.26-2.94,18.11,12.49,21.26,23.21,9.12,31.02,13.24,69.22,16.11,101.55ZM814.72,306.49c-2.87,16.41-4.39,33.3-6.83,49.8,6.42-1.31,12.92-3.1,19.53-2.92-.6-6.82-1.21-13.7-1.96-20.51-1.51-13.73-3.91-27.35-5.86-41.01-2.54-.28-1.55,0-1.97,1.43-1.16,3.94-2.19,9.13-2.9,13.22Z"/>
        <path class="cls-1" d="M438.79,403.16c2.83,2.37,7.08-7.26,7.84-9.24,10.61-27.53,11.64-98,10.74-128.97-.26-9.06-6.14-24.01,6.78-27.35,8.98-2.32,13.53,4.98,14.56,12.85,3.1,23.82.43,49.35-.86,73.14-1.4,25.62-.69,93.6-29.76,104.02-31.93,11.44-37.8-27.23-40.55-49.35-4.04-32.55-6.15-87.79.28-119.81.83-4.15,2.5-12.17,7.24-13.26,12.88-2.95,14.36,9.27,14.97,18.79,2.45,38.01-1.97,75.45,3.01,114.16.39,3.02,4.76,24.2,5.74,25.03Z"/>
        <path class="cls-1" d="M319.96,271.6c4.99-12.59,15.15-31.8,28.47-38.38,23.7-11.7,49.08,17.64,46.41,40.55-1.19,10.21-13.33,16.35-16.83,6.08-2.21-6.47-.86-10.17-5.23-17.23-10.19-16.47-16.57-8.15-22.36,5.79-13.49,32.51-10.07,85.24-2,119.14,3.04,12.77,7.57,31.02,21,14.1,1.48-1.86,6.86-10.31,7.4-12.13,2.41-8.16-1.44-16.92,10.55-20.45,9,5.35,10.14,8.44,9.4,18.93-1.33,18.95-10.33,43.01-30.25,48.84-36.34,10.63-47.99-34.93-50.72-61.66-2.81-27.48-6.22-77.38,4.16-103.58Z"/>
        <path class="cls-1" d="M706.33,28.2c7.15,13.72,11.58,44.51,14.65,60.54,3.4,17.74,7,35.87,9.76,53.7,2.12,13.71,7.72,42.61,5.8,55.11-1.19,7.75-9.57,11.19-15.81,6.43-6.71-5.11-4.24-31.44-7.67-39.95l-27.24-1.09-4.88,44.92c-2.82,4.13-3.6,6.76-9.27,6.92-9.67.28-9.95-7.15-10.26-14.73-.45-11.17,1.62-25.74,2.93-37.11.18-1.52.76-3.15.98-4.88,2.55-20.37,6.7-40.31,9.76-60.54,2.12-13.99,2.81-28.29,5.04-42.31,1.1-6.88,2.96-22.03,5.47-27.73,3.82-8.67,16.52-7.36,20.73.71ZM695.59,100.46c-1.57,12.45-3.78,24.75-5.85,37.1.46.43,6.36-.39,8.11.03.72.17.56,1.66,1.37,1.88,2.3.64,6.45.44,9.06,1.02-1.87-13.68-4.15-27.48-6.83-41.01-.96-4.85-2.43-9.79-3.41-14.64-2.14,4.24-1.81,10.58-2.45,15.62Z"/>
        <path class="cls-1" d="M612.59,108.27c-2.78,18.96-6.75,37.61-9.61,56.3-1.37,8.96-3.12,38.91-6.53,44.25-.74,1.17-2.49,1.83-3.39,2.95-2.02-.12-4.1,1.11-6.31,1.03-5.37-.2-8.53-3.02-10.29-7.86-4.29-11.87-6.92-35.13-9.76-48.82-.37-1.77-.55-3.78-.98-5.86-.6-2.95-1.38-5.86-1.95-8.79-1.16-5.92-2.72-11.73-3.91-17.58-1.95-9.61-3.33-18.46-4.88-28.32-1.31-8.37-2.92-17.01-3.91-25.39-.91-7.72-1.83-15.64-1.95-23.43-.08-4.74-.82-12.55,1.54-16.52,3.74-6.29,10.99-4.44,14.52.95,3.96,6.05,5.82,25.05,7.37,33.15,1.62,8.45,3.27,16.94,4.88,25.39.68,3.57,1.25,7.16,1.95,10.74,2.05,10.38,3.9,20.85,5.87,31.25,1.86-.34,1.62-2.03,1.99-3.37,2.35-8.47,2.67-18.19,3.86-26.9.03-.25.86-1.03.98-1.95,1.12-8.64.91-18.12,1.95-26.36,1.63-12.93,3.06-28.43,6.1-41.25,2.55-10.78,17.6-13.04,21.47-3.41,3.1,7.7-2.82,28.31-4.01,37.48-1.83,14.11-2.95,28.24-5.02,42.34Z"/>
        <path class="cls-1" d="M568.65,417.8c-1.92-15.6-1.6-31.64-2.94-47.35-2.78-32.51-8.32-65.48-4.88-98.14-3.78-.86-7.74,1.07-11.18,1-15.49-.29-20.16-20.85-4.26-24.75,11.33-2.78,43.81-6.39,54.56-4.14,7.01,1.47,10.44,7.34,8.29,14.27-2.82,9.07-24.42,7.91-24.99,10.36.14,10.32.32,20.78,1.03,31.07,2.55,37.01,8.31,74.25,9.74,111.34.39,10.04,1.9,24.42-12.2,24-4.48-.13-11.23-4.51-12.2-8.88-.41-1.84-.68-6.37-.98-8.79Z"/>
        <path class="cls-1" d="M518.95,407.94c8.62-.13,14.7-3.02,23.36-.4,13.32,4.03,11.13,18.75-.45,23.02-4.83,1.78-31.18,5.38-35.95,4.59-4.68-.78-10.91-5.82-12.02-10.43-2.46-10.3-.08-33.49-.38-45.51-.97-38.16-4.39-76.96-3.96-115.23.11-9.63,2.65-26.63,16.17-21.96,6.07,2.1,7.38,7.46,8.25,13.23,2.14,14.08.42,29.69.94,43.97.75,20.44,2.48,41.07,3.01,61.44.16,6.22-.97,45.6,1.03,47.29Z"/>
        <path class="cls-1" d="M512.99,61.4c.28,5.09.98,12.59.98,17.09v32.22c0,8.21.87,17.36.98,25.88.25,19.36-.15,38.76-.04,58.14.03,5.34,2.52,8.11-1.89,13.65-3.85,4.85-12.73,4.57-16.87.5-5.49-5.39-3.78-34.76-3.69-43.53.09-8.34,1.1-17.03,1.02-25.84-.03-3.23-.98-7.28-.98-9.28v-63.47c0-2.35.75-8.1.98-11.23.56-7.55-.33-29.85,12-26.16,7.64,2.29,7.15,25.33,7.52,32.02Z"/>
        <path class="cls-1" d="M652.62,93.62c-.05,7.15.04,14.34,0,21.48-1.77,1.93-.96,6.03-.98,8.79,0,.98,0,1.95,0,2.93-.01,3.25,0,6.52,0,9.76,0,5.84-.1,11.74,0,17.58.05,3.08.96,7.01.98,8.79,0,.65,0,1.3,0,1.95-1.54.64-1.54,4.24,0,4.88.12,9.85.44,20.49,0,30.27-.26,5.68.1,13.38-7.38,14.58-15.32,2.47-11.91-12.23-12.15-22.39-.41-17.25-1.03-34.49-.98-51.75.01-4.55-.04-9.13,0-13.67.02-2.28-.03-4.56,0-6.84.22-14.9,1.34-30.48,1.94-45.41.47-11.58-.36-28.98,2.18-39.8,2.65-11.28,13.59-8.93,16.12,2.96,3.18,14.92.37,39.63.25,55.89Z"/>
        <path class="cls-1" d="M869.4,31.13c-1.24,6.68,1.73,10.8-7.81,13.67-9.08,2.73-21.7,3.36-31.25,4.88l-1.94,62.49c7.68-1.88,27.62-3.23,32.91,3.21,2,2.43,1.88,8.03-.12,10.55-4.2,5.26-26.69,10.34-33.77,9.68l.98,49.81c10.73.15,24.82-5.29,34.87-1.18,8.49,3.47,10.52,13.48,3.69,19.72-7.49,6.85-36.65,6.96-46.75,5.76-7.94-.94-11.42-5.15-12.32-13.07-1.61-14.25-.39-31.4-.93-45.94-.76-20.33-2.11-40.53-1.99-60.99.05-8.95,1.08-18.18.98-27.34-.11-9.88-4.56-24.8,5.17-31.54,8.14-5.64,40.88-8.02,50.32-4.91,3.12,1.03,5.37,3.42,7.98,5.2Z"/>
        <path class="cls-1" d="M794.21,57.49c.25,11.36-.02,22.81,0,34.18.05,23.31.28,46.6-1.96,69.81-1.82,18.85-3.78,60.61-32.27,54.74-2.37-.49-10.1-4.76-11.66-6.4-7.87-8.31-12.36-29.44-7.81-40.03,2.21-5.16,7.38-7.99,12.69-4.88,4.89,2.86,6.71,20.12,11.71,24.41,3.52-15.31,4.11-31.19,4.89-46.87.87-17.57.74-35.08.98-52.73.26-18.94-2.84-53.55.98-70.3,2.69-11.81,19.98-11.83,21.48,1.47,1.14,10.13.74,25.8.98,36.62Z"/>
        <path class="cls-1" d="M862.56,388.51c1.62-1.02.97-3.7.99-5.36.46-36.84-.32-72.71-1.03-109.34-.13-6.75-1.08-30.3,2.51-34.68,6.61-8.04,16.09-.1,17.8,8.5,2.02,10.1,2.44,26.12,3.15,36.88,1.29,19.65.93,39.1.95,58.54.02,20.68.06,41.37.05,62.04,8.96-1.72,24.91-4.62,32.56,1.12.71.53,4.43,4.43,4.53,4.75,2.19,6.82-1.93,14.87-8.51,17.37-6.43,2.44-18.78,1.02-26.2,1.14-2.31.04-4.44.98-6.75,1.06-10.78.33-18.35-1.21-19.8-13.47-1.02-8.59.79-19.88-.25-28.55Z"/>
      </g>
      <g>
        <path class="cls-2" d="M43.46,288.16c.82-10.33,2.48-32.12,4.15-59.34,2.37,1.86,4.36,4.25,5.78,7.06,1.46,2.88,4.97,4.03,7.85,2.57,2.88-1.46,4.03-4.97,2.57-7.85-3.41-6.73-8.89-11.88-15.42-14.9.45-7.82.89-15.96,1.3-24.32,2.03,1.76,3.74,3.91,5.01,6.4,1.46,2.88,4.97,4.03,7.85,2.57,2.88-1.46,4.03-4.97,2.57-7.85-3.3-6.5-8.54-11.54-14.79-14.59.21-4.76.41-9.56.6-14.38.15-3.93.26-7.79.33-11.59,2.96,1.97,5.43,4.7,7.11,8.02,1.46,2.88,4.97,4.03,7.85,2.57,2.88-1.46,4.03-4.97,2.57-7.85-3.75-7.4-10.02-12.91-17.43-15.75-.03-9.23-.28-17.98-.67-26.18,3.78,1.99,6.96,5.12,8.98,9.12,1.46,2.87,4.97,4.03,7.85,2.57,2.88-1.46,4.03-4.97,2.57-7.85-4.2-8.29-11.57-14.2-20.15-16.65-.73-10.55-1.67-19.91-2.63-27.84,5.26,1.67,9.76,5.39,12.36,10.53,1.46,2.88,4.97,4.03,7.85,2.57,2.88-1.46,4.03-4.97,2.57-7.85-4.88-9.64-14.04-16.07-24.42-17.58-.69-4.68-1.32-8.46-1.81-11.23,13.65-3.75,52.79-14,94.46-20.33,42.16-6.4,92.19-12.01,109.63-13.9l3.18,263.96c-12.27,1.17-45.76,4.04-97.97,6.08-52.78,2.07-94.26,3.34-109.69,3.8M37.23,136.86c-5.35.4-10.31,2.07-14.6,4.7-1.45-2.59-2.4-5.53-2.63-8.68-.36-4.84.98-9.42,3.49-13.17,4.67,2.96,10.13,4.76,15.93,5.02.11,3.91.19,7.93.22,12.04-.8,0-1.6.03-2.41.09M39.56,152.26c-2.85-.18-5.56-.94-8.01-2.18,2.03-.85,4.23-1.41,6.54-1.58.51-.04,1.02-.06,1.53-.06-.02,1.26-.03,2.53-.06,3.81M38.77,174.72c-1.72-.15-3.45-.17-5.21-.04-4.58.34-8.94,1.61-12.88,3.7-1.07-2.27-1.77-4.76-1.97-7.4-.35-4.76.94-9.27,3.37-12.99,4.92,3.49,10.82,5.64,17.13,5.96-.14,3.61-.29,7.2-.44,10.77M38.05,190.33c-3.28-.25-6.37-1.24-9.09-2.85,1.74-.61,3.57-1.02,5.46-1.16,1.29-.1,2.56-.06,3.82.07-.06,1.32-.13,2.63-.19,3.94M36.86,212.77c-1.52-.1-3.05-.11-4.6,0-5.36.39-10.32,2.08-14.61,4.71-1.48-2.64-2.39-5.58-2.62-8.69-.37-5.06,1.07-9.97,4.06-14,5.11,4.14,11.48,6.76,18.36,7.22-.19,3.64-.39,7.23-.59,10.75M35.95,228.22c-3.29,0-6.48-.76-9.38-2.22,2.03-.85,4.23-1.41,6.55-1.58,1.03-.08,2.05-.07,3.06,0-.08,1.28-.15,2.55-.23,3.8M33.41,266.28c-10.32-.6-18.89-8.79-19.67-19.39-.35-4.76.94-9.26,3.37-12.98,5.32,3.78,11.58,5.83,18.11,5.97-.64,9.87-1.26,18.79-1.81,26.39M35.45,71.85c.94,7.62,1.88,16.7,2.63,26.95-5.37.47-10.33,2.22-14.61,4.93-1.95-2.92-3.21-6.35-3.48-10.09-.75-10.19,5.94-19.22,15.45-21.79M38.96,112.98c-1.9-.18-3.72-.61-5.45-1.26,1.68-.64,3.46-1.05,5.32-1.24.05.83.09,1.67.13,2.51M257.67,289.36c2.98-.33,5.23-2.87,5.19-5.87l-3.32-275.72c-.02-1.64-.73-3.2-1.96-4.29-1.23-1.09-2.86-1.62-4.49-1.45-.64.07-64.52,6.75-116.54,14.65-52.26,7.94-100.6,21.95-101.08,22.09-2.93.85-4.71,3.82-4.08,6.81.03.16,1.11,5.41,2.48,14.63-15.59,3.44-26.73,17.92-25.52,34.29.48,6.48,2.83,12.38,6.48,17.22-4.59,6.1-7.08,13.82-6.48,22.01.43,5.84,2.38,11.21,5.43,15.75-4.75,6.15-7.35,14-6.73,22.34.37,5.08,1.91,9.8,4.3,13.94-.04.05-.09.1-.13.15-5.7,6.6-8.48,15.04-7.84,23.74.42,5.73,2.31,11.12,5.42,15.76-4.75,6.15-7.34,13.99-6.72,22.33,1.21,16.43,14.45,29.16,30.45,30.18-.74,9.8-1.23,15.57-1.25,15.75-.14,1.66.43,3.29,1.57,4.5,1.1,1.17,2.64,1.83,4.24,1.83.05,0,.11,0,.16,0,.49-.01,49.31-1.36,116.34-3.99,67.2-2.63,103.7-6.63,104.06-6.67"/>
        <path class="cls-2" d="M163.68,179.73c-4.04,11.94-8.94,20.72-12.35,25.98-3.41-4.09-8.54-11.45-14.64-23.99-4.04-8.29-7.13-21.5-8.79-29.65l44-3c-1.42,7.1-4,18.21-8.21,30.67M179.46,135.21l-59.94,4.09c-1.87.13-3.6,1.04-4.76,2.5-1.16,1.47-1.66,3.35-1.35,5.2.17,1.06,4.32,26.15,11.31,40.52,12.76,26.21,22.24,32.92,24.01,34,1.07.65,2.27.97,3.45.97,1.87,0,3.71-.79,5.01-2.28.46-.52,11.24-13.05,19.08-36.23,7.61-22.53,10.12-40.48,10.23-41.23.27-1.98-.36-3.98-1.73-5.44-1.37-1.46-3.31-2.23-5.31-2.09"/>
        <path class="cls-2" d="M350.91,97.05c-2.14-2.41-5.83-2.63-8.24-.49l-52.62,46.75-1.3-107.63c-.04-3.22-2.65-5.77-5.91-5.77-3.22.04-5.8,2.68-5.77,5.91l3.26,270.37c-12.27,1.17-45.76,4.04-97.97,6.08-30.6,1.2-57.37,2.13-77.5,2.79-.31-.02-.61,0-.9.03-23.38.77-37.54,1.16-37.8,1.16-3.22.09-5.76,2.77-5.68,6,.09,3.17,2.68,5.68,5.83,5.68.05,0,.11,0,.16,0,.23,0,11.67-.32,30.91-.94-1.98,10.08-5.58,29.1-8.31,47.33-3.96,26.41-6.21,56.67-6.23,56.97-.12,1.65.46,3.27,1.61,4.47,1.1,1.15,2.63,1.8,4.21,1.8.06,0,.12,0,.18,0,.59-.02,14.65-.47,25.51-2.29,10.73-1.79,24.22-5.26,24.79-5.4,3.12-.81,5-3.99,4.2-7.11-.81-3.12-3.99-5-7.11-4.2-.13.04-13.57,3.49-23.79,5.19-5.67.95-12.5,1.5-17.42,1.81.88-10.28,2.81-30.89,5.6-49.5,2.97-19.78,6.97-40.52,8.75-49.46,19.62-.65,44.87-1.54,73.44-2.66,14.29-.56,27.17-1.18,38.63-1.82-1.48,7.36-6,30.34-9.28,52.2-3.96,26.41-6.21,56.67-6.23,56.97-.12,1.65.46,3.27,1.61,4.47,1.1,1.15,2.63,1.8,4.21,1.8.06,0,.12,0,.18,0,.59-.02,14.65-.47,25.51-2.29,10.73-1.79,24.22-5.26,24.79-5.4,3.12-.81,5-3.99,4.2-7.11-.81-3.12-3.99-5-7.11-4.2-.13.04-13.57,3.49-23.79,5.19-5.67.95-12.5,1.5-17.42,1.81.88-10.28,2.81-30.89,5.6-49.5,3.9-26.03,9.6-53.72,9.66-54,.04-.21.05-.42.06-.63,34.71-2.11,53.18-4.13,53.44-4.16,2.98-.33,5.23-2.87,5.19-5.87l-1.84-152.64,60.19-53.47c2.41-2.14,2.63-5.83.49-8.24"/>
        <path class="cls-2" d="M188.6,78.21c-8.46,0-15.33,8.61-15.33,19.2s6.88,19.2,15.33,19.2,15.33-8.61,15.33-19.2-6.88-19.2-15.33-19.2"/>
        <path class="cls-2" d="M121.31,105.85c0-10.59-6.88-19.2-15.33-19.2s-15.33,8.61-15.33,19.2,6.88,19.2,15.33,19.2,15.33-8.61,15.33-19.2"/>
      </g>
    </g>
  </g>
</svg>