<?xml version="1.0" encoding="UTF-8"?>
<svg id="Capa_1" data-name="Capa 1" xmlns="http://www.w3.org/2000/svg" viewBox="0 0 614.59 614.59">
  <defs>
    <style>
      .cls-1 {
        fill: #102318;
      }
    </style>
  </defs>
  <path class="cls-1" d="M439.22,509.09c.46,3.43.79,5.67,1.05,7.91.53,4.5.78,9.03.12,13.53-1.07,7.21-.96,14.44-.54,21.66.48,8.24-.52,16.19-3.16,24.02-2.17,6.41-3.83,12.99-5.98,19.4-1.44,4.28-3.39,8.38-5.87,12.18-.98,1.51-2.06,2.94-3.52,4.06-1.15.89-3.92,1.09-5.14.24-2.27-1.57-4.08-3.55-5.26-6.04-.58-1.22-.97-2.54-.76-3.93.28-1.78.25-3.71.96-5.3,4.87-10.79,6.79-22.46,10.14-33.7.51-1.7.52-3.57.58-5.37.14-4.06.39-8.14.18-12.19-.16-3.18-.18-6.33.22-9.47.75-5.87.63-11.72.27-17.6-.48-7.67-.85-15.35-1.27-23.02-.22-4.09-.98-8.08-2.38-11.93-2.31-6.37-4.34-12.84-7.35-18.94-1.09-2.21.64-5.79,3.06-6.74,2.75-1.09,5.31-.81,7.55,1.17,1.01.89,1.97,1.88,2.77,2.96,4.87,6.59,8.7,13.73,11.06,21.61.65,2.16,1.1,4.39,1.85,6.52,1.06,3.04,1.42,6.13,1.37,9.33-.05,3.61.05,7.22.07,9.64Z"/>
  <path class="cls-1" d="M194.42,462.27c.24.01.73-.06,1.14.07,4.64,1.49,7.77,4.47,8.87,9.31.19.82.08,1.87-.27,2.63-1.54,3.26-3.24,6.45-4.85,9.68-3.67,7.32-6.27,14.98-7.51,23.09-.34,2.23-.91,4.43-1.28,6.66-2.5,14.83-2.46,29.71-.67,44.6.87,7.2,2.55,14.26,4.35,21.25,1.23,4.79,2.93,9.53,5.78,13.68,2.34,3.41,3.29,7.41,4.88,11.14.3.69-.07,1.79-.38,2.6-.66,1.75-1.93,2.98-3.66,3.75-.89.4-1.78.53-2.61,0-2.28-1.44-4.72-2.73-6.75-4.48-3.47-2.99-5.99-6.73-7.43-11.12-.42-1.28-.44-2.77-1.09-3.9-4.61-8-5.53-17.17-8.31-25.74-.41-1.27-.48-2.67-.63-4.01-.3-2.7-.35-5.44-.85-8.09-1.59-8.51-1.44-17.11-1.4-25.69.04-8.13.79-13.31,2.87-22.79.39-1.76.77-3.53.99-5.32.81-6.81,3.01-13.22,5.81-19.41,2.24-4.93,4.74-9.75,7.27-14.55,1.12-2.12,3.1-3.2,5.74-3.35Z"/>
  <path class="cls-1" d="M280.05,280.75c1.73.02,3.08.41,3.91,1.51,2.17,2.88,4.16,5.89,5.12,9.43,1.01,3.74,3.61,6.16,6.71,8.15,1.13.73,2.32,1.41,3.56,1.92,1.71.7,3.51.81,5.25.04,2.51-1.11,4.79-2.53,6.17-5.02,1.53-2.76,2.99-5.56,4.55-8.29.94-1.65,2.5-2.53,4.31-2.97,2.09-.51,5.02.48,6,2.15,1.36,2.33,2.78,4.66,3.84,7.13.71,1.65.64,3.55-.12,5.27-.55,1.23-1.2,2.43-1.93,3.55-1.97,3-2.96,6.72-5.89,8.99-2.84,2.2-5.93,4.08-9.03,5.9-1.53.9-3.29,1.51-5.03,1.96-1.27.33-2.72.49-3.99.23-4.02-.81-7.86-2.34-11.02-4.93-4.87-3.99-9.85-7.94-13.25-13.42-.71-1.15-1.63-2.17-2.34-3.31-.47-.75-.9-1.6-1.06-2.46-.69-3.54-1.24-7.12-.99-10.74.1-1.37.79-2.57,2-3.32,1.13-.69,2.33-1.28,3.25-1.78Z"/>
  <path class="cls-1" d="M259.61,222.95c.11,1.97.13,2.42.17,2.87.22,2.37-.69,4.35-2.02,6.23-1.31,1.85-2.82,3.51-4.83,4.57-2.09,1.1-4.35,1.3-6.37-.09-1.83-1.26-3.52-2.75-5.2-4.22-1.4-1.22-2.08-2.92-2.56-4.64-1.23-4.4-1.21-8.85-.35-13.31.45-2.36,1.91-4.04,3.92-5.15,1.56-.86,3.25-1.52,4.93-2.12,2.29-.82,6.11.53,7.25,2.33,1.93,3.05,3.36,6.34,4.41,9.77.52,1.69.62,3.51.66,3.78Z"/>
  <path class="cls-1" d="M369.12,222.78c.08,4.54-.07,9.03-2,13.29-.97,2.14-2.41,3.82-4.27,5.15-1.55,1.11-3.31,1.35-5.1.52-.81-.38-1.7-.74-2.33-1.34-1.63-1.55-3.14-3.24-4.71-4.86-2.68-2.77-3.24-6.38-3.97-9.92-.09-.42.04-.9.1-1.35.46-3.66,1.75-7.01,3.89-10.02.52-.73,1.19-1.36,1.84-1.97,3.39-3.14,7.8-3.16,10.89.03,1.25,1.29,2.35,2.73,3.4,4.19,1.54,2.15,2.19,4.12,2.25,6.27Z"/>
  <path class="cls-1" d="M479.04,527.12c.07-1.77-.5-3.58-.86-5.36-2.09-10.22-3.69-20.52-5.32-30.82-.85-5.39-1.73-10.69-3.67-15.85-1.75-4.65-2.68-9.61-4.24-14.34-2.99-9.04-6.92-17.7-11.11-26.25-.4-.81-.98-1.52-1.47-2.29-1.2-1.92-2.4-3.84-3.58-5.77-12.04-19.66-28.23-35.33-46.87-48.63-.37-.26-.73-.62-1.14-.72-6.62-1.74-11.26-7.78-18.38-8.44-.43-.04-.89-.27-1.24-.54-3.17-2.54-6.34-5.08-9.46-7.68-1.74-1.45-3.33-3.08-5.1-4.49-1.41-1.12-2.98-2.06-4.52-3.01-1.61-.99-3.39-1.11-5.24-.84-1.73.25-3.28,1.58-5.15.93-.38-.13-.78-.49-.95-.85-.17-.38-.26-1.02-.06-1.32.49-.7,1.09-1.37,1.79-1.85,3-2.03,6.68-2.92,9.38-5.46,3.97-3.74,8.47-6.82,12.68-10.26,1.4-1.14,2.76-2.39,3.88-3.79,3.68-4.6,7.3-9.26,9.12-15.01.26-.81.92-1.52,1.49-2.19.23-.27.85-.53,1.07-.41,1.58.88,3.16,1.76,4.62,2.82,2.25,1.64,4.76,2.76,7.42,3.27,4.65.9,9.03.13,12.69-3.2,3.04-2.76,5.65-5.9,7.91-9.31,1.83-2.75,2.53-5.76,1.65-9.07-1.83-6.85-2.45-6.84,2.07-13.94,1.46-2.29,2.66-4.75,3.89-7.18,2.06-4.08,3.44-8.33,3.53-12.97.15-8.17.28-16.32-.85-24.45-.62-4.51-1.26-8.94-3.37-13.08-.86-1.68-.33-3.71,1.22-4.89,4.92-3.71,8.01-8.46,9.36-14.51.71-3.17.84-6.29.32-9.44-.29-1.78-.86-3.52-1.4-5.25-.69-2.24-.79-4.38.28-6.58.99-2.04,1.77-4.17,2.57-6.3.31-.84.54-1.75.58-2.64.21-4.11-.09-8.18-1.87-11.97-1.35-2.87-2.61-5.8-4.96-8.07-.65-.63-1.2-1.36-1.76-2.07-1.45-1.84-2.38-3.84-1.73-6.26,1.52-5.59.25-10.78-2.37-15.74-1.06-2-2.35-3.87-3.43-5.86-1.31-2.42-2.24-4.92-1.66-7.79.9-4.48.71-9.02.48-13.56-.19-3.82-1.69-7.02-4.16-9.82-1.2-1.36-2.42-2.76-3.87-3.81-4.03-2.93-7.77-6.3-12.31-8.47-1.82-.87-2.73-2.36-3.09-4.17-.54-2.75-1.82-5.14-3.4-7.35-2.65-3.69-5.54-7.15-9.08-10.06-8.94-7.37-6.68-6.61-18.11-7.78-2.39-.24-4.3-1.2-6.12-2.6-2.87-2.21-5.78-4.38-8.65-6.59-2.21-1.7-4.75-2.64-7.43-3.22-1.77-.38-3.56-.67-5.36-.87-1.81-.2-3.63-.1-5.35.58-2.94,1.17-5.93,2.26-8.78,3.62-1.94.93-3.63.41-5.04-.65-4.74-3.56-9.79-6.51-15.2-8.94-3.01-1.36-6.05-1.88-9.24-1.43-3.59.5-7.18,1.07-10.73,1.81-2.75.57-5.49.52-8.05-.41-4.85-1.76-9.75-1.88-14.76-1.22-2.27.3-4.37,1.01-6.41,2.09-3.23,1.72-6.43,3.5-8.72,6.38-2.2,2.77-5,3.66-8.34,3.61-1.36-.02-2.74-.03-4.07.19-8.75,1.45-16.8,4.1-21.29,12.7-.2.38-.62.64-1.3,1.31-2.65.4-5.79.83-8.91,1.38-1.33.24-2.67.6-3.89,1.16-4.97,2.29-9.51,5.28-13.54,8.97-1.66,1.53-3,3.49-3.25,5.84-.69,6.29-2.33,12.47-1.91,18.89.05.73-.7,1.67-1.32,2.27-2.97,2.85-6.76,4.56-10.03,6.98-2.19,1.63-3.73,4.03-3.91,6.91-.36,5.88-.67,11.77-.86,17.66-.07,2.25-.15,4.63.47,6.74.96,3.27.79,6.16-.97,9.08-2.41,4.01-2.65,8.63-3.4,13.08-.68,4.07-.6,8.16.46,12.15.93,3.51,1.76,7.03,2.22,10.64.35,2.77,1.59,5.19,3.3,7.36,1.12,1.42,2.27,2.83,3.48,4.18,1.25,1.38,2.12,2.89,2.36,4.77.4,3.16,1.17,6.2,2.35,9.19,1.49,3.79,2.66,7.71,3.82,11.62.23.77.11,1.99-.37,2.56-2.65,3.13-4.87,6.53-6.8,10.13-.64,1.19-1.33,2.43-1.6,3.73-1.1,5.29-2.92,10.49-1.54,16.07.65,2.62.64,5.4,1.05,8.09.48,3.16,1.52,6.17,3.02,8.99,1.92,3.6,3.97,7.13,7.03,9.95,1,.92,1.97,1.89,2.8,2.96.83,1.07,1.48,2.31,1.54,3.71.11,2.26.07,4.52.21,6.78.26,4.1,1.12,8.05,2.78,11.86,1.7,3.9,4.38,6.84,7.92,9.07,1.15.72,2.38,1.33,3.62,1.88,3,1.33,6.15,1.62,9.3.74,1.72-.48,3.28-1.55,5-2.04.7-.2,1.9.17,2.41.71,3.44,3.65,5.06,8.52,8.32,12.37,3.83,4.5,8.13,8.53,12.05,12.94.89,1,2.05,1.78,3.16,2.56,2.95,2.1,5.89,4.23,9.16,5.84,2.85,1.4,5.64,2.91,8.44,4.4.8.42,1.65.84,2.28,1.47.61.62,1.1,1.45,1.4,2.27.63,1.7,1.08,3.46.71,5.3-.08.41-.28,1.07-.51,1.12-.37.07-.85-.25-1.24-.47-2.87-1.64-3.76-5.04-6.3-7.03-1.96-1.53-5.89-1.22-7.38.75-2.2,2.93-3.61,6.28-5.3,9.48-.84,1.6-1.79,3.14-2.76,4.67-.22.34-.67.63-1.07.73-1.31.33-2.63.62-3.96.81-8.13,1.15-16.06,2.94-23.25,7.1-2.78,1.61-5.83,2.5-8.81,3.58-5.18,1.88-9.82,4.72-14.04,8.18-3.85,3.16-7.51,6.56-10.65,10.47-2.84,3.53-6.06,6.79-8.6,10.51-2.8,4.12-5.3,8.43-8.66,12.15-.6.66-1.05,1.48-1.44,2.29-4.94,10.19-9.97,20.36-13.84,31.02-1.38,3.81-2.48,7.78-3.21,11.77-1.06,5.8-2.33,11.52-3.96,17.2-1.5,5.21-2.38,10.56-2.87,16.03-.65,7.2-.63,14.5-2.45,21.59-.55,2.15-.46,4.51-.44,6.76.08,8.16.47,16.33-.74,24.45-.13.89-.18,1.82-.09,2.71.73,7.23-.26,14.51.76,21.74.31,2.22.08,4.52.13,6.79.04,1.81.04,3.63.23,5.42.24,2.28.96,4.43,2.48,6.22,1.17,1.38,2.28,2.85,3.63,4.04,1.39,1.23,3.16,1.74,5.04,1.3,2.73-.64,5.67-4.3,5.66-6.92,0-.45.12-.91.07-1.36-1.03-8.57-.83-17.21-1.49-25.8-.27-3.61-.48-7.3-.03-10.86.69-5.43.95-10.83.73-16.28-.09-2.26.03-4.54.27-6.79,1.22-11.27,2.28-22.56,3.87-33.78.76-5.34,1.45-10.76,3.38-15.92,1.1-2.95,1.65-6.13,2.27-9.24,2.7-13.47,7.75-26,14.93-37.7,1.18-1.93,2.29-3.92,3.22-5.98,1.5-3.34,3.6-6.29,5.58-9.32,2.74-4.21,6.38-7.67,9.52-11.53,5.29-6.49,12.04-10.94,19.57-14.33,5.36-2.41,10.98-4.18,16.41-6.42,1.63-.67,3.54-.69,5.33-.97,1.07-.17,2.46,1.42,2.39,2.7-.02.45.14.93.02,1.34-1.42,5.23-2.51,10.58-4.64,15.59-1.28,2.99-1.61,6.07-1.89,9.25-.59,6.82.42,13.57.67,20.35.05,1.3.75,2.58,1.2,3.86.15.42.34.9.66,1.18,2.82,2.45,5.86,4.33,9.85,3.42,1.32-.3,2.69-.57,3.66-1.62,1.23-1.32,2.36-2.75,3.62-4.03,3.29-3.33,7.29-5.35,11.93-6.01,2.69-.38,5.4-.66,8.12-.87,1.82-.14,3.61.11,5.29.94,2.03,1,4.13,1.88,6.1,2.97,3.62,2,6.73,4.57,8.95,8.15.95,1.53,2,3.03,3.2,4.38.88,1,2.02,1.81,3.14,2.56,3.25,2.17,7.74.29,8.54-3.46.48-2.29.46-4.53-.67-6.6-.95-1.75-1.99-3.45-2.99-5.17-.59-1.01-1.17-2.03-1.72-3.07,0,0-8.46-8.03-12.22-11.26-3.22-2.77-7.1-6.16-8.15-7.08-1.78-.98-3.7-1.62-5.88-1.51-2.26.12-4.53.62-6.76.48-2.81-.17-5.37.36-7.89,1.5-1.66.75-3.42,1.09-5.24,1.26-2.25.21-4.25-1.85-3.96-4.26.11-.89.13-1.8.28-2.69,1.08-6.24,2.22-12.47,3.28-18.72.31-1.81.92-3.48,1.73-5.12,1.08-2.18,2.51-2.57,4.08-1.02.97.95,2.04,1.82,2.85,2.9,5.96,7.96,13.08,14.99,18.88,23.09.56.78,1.24,1.48,1.9,2.2h.02s7.53,7.94,10.33,10.43c2.8,2.49,9.26,7.74,9.26,7.74l-.02.02c1.05.43,2.06,1.01,3.15,1.3,1.79.47,3.54.19,5.08-.6,1.53-.78,2.99-1.84,4.22-3.04,1.59-1.56,3.37-2.84,5.23-3.99l-.03-.04,11.21-12.32c2.58-5.25,5.38-10.34,9.39-14.71,2.12-2.31,4.19-4.79,5.67-7.53,2.99-5.53,7.44-10.16,9.78-16.09.47-1.2,1.45-2.27,2.38-3.21.68-.68,1.71-.8,2.43-.41,2.91,1.55,5.04,3.96,5.81,7.1.95,3.92,1.4,7.96,2,11.96.26,1.77.13,3.63.58,5.35,2.37,9.07.77,17.84-1.77,26.55-.37,1.28-.81,2.62-1.58,3.67-.38.53-1.62.72-2.39.6-.82-.13-1.69-.69-2.3-1.3-1.6-1.56-2.95-3.4-4.63-4.87-3.04-2.67-6.24-5.12-10.11-6.62-4.02-1.55-7.82-1.74-11.62.62-.14.09-.31.13-.46.21l.1.04-11.46,14.75-.02-.02c-.05.08-.07.16-.13.23-1.89,2.53-4.01,4.87-5.46,7.76-1.89,3.79-2.68,7.74-2.21,11.86.33,2.83,1.98,4.97,4.83,6,.92.33,1.76.39,2.61-.16.75-.49,1.62-.89,2.18-1.54.88-1.02,1.68-2.15,2.29-3.36,1.03-2.05,2.25-3.98,3.88-5.55,3.61-3.45,6.2-7.82,10.12-10.96.35-.28.75-.52,1.1-.8,1.52-1.22,4.74-1.36,6.44-.34,1.96,1.18,3.74,2.59,5.17,4.36,2.28,2.82,4.39,5.78,6.67,8.6.85,1.04,1.88,2.02,3.01,2.72,3.75,2.33,7.61,2.54,11.08-1.05,1.25-1.3,2.27-2.82,3.48-4.17,1.54-1.72,2.62-3.63,3.25-5.88.72-2.61,1.71-5.16,2.53-7.74,1.93-6.08,3.11-12.28,3.12-18.7,0-4.98.53-9.96-.08-14.95-.11-.88.05-1.81.12-2.71.03-.45.16-.89.21-1.34.27-2.18,3.36-3.87,5.11-2.77,6.53,4.1,13.03,8.25,18.41,13.9.93.98,2.02,1.83,3.07,2.68,3.2,2.59,5.82,5.72,8.31,8.96,1.38,1.79,2.55,3.75,3.94,5.53,7,8.98,13.14,18.45,16.82,29.33,2.2,3.54,3.25,7.47,3.8,11.55.37,2.72.96,5.37,2.29,7.78,1.77,3.22,2.87,6.63,3.54,10.23,1.08,5.79,2.83,11.42,3.35,17.34.32,3.59,1.41,7.11,2.1,10.67.6,3.11,1.23,6.22,1.64,9.36.71,5.39,1.15,10.81,1.49,16.24.59,9.51,1.11,19.01,1.52,28.53.26,5.89.63,11.77.97,17.66.16,2.82,1.3,5.22,3.06,7.4,1.71,2.12,3.4,4.23,5.75,5.7,1.4.87,3.88.68,5.02-.41,1.34-1.29,2.42-2.72,2.75-4.56.39-2.23.89-4.48.91-6.72.07-8.61-.03-17.22-.44-25.84-.43-9.06-2.29-18-1.95-27.11ZM387.49,242.51c-.94.95-2.3,1.49-3.21,2.46-6.87,7.33-15.63,10.36-25.33,11.33-.9.09-1.78.27-2.54.38-6.09.55-11.89-.12-17.28-2.77-2.04-1-4.08-1.84-6.25-2.47-1.29-.37-2.45-1.2-3.09-2.46-1.23-2.41-2.49-4.81-3.53-7.3-1.23-2.95-1.79-6.04-1.18-9.26.42-2.21.61-4.48,1.12-6.67,1.68-7.32,3.53-10.93,8.38-16.71.58-.69,1.2-1.36,1.89-1.93,4.51-3.78,9.47-6.89,14.56-9.81,1.14-.66,2.55-.87,3.83-1.29,5.15-1.67,10.34-3.09,15.69-4.08,3.97-.73,7.77-2.34,11.69-3.37,6.13-1.61,11.58.02,16.39,3.94.65.53,1.07,1.47,1.32,2.31,1.19,3.92,1.61,7.99,1.47,12.05-.38,11.03-3.09,21.41-9.47,30.59-1.28,1.83-2.87,3.47-4.45,5.07ZM317.43,200.99c-1.8,3.13-3.37,6.4-5.1,9.58-.83,1.54-2.91,2.55-4.58,2.21-1.77-.35-3.57-.58-5.36-.85-1.78-.28-3.57-.55-3.65-.56-4.9-.09-8.08-.03-11.24-.25-1.27-.09-2.58-.48-3.18-2.07-.64-1.68-1.5-3.3-2.49-4.8-1.25-1.88-2.94-3.49-4.08-5.43-3.73-6.35-9.26-11.11-14.31-16.27-2.18-2.22-5.09-3.72-7.67-5.56-1.04-.74-.89-2.19.36-3.43,1.17-1.16,2.43-1.44,3.51-.51,3.85,3.31,8.45,5.2,13.05,7.16,3.06,1.31,6.18,1.27,9.34.7.87-.16,1.82-.43,2.49-.97,2.11-1.7,4.11-3.54,6.15-5.34.83-.73,2.42-.45,3.55.69,1.27,1.28,2.35,2.78,3.75,3.89,2.88,2.28,6.21,3.72,9.83,4.38,1.31.24,2.72.38,4.03.19,4.53-.66,8.77-2.1,12.52-4.89,1.26-.94,3.98-.13,4.96,1.08.85,1.05,1.72,2.08,2.53,3.16.26.35.53.85.48,1.25-.1.84-.24,1.77-.67,2.46-.46.74-1.19,1.45-1.97,1.82-5.54,2.68-9.27,7.14-12.25,12.32ZM403.36,299.91c-1.08.26-2.69-.78-2.9-1.94-.41-2.24-.22-4.38.98-6.38,1.06-1.76,3.78-2.44,5.82-1.44.97.47,2.1,2.34,1.88,3.24-.77,3.19-2.34,5.68-5.79,6.52ZM418.03,259.42c-.16.88-.42,1.76-.77,2.58-1.24,2.89-2.59,5.74-3.8,8.64-.77,1.84-2.48,2.71-4.23,2.42-1.33-.22-2.68-.32-3.4-.4-2.42-.07-4.21-.12-6-.19-1.07-.04-2.55-1.45-2.67-2.62-.28-2.68-.66-5.37-.66-8.05,0-1.26.45-2.76,1.22-3.75,1.64-2.13,3.59-4.02,5.46-5.97,4.43-4.61,7.83-9.85,9.86-15.94.41-1.24.74-2.58,1.94-3.41.77-.53,1.72-.6,2.32.28.73,1.07,1.37,2.34,1.59,3.6,1.35,7.65.56,15.25-.85,22.81ZM181.24,172.65c-.95.49-1.88.05-2.17-.76-1.07-3.05-1.1-6.27-.9-9.41.24-3.7,1.68-6.99,4.42-9.68,1.96-1.93,4.26-3.35,6.5-4.88,1.17-.8,1.7-2.09,2.17-3.36.48-1.3.52-2.59,0-3.94-1.19-3.07-3.34-5.37-5.78-7.43-1.49-1.26-2.24-2.83-2.23-4.72.02-2.71.11-5.43.29-8.14.13-1.92,1.19-3.42,2.75-4.46,1.5-1,3.04-2,4.68-2.71,2.91-1.26,5.97-2.17,8.84-3.48,1.17-.53,2.2-1.61,2.98-2.67,1.12-1.5,1.52-3.3.67-5.11-.57-1.22-1.32-2.37-1.98-3.56-1.82-3.31-2.5-6.77-1.48-10.49.24-.87.36-1.78.54-2.67.38-1.85,1.4-3.34,2.81-4.53,3.14-2.67,6.68-4.7,10.61-5.94.81-.26,1.85-.27,2.65,0,1.72.56,3.32,1.46,5.02,2.08,3.26,1.19,6.73-.26,7.87-3.24.97-2.54,1.73-5.18,2.91-7.62,1-2.07,2.77-3.59,5.02-4.32,1.29-.42,2.63-.68,3.97-.91,2.29-.39,4.49-.18,6.5,1.16,1.12.75,2.31,1.42,3.53,2.02,2.31,1.15,6.06-.14,6.94-2.47.96-2.54,1.8-5.14,3.32-7.42,1.81-2.71,4.07-4.85,7.39-5.6,1.77-.4,3.5-.97,5.26-1.39,1.39-.33,2.76.07,3.88.81,1.89,1.23,3.69,2.61,5.43,4.06,1.46,1.21,3.17,1.68,4.93,2.13.98.25,1.79.15,2.57-.47,1.41-1.13,2.81-2.28,4.29-3.32,1.87-1.32,3.97-2.23,6.19-2.73,1.3-.29,2.72-.43,4.04-.25,4.15.56,7.8,2.32,10.91,5.13.65.59,1.16,1.4,1.55,2.2.6,1.22.98,2.54,1.56,3.77.38.81.75,1.85,1.44,2.25,2.76,1.57,4.93,4.09,8.03,5.03.74.22,1.84-.12,2.54-.57,1.13-.72,2.22-1.61,3.05-2.65,2.02-2.53,4.55-4.4,7.2-6.17,5.1-3.41,12.73-.58,14.3,5.34.35,1.3.38,2.68.6,4.02.3,1.87,1.2,3.42,2.79,4.46,2.27,1.49,4.17,3.51,6.76,4.52.87.34,1.73.38,2.62-.03,2.53-1.17,4.15-3.48,6.34-5.06.71-.51,1.61-.89,2.48-1.03.85-.14,1.91-.17,2.6.24,3.34,1.94,5.41,4.77,5.42,8.79,0,1.36-.1,2.72-.25,6.53,0-1.09-.12.28.01,1.62.22,2.31.97,4.35,3.14,5.68,1.14.7,2.14,1.66,3.12,2.59,1.81,1.72,3.93,2.03,6.28,1.65.89-.14,1.81-.29,2.71-.25,2.34.11,4.41.95,6.13,2.56.33.31.78.61.9,1,1.07,3.45,1.58,7.01,2.03,10.58.12.93-.47,1.7-1.07,2.44-1.14,1.41-2.16,2.89-2.77,4.64-.81,2.34-.59,4.52,1,6.37,1.77,2.05,3.79,3.88,5.6,5.9,3.03,3.39,3.55,7.23,1.69,11.37-.74,1.65-1.41,3.34-2.33,4.89-3.47,5.82-2.96,6.27.94,10.48,2.2,2.38,4.63,4.24,7.55,5.57,1.24.56,2.51,1.15,3.56,1.98.65.51,1.09,1.46,1.31,2.3.74,2.78.28,5.4-1.61,7.64-.88,1.04-1.9,1.95-2.8,2.97-2.44,2.75-2.56,6.92-.27,10,.81,1.09,1.75,2.09,2.6,3.14,2.15,2.65,2.6,5.73,2.07,8.98-.53,3.22-1.97,5.98-4.52,8.11-1.07.89-2.87.47-3.11-.79-.78-4.01-1.87-7.91-3.11-11.81-1.41-4.44-3.65-8.27-6.61-11.76-2.65-3.13-5.56-6-8.81-8.48-2.56-1.95-5.45-3.27-8.75-3.35-2.72-.06-5.45-.14-8.16-.05-2.72.09-5.41.53-8,1.46-1.71.61-3.41,1.24-5.16,1.72-8.71,2.41-9.29,2.4-18.71.81-3.13-.53-6.27-.95-9.4-1.43-2.49-.38-4.78-3.22-4.69-5.88.05-1.36-.04-2.78.34-4.05,1.75-5.83-1.12-9.56-5.51-12.66-.36-.26-.8-.42-1.21-.61-1.29-.6-4.3.15-4.99,1.3-1.85,3.11-3.67,6.24-5.49,9.37-1.63,2.8-3.86,5.02-6.55,6.8-1.95,1.29-4.08,1.85-6.43,1.76-2.65-.09-5.45-2.16-5.97-4.68-.37-1.77-.64-3.57-.86-5.36-.48-3.95-2.94-6.49-6.01-8.62-2.59-1.79-5.66-1.37-7.09,1.1-1.13,1.96-2.02,4.05-3.17,6-1.15,1.94-2.44,3.81-3.77,5.63-.52.71-1.26,1.33-2.03,1.75-.76.42-1.71.79-2.55.74-3.21-.17-6.23-1.15-9.01-2.74-2.02-1.15-3.56-2.88-4.11-5.19-.76-3.21-2.38-5.86-4.74-8.09-.64-.61-1.46-1.04-2.25-1.47-1.48-.81-4.11.16-4.49,1.75-3.04,12.55-4.36,10.38-13.03,15.91-.75.48-1.59.85-2.42,1.18-.41.16-.99.33-1.33.16-2.89-1.47-6.16-1.36-9.18-2.26-4.4-1.32-8.88-1.8-13.45-1.24-1.83.22-3.6-.12-5.4-.34-1.32-.16-2.73-.11-4.03.16-2.65.57-5.24,1.43-7.89,2.03-3.64.83-6.78,2.44-9.35,5.21-.9.97-2.01,1.82-3.18,2.42ZM197.79,271.14c-2.42.38-4.73-.82-5.51-2.82-.99-2.51-2.08-4.99-2.9-7.56-1.83-5.73-2.04-11.49,0-17.24.45-1.27.9-2.54,1.37-3.81.6-1.59,3.39-2.34,4.35-1.19,1.15,1.38,2.3,2.75,3.43,4.15,2.3,2.86,3.9,6.02,4.29,9.74.23,2.23.65,4.45.98,6.67l.18-.03c.36,2.67.71,5.35,1.1,8.02.15,1.05-1,2.92-1.97,3.11-1.77.34-3.54.68-5.32.96ZM210.11,294.47c-.81.97-1.93,1.71-2.99,2.43-.82.56-2.91-.53-3.14-1.54-.1-.42-.17-.85-.68-3.47.09.43.42-1.21,1.15-2.85.59-1.31,3.33-2.18,4.48-1.38,2.26,1.57,2.89,4.76,1.18,6.81ZM212.52,235.71c-5.19-4.63-9.08-10.09-11.72-16.48-.17-.42-.3-.86-.46-1.28-2.34-6.38-4.69-12.76-7-19.16-.62-1.72-.79-3.52-.8-5.36-.01-4,2.87-8.24,6.44-9.58,4.7-1.78,9.58-2.73,14.57-3.14,1.33-.11,2.73,0,4.04.28,5.31,1.13,10.54,2.62,15.62,4.53,5.09,1.91,10.24,3.79,15.04,6.31,5.17,2.71,10.48,5.41,14.12,10.34,1.34,1.82,2.98,3.41,4.55,5.05,1.58,1.66,2.85,3.46,3.76,5.6,1.06,2.49,2.3,4.94,3.71,7.25,2,3.3,2.21,6.92,1.87,10.53-.34,3.59-.98,7.2-1.93,10.69-1.1,4.03-3.35,7.32-7.2,9.47-3.23,1.81-6.45,3.31-10.13,3.07-4.25.8-8.23.13-12.12-1.35-1.7-.64-3.38-1.38-5.14-1.79-6.3-1.45-11.77-4.73-17.13-8.06-3.44-2.13-6.98-4.16-10.07-6.92ZM337.26,369.72c-.04,1.81-.31,3.58-1.35,5.17-2.47,3.79-4.79,7.69-7.35,11.42-2.56,3.73-5.33,7.3-7.75,11.14-2.9,4.6-6.67,8.56-10.51,12.4-.91.92-2.29,1.38-3.46,2.03-.88.48-1.77.44-2.61-.11-4.17-2.73-8.21-5.61-11.55-9.36-2.11-2.37-4.27-4.68-6.27-7.14-1.99-2.45-3.79-5.06-5.69-7.58-1.9-2.51-4.49-4.48-5.83-7.44-.4-.87-.3-1.7.36-2.5,1.19-1.45,3.06-1.8,4.55-2.77,1.64-1.08,2.48-2.69,2.49-4.56,0-2.25-.32-4.5-.48-6.75-.07-.94,1.75-2.45,2.82-2.34,1.34.14,2.78-.06,4.01.37,4.35,1.5,8.9,1.56,13.38,2.14.89.11,1.91.33,2.69.03,4.31-1.7,8.93-1.2,13.36-2.02.44-.08.9-.2,1.29-.42,4.38-2.55,9.52-2.73,14.14-4.55,1.07-.42,2.58.75,2.76,2.05.32,2.24.61,4.48.7,5.11.17,2.98.34,4.34.31,5.69ZM334.14,338.02c-6.01,2-12.1,3.84-18.37,4.93-2.68.46-5.43.92-7.92,1.93-4.91,2-9.58,2.11-14.48-.05-2.02-.89-4.61-.5-6.59-1.43-4.53-2.13-9.56-2.89-13.92-5.41-1.17-.68-2.4-1.35-3.69-1.72-3.53-1.01-6.71-2.64-9.75-4.69-1.87-1.26-3.97-2.18-6.01-3.17-3.33-1.61-6.13-3.84-8.42-6.75-.84-1.07-1.69-2.18-2.74-3.01-5.1-4.08-7.7-10.03-11.46-15.11-1.48-3.8-3.18-7.53-4.39-11.41-2.56-8.22-4.62-16.58-6.72-24.93-.22-.87-.14-1.8-.23-2.7-.13-1.29,1.49-2.72,2.57-2.23,6.2,2.78,12.57,5.06,19.03,7.2,6.58,2.17,13.3,3.13,20.07,3.04,7.44-.1,14.23-2.59,19.54-8.19.94-.99,1.84-2.01,2.78-3,1.57-1.66,2.91-3.47,3.81-5.59.36-.83.79-1.63,1.17-2.46,1.94-4.14,3.31-8.39,3.31-13.05,0-2.7.49-5.39.76-8.09.09-.86,2-2.74,2.78-2.73,3.17.07,6.34.03,9.49.3,1.88.16,3.34,1.36,4.19,3.08.6,1.21,1.05,2.5,1.46,3.78.96,3.02,1.78,6.09,2.81,9.09.58,1.7,1.34,3.37,2.22,4.94,1.33,2.37,2.78,4.68,4.26,6.96,4.06,6.22,9.25,11.05,16.3,13.87,2.95,1.18,5.9,2.32,8.93,3.25.86.26,1.76.57,2.64.59,8.15.25,16.34.82,24.13-2.46,2.1-.88,4.14-1.81,6.49-1.81,1.05,0,2.76,1.34,2.92,2.41-.02,4.52-.32,9-1.58,13.41-1.37,4.8-2.85,9.55-4.89,14.12-1.23,6.51-5.48,11.33-9.17,16.47-.52.73-1.3,1.27-1.89,1.95-8.94,10.51-18.31,14.98-29.44,18.68Z"/>
</svg>