<?xml version="1.0" encoding="UTF-8"?>
<svg id="Capa_2" xmlns="http://www.w3.org/2000/svg" version="1.1" viewBox="0 0 1128 603.3">
  <!-- Generator: Adobe Illustrator 29.8.3, SVG Export Plug-In . SVG Version: 2.1.1 Build 3)  -->
  <defs>
    <style>
      .st0 {
        fill: #cddfab;
      }

      .st1 {
        stroke-linejoin: round;
        stroke-width: 3px;
      }

      .st1, .st2 {
        fill: none;
        stroke: #102318;
        stroke-linecap: round;
      }

      .st3 {
        fill: #102318;
      }

      .st2 {
        stroke-miterlimit: 10;
        stroke-width: 4px;
      }
    </style>
  </defs>
  <g>
    <path class="st3" d="M797.7,404.8c-5.4,1.5-20.1,5.6-38.8,10.7-18.5,5-30.5,7.7-34.9,8.6l-27.8-92.7c6.3-1.2,24.4-4.8,39.9-7.1,15.3-2.3,30.1-3,35.3-3.2.1,1,.3,2.4.6,4.1-3.5,1.7-6,4.9-6.6,8.8-.2,1.2.6,2.3,1.8,2.5,1.2.2,2.3-.6,2.5-1.8.3-2.1,1.5-3.9,3.2-5,.5,2.9,1.2,6.3,2.1,10-2.7,1.8-4.7,4.7-5.2,8-.2,1.2.6,2.3,1.8,2.5,1.2.2,2.3-.6,2.5-1.8.3-1.6,1-3.1,2.1-4.2.8,2.9,1.6,6,2.6,9.2-2.3,1.8-3.9,4.4-4.4,7.4-.2,1.2.6,2.3,1.8,2.5,1.2.2,2.3-.6,2.5-1.8.2-1.3.8-2.6,1.6-3.6.4,1.3.9,2.7,1.4,4,.6,1.7,1.2,3.3,1.8,5-1.9,1.8-3.1,4.1-3.6,6.7-.2,1.2.6,2.3,1.8,2.5,1.2.2,2.3-.6,2.5-1.8.2-1,.5-2,1.1-2.8,1.1,2.9,2.1,5.7,3.1,8.4-2,1.8-3.3,4.2-3.8,6.9-.2,1.2.6,2.3,1.8,2.5,1.2.2,2.3-.6,2.5-1.8.2-1.1.6-2.2,1.2-3.1,3.6,9.3,6.5,16.8,7.9,20.3M783.4,351.2c-.3,0-.6.1-.9.2-.4-1.4-.9-2.9-1.2-4.2,2-.7,3.7-2,5-3.5,1.3,1,2.3,2.5,2.7,4.2.3,1.1.3,2.3,0,3.3-1.8-.5-3.7-.5-5.6,0M784.2,356.9c-.1-.4-.3-.9-.4-1.3.2,0,.4-.1.5-.1.8-.2,1.7-.2,2.5-.2-.7.7-1.6,1.3-2.6,1.6M787,364.6c-.4-1.2-.9-2.5-1.3-3.7,2.2-.8,4-2.2,5.3-4,1.3,1,2.2,2.5,2.6,4.2.2.9.2,1.9.1,2.8-1.6-.3-3.3-.3-4.9.1-.6.1-1.2.3-1.8.6M788.9,370c-.2-.5-.3-.9-.5-1.4.4-.2.9-.3,1.3-.4.7-.2,1.4-.2,2-.2-.8.9-1.7,1.5-2.9,2M791.8,377.7c-.5-1.2-.9-2.4-1.4-3.7,2.4-.9,4.3-2.5,5.6-4.5,1.5,1.1,2.5,2.6,3,4.5.3,1.1.3,2.2,0,3.3-1.8-.5-3.7-.5-5.6,0-.6.1-1.1.3-1.6.5M793.8,383.1c-.2-.4-.3-.9-.5-1.3.3-.1.7-.2,1.1-.3.8-.2,1.7-.2,2.5-.2-.9.8-1.9,1.4-3,1.8M798.9,396.1c-1-2.6-2.2-5.7-3.5-9,2.3-.8,4.2-2.2,5.7-4.1,1.3,1,2.2,2.5,2.6,4.2.9,3.8-1.2,7.6-4.8,8.9M776.9,328.3c3.6-.1,6.9,2.3,7.8,5.9.3,1.3.2,2.7-.1,3.9-1.8-.5-3.7-.5-5.7-.1-.9-3.7-1.5-6.9-2-9.7M780.1,343.1c0-.3-.2-.6-.2-.9.7-.1,1.3-.2,2-.1-.5.4-1.1.8-1.8,1M722.9,428.7c.1,0,13.3-2.6,37.1-9.1,23.7-6.4,41-11.3,41.1-11.3h0c.6-.2,1-.6,1.3-1.1.3-.5.3-1.2,0-1.7,0,0-.8-2-2.2-5.4,5.5-2.1,8.7-8,7.4-13.9-.7-3-2.5-5.4-4.8-7.1.6-2,.7-4.1.2-6.1-.7-3.1-2.6-5.8-5.3-7.4,0,0,0,0,0,0,.4-1.7.4-3.5,0-5.3-.7-3-2.5-5.4-4.8-7.1.6-1.9.7-4,.2-6.1-.7-2.9-2.4-5.4-4.7-7,.7-2.1.9-4.4.4-6.7-1.4-5.9-6.9-9.7-12.7-9.2-.5-3.4-.7-5.3-.7-5.4-.1-1.1-1.1-2-2.2-1.9-.2,0-18.6.4-37.8,3.3-19.1,2.9-42.1,7.6-42.4,7.6-.6.1-1.1.5-1.4,1-.3.5-.4,1.1-.2,1.7l29,96.8c.3,1.1,1.4,1.7,2.5,1.5"/>
    <path class="st3" d="M743.8,380.1c-2.8-3.9-5-7.5-6.2-9.8l15.7-3.8c.3,3,.7,8,.2,11.3-.8,5.1-1.8,8.2-2.5,10-1.8-1.5-4.4-4-7.2-7.7M733.4,366.2c-.7.2-1.3.7-1.6,1.3-.3.7-.3,1.4,0,2.1.1.3,3,6.3,8.1,13.3,5.3,7.3,10.4,10.5,10.6,10.6.6.4,1.3.5,2,.2s.8-.4,1.1-.7c.5-.6,3.1-4,4.7-14.5.9-5.8-.4-15-.5-15.4,0-.7-.5-1.3-1-1.7-.6-.4-1.3-.5-1.9-.4l-21.4,5.1"/>
    <path class="st3" d="M669.3,371.6c.5-1.1,1.8-1.6,2.8-1.1l23.5,10.6-11.3-37.8c-.3-1.1.3-2.3,1.4-2.7,1.1-.3,2.3.3,2.7,1.4l28.4,95c4.4-.9,16.5-3.6,34.9-8.6,10.8-2.9,20.3-5.5,27.4-7.5.1,0,.2,0,.3,0,8.3-2.3,13.3-3.7,13.4-3.7,1.1-.3,2.3.3,2.6,1.5.3,1.1-.3,2.3-1.4,2.6h0c0,0-4.1,1.2-10.9,3.1,1.8,3.3,5.1,9.6,8.1,15.7,4.3,8.8,8.4,19.1,8.4,19.3.2.6.2,1.2,0,1.7-.3.5-.7.9-1.3,1.1h0c-.2,0-5.2,1.5-9.2,2-4,.5-9,.8-9.3.8-1.2,0-2.2-.8-2.2-2,0-1.2.8-2.2,2-2.2,0,0,5.1-.3,8.9-.8,2.1-.3,4.5-.8,6.3-1.3-1.4-3.5-4.4-10.5-7.4-16.7-3.2-6.6-6.9-13.4-8.5-16.3-6.9,1.9-15.9,4.4-26,7.1-5.1,1.4-9.6,2.6-13.7,3.6,1.3,2.4,5.4,10,9,17.2,4.3,8.8,8.4,19.1,8.4,19.3.2.6.2,1.2,0,1.7-.3.5-.7.9-1.3,1.1h0c-.2,0-5.2,1.5-9.2,2-4,.5-9,.8-9.3.8-1.2,0-2.2-.8-2.2-2,0-1.2.8-2.2,2-2.2,0,0,5.1-.3,8.9-.8,2.1-.3,4.5-.8,6.3-1.3-1.4-3.5-4.4-10.5-7.4-16.7-4.2-8.7-9.2-17.7-9.3-17.8,0,0,0-.1,0-.2-12.4,3.1-19.1,4.4-19.2,4.4-1.1.2-2.1-.4-2.5-1.5l-16.1-53.6-26.9-12.1c-1.1-.5-1.6-1.8-1.1-2.8"/>
    <path class="st3" d="M724,347.3c3-.9,6.3,1.3,7.5,5s-.3,7.5-3.3,8.4-6.3-1.3-7.5-5,.3-7.5,3.3-8.4"/>
    <path class="st3" d="M750.6,349.6c-1.2-3.7.3-7.5,3.3-8.4s6.3,1.3,7.5,5-.3,7.5-3.3,8.4-6.3-1.3-7.5-5"/>
  </g>
  <g id="Capa_1-2">
    <g>
      <g>
        <path class="st0" d="M404,507.2c-4.7-5.7-8.7-11.9-11.7-18.6-7.1-15.9-7.5-35.7,2.8-49.9,10.2-14.1,32.4-19.5,46-8.6,3.4,2.7,6.2,6.5,7,10.8.8,4.9-1.1,9.9-3.2,14.4-9.8,20.5-23.8,37.6-40.7,51.8Z"/>
        <path class="st1" d="M404,507.2c-4.7-5.7-8.7-11.9-11.7-18.6-7.1-15.9-7.5-35.7,2.8-49.9,10.2-14.1,32.4-19.5,46-8.6,3.4,2.7,6.2,6.5,7,10.8.8,4.9-1.1,9.9-3.2,14.4-9.8,20.5-23.8,37.6-40.7,51.8Z"/>
      </g>
      <g>
        <path class="st0" d="M701.1,382.1c-2.6,9.4-5.7,18.7-9.3,27.8-7-3.8-13.4-8.6-18.8-14.8-9.1-10.2-15-24.6-10.9-37.6,4.1-13,21-21.7,32.3-14.1,11.6,7.8,10.4,25.1,6.7,38.7h0Z"/>
        <path class="st1" d="M701.1,382.1c-2.6,9.4-5.7,18.7-9.3,27.8-7-3.8-13.4-8.6-18.8-14.8-9.1-10.2-15-24.6-10.9-37.6,4.1-13,21-21.7,32.3-14.1,11.6,7.8,10.4,25.1,6.7,38.7h0Z"/>
      </g>
      <g>
        <path class="st0" d="M1126.5,1.5v601.8H1.5v-8.1c67.5,4.3,193.2-7.9,258.9-24.2,50.8-12.7,104.7-30.9,143.6-63.8,6.4,7.7,13.9,14.6,21.7,20.9,26.7,21.7,59.7,38.9,94,36.2,19.5-1.5,38-9.5,55.1-19.2,52.8-30,94.7-78.8,117.1-135.2,25.9,13.9,60.4,12.3,89.2,2.2,88-30.9,139.6-119.9,182.5-202.7,42.9-82.8,76.7-172.6,163-208h0Z"/>
        <path class="st1" d="M1.5,595.3c67.5,4.3,193.2-7.9,258.9-24.2,50.8-12.7,104.7-30.9,143.6-63.8,6.4,7.7,13.9,14.6,21.7,20.9,26.7,21.7,59.7,38.9,94,36.2,19.5-1.5,38-9.5,55.1-19.2,52.8-30,94.7-78.8,117.1-135.2,25.9,13.9,60.4,12.3,89.2,2.2,88-30.9,139.6-119.9,182.5-202.7,42.9-82.8,76.7-172.6,163-208"/>
      </g>
    </g>
  </g>
  <line class="st2" x1="678.7" y1="323.9" x2="685.9" y2="327.1"/>
  <line class="st2" x1="683.2" y1="319.3" x2="686.1" y2="326.6"/>
  <line class="st2" x1="670.6" y1="330.4" x2="672.4" y2="338.1"/>
  <line class="st2" x1="677" y1="331.3" x2="672.9" y2="338"/>
</svg>