<?xml version="1.0" encoding="UTF-8"?>
<svg id="Capa_2" data-name="Capa 2" xmlns="http://www.w3.org/2000/svg" viewBox="0 0 1128 603.35">
  <defs>
    <style>
      .cls-1 {
        fill: #cddfab;
      }

      .cls-2 {
        fill: none;
        stroke: #102318;
        stroke-linecap: round;
        stroke-linejoin: round;
        stroke-width: 3px;
      }
    </style>
  </defs>
  <g id="Capa_1-2" data-name="Capa 1">
    <g>
      <g>
        <path class="cls-1" d="M404,507.21c-4.69-5.7-8.74-11.86-11.74-18.62-7.08-15.93-7.45-35.74,2.77-49.85,10.23-14.11,32.35-19.46,45.96-8.57,3.43,2.74,6.25,6.49,6.98,10.82.83,4.93-1.11,9.87-3.25,14.38-9.76,20.53-23.83,37.57-40.72,51.84Z"/>
        <path class="cls-2" d="M404,507.21c-4.69-5.7-8.74-11.86-11.74-18.62-7.08-15.93-7.45-35.74,2.77-49.85,10.23-14.11,32.35-19.46,45.96-8.57,3.43,2.74,6.25,6.49,6.98,10.82.83,4.93-1.11,9.87-3.25,14.38-9.76,20.53-23.83,37.57-40.72,51.84Z"/>
      </g>
      <g>
        <path class="cls-1" d="M701.14,382.15c-2.56,9.44-5.66,18.73-9.27,27.81-7-3.76-13.37-8.64-18.84-14.78-9.07-10.2-14.98-24.57-10.9-37.59,4.07-13.03,21-21.73,32.33-14.12,11.64,7.8,10.36,25.15,6.68,38.68Z"/>
        <path class="cls-2" d="M701.14,382.15c-2.56,9.44-5.66,18.73-9.27,27.81-7-3.76-13.37-8.64-18.84-14.78-9.07-10.2-14.98-24.57-10.9-37.59,4.07-13.03,21-21.73,32.33-14.12,11.64,7.8,10.36,25.15,6.68,38.68Z"/>
      </g>
      <g>
        <path class="cls-1" d="M1126.5,1.5v601.85H1.5v-8.06c67.48,4.35,193.25-7.88,258.87-24.24,50.79-12.66,104.71-30.94,143.63-63.84,6.35,7.73,13.91,14.61,21.71,20.92,26.74,21.66,59.71,38.91,94.02,36.19,19.53-1.55,38.03-9.47,55.06-19.16,52.83-30.05,94.67-78.75,117.08-135.2,25.92,13.89,60.41,12.34,89.15,2.25,88-30.89,139.59-119.94,182.51-202.74,42.91-82.81,76.66-172.62,162.97-207.97Z"/>
        <path class="cls-2" d="M1.5,595.29c67.48,4.35,193.25-7.88,258.87-24.24,50.79-12.66,104.71-30.94,143.63-63.84,6.35,7.73,13.91,14.61,21.71,20.92,26.74,21.66,59.71,38.91,94.02,36.19,19.53-1.55,38.03-9.47,55.06-19.16,52.83-30.05,94.67-78.75,117.08-135.2,25.92,13.89,60.41,12.34,89.15,2.25,88-30.89,139.59-119.94,182.51-202.74,42.91-82.81,76.66-172.62,162.97-207.97"/>
      </g>
    </g>
  </g>
</svg>