<?xml version="1.0" encoding="UTF-8"?>
<svg id="Capa_2" data-name="Capa 2" xmlns="http://www.w3.org/2000/svg" viewBox="0 0 858.49 755.08">
  <defs>
    <style>
      .cls-1 {
        fill: #72a888;
      }

      .cls-2 {
        fill: #102318;
      }
    </style>
  </defs>
  <g id="Capa_2-2" data-name="Capa 2">
    <g>
      <g>
        <path class="cls-2" d="M817.04,605.67c-15.43-.45-56.91-1.73-109.69-3.8-52.21-2.05-85.7-4.92-97.97-6.08l3.18-263.96c17.44,1.89,67.47,7.5,109.63,13.9,41.67,6.33,80.81,16.58,94.46,20.33-.49,2.77-1.12,6.55-1.81,11.23-10.38,1.5-19.54,7.94-24.42,17.58-1.46,2.88-.31,6.39,2.57,7.85,2.87,1.46,6.39.3,7.85-2.57,2.6-5.14,7.1-8.86,12.36-10.53-.95,7.93-1.89,17.29-2.63,27.84-8.58,2.45-15.95,8.36-20.15,16.65-1.46,2.88-.31,6.39,2.57,7.85,2.87,1.46,6.39.3,7.85-2.57,2.03-4,5.2-7.13,8.98-9.12-.39,8.2-.64,16.95-.67,26.18-7.41,2.84-13.68,8.35-17.43,15.75-1.46,2.88-.31,6.39,2.57,7.85,2.87,1.46,6.39.31,7.85-2.57,1.68-3.32,4.16-6.06,7.11-8.02.07,3.8.18,7.66.33,11.59.19,4.83.39,9.63.6,14.38-6.25,3.06-11.49,8.09-14.79,14.59-1.46,2.87-.31,6.39,2.57,7.85,2.88,1.46,6.39.3,7.85-2.57,1.26-2.49,2.98-4.65,5.01-6.4.41,8.36.85,16.51,1.3,24.32-6.53,3.02-12.01,8.18-15.42,14.9-1.46,2.88-.31,6.39,2.57,7.85,2.88,1.46,6.39.3,7.85-2.57,1.42-2.81,3.41-5.2,5.78-7.06,1.67,27.23,3.33,49.01,4.15,59.34M823.26,454.37c-.81-.06-1.61-.09-2.41-.09.03-4.11.11-8.13.22-12.04,5.8-.26,11.25-2.06,15.93-5.02,2.51,3.75,3.85,8.33,3.49,13.17-.23,3.15-1.17,6.08-2.63,8.68-4.29-2.63-9.25-4.31-14.6-4.7M820.94,469.77c-.02-1.28-.04-2.55-.06-3.81.51,0,1.01.02,1.53.06,2.32.17,4.51.73,6.54,1.58-2.45,1.23-5.16,1.99-8.01,2.18M821.73,492.23c-.15-3.57-.3-7.16-.44-10.77,6.32-.33,12.21-2.48,17.13-5.96,2.43,3.72,3.73,8.22,3.37,12.99-.19,2.65-.9,5.13-1.97,7.4-3.94-2.09-8.3-3.36-12.88-3.7-1.76-.13-3.5-.11-5.21.04M822.45,507.85c-.06-1.31-.13-2.62-.19-3.94,1.25-.13,2.53-.17,3.82-.07,1.89.14,3.72.54,5.46,1.16-2.71,1.61-5.81,2.61-9.09,2.85M823.64,530.28c-.2-3.52-.4-7.11-.59-10.75,6.88-.46,13.24-3.07,18.36-7.22,2.99,4.03,4.43,8.94,4.06,14-.23,3.11-1.14,6.05-2.62,8.69-4.29-2.63-9.25-4.31-14.61-4.71-1.55-.11-3.08-.11-4.6,0M824.55,545.73c-.08-1.26-.15-2.53-.23-3.8,1.01-.07,2.03-.07,3.06,0,2.32.17,4.51.73,6.55,1.58-2.9,1.46-6.08,2.22-9.38,2.22M827.09,583.79c-.55-7.6-1.17-16.52-1.81-26.39,6.53-.14,12.79-2.19,18.11-5.97,2.43,3.72,3.72,8.22,3.37,12.98-.78,10.59-9.35,18.78-19.67,19.39M825.04,389.37c9.51,2.57,16.2,11.61,15.45,21.79-.28,3.74-1.53,7.17-3.48,10.09-4.27-2.71-9.24-4.46-14.61-4.93.76-10.25,1.7-19.33,2.63-26.95M821.53,430.49c.04-.84.08-1.68.13-2.51,1.86.19,3.65.6,5.32,1.24-1.73.66-3.55,1.09-5.45,1.26M602.83,606.87c.36.04,36.86,4.04,104.06,6.67,67.03,2.63,115.85,3.98,116.34,3.99.05,0,.11,0,.16,0,1.6,0,3.14-.66,4.24-1.83,1.14-1.21,1.71-2.85,1.57-4.5-.02-.19-.5-5.95-1.25-15.75,16-1.03,29.24-13.75,30.45-30.18.61-8.34-1.98-16.18-6.72-22.33,3.12-4.64,5-10.04,5.42-15.76.64-8.7-2.14-17.13-7.84-23.74-.04-.05-.09-.1-.13-.15,2.4-4.14,3.93-8.86,4.3-13.94.61-8.34-1.98-16.19-6.73-22.34,3.05-4.54,5-9.91,5.43-15.75.6-8.19-1.89-15.91-6.48-22.01,3.65-4.84,6-10.74,6.48-17.22,1.21-16.37-9.94-30.86-25.52-34.29,1.37-9.22,2.45-14.47,2.48-14.63.63-2.99-1.15-5.95-4.08-6.81-.48-.14-48.81-14.15-101.08-22.09-52.02-7.9-115.9-14.58-116.54-14.65-1.63-.17-3.26.35-4.49,1.45-1.23,1.09-1.94,2.65-1.96,4.29l-3.32,275.72c-.04,3,2.21,5.54,5.19,5.87"/>
        <path class="cls-2" d="M696.82,497.24c-4.21-12.45-6.79-23.56-8.21-30.67l44,3c-1.66,8.15-4.76,21.36-8.79,29.65-6.11,12.55-11.24,19.9-14.64,23.99-3.41-5.26-8.32-14.03-12.35-25.98M681.03,452.73c-2-.13-3.95.63-5.31,2.09-1.37,1.46-2,3.46-1.73,5.44.1.75,2.61,18.7,10.23,41.23,7.83,23.18,18.62,35.71,19.08,36.23,1.3,1.49,3.14,2.28,5.01,2.28,1.19,0,2.38-.31,3.45-.97,1.77-1.08,11.26-7.78,24.01-34,6.99-14.37,11.14-39.46,11.31-40.52.3-1.85-.19-3.74-1.35-5.2-1.16-1.47-2.89-2.38-4.76-2.5l-59.94-4.09"/>
        <path class="cls-2" d="M509.59,414.56c2.14-2.41,5.83-2.63,8.24-.49l52.62,46.75,1.3-107.63c.04-3.22,2.65-5.77,5.91-5.77,3.22.04,5.8,2.68,5.77,5.91l-3.26,270.37c12.27,1.17,45.76,4.04,97.97,6.08,30.6,1.2,57.37,2.13,77.5,2.79.31-.02.61,0,.9.03,23.38.77,37.54,1.16,37.8,1.16,3.22.09,5.76,2.77,5.68,6-.09,3.17-2.68,5.68-5.83,5.68-.05,0-.11,0-.16,0-.23,0-11.67-.32-30.91-.94,1.98,10.08,5.58,29.1,8.31,47.33,3.96,26.41,6.21,56.67,6.23,56.97.12,1.65-.46,3.27-1.61,4.47-1.1,1.15-2.63,1.8-4.21,1.8-.06,0-.12,0-.18,0-.59-.02-14.65-.47-25.51-2.29-10.73-1.79-24.22-5.26-24.79-5.4-3.12-.81-5-3.99-4.2-7.11.81-3.12,3.99-5,7.11-4.2.13.04,13.57,3.49,23.79,5.19,5.67.95,12.5,1.5,17.42,1.81-.88-10.28-2.81-30.89-5.6-49.5-2.97-19.78-6.97-40.52-8.75-49.46-19.62-.65-44.87-1.54-73.44-2.66-14.29-.56-27.17-1.18-38.63-1.82,1.48,7.36,6,30.34,9.28,52.2,3.96,26.41,6.21,56.67,6.23,56.97.12,1.65-.46,3.27-1.61,4.47-1.1,1.15-2.63,1.8-4.21,1.8-.06,0-.12,0-.18,0-.59-.02-14.65-.47-25.51-2.29-10.73-1.79-24.22-5.26-24.79-5.4-3.12-.81-5-3.99-4.2-7.11.81-3.12,3.99-5,7.11-4.2.13.04,13.57,3.49,23.79,5.19,5.67.95,12.5,1.5,17.42,1.81-.88-10.28-2.81-30.89-5.6-49.5-3.9-26.03-9.6-53.72-9.66-54-.04-.21-.05-.42-.06-.63-34.71-2.11-53.18-4.13-53.44-4.16-2.98-.33-5.23-2.87-5.19-5.87l1.84-152.64-60.19-53.47c-2.41-2.14-2.63-5.83-.49-8.24"/>
        <path class="cls-2" d="M671.9,395.72c8.46,0,15.33,8.61,15.33,19.2s-6.88,19.2-15.33,19.2c-8.46,0-15.33-8.61-15.33-19.2s6.88-19.2,15.33-19.2"/>
        <path class="cls-2" d="M739.18,423.36c0-10.59,6.88-19.2,15.33-19.2s15.33,8.61,15.33,19.2c0,10.59-6.88,19.2-15.33,19.2s-15.33-8.61-15.33-19.2"/>
      </g>
      <path class="cls-1" d="M457.72,412.81c5.42-38.5,29.32-71.57,43.09-107.94,36.05-95.2-6.51-211.76-92-267.02C323.32-17.41,204.33-10.67,121.39,48.35,38.44,107.36-6.65,212.95.8,314.48c4.58,62.44,28.86,125.03,75.02,167.32,46.7,42.79,111.56,61.35,174.86,63.53s133.77-1.85,180.69-86.53c2.42,27.82,107.6,15.54,107.6,15.54,0,0-88.67-8.7-81.24-61.54Z"/>
      <g>
        <path class="cls-2" d="M142.82,117.87c0,.42.07.84.07,1.26,0,1.54-1.75,2.52-3.08,2.52-1.12,0-1.82-.56-2.59-1.26-1.61-1.68-1.05-3.22-1.05-5.25,0-2.59-.49-5.18-.91-7.77-.28-1.61-.63-2.73-1.47-4.13-.49-.91-.91-1.82-2.1-1.82-1.33,0-2.73,2.03-3.64,2.87-1.12.98-1.54,1.54-1.61,3.08-.91.91-1.54,1.96-2.03,3.08-.28.63-.21,1.96-.35,2.73-.14.56-.42,1.12-.56,1.75-.07.7-.07,1.4-.07,2.17,0,1.75.21,3.5.21,5.25,0,1.12-.21,1.75-.98,2.52-.63.56-2.03,1.4-2.94,1.4-.49,0-1.47-.14-1.61-.7h-.21c-1.19,0-1.19-4.48-1.19-5.18-.07-.91-.42-1.68-.42-2.59,0-.77.14-1.61.14-2.45,0-1.12-.49-2.1-.49-2.87,0-.63.21-1.26.21-1.82,0-2.8-.77-5.46-.77-8.26,0-.7.21-1.33.21-2.03,0-.84-.42-1.68-.56-2.52-.07-.98-.07-1.89-.07-2.87,0-2.31.21-4.69.21-7,0-.77-.07-1.47-.14-2.24,0-.63-.28-1.19-.35-1.75-.07-.77.07-1.47.07-2.24,0-1.26-.77-2.31-.77-3.57,0-.91.35-1.89.35-2.87,0-1.33-.42-2.59-.42-3.92,0-.35.07-.77.28-1.12.42-.14.77-.56,1.26-.56.63,0,1.26.07,1.75.56,1.61,1.54,1.68,4.62,2.03,6.65.07.42.14.84.14,1.26,0,.63-.14,1.19-.14,1.82,0,.77.56,1.75.7,2.52.07.49.14.98.21,1.47.35,2.52.14,5.11.35,7.7.14,2.17.35,4.34.35,6.51,0,.91-.21,1.75-.21,2.66,0,.84.42,1.61.42,2.52,0,.63-.21,1.33-.21,2.03,0,.28.07.63.14.91,1.33-.14,1.26-1.68,1.68-2.52.77-.7,1.61-1.26,2.31-2.03.7-.7,1.12-1.61,1.82-2.31,1.54-1.68,3.5-3.43,5.95-3.43,2.8,0,5.46,2.17,6.65,4.69.28.63.28,1.47.56,2.17.21.63.7,1.12.91,1.82.21.63.14,1.4.35,2.1.28,1.33.7,2.66.91,3.99.07.7,0,1.47.14,2.17.21.91.77,1.82.77,2.8,0,.7-.21,1.4-.21,2.1Z"/>
        <path class="cls-2" d="M167.6,118.36c-.42.42-.77.98-1.26,1.26-.63.42-1.47.63-2.17.91-.56.28-1.4.77-1.96.91-.56.14-1.19,0-1.75,0-.7,0-1.4.14-2.1.14s-1.33-.21-1.96-.7c-1.89-.14-3.78-.84-5.18-2.17-.28-.21-.35-.49-.56-.7-.21-.14-.49-.21-.7-.35-2.17-1.61-2.59-3.29-2.59-5.88,0-2.45,1.26-4.62,2.38-6.72.07-.21.07-.42.21-.56.21-.28.63-.42.91-.7.49-.56.77-1.33,1.4-1.82.21-.21.49-.21.7-.35.42-.28.7-.91,1.12-1.12,1.33-.7,3.64-.84,5.11-.84,2.94,0,7,.98,8.54,3.78.35.49.49.98.91,1.4.56.49,1.26.84,1.68,1.47.07.14.07.35.14.49.63,1.33.84,2.66.84,4.13,0,3.29-1.4,5.25-3.71,7.42ZM165.64,107.58c-.21-.21-.42-.35-.56-.56-.63-.7-1.05-2.03-1.96-2.31-.49-.21-4.48-1.12-4.83-1.12-.42,0-1.54.84-1.89,1.12-.28.21-.56.35-.91.49-1.96,1.12-2.38,2.1-2.38,4.41,0,1.68.63,2.87,1.68,4.06.63.7,2.31,2.59,3.08,2.87,1.19.49,3.01.28,4.34.42.98-.63,2.38-1.68,2.87-2.73l.35-.21c.21-.28.21-.7.35-1.05.49-1.12.84-1.05.84-2.66,0-.98-.42-1.96-.98-2.73Z"/>
        <path class="cls-2" d="M181.18,125.5c-1.26,0-1.89-1.05-2.66-1.82-.07-.84,0-1.61,0-2.45,0-.91-.28-1.68-.35-2.59-.07-.56,0-1.12,0-1.68,0-.91-.42-1.61-.56-2.45-.07-.77,0-1.47,0-2.24,0-.98-.28-1.89-.35-2.8-.07-.84-.14-1.68-.21-2.52-.07-.77-.28-1.54-.35-2.38-.35-3.22-.21-6.51-.91-9.73v-.28c0-.49.21-.98.21-1.47,0-1.47-.49-2.87-.56-4.34-.07-.98.07-1.96.07-2.94,0-1.19-.28-2.24-.42-3.36-.14-1.33-.28-2.73-.28-4.06,0-.84.07-2.73.63-3.36.21-.21.49-.35.7-.49.35-.07.7.21.91.35,1.47.77,1.82,2.38,2.03,3.92.07.77,0,1.61.14,2.38.07.28.28.56.35.91.21.77.21,1.54.42,2.31.49,2.66.35,5.46.7,8.12.07.77.28,1.54.35,2.31.42,4.69.77,9.31,1.26,13.93.07.77.07,1.54.21,2.31.07.77.35,1.54.49,2.38.14.84.07,1.68.21,2.52.07.56.35,1.05.56,1.61.28,1.12.91,3.5.91,4.62,0,1.61-1.96,3.29-3.5,3.29Z"/>
        <path class="cls-2" d="M192.03,88.04c-.49.14-.91.28-1.4.28-.21,0-1.96-.42-2.03-.49-.14-.07-.14-.21-.21-.35-.77-.35-1.19-1.68-1.19-2.52,0-1.54,1.75-2.1,3.08-2.1,1.4,0,3.01.63,3.85,1.75.35.42.77.84.77,1.4,0,1.33-1.96,1.68-2.87,2.03ZM194.48,125.92c-.91,0-1.54-.63-2.31-.98-.63-1.19-.56-2.94-.7-4.34-.07-.42-.28-.77-.35-1.26-.07-.42,0-.84,0-1.33,0-1.75-.35-3.78-.35-5.67-.07-.63,0-1.33,0-1.96,0-.98-.28-1.82-.42-2.73-.21-2.1-.14-4.2-.14-6.3,0-1.47.07-3.92,2.1-3.92.7,0,1.82.42,2.24,1.05.28.42.21,1.4.35,1.96.07.63.42,1.19.49,1.82.28,1.33.21,2.73.42,4.13.07.7.42,1.33.49,1.96.21.98.14,1.96.21,2.94.21,2.17.42,4.41.56,6.65.07.14.14.35.14.56,0,.14-.14.21-.14.49,0,1.12.42,2.24.42,3.43,0,1.33-1.61,3.5-3.01,3.5Z"/>
        <path class="cls-2" d="M241.38,99.73c-1.54,0-.77-3.08-4.62-3.08-2.59,0-3.08,1.19-3.08,3.5,0,2.1.7,3.01,1.47,4.76.28.63.42,1.33.7,2.03.49.98,1.12,1.75,1.47,2.87.21.84.42,1.68.7,2.52.42,1.12.98,2.1,1.47,3.22.14.42.14.84.35,1.26.14.35.42.56.56.91.14.63.14,1.33.14,1.96,0,2.24-.21,3.71-1.4,5.6-.35.42-.56,1.05-.91,1.47-.42.42-.98.56-1.47.91-.77.42-1.47.98-2.17,1.61-.28-.14-.56-.14-.84-.14-.77,0-1.4.35-2.03.63-.98.07-2.03.07-3.01.07-.84,0-1.82-.49-2.45-.91l-.21-.35h-.35c-.49-.49-.7-1.26-1.12-1.82-.28-.42-1.12-.98-1.26-1.47-.07-.35-.14-.7-.14-1.05,0-.84.49-1.75,1.4-1.75.63,0,1.12.35,1.47.84.21.21.21.63.35.91.56.98,2.52,3.08,3.71,3.08.7,0,1.82-.56,2.45-.91,1.68-1.12,1.47-3.43,1.61-5.25,0-.42.21-.91.21-1.33l-.07-.14c0-.35-1.4-4.06-1.61-4.27-.07-.14-.21-.14-.35-.21-.7-1.54-.42-3.29-1.05-4.48-.63-1.05-1.05-2.17-1.61-3.29-.98-1.75-1.96-3.08-1.96-5.25,0-2.45,1.54-5.25,3.57-6.65.14-.07.35-.21.49-.35.63-.42,2.52-1.47,3.15-1.61.7-.14,1.47-.21,2.17-.21,2.24,0,5.6,2.38,5.6,4.76,0,.84-.35,1.61-1.33,1.61Z"/>
        <path class="cls-2" d="M265.6,118.36c-.42.42-.77.98-1.26,1.26-.63.42-1.47.63-2.17.91-.56.28-1.4.77-1.96.91-.56.14-1.19,0-1.75,0-.7,0-1.4.14-2.1.14s-1.33-.21-1.96-.7c-1.89-.14-3.78-.84-5.18-2.17-.28-.21-.35-.49-.56-.7-.21-.14-.49-.21-.7-.35-2.17-1.61-2.59-3.29-2.59-5.88,0-2.45,1.26-4.62,2.38-6.72.07-.21.07-.42.21-.56.21-.28.63-.42.91-.7.49-.56.77-1.33,1.4-1.82.21-.21.49-.21.7-.35.42-.28.7-.91,1.12-1.12,1.33-.7,3.64-.84,5.11-.84,2.94,0,7,.98,8.54,3.78.35.49.49.98.91,1.4.56.49,1.26.84,1.68,1.47.07.14.07.35.14.49.63,1.33.84,2.66.84,4.13,0,3.29-1.4,5.25-3.71,7.42ZM263.64,107.58c-.21-.21-.42-.35-.56-.56-.63-.7-1.05-2.03-1.96-2.31-.49-.21-4.48-1.12-4.83-1.12-.42,0-1.54.84-1.89,1.12-.28.21-.56.35-.91.49-1.96,1.12-2.38,2.1-2.38,4.41,0,1.68.63,2.87,1.68,4.06.63.7,2.31,2.59,3.08,2.87,1.19.49,3.01.28,4.34.42.98-.63,2.38-1.68,2.87-2.73l.35-.21c.21-.28.21-.7.35-1.05.49-1.12.84-1.05.84-2.66,0-.98-.42-1.96-.98-2.73Z"/>
        <path class="cls-2" d="M293.88,106.11c-.63,1.33-1.12,2.87-1.82,4.13-.14.28-.42.49-.56.77-.14.28-.07.56-.14.84-.14.28-.42.49-.56.77-.14.28-.07.56-.21.91-.56,1.61-1.61,3.08-2.31,4.69-.56,1.05-1.12,2.1-1.61,3.22-.49,1.12-.77,2.31-1.26,3.43-.49,1.12-1.12,2.17-1.68,3.22-.21.56-.42,1.12-.7,1.61-.14.28-.42.49-.56.77-.42.84-.42,1.82-.84,2.66-.14.28-.42.49-.56.77-.42.7-.63,1.54-1.12,2.31-.14.28-.42.42-.49.7-.14.28-.07.63-.21.91-.35.84-1.12,1.54-1.47,2.38-.28.56-.35,1.19-.56,1.75-.49,1.33-1.4,2.31-1.82,3.64-.21.84-.49,2.52-1.26,3.08-.49.35-1.75.42-2.38.42-.7,0-2.03-.07-2.59-.63-.42-.35-.77-1.19-.77-1.75,0-.84.28-1.68.56-2.38.35-.77.98-1.26,1.26-1.96.35-.7.28-1.54.56-2.17.14-.28.42-.49.56-.77.28-.56.35-1.19.7-1.75.49-.84,1.82-3.22,2.17-3.99.21-.56.28-1.26.56-1.82.35-.77,1.19-1.33,1.61-2.17.35-.63.42-1.33.7-1.96.28-.56.63-1.05.91-1.61.56-1.26.91-2.52,1.47-3.78.49-1.26.98-2.45,1.61-3.64.49-.98,1.33-2.38,1.26-3.5v-.28c-.07-.91-1.26-2.03-1.82-2.66-1.33-1.61-2.52-3.15-3.5-4.9-1.05-1.82-2.31-3.5-3.99-4.69-.42-2.31-2.8-3.57-2.8-6.09,0-.35,0-.63.07-.98.56-.28,1.12-.56,1.75-.56,1.19,0,2.1.84,2.8,1.68.49.63.77,1.33,1.26,1.96.21.35.49.63.7.91.77,1.12,1.47,2.38,2.38,3.43.07.14.21.21.35.35.21.35.28.77.49,1.12.7.98,3.85,5.46,5.04,5.6,1.26-.42,1.54-2.59,2.1-3.64.42-.7,1.05-1.26,1.47-1.96.35-.63.42-1.33.7-1.96.7-1.47,1.47-2.87,2.24-4.27.35-.56.7-1.12,1.05-1.68.07-.21.07-.42.14-.56.07-.14.28-.07.35-.21.14-.14.28-.63.35-.84.56-1.12,1.4-3.36,2.38-3.99.21-.14,1.19-.56,1.47-.56,1.05,0,2.03.7,2.03,1.82,0,2.66-4.2,11.13-5.46,13.86Z"/>
        <path class="cls-2" d="M342.67,98.2c-.63,0-1.26-.35-1.89-.35-2.31,0-2.8.42-4.06,2.17.14,1.26.21,2.52.35,3.78.14,1.12.42,2.24.56,3.43.14,1.89-.07,3.85.14,5.74.07.56.42,1.05.42,1.68,0,.56-.14,1.19-.14,1.75s.14,1.12.49,1.61c-.21.49-.28.98-.28,1.54,0,.91.21,1.75.42,2.59.14.56.35,3.64.35,4.34,0,1.47-1.89,3.64-3.36,3.64-1.05,0-1.96-.91-2.59-1.68-.21-.21-.77-.98-.84-1.26-.35-.77-.21-6.23-.21-7.49,0-1.19-.07-2.31-.21-3.5-.07-.98-.35-1.61-.35-2.73,0-.91.07-1.82.07-2.8,0-2.03-.56-3.99-.56-5.95,0-.49.14-.84.14-1.26,0-.7-.28-1.33-.35-2.03-.07-.7.07-1.47-.21-2.17-.42-1.33-1.19-1.61-2.52-1.75-.42-.07-.84-.21-1.26-.21-.63,0-1.26.35-2.03.35-.84,0-1.61-.21-2.45-.21-.56,0-1.05-.07-1.26-.7.21-3.08,7.49-.49,9.17-2.31.07-.21.07-.42.07-.63,0-1.12-.42-2.24-.42-3.36,0-.56.21-1.12.21-1.68s-.28-.98-.35-1.54c-.21-1.19-.07-2.45-.21-3.64-.14-.98-.56-2.03-.56-3.01,0-1.4.56-2.94,2.17-2.94.49,0,1.12.07,1.26.56.21.07.07,0,.28,0h.07c.49.21,1.33,2.38,1.47,2.87.77,2.38,1.12,4.76,1.47,7.21.07.63.28,1.19.35,1.82,0,.56-.07,1.12-.07,1.68,0,.91,1.19,2.87,2.24,2.87.63,0,1.26-.49,1.96-.56.49-.07.98,0,1.47,0,.56,0,1.12-.21,1.75-.21,1.05,0,2.38,1.33,2.38,2.45,0,1.19-2.03,1.89-3.08,1.89Z"/>
        <path class="cls-2" d="M374.87,124.31c-.42.07-.77.07-1.19.07-2.1,0-2.94-.77-3.43-2.73-.14-.49,0-1.05-.14-1.54-.07-.35-.42-.63-.49-.98-.07-.7,0-1.54,0-2.31,0-1.05-.14-2.94-.84-3.78-1.89.28-1.54,2.38-2.59,3.5-.63.63-1.61.7-2.24,1.33-.56.56-.7,1.54-1.19,2.24-.77,1.12-2.03,2.1-3.01,3.08-.28.35-.56.84-.91,1.05-.35.28-.91.28-1.26.49-.49.21-.84.7-1.33.7-.63,0-1.19-.21-1.75-.28-.7,0-1.4.07-2.1.07-.63,0-1.54-.21-2.03-.7-.14-.14-.07-.42-.21-.56-.21-.28-.7-.42-.84-.7-.21-.49-.14-1.47-.35-2.1-.14-.49-.56-.98-.7-1.47-.14-.84-.21-1.68-.21-2.45,0-2.1.84-3.5.84-5.32,0-.77-.14-1.54-.14-2.31s.42-1.26.49-1.96c.14-.49,0-1.05.07-1.54.21-1.54.49-3.01.63-4.48.14-1.4.77-4.41,2.59-4.41,2.59,0,2.73,2.38,2.73,4.34,0,1.33-.49,2.1-.49,2.94,0,.63.21,1.26.21,1.89s-.21,1.19-.28,1.82c-.14,1.54-.14,3.08-.42,4.62,0,.21-.07.42-.07.63,0,.7.07,1.4.07,2.1,0,.84-.14,1.75-.14,2.66,0,1.05.56,2.8,1.89,2.8.98,0,2.24-1.54,3.01-2.17.98-.84,1.89-1.54,2.66-2.52.35-.49.56-1.26,1.05-1.61.14-.14.35-.14.56-.28,1.05-.91,2.87-3.36,3.5-4.69.35-.84,1.19-1.4,1.54-2.24.07-.28,0-.84.07-1.19.28-1.05.98-1.96.98-3.08,0-.63-.07-1.26-.07-1.89,0-.98,1.33-1.82,2.24-1.82,2.59,0,3.99,4.48,3.99,6.58,0,.91-.28,2.1-.28,3.29,0,2.38.7,4.69.7,7,0,.42-.07.91-.07,1.33,0,1.12.63,2.17.63,3.29s-.77,2.66-1.68,3.29Z"/>
        <path class="cls-2" d="M135.96,188.29c-.07,1.26-.63,2.45-.63,3.64,0,.7.14,1.4.14,2.1,0,.98-.21,1.89-.49,2.8-.21.49-.49.91-.63,1.4-.14.63-.07,1.26-.21,1.82-.07.49-.35.91-.42,1.4-.07.7.07,1.4.07,2.1,0,.98-.49,1.68-.63,2.59-.14.84-.07,3.01-.28,3.64-.42,1.05-1.82,3.22-3.08,3.22-1.33,0-3.08-1.47-3.08-2.87,0-.91.49-1.68.49-2.52,0-.28-.07-.56-.14-.84.35-.98.63-1.19.63-2.31,0-.35-.07-.84-.21-1.19-.35-.14-.7-.21-1.05-.21-1.19,0-2.31.56-3.5.56-.91,0-1.82-.14-2.66-.14-.56,0-1.12.07-1.68.07-.21,0-.42,0-.63-.07-.91-.21-4.62-3.64-4.9-4.41-.07-.35-.14-.77-.14-1.12,0-1.19.63-2.17,1.19-3.15.35-.63.7-1.54,1.19-2.03.21-.28.7-.35.98-.63.35-.21.49-.56.84-.77,1.47-1.05,3.43-1.54,5.18-1.54.49,0,1.05,0,1.54.07,1.05.21,1.82.84,2.8,1.26.35.14,1.4.21,1.61.42.14.07.21.21.21.35.35.14.7.07,1.05.21.7-.56.35-1.89.35-2.73,0-1.4.42-2.8.42-4.27,0-1.82-1.33-6.02-3.43-6.37h-.49c-1.75,0-2.66,1.61-4.76,1.61-1.47,1.26-2.31,2.38-4.06,3.29-.35.14-.77.56-1.19.56-.14,0-.28-.07-.42-.21-.21-.28-.35-.63-.35-.98,0-1.96,2.17-2.73,2.73-4.06.42-.14.77-.35,1.05-.63l.21-.35c.56-.28,1.26-.49,1.82-.84.21-.14.35-.42.56-.63,1.12-.63,3.15-1.05,4.48-1.05.84,0,2.66.14,3.43.49.28.07.42.28.63.42,1.33.56,2.1,1.05,3.01,2.17,1.82,2.17,2.52,5.46,2.52,8.19,0,.49,0,1.05-.07,1.54ZM127.07,195.78c-1.05-1.05-4.62-1.68-6.09-1.68-1.33,0-3.08.35-3.08,2.03,0,1.12.77,2.66,1.68,3.29.91.63,2.31.56,3.43.63.63.07,1.26.21,1.89.21,1.12,0,2.52-.21,3.15-1.19l.07-.42c0-.98-.35-2.17-1.05-2.87Z"/>
        <path class="cls-2" d="M165.43,218.39c-.14,1.33,0,2.87-.49,4.13-.42.91-1.19,1.47-1.61,2.31-.35.56-.49,1.12-.77,1.68-.42.91-.98,1.89-1.4,2.87-.56,1.12-.91,2.31-2.17,2.87-.35.56-.63,1.19-1.12,1.61-.56.49-1.33.63-1.96,1.12-.56.35-.98,1.19-1.61,1.4-.56.21-1.54.07-2.17.21-.63.07-1.19.35-1.82.35s-1.96-.84-2.66-1.12c-.91-.21-1.89-.14-2.73-.49-.63-.28-1.19-.91-1.82-1.26-1.68-1.05-3.99-2.52-3.99-4.76,0-.56.21-1.12.56-1.54.35-.14.63-.21.98-.21,1.33,0,2.17,1.05,2.1,2.31,1.12.7,1.89,1.75,3.08,2.38.56.28,1.19.35,1.82.56.35.14,1.26.7,1.61.7.56,0,1.19-.07,1.82-.21,2.24-.56,4.69-3.78,5.39-5.95.14-.42.21-.84.35-1.26.35-.84,1.12-1.61,1.12-2.59,0-.35-.07-.7-.07-1.05,0-1.12.63-2.24.77-3.36.07-.56,0-1.12,0-1.61,0-.35.14-.56.14-.91,0-.21-.14-.42-.14-.7,0-.49.28-.98.35-1.47.07-.56,0-1.19,0-1.75,0-.98.28-1.96.28-2.94,0-.63-.14-1.26-.49-1.82.07-.14.07-.35.07-.49,0-.56-.14-1.12-.63-1.47h-.21c-1.54-.07-2.17,1.33-3.36,1.61-.56.14-1.26,0-1.82,0-.63,0-1.26.07-1.89.07-.7,0-1.47-.07-2.03-.42-.28-.14-.35-.42-.56-.56-.7-.42-2.66-.63-3.64-1.05-1.33-.63-2.94-2.66-3.57-3.99-.77-1.61-1.4-4.69-1.4-6.51,0-.49.07-.91.14-1.4.14-.84,2.24-5.04,2.87-5.74.49-.56,1.26-.98,1.82-1.47l.14-.35c.56-.28,1.12-.63,1.68-.91,1.82-1.05,3.64-1.26,5.74-1.26.56,0,1.05-.21,1.61-.21,1.26,0,2.52,1.19,3.78,1.47.49-.14.7-.49.7-1.05s-.14-1.05-.14-1.68c0-1.75-.07-5.04,2.52-5.04.42,0,.84.07,1.26,0,1.96.84,1.61,4.27,2.52,5.95-.14.91-.21,1.89-.21,2.8,0,1.54.42,1.89.56,3.15.07.63,0,1.19,0,1.82,0,1.47.77,2.87.77,4.27,0,.56-.21,1.12-.21,1.68,0,.42.28.84.35,1.26.28,1.4.14,2.8.14,4.27,0,.49.14.91.42,1.33-.07.63-.35,1.26-.35,1.96,0,.84.35,1.54.35,2.38,0,.7-.21,1.4-.21,2.1,0,.98.35,1.96.35,2.94,0,1.68-.63,3.36-.91,5.04ZM158.08,193.12c0-.56.21-1.12.21-1.68,0-1.47-1.68-2.38-2.59-3.36-.28-.28-.07-.35-.49-.49-.07-.14-.07-.28-.21-.42-.14-.07-1.33-.28-1.61-.35-.21-.07-1.33-.56-1.47-.56-.07,0-.14.07-.14.21-.56,0-1.12,0-1.61.21-.28.07-.49.35-.77.49-.28.21-.56.21-.91.42-1.61.91-3.15,2.94-3.15,4.83,0,1.19.49,2.31.63,3.43.07.42,0,.77,0,1.19,0,1.4,2.73,6.72,4.41,6.72.63,0,1.26-.35,1.96-.35.49,0,1.05.21,1.54.21.63,0,1.47-.77,2.03-1.12.42-.21,1.68-.7,1.96-1.05.42-.56.84-3.36.84-4.06,0-1.47-.63-2.8-.63-4.27Z"/>
        <path class="cls-2" d="M190.63,206c-.35.28-.63.84-1.05,1.05-.77.42-3.64,1.05-4.48,1.05s-1.61-.21-2.31-.7c-.35.07-.7.14-1.05.14-1.05,0-2.1-.21-3.15-.28-.7-.07-1.89-1.26-2.38-1.68-.28-.21-.63-.35-.91-.56-.63-.35-1.4-1.54-1.89-2.17-1.68-2.24-2.17-3.57-2.17-6.44,0-1.12.07-2.52.35-3.64.21-.63,1.96-4.41,2.38-4.9.14-.14.28-.28.42-.42.07-.14.07-.35.14-.49.42-.63,3.43-2.94,4.2-3.5,1.19-.91,2.45-1.82,4.06-1.82.28,0,3.43.63,3.64.7.63.28,3.92,3.29,4.2,3.85.21.35.07.91.21,1.26.28,1.12,1.26,1.96,1.26,3.15,0,.77-.35,1.47-.35,2.24,0,.42-1.19,1.05-1.54,1.05-.49,0-.91-.35-1.4-.35s-.98.14-1.47.14c-1.89,0-3.78-.42-5.67-.42-2.66,0-3.85,0-3.85,2.87,0,1.19.07,2.66.35,3.78s1.54,3.64,2.59,4.2c.28.21.77.14,1.12.21.28.07.42.28.7.35.42.14.98.14,1.4.14,1.68,0,4.69-.91,5.74-2.31l.35-.21c.07-.14,0-.28,0-.42,0-.84,2.24-2.38,3.22-2.38,1.05,0,1.33,1.68,1.33,2.38,0,2.31-2.52,2.87-3.99,4.13ZM186.08,185.63c-.28-.07-1.12-.14-1.47-.14-.49-.07-.98-.21-1.54-.21-.98,0-2.87,1.4-3.43,2.17-.21.35-.21.77-.35,1.12-.14.28-.42.63-.42.91,0,.98,1.4,1.33,2.17,1.33,1.05,0,2.03-.28,3.01-.42h1.96c.7,0,1.61,0,2.1-.7,0-1.47-.56-3.43-2.03-4.06Z"/>
        <path class="cls-2" d="M230.04,206.98c-.77.98-1.12,2.24-2.59,2.24-1.26,0-3.5-.56-4.06-1.82-.21-.56-.21-1.12-.21-1.61,0-1.68.21-3.29.21-4.97,0-1.19-.35-2.31-.35-3.15,0-.49.14-.84.14-1.26,0-.98.07-1.96-.14-2.94-.28-1.26-1.47-2.38-1.47-3.71,0-.42.07-.84.07-1.26,0-.91-.42-.42-.42-1.82,0-.56-.63-2.17-.91-2.73-.28-.77-.49-1.68-1.26-2.17h-.35c-3.15-.14-4.34,2.03-6.3,4.13-.7.77-1.19,1.54-1.82,2.38-.77.98-1.05.84-1.75,2.31-.35.7-.28,1.61-.56,2.38-.21.42-.56.77-.77,1.26-.21.42-.35.91-.49,1.4-.42,1.4-.28,2.94-.35,4.34-.07.84-.42,1.68-.42,2.52,0,1.54.84,2.94.84,4.55,0,1.82-1.33,3.71-3.36,3.71-.98,0-2.1-.63-2.52-1.61-.21-.63-.14-1.26-.14-1.96,0-1.19-.56-2.17-.56-2.31,0-.49.21-.98.21-1.47,0-.7-.63-1.26-.77-1.96-.07-.49.07-1.12.07-1.61,0-.84-.42-1.61-.56-2.38-.63-3.01-.98-7.84-.98-10.99,0-1.4,0-4.06,1.89-4.06,1.19,0,2.1,1.05,2.87,1.89.49,1.75.35,4.27,1.26,5.74,2.31,0,2.66-2.45,3.57-3.92.42-.63,1.05-1.05,1.47-1.61.42-.56.63-1.26,1.05-1.82.07-.07,3.08-2.87,3.08-2.87.56-.42,1.26-.35,1.82-.77.63-.42,1.26-1.26,2.1-1.26.21,0,.42.21.7.21.63,0,1.33-.21,1.96-.21,1.54,0,2.52,1.54,3.71,2.17.14.14.35.07.49.21.07.07.28.7.42.91.42.7,1.05,1.33,1.4,2.17s.42,1.82.77,2.66c1.26,3.92,2.52,7.14,2.52,11.34,0,.84-.21,1.61-.21,2.38,0,2.17.77,4.2.77,6.37,0,.35,0,.7-.07.98Z"/>
        <path class="cls-2" d="M261.12,164.55c-.35,2.1-.07,4.27-.35,6.37-.07.49-.28.84-.42,1.33,0,.35.07.77.07,1.19,0,.98-.42,2.03-.42,3.08-.07,2.38-.49,4.76-.7,7.14-.07.7-.35,1.33-.35,2.03,0,.42.14.77.14,1.19,0,.49-.28.63-.35,1.05-.28,1.19-.07,2.52-.21,3.78-.14,1.19-.63,2.31-.7,3.57-.14,1.05-.07,2.1-.77,2.94-.07,1.33,0,2.66-.21,3.99-.14.63-.42,1.19-.56,1.82-.35,1.68-.21,4.48-1.12,5.81-.91.49-2.17.56-3.22.56-.77-.84-1.68-1.47-1.68-2.8,0-1.19.63-2.31.63-3.57,0-.35-.07-.77-.21-1.12-.21-.07-.42-.07-.56-.07-.7,0-1.26.35-1.89.49-1.12.14-2.24.14-3.29.14-.98,0-1.96,0-2.87-.14-.49-.14-.91-.42-1.33-.56-.42-.21-.91-.14-1.33-.42-.42-.21-.7-.77-1.12-1.12-.91-.84-2.24-1.54-3.01-2.59-.98-1.54-1.75-3.85-1.75-5.6,0-2.1,1.05-3.36,1.96-5.11.21-.42.28-.91.56-1.26.77-1.12,2.73-2.45,3.92-3.01.42-.21.91-.21,1.33-.42.35-.07.56-.42.91-.56.56-.14,3.08-.35,3.64-.35,1.12,0,2.03.91,3.22.91.35,0,.7-.07,1.05-.14,1.26.49,1.68,2.1,2.94,2.59,1.12-1.12,1.19-3.01,1.33-4.48.42-3.57.42-7.28,1.12-10.85.28-1.26.98-2.45.98-3.71,0-.42-.21-.77-.21-1.19,0-.63.42-1.33.56-2.03.28-1.61.07-6.37,2.38-6.37,1.33,0,2.45,2.52,2.45,3.64,0,1.26-.35,2.59-.56,3.85ZM250.83,189.27c-.49-.98-1.19-1.47-1.82-2.24-.21-.21-.21-.56-.42-.77-.35-.49-2.24-.98-2.87-.98-.21,0-.28,0-.49.07-1.33.49-3.64.63-4.48,1.89-.21.28-.28.77-.35,1.12-.42,1.12-.63,2.31-.63,3.43,0,1.61.7,2.17,1.33,3.5.14.28.21.63.42.91.42.84,1.68,2.45,2.59,2.8.63.21,1.4.21,2.03.21,2.66,0,4.13-.63,5.25-3.01.35-.63.63-1.33.63-2.03,0-1.12-.63-3.85-1.19-4.9Z"/>
        <path class="cls-2" d="M285.9,188.29c-.07,1.26-.63,2.45-.63,3.64,0,.7.14,1.4.14,2.1,0,.98-.21,1.89-.49,2.8-.21.49-.49.91-.63,1.4-.14.63-.07,1.26-.21,1.82-.07.49-.35.91-.42,1.4-.07.7.07,1.4.07,2.1,0,.98-.49,1.68-.63,2.59-.14.84-.07,3.01-.28,3.64-.42,1.05-1.82,3.22-3.08,3.22-1.33,0-3.08-1.47-3.08-2.87,0-.91.49-1.68.49-2.52,0-.28-.07-.56-.14-.84.35-.98.63-1.19.63-2.31,0-.35-.07-.84-.21-1.19-.35-.14-.7-.21-1.05-.21-1.19,0-2.31.56-3.5.56-.91,0-1.82-.14-2.66-.14-.56,0-1.12.07-1.68.07-.21,0-.42,0-.63-.07-.91-.21-4.62-3.64-4.9-4.41-.07-.35-.14-.77-.14-1.12,0-1.19.63-2.17,1.19-3.15.35-.63.7-1.54,1.19-2.03.21-.28.7-.35.98-.63.35-.21.49-.56.84-.77,1.47-1.05,3.43-1.54,5.18-1.54.49,0,1.05,0,1.54.07,1.05.21,1.82.84,2.8,1.26.35.14,1.4.21,1.61.42.14.07.21.21.21.35.35.14.7.07,1.05.21.7-.56.35-1.89.35-2.73,0-1.4.42-2.8.42-4.27,0-1.82-1.33-6.02-3.43-6.37h-.49c-1.75,0-2.66,1.61-4.76,1.61-1.47,1.26-2.31,2.38-4.06,3.29-.35.14-.77.56-1.19.56-.14,0-.28-.07-.42-.21-.21-.28-.35-.63-.35-.98,0-1.96,2.17-2.73,2.73-4.06.42-.14.77-.35,1.05-.63l.21-.35c.56-.28,1.26-.49,1.82-.84.21-.14.35-.42.56-.63,1.12-.63,3.15-1.05,4.48-1.05.84,0,2.66.14,3.43.49.28.07.42.28.63.42,1.33.56,2.1,1.05,3.01,2.17,1.82,2.17,2.52,5.46,2.52,8.19,0,.49,0,1.05-.07,1.54ZM277.01,195.78c-1.05-1.05-4.62-1.68-6.09-1.68-1.33,0-3.08.35-3.08,2.03,0,1.12.77,2.66,1.68,3.29.91.63,2.31.56,3.43.63.63.07,1.26.21,1.89.21,1.12,0,2.52-.21,3.15-1.19l.07-.42c0-.98-.35-2.17-1.05-2.87Z"/>
        <path class="cls-2" d="M136.8,281.04c-.63.42-1.4.42-2.03.77-1.75.77-3.36,2.24-5.39,2.24-.77,0-1.47-.42-2.24-.42-.49,0-.98.21-1.47.21-1.05,0-2.03-.35-3.01-.21-.56-.7-1.96-.49-2.24-1.26-.14-.07,0,0-.21,0h-.14l-.21-.42c-.42-.21-1.4-.84-1.68-1.26-.07-.21-.07-.42-.14-.56-.42-.63-1.05-1.05-1.47-1.68-.49-.63-.98-1.33-1.33-2.03-.21-.42-.21-.91-.35-1.33-.14-.35-.49-.56-.56-.91-.21-.56-.21-1.19-.21-1.75,0-1.12.49-2.24.77-3.29.21-.77.63-1.33.91-2.03.21-.42.14-.91.35-1.33.28-.42.84-.7,1.12-1.12.35-.35.42-.91.77-1.26.42-.49.98-.7,1.47-1.12.91-.77,1.26-1.33,2.45-1.89,1.47-.7,3.08-1.26,4.69-1.26.98,0,2.03.14,2.87.56,1.19.49,4.41,3.01,4.41,4.41,0,.35-.21.7-.49.98-1.96,0-1.96-1.75-3.15-2.45-.35-.14-1.47-.42-1.89-.56-.42-.07-.91-.14-1.4-.14-.84,0-2.94.42-3.22,1.26-.7.35-.98,1.19-1.26,1.89-1.12,2.1-1.61,3.5-1.61,5.95,0,1.75.42,1.82.84,3.29.42,1.61.7,3.64,2.24,4.69.14.07.35.07.56.14.98.63,1.47,1.05,2.73,1.05,1.12,0,5.6-.91,6.37-1.75.21-.28.21-.7.56-.91.49-.42,1.33-.77,1.96-.77,1.12,0,1.96,1.26,1.96,2.31,0,.91-.63,1.47-1.33,1.96Z"/>
        <path class="cls-2" d="M170.05,285.87c0,.42.07.84.07,1.26,0,1.54-1.75,2.52-3.08,2.52-1.12,0-1.82-.56-2.59-1.26-1.61-1.68-1.05-3.22-1.05-5.25,0-2.59-.49-5.18-.91-7.77-.28-1.61-.63-2.73-1.47-4.13-.49-.91-.91-1.82-2.1-1.82-1.33,0-2.73,2.03-3.64,2.87-1.12.98-1.54,1.54-1.61,3.08-.91.91-1.54,1.96-2.03,3.08-.28.63-.21,1.96-.35,2.73-.14.56-.42,1.12-.56,1.75-.07.7-.07,1.4-.07,2.17,0,1.75.21,3.5.21,5.25,0,1.12-.21,1.75-.98,2.52-.63.56-2.03,1.4-2.94,1.4-.49,0-1.47-.14-1.61-.7h-.21c-1.19,0-1.19-4.48-1.19-5.18-.07-.91-.42-1.68-.42-2.59,0-.77.14-1.61.14-2.45,0-1.12-.49-2.1-.49-2.87,0-.63.21-1.26.21-1.82,0-2.8-.77-5.46-.77-8.26,0-.7.21-1.33.21-2.03,0-.84-.42-1.68-.56-2.52-.07-.98-.07-1.89-.07-2.87,0-2.31.21-4.69.21-7,0-.77-.07-1.47-.14-2.24,0-.63-.28-1.19-.35-1.75-.07-.77.07-1.47.07-2.24,0-1.26-.77-2.31-.77-3.57,0-.91.35-1.89.35-2.87,0-1.33-.42-2.59-.42-3.92,0-.35.07-.77.28-1.12.42-.14.77-.56,1.26-.56.63,0,1.26.07,1.75.56,1.61,1.54,1.68,4.62,2.03,6.65.07.42.14.84.14,1.26,0,.63-.14,1.19-.14,1.82,0,.77.56,1.75.7,2.52.07.49.14.98.21,1.47.35,2.52.14,5.11.35,7.7.14,2.17.35,4.34.35,6.51,0,.91-.21,1.75-.21,2.66,0,.84.42,1.61.42,2.52,0,.63-.21,1.33-.21,2.03,0,.28.07.63.14.91,1.33-.14,1.26-1.68,1.68-2.52.77-.7,1.61-1.26,2.31-2.03.7-.7,1.12-1.61,1.82-2.31,1.54-1.68,3.5-3.43,5.95-3.43,2.8,0,5.46,2.17,6.65,4.69.28.63.28,1.47.56,2.17.21.63.7,1.12.91,1.82.21.63.14,1.4.35,2.1.28,1.33.7,2.66.91,3.99.07.7,0,1.47.14,2.17.21.91.77,1.82.77,2.8,0,.7-.21,1.4-.21,2.1Z"/>
        <path class="cls-2" d="M201.97,292.31c-.42.07-.77.07-1.19.07-2.1,0-2.94-.77-3.43-2.73-.14-.49,0-1.05-.14-1.54-.07-.35-.42-.63-.49-.98-.07-.7,0-1.54,0-2.31,0-1.05-.14-2.94-.84-3.78-1.89.28-1.54,2.38-2.59,3.5-.63.63-1.61.7-2.24,1.33-.56.56-.7,1.54-1.19,2.24-.77,1.12-2.03,2.1-3.01,3.08-.28.35-.56.84-.91,1.05-.35.28-.91.28-1.26.49-.49.21-.84.7-1.33.7-.63,0-1.19-.21-1.75-.28-.7,0-1.4.07-2.1.07-.63,0-1.54-.21-2.03-.7-.14-.14-.07-.42-.21-.56-.21-.28-.7-.42-.84-.7-.21-.49-.14-1.47-.35-2.1-.14-.49-.56-.98-.7-1.47-.14-.84-.21-1.68-.21-2.45,0-2.1.84-3.5.84-5.32,0-.77-.14-1.54-.14-2.31s.42-1.26.49-1.96c.14-.49,0-1.05.07-1.54.21-1.54.49-3.01.63-4.48.14-1.4.77-4.41,2.59-4.41,2.59,0,2.73,2.38,2.73,4.34,0,1.33-.49,2.1-.49,2.94,0,.63.21,1.26.21,1.89s-.21,1.19-.28,1.82c-.14,1.54-.14,3.08-.42,4.62,0,.21-.07.42-.07.63,0,.7.07,1.4.07,2.1,0,.84-.14,1.75-.14,2.66,0,1.05.56,2.8,1.89,2.8.98,0,2.24-1.54,3.01-2.17.98-.84,1.89-1.54,2.66-2.52.35-.49.56-1.26,1.05-1.61.14-.14.35-.14.56-.28,1.05-.91,2.87-3.36,3.5-4.69.35-.84,1.19-1.4,1.54-2.24.07-.28,0-.84.07-1.19.28-1.05.98-1.96.98-3.08,0-.63-.07-1.26-.07-1.89,0-.98,1.33-1.82,2.24-1.82,2.59,0,3.99,4.48,3.99,6.58,0,.91-.28,2.1-.28,3.29,0,2.38.7,4.69.7,7,0,.42-.07.91-.07,1.33,0,1.12.63,2.17.63,3.29s-.77,2.66-1.68,3.29Z"/>
        <path class="cls-2" d="M214.01,293.5c-1.26,0-1.89-1.05-2.66-1.82-.07-.84,0-1.61,0-2.45,0-.91-.28-1.68-.35-2.59-.07-.56,0-1.12,0-1.68,0-.91-.42-1.61-.56-2.45-.07-.77,0-1.47,0-2.24,0-.98-.28-1.89-.35-2.8-.07-.84-.14-1.68-.21-2.52-.07-.77-.28-1.54-.35-2.38-.35-3.22-.21-6.51-.91-9.73v-.28c0-.49.21-.98.21-1.47,0-1.47-.49-2.87-.56-4.34-.07-.98.07-1.96.07-2.94,0-1.19-.28-2.24-.42-3.36-.14-1.33-.28-2.73-.28-4.06,0-.84.07-2.73.63-3.36.21-.21.49-.35.7-.49.35-.07.7.21.91.35,1.47.77,1.82,2.38,2.03,3.92.07.77,0,1.61.14,2.38.07.28.28.56.35.91.21.77.21,1.54.42,2.31.49,2.66.35,5.46.7,8.12.07.77.28,1.54.35,2.31.42,4.69.77,9.31,1.26,13.93.07.77.07,1.54.21,2.31.07.77.35,1.54.49,2.38.14.84.07,1.68.21,2.52.07.56.35,1.05.56,1.61.28,1.12.91,3.5.91,4.62,0,1.61-1.96,3.29-3.5,3.29Z"/>
        <path class="cls-2" d="M227.24,293.92c-.91,0-1.47-.63-2.31-.98-.63-1.19-.49-2.94-.7-4.34-.07-.42-.28-.77-.35-1.26-.07-.42,0-.84,0-1.33,0-1.75-.35-3.78-.35-5.67v-1.96c0-.98-.28-1.82-.35-2.73-.21-2.1-.21-4.2-.21-6.3,0-1.47.07-3.92,2.1-3.92.7,0,1.82.42,2.24,1.05.28.42.28,1.4.35,1.96.14.63.42,1.19.56,1.82.28,1.33.14,2.73.35,4.13.07.7.42,1.33.56,1.96.14.98.07,1.96.14,2.94.21,2.17.49,4.41.56,6.65.14.14.21.35.21.56,0,.14-.21.21-.21.49,0,1.12.42,2.24.42,3.43,0,1.33-1.61,3.5-3.01,3.5ZM230.53,261.43c-1.19.63-2.17,2.17-3.57,2.17-.49,0-.84-.28-1.12-.56-.07-.14-.07-.28-.07-.49,0-1.96,2.94-3.01,4.34-3.85,1.4-.84,2.87-2.52,4.62-2.52.77,0,1.54.91,1.54,1.61,0,1.61-4.55,2.94-5.74,3.64Z"/>
        <path class="cls-2" d="M251.74,267.73c-1.54,0-.77-3.08-4.62-3.08-2.59,0-3.08,1.19-3.08,3.5,0,2.1.7,3.01,1.47,4.76.28.63.42,1.33.7,2.03.49.98,1.12,1.75,1.47,2.87.21.84.42,1.68.7,2.52.42,1.12.98,2.1,1.47,3.22.14.42.14.84.35,1.26.14.35.42.56.56.91.14.63.14,1.33.14,1.96,0,2.24-.21,3.71-1.4,5.6-.35.42-.56,1.05-.91,1.47-.42.42-.98.56-1.47.91-.77.42-1.47.98-2.17,1.61-.28-.14-.56-.14-.84-.14-.77,0-1.4.35-2.03.63-.98.07-2.03.07-3.01.07-.84,0-1.82-.49-2.45-.91l-.21-.35h-.35c-.49-.49-.7-1.26-1.12-1.82-.28-.42-1.12-.98-1.26-1.47-.07-.35-.14-.7-.14-1.05,0-.84.49-1.75,1.4-1.75.63,0,1.12.35,1.47.84.21.21.21.63.35.91.56.98,2.52,3.08,3.71,3.08.7,0,1.82-.56,2.45-.91,1.68-1.12,1.47-3.43,1.61-5.25,0-.42.21-.91.21-1.33l-.07-.14c0-.35-1.4-4.06-1.61-4.27-.07-.14-.21-.14-.35-.21-.7-1.54-.42-3.29-1.05-4.48-.63-1.05-1.05-2.17-1.61-3.29-.98-1.75-1.96-3.08-1.96-5.25,0-2.45,1.54-5.25,3.57-6.65.14-.07.35-.21.49-.35.63-.42,2.52-1.47,3.15-1.61.7-.14,1.47-.21,2.17-.21,2.24,0,5.6,2.38,5.6,4.76,0,.84-.35,1.61-1.33,1.61Z"/>
        <path class="cls-2" d="M259.16,256.04c-.49.14-.91.28-1.4.28-.21,0-1.96-.42-2.03-.49-.14-.07-.14-.21-.21-.35-.77-.35-1.19-1.68-1.19-2.52,0-1.54,1.75-2.1,3.08-2.1,1.4,0,3.01.63,3.85,1.75.35.42.77.84.77,1.4,0,1.33-1.96,1.68-2.87,2.03ZM261.61,293.92c-.91,0-1.54-.63-2.31-.98-.63-1.19-.56-2.94-.7-4.34-.07-.42-.28-.77-.35-1.26-.07-.42,0-.84,0-1.33,0-1.75-.35-3.78-.35-5.67-.07-.63,0-1.33,0-1.96,0-.98-.28-1.82-.42-2.73-.21-2.1-.14-4.2-.14-6.3,0-1.47.07-3.92,2.1-3.92.7,0,1.82.42,2.24,1.05.28.42.21,1.4.35,1.96.07.63.42,1.19.49,1.82.28,1.33.21,2.73.42,4.13.07.7.42,1.33.49,1.96.21.98.14,1.96.21,2.94.21,2.17.42,4.41.56,6.65.07.14.14.35.14.56,0,.14-.14.21-.14.49,0,1.12.42,2.24.42,3.43,0,1.33-1.61,3.5-3.01,3.5Z"/>
        <path class="cls-2" d="M320.06,280.41c0,.35.21.7.21,1.12,0,1.19-.35,2.38-.35,3.57,0,.63.21,1.26.21,1.82,0,1.12-.98,1.82-1.47,2.73-.84,0-1.54.49-2.31.49-.91,0-2.31-1.4-2.59-2.17-.07-.35-.14-.77-.14-1.19,0-1.75.7-3.36.7-5.11,0-1.19-.35-2.38-.35-3.57v-1.89c0-1.89-.21-3.5-.56-5.32-.28-1.47-.42-1.96-1.4-3.08-.42-.42-.84-1.05-1.47-1.05-1.05,0-1.4.91-2.17,1.4-.7.56-1.54.91-2.31,1.26-.21.49-.42.98-.56,1.47-.14.49-.14.98-.35,1.4-.63,1.26-2.31,2.03-2.87,3.29-.42.77-.42,2.8-.56,3.78-.14.7-.42,1.4-.56,2.17-.07.84,0,1.68-.14,2.52-.28,1.19-.7,1.96-2.1,1.96-.56,0-.98-.35-1.54-.35-.63-.35-1.54-.42-1.96-1.12-.7-1.12-.21-4.9-.56-6.44-.14-.7-.35-.28-.35-1.33,0-.98-1.19-1.96-1.47-2.8-.07-.35.07-.77.07-1.05,0-.49-.28-.56-.42-.98-.14-.56-.14-1.19-.35-1.75-.35-.91-1.96-3.43-2.87-3.43h-.14c-1.68-.14-3.36,2.24-4.41,3.43-.35.42-.42,2.31-.7,3.01-.14.42-.35.84-.56,1.26-.63,1.4-2.87,3.5-3.01,3.99-.21.49-.14,1.12-.21,1.61-.14,1.19-.84,1.4-.84,3.08,0,.7.07,1.47.28,2.17-.28.84-.35,1.82-.35,2.73,0,.98.35,1.89.35,2.8,0,1.68-.91,3.5-2.73,3.5-1.33,0-1.82-.84-2.8-1.47-.35-.84-.21-1.68-.42-2.52-.14-.77-.56-1.4-.7-2.17-.14-.63-.07-1.33-.14-1.96l-.42-1.68c-.21-1.26.07-2.59-.14-3.92-.14-.77-.42-1.47-.56-2.17-.07-.42-.07-.84-.14-1.26-.14-.35-.35-.56-.42-.91-.07-.42.07-.84.07-1.26,0-.98-.77-2.17-.91-3.22-.14-.56,0-1.12,0-1.68,0-2.87-1.68-5.53-1.68-8.47v-.7c.56-.63,1.33-1.05,2.17-1.05s1.89.56,2.38,1.26c.07.07.07.21.14.35,1.19,1.54,1.26,3.36,1.61,5.25.28.98.56,2.03.77,3.01.21,1.33.28,5.46,2.17,5.46.98,0,1.4-.84,1.75-1.68.7-1.47,1.19-3.08,2.03-4.48.21-.42.56-.84.91-1.26,1.75-2.45,1.19-2.94,3.92-5.04.7-.56,1.4-1.26,2.38-1.26,1.05,0,2.1.77,3.01,1.26.77.42,1.61.63,2.38,1.05,1.05.63,1.47,1.4,2.17,2.38.42.63,1.12,1.26,1.4,1.96.63,1.26.14,2.31,1.68,3.29,1.05-.07,1.47-.7,2.1-1.47l.42-.21c0-.14-.07,0-.07-.21l.07-.14.35-.14c.21-.49.35-1.05.7-1.47.49-.49,1.26-.77,1.82-1.26.49-.42.91-1.12,1.4-1.47.21-.07.42-.07.56-.14.28-.14.49-.56.7-.7s.42-.14.56-.21c.56-.35,1.05-.98,1.61-1.26.28-.14.63-.07.91-.21.84-.28.49-.42,1.54-.42,1.47,0,3.43.84,4.27,2.1.07.14,0,.35.14.49.07.14.28.07.35.21.21.14.63,1.82.77,2.17.7,1.75.84.84.84,2.94,0,1.19.7,2.52.91,3.71.21,1.05.77,4.13.77,5.04,0,.56-.42,1.05-.42,1.61Z"/>
        <path class="cls-2" d="M346.59,272.29c-.07,1.26-.63,2.45-.63,3.64,0,.7.14,1.4.14,2.1,0,.98-.21,1.89-.49,2.8-.21.49-.49.91-.63,1.4-.14.63-.07,1.26-.21,1.82-.07.49-.35.91-.42,1.4-.07.7.07,1.4.07,2.1,0,.98-.49,1.68-.63,2.59-.14.84-.07,3.01-.28,3.64-.42,1.05-1.82,3.22-3.08,3.22-1.33,0-3.08-1.47-3.08-2.87,0-.91.49-1.68.49-2.52,0-.28-.07-.56-.14-.84.35-.98.63-1.19.63-2.31,0-.35-.07-.84-.21-1.19-.35-.14-.7-.21-1.05-.21-1.19,0-2.31.56-3.5.56-.91,0-1.82-.14-2.66-.14-.56,0-1.12.07-1.68.07-.21,0-.42,0-.63-.07-.91-.21-4.62-3.64-4.9-4.41-.07-.35-.14-.77-.14-1.12,0-1.19.63-2.17,1.19-3.15.35-.63.7-1.54,1.19-2.03.21-.28.7-.35.98-.63.35-.21.49-.56.84-.77,1.47-1.05,3.43-1.54,5.18-1.54.49,0,1.05,0,1.54.07,1.05.21,1.82.84,2.8,1.26.35.14,1.4.21,1.61.42.14.07.21.21.21.35.35.14.7.07,1.05.21.7-.56.35-1.89.35-2.73,0-1.4.42-2.8.42-4.27,0-1.82-1.33-6.02-3.43-6.37h-.49c-1.75,0-2.66,1.61-4.76,1.61-1.47,1.26-2.31,2.38-4.06,3.29-.35.14-.77.56-1.19.56-.14,0-.28-.07-.42-.21-.21-.28-.35-.63-.35-.98,0-1.96,2.17-2.73,2.73-4.06.42-.14.77-.35,1.05-.63l.21-.35c.56-.28,1.26-.49,1.82-.84.21-.14.35-.42.56-.63,1.12-.63,3.15-1.05,4.48-1.05.84,0,2.66.14,3.43.49.28.07.42.28.63.42,1.33.56,2.1,1.05,3.01,2.17,1.82,2.17,2.52,5.46,2.52,8.19,0,.49,0,1.05-.07,1.54ZM337.7,279.78c-1.05-1.05-4.62-1.68-6.09-1.68-1.33,0-3.08.35-3.08,2.03,0,1.12.77,2.66,1.68,3.29.91.63,2.31.56,3.43.63.63.07,1.26.21,1.89.21,1.12,0,2.52-.21,3.15-1.19l.07-.42c0-.98-.35-2.17-1.05-2.87Z"/>
        <path class="cls-2" d="M395.66,274.11c-.63,1.33-1.12,2.87-1.82,4.13-.14.28-.42.49-.56.77-.14.28-.07.56-.14.84-.14.28-.42.49-.56.77-.14.28-.07.56-.21.91-.56,1.61-1.61,3.08-2.31,4.69-.56,1.05-1.12,2.1-1.61,3.22-.49,1.12-.77,2.31-1.26,3.43-.49,1.12-1.12,2.17-1.68,3.22-.21.56-.42,1.12-.7,1.61-.14.28-.42.49-.56.77-.42.84-.42,1.82-.84,2.66-.14.28-.42.49-.56.77-.42.7-.63,1.54-1.12,2.31-.14.28-.42.42-.49.7-.14.28-.07.63-.21.91-.35.84-1.12,1.54-1.47,2.38-.28.56-.35,1.19-.56,1.75-.49,1.33-1.4,2.31-1.82,3.64-.21.84-.49,2.52-1.26,3.08-.49.35-1.75.42-2.38.42-.7,0-2.03-.07-2.59-.63-.42-.35-.77-1.19-.77-1.75,0-.84.28-1.68.56-2.38.35-.77.98-1.26,1.26-1.96.35-.7.28-1.54.56-2.17.14-.28.42-.49.56-.77.28-.56.35-1.19.7-1.75.49-.84,1.82-3.22,2.17-3.99.21-.56.28-1.26.56-1.82.35-.77,1.19-1.33,1.61-2.17.35-.63.42-1.33.7-1.96.28-.56.63-1.05.91-1.61.56-1.26.91-2.52,1.47-3.78.49-1.26.98-2.45,1.61-3.64.49-.98,1.33-2.38,1.26-3.5v-.28c-.07-.91-1.26-2.03-1.82-2.66-1.33-1.61-2.52-3.15-3.5-4.9-1.05-1.82-2.31-3.5-3.99-4.69-.42-2.31-2.8-3.57-2.8-6.09,0-.35,0-.63.07-.98.56-.28,1.12-.56,1.75-.56,1.19,0,2.1.84,2.8,1.68.49.63.77,1.33,1.26,1.96.21.35.49.63.7.91.77,1.12,1.47,2.38,2.38,3.43.07.14.21.21.35.35.21.35.28.77.49,1.12.7.98,3.85,5.46,5.04,5.6,1.26-.42,1.54-2.59,2.1-3.64.42-.7,1.05-1.26,1.47-1.96.35-.63.42-1.33.7-1.96.7-1.47,1.47-2.87,2.24-4.27.35-.56.7-1.12,1.05-1.68.07-.21.07-.42.14-.56.07-.14.28-.07.35-.21.14-.14.28-.63.35-.84.56-1.12,1.4-3.36,2.38-3.99.21-.14,1.19-.56,1.47-.56,1.05,0,2.03.7,2.03,1.82,0,2.66-4.2,11.13-5.46,13.86Z"/>
        <path class="cls-2" d="M133.58,374c-.35.28-.63.84-1.05,1.05-.77.42-3.64,1.05-4.48,1.05s-1.61-.21-2.31-.7c-.35.07-.7.14-1.05.14-1.05,0-2.1-.21-3.15-.28-.7-.07-1.89-1.26-2.38-1.68-.28-.21-.63-.35-.91-.56-.63-.35-1.4-1.54-1.89-2.17-1.68-2.24-2.17-3.57-2.17-6.44,0-1.12.07-2.52.35-3.64.21-.63,1.96-4.41,2.38-4.9.14-.14.28-.28.42-.42.07-.14.07-.35.14-.49.42-.63,3.43-2.94,4.2-3.5,1.19-.91,2.45-1.82,4.06-1.82.28,0,3.43.63,3.64.7.63.28,3.92,3.29,4.2,3.85.21.35.07.91.21,1.26.28,1.12,1.26,1.96,1.26,3.15,0,.77-.35,1.47-.35,2.24,0,.42-1.19,1.05-1.54,1.05-.49,0-.91-.35-1.4-.35s-.98.14-1.47.14c-1.89,0-3.78-.42-5.67-.42-2.66,0-3.85,0-3.85,2.87,0,1.19.07,2.66.35,3.78s1.54,3.64,2.59,4.2c.28.21.77.14,1.12.21.28.07.42.28.7.35.42.14.98.14,1.4.14,1.68,0,4.69-.91,5.74-2.31l.35-.21c.07-.14,0-.28,0-.42,0-.84,2.24-2.38,3.22-2.38,1.05,0,1.33,1.68,1.33,2.38,0,2.31-2.52,2.87-3.99,4.13ZM129.03,353.63c-.28-.07-1.12-.14-1.47-.14-.49-.07-.98-.21-1.54-.21-.98,0-2.87,1.4-3.43,2.17-.21.35-.21.77-.35,1.12-.14.28-.42.63-.42.91,0,.98,1.4,1.33,2.17,1.33,1.05,0,2.03-.28,3.01-.42h1.96c.7,0,1.61,0,2.1-.7,0-1.47-.56-3.43-2.03-4.06Z"/>
        <path class="cls-2" d="M157.38,351.73c-1.54,0-.77-3.08-4.62-3.08-2.59,0-3.08,1.19-3.08,3.5,0,2.1.7,3.01,1.47,4.76.28.63.42,1.33.7,2.03.49.98,1.12,1.75,1.47,2.87.21.84.42,1.68.7,2.52.42,1.12.98,2.1,1.47,3.22.14.42.14.84.35,1.26.14.35.42.56.56.91.14.63.14,1.33.14,1.96,0,2.24-.21,3.71-1.4,5.6-.35.42-.56,1.05-.91,1.47-.42.42-.98.56-1.47.91-.77.42-1.47.98-2.17,1.61-.28-.14-.56-.14-.84-.14-.77,0-1.4.35-2.03.63-.98.07-2.03.07-3.01.07-.84,0-1.82-.49-2.45-.91l-.21-.35h-.35c-.49-.49-.7-1.26-1.12-1.82-.28-.42-1.12-.98-1.26-1.47-.07-.35-.14-.7-.14-1.05,0-.84.49-1.75,1.4-1.75.63,0,1.12.35,1.47.84.21.21.21.63.35.91.56.98,2.52,3.08,3.71,3.08.7,0,1.82-.56,2.45-.91,1.68-1.12,1.47-3.43,1.61-5.25,0-.42.21-.91.21-1.33l-.07-.14c0-.35-1.4-4.06-1.61-4.27-.07-.14-.21-.14-.35-.21-.7-1.54-.42-3.29-1.05-4.48-.63-1.05-1.05-2.17-1.61-3.29-.98-1.75-1.96-3.08-1.96-5.25,0-2.45,1.54-5.25,3.57-6.65.14-.07.35-.21.49-.35.63-.42,2.52-1.47,3.15-1.61.7-.14,1.47-.21,2.17-.21,2.24,0,5.6,2.38,5.6,4.76,0,.84-.35,1.61-1.33,1.61Z"/>
        <path class="cls-2" d="M180.76,350.2c-.63,0-1.26-.35-1.89-.35-2.31,0-2.8.42-4.06,2.17.14,1.26.21,2.52.35,3.78.14,1.12.42,2.24.56,3.43.14,1.89-.07,3.85.14,5.74.07.56.42,1.05.42,1.68,0,.56-.14,1.19-.14,1.75s.14,1.12.49,1.61c-.21.49-.28.98-.28,1.54,0,.91.21,1.75.42,2.59.14.56.35,3.64.35,4.34,0,1.47-1.89,3.64-3.36,3.64-1.05,0-1.96-.91-2.59-1.68-.21-.21-.77-.98-.84-1.26-.35-.77-.21-6.23-.21-7.49,0-1.19-.07-2.31-.21-3.5-.07-.98-.35-1.61-.35-2.73,0-.91.07-1.82.07-2.8,0-2.03-.56-3.99-.56-5.95,0-.49.14-.84.14-1.26,0-.7-.28-1.33-.35-2.03-.07-.7.07-1.47-.21-2.17-.42-1.33-1.19-1.61-2.52-1.75-.42-.07-.84-.21-1.26-.21-.63,0-1.26.35-2.03.35-.84,0-1.61-.21-2.45-.21-.56,0-1.05-.07-1.26-.7.21-3.08,7.49-.49,9.17-2.31.07-.21.07-.42.07-.63,0-1.12-.42-2.24-.42-3.36,0-.56.21-1.12.21-1.68s-.28-.98-.35-1.54c-.21-1.19-.07-2.45-.21-3.64-.14-.98-.56-2.03-.56-3.01,0-1.4.56-2.94,2.17-2.94.49,0,1.12.07,1.26.56.21.07.07,0,.28,0h.07c.49.21,1.33,2.38,1.47,2.87.77,2.38,1.12,4.76,1.47,7.21.07.63.28,1.19.35,1.82,0,.56-.07,1.12-.07,1.68,0,.91,1.19,2.87,2.24,2.87.63,0,1.26-.49,1.96-.56.49-.07.98,0,1.47,0,.56,0,1.12-.21,1.75-.21,1.05,0,2.38,1.33,2.38,2.45,0,1.19-2.03,1.89-3.08,1.89Z"/>
        <path class="cls-2" d="M203.79,370.36c-.42.42-.77.98-1.26,1.26-.63.42-1.47.63-2.17.91-.56.28-1.4.77-1.96.91-.56.14-1.19,0-1.75,0-.7,0-1.4.14-2.1.14s-1.33-.21-1.96-.7c-1.89-.14-3.78-.84-5.18-2.17-.28-.21-.35-.49-.56-.7-.21-.14-.49-.21-.7-.35-2.17-1.61-2.59-3.29-2.59-5.88,0-2.45,1.26-4.62,2.38-6.72.07-.21.07-.42.21-.56.21-.28.63-.42.91-.7.49-.56.77-1.33,1.4-1.82.21-.21.49-.21.7-.35.42-.28.7-.91,1.12-1.12,1.33-.7,3.64-.84,5.11-.84,2.94,0,7,.98,8.54,3.78.35.49.49.98.91,1.4.56.49,1.26.84,1.68,1.47.07.14.07.35.14.49.63,1.33.84,2.66.84,4.13,0,3.29-1.4,5.25-3.71,7.42ZM201.83,359.58c-.21-.21-.42-.35-.56-.56-.63-.7-1.05-2.03-1.96-2.31-.49-.21-4.48-1.12-4.83-1.12-.42,0-1.54.84-1.89,1.12-.28.21-.56.35-.91.49-1.96,1.12-2.38,2.1-2.38,4.41,0,1.68.63,2.87,1.68,4.06.63.7,2.31,2.59,3.08,2.87,1.19.49,3.01.28,4.34.42.98-.63,2.38-1.68,2.87-2.73l.35-.21c.21-.28.21-.7.35-1.05.49-1.12.84-1.05.84-2.66,0-.98-.42-1.96-.98-2.73Z"/>
        <path class="cls-2" d="M253.63,374c-.35.28-.63.84-1.05,1.05-.77.42-3.64,1.05-4.48,1.05s-1.61-.21-2.31-.7c-.35.07-.7.14-1.05.14-1.05,0-2.1-.21-3.15-.28-.7-.07-1.89-1.26-2.38-1.68-.28-.21-.63-.35-.91-.56-.63-.35-1.4-1.54-1.89-2.17-1.68-2.24-2.17-3.57-2.17-6.44,0-1.12.07-2.52.35-3.64.21-.63,1.96-4.41,2.38-4.9.14-.14.28-.28.42-.42.07-.14.07-.35.14-.49.42-.63,3.43-2.94,4.2-3.5,1.19-.91,2.45-1.82,4.06-1.82.28,0,3.43.63,3.64.7.63.28,3.92,3.29,4.2,3.85.21.35.07.91.21,1.26.28,1.12,1.26,1.96,1.26,3.15,0,.77-.35,1.47-.35,2.24,0,.42-1.19,1.05-1.54,1.05-.49,0-.91-.35-1.4-.35s-.98.14-1.47.14c-1.89,0-3.78-.42-5.67-.42-2.66,0-3.85,0-3.85,2.87,0,1.19.07,2.66.35,3.78s1.54,3.64,2.59,4.2c.28.21.77.14,1.12.21.28.07.42.28.7.35.42.14.98.14,1.4.14,1.68,0,4.69-.91,5.74-2.31l.35-.21c.07-.14,0-.28,0-.42,0-.84,2.24-2.38,3.22-2.38,1.05,0,1.33,1.68,1.33,2.38,0,2.31-2.52,2.87-3.99,4.13ZM249.08,353.63c-.28-.07-1.12-.14-1.47-.14-.49-.07-.98-.21-1.54-.21-.98,0-2.87,1.4-3.43,2.17-.21.35-.21.77-.35,1.12-.14.28-.42.63-.42.91,0,.98,1.4,1.33,2.17,1.33,1.05,0,2.03-.28,3.01-.42h1.96c.7,0,1.61,0,2.1-.7,0-1.47-.56-3.43-2.03-4.06Z"/>
        <path class="cls-2" d="M277.43,351.73c-1.54,0-.77-3.08-4.62-3.08-2.59,0-3.08,1.19-3.08,3.5,0,2.1.7,3.01,1.47,4.76.28.63.42,1.33.7,2.03.49.98,1.12,1.75,1.47,2.87.21.84.42,1.68.7,2.52.42,1.12.98,2.1,1.47,3.22.14.42.14.84.35,1.26.14.35.42.56.56.91.14.63.14,1.33.14,1.96,0,2.24-.21,3.71-1.4,5.6-.35.42-.56,1.05-.91,1.47-.42.42-.98.56-1.47.91-.77.42-1.47.98-2.17,1.61-.28-.14-.56-.14-.84-.14-.77,0-1.4.35-2.03.63-.98.07-2.03.07-3.01.07-.84,0-1.82-.49-2.45-.91l-.21-.35h-.35c-.49-.49-.7-1.26-1.12-1.82-.28-.42-1.12-.98-1.26-1.47-.07-.35-.14-.7-.14-1.05,0-.84.49-1.75,1.4-1.75.63,0,1.12.35,1.47.84.21.21.21.63.35.91.56.98,2.52,3.08,3.71,3.08.7,0,1.82-.56,2.45-.91,1.68-1.12,1.47-3.43,1.61-5.25,0-.42.21-.91.21-1.33l-.07-.14c0-.35-1.4-4.06-1.61-4.27-.07-.14-.21-.14-.35-.21-.7-1.54-.42-3.29-1.05-4.48-.63-1.05-1.05-2.17-1.61-3.29-.98-1.75-1.96-3.08-1.96-5.25,0-2.45,1.54-5.25,3.57-6.65.14-.07.35-.21.49-.35.63-.42,2.52-1.47,3.15-1.61.7-.14,1.47-.21,2.17-.21,2.24,0,5.6,2.38,5.6,4.76,0,.84-.35,1.61-1.33,1.61Z"/>
        <path class="cls-2" d="M331.82,376.31c-.42.07-.77.07-1.19.07-2.1,0-2.94-.77-3.43-2.73-.14-.49,0-1.05-.14-1.54-.07-.35-.42-.63-.49-.98-.07-.7,0-1.54,0-2.31,0-1.05-.14-2.94-.84-3.78-1.89.28-1.54,2.38-2.59,3.5-.63.63-1.61.7-2.24,1.33-.56.56-.7,1.54-1.19,2.24-.77,1.12-2.03,2.1-3.01,3.08-.28.35-.56.84-.91,1.05-.35.28-.91.28-1.26.49-.49.21-.84.7-1.33.7-.63,0-1.19-.21-1.75-.28-.7,0-1.4.07-2.1.07-.63,0-1.54-.21-2.03-.7-.14-.14-.07-.42-.21-.56-.21-.28-.7-.42-.84-.7-.21-.49-.14-1.47-.35-2.1-.14-.49-.56-.98-.7-1.47-.14-.84-.21-1.68-.21-2.45,0-2.1.84-3.5.84-5.32,0-.77-.14-1.54-.14-2.31s.42-1.26.49-1.96c.14-.49,0-1.05.07-1.54.21-1.54.49-3.01.63-4.48.14-1.4.77-4.41,2.59-4.41,2.59,0,2.73,2.38,2.73,4.34,0,1.33-.49,2.1-.49,2.94,0,.63.21,1.26.21,1.89s-.21,1.19-.28,1.82c-.14,1.54-.14,3.08-.42,4.62,0,.21-.07.42-.07.63,0,.7.07,1.4.07,2.1,0,.84-.14,1.75-.14,2.66,0,1.05.56,2.8,1.89,2.8.98,0,2.24-1.54,3.01-2.17.98-.84,1.89-1.54,2.66-2.52.35-.49.56-1.26,1.05-1.61.14-.14.35-.14.56-.28,1.05-.91,2.87-3.36,3.5-4.69.35-.84,1.19-1.4,1.54-2.24.07-.28,0-.84.07-1.19.28-1.05.98-1.96.98-3.08,0-.63-.07-1.26-.07-1.89,0-.98,1.33-1.82,2.24-1.82,2.59,0,3.99,4.48,3.99,6.58,0,.91-.28,2.1-.28,3.29,0,2.38.7,4.69.7,7,0,.42-.07.91-.07,1.33,0,1.12.63,2.17.63,3.29s-.77,2.66-1.68,3.29Z"/>
        <path class="cls-2" d="M370.04,374.98c-.77.98-1.12,2.24-2.59,2.24-1.26,0-3.5-.56-4.06-1.82-.21-.56-.21-1.12-.21-1.61,0-1.68.21-3.29.21-4.97,0-1.19-.35-2.31-.35-3.15,0-.49.14-.84.14-1.26,0-.98.07-1.96-.14-2.94-.28-1.26-1.47-2.38-1.47-3.71,0-.42.07-.84.07-1.26,0-.91-.42-.42-.42-1.82,0-.56-.63-2.17-.91-2.73-.28-.77-.49-1.68-1.26-2.17h-.35c-3.15-.14-4.34,2.03-6.3,4.13-.7.77-1.19,1.54-1.82,2.38-.77.98-1.05.84-1.75,2.31-.35.7-.28,1.61-.56,2.38-.21.42-.56.77-.77,1.26-.21.42-.35.91-.49,1.4-.42,1.4-.28,2.94-.35,4.34-.07.84-.42,1.68-.42,2.52,0,1.54.84,2.94.84,4.55,0,1.82-1.33,3.71-3.36,3.71-.98,0-2.1-.63-2.52-1.61-.21-.63-.14-1.26-.14-1.96,0-1.19-.56-2.17-.56-2.31,0-.49.21-.98.21-1.47,0-.7-.63-1.26-.77-1.96-.07-.49.07-1.12.07-1.61,0-.84-.42-1.61-.56-2.38-.63-3.01-.98-7.84-.98-10.99,0-1.4,0-4.06,1.89-4.06,1.19,0,2.1,1.05,2.87,1.89.49,1.75.35,4.27,1.26,5.74,2.31,0,2.66-2.45,3.57-3.92.42-.63,1.05-1.05,1.47-1.61.42-.56.63-1.26,1.05-1.82.07-.07,3.08-2.87,3.08-2.87.56-.42,1.26-.35,1.82-.77.63-.42,1.26-1.26,2.1-1.26.21,0,.42.21.7.21.63,0,1.33-.21,1.96-.21,1.54,0,2.52,1.54,3.71,2.17.14.14.35.07.49.21.07.07.28.7.42.91.42.7,1.05,1.33,1.4,2.17s.42,1.82.77,2.66c1.26,3.92,2.52,7.14,2.52,11.34,0,.84-.21,1.61-.21,2.38,0,2.17.77,4.2.77,6.37,0,.35,0,.7-.07.98Z"/>
        <path class="cls-2" d="M140.86,416.55c-.35,2.1-.07,4.27-.35,6.37-.07.49-.28.84-.42,1.33,0,.35.07.77.07,1.19,0,.98-.42,2.03-.42,3.08-.07,2.38-.49,4.76-.7,7.14-.07.7-.35,1.33-.35,2.03,0,.42.14.77.14,1.19,0,.49-.28.63-.35,1.05-.28,1.19-.07,2.52-.21,3.78-.14,1.19-.63,2.31-.7,3.57-.14,1.05-.07,2.1-.77,2.94-.07,1.33,0,2.66-.21,3.99-.14.63-.42,1.19-.56,1.82-.35,1.68-.21,4.48-1.12,5.81-.91.49-2.17.56-3.22.56-.77-.84-1.68-1.47-1.68-2.8,0-1.19.63-2.31.63-3.57,0-.35-.07-.77-.21-1.12-.21-.07-.42-.07-.56-.07-.7,0-1.26.35-1.89.49-1.12.14-2.24.14-3.29.14-.98,0-1.96,0-2.87-.14-.49-.14-.91-.42-1.33-.56-.42-.21-.91-.14-1.33-.42-.42-.21-.7-.77-1.12-1.12-.91-.84-2.24-1.54-3.01-2.59-.98-1.54-1.75-3.85-1.75-5.6,0-2.1,1.05-3.36,1.96-5.11.21-.42.28-.91.56-1.26.77-1.12,2.73-2.45,3.92-3.01.42-.21.91-.21,1.33-.42.35-.07.56-.42.91-.56.56-.14,3.08-.35,3.64-.35,1.12,0,2.03.91,3.22.91.35,0,.7-.07,1.05-.14,1.26.49,1.68,2.1,2.94,2.59,1.12-1.12,1.19-3.01,1.33-4.48.42-3.57.42-7.28,1.12-10.85.28-1.26.98-2.45.98-3.71,0-.42-.21-.77-.21-1.19,0-.63.42-1.33.56-2.03.28-1.61.07-6.37,2.38-6.37,1.33,0,2.45,2.52,2.45,3.64,0,1.26-.35,2.59-.56,3.85ZM130.57,441.27c-.49-.98-1.19-1.47-1.82-2.24-.21-.21-.21-.56-.42-.77-.35-.49-2.24-.98-2.87-.98-.21,0-.28,0-.49.07-1.33.49-3.64.63-4.48,1.89-.21.28-.28.77-.35,1.12-.42,1.12-.63,2.31-.63,3.43,0,1.61.7,2.17,1.33,3.5.14.28.21.63.42.91.42.84,1.68,2.45,2.59,2.8.63.21,1.4.21,2.03.21,2.66,0,4.13-.63,5.25-3.01.35-.63.63-1.33.63-2.03,0-1.12-.63-3.85-1.19-4.9Z"/>
        <path class="cls-2" d="M146.81,424.04c-.49.14-.91.28-1.4.28-.21,0-1.96-.42-2.03-.49-.14-.07-.14-.21-.21-.35-.77-.35-1.19-1.68-1.19-2.52,0-1.54,1.75-2.1,3.08-2.1,1.4,0,3.01.63,3.85,1.75.35.42.77.84.77,1.4,0,1.33-1.96,1.68-2.87,2.03ZM149.26,461.92c-.91,0-1.54-.63-2.31-.98-.63-1.19-.56-2.94-.7-4.34-.07-.42-.28-.77-.35-1.26-.07-.42,0-.84,0-1.33,0-1.75-.35-3.78-.35-5.67-.07-.63,0-1.33,0-1.96,0-.98-.28-1.82-.42-2.73-.21-2.1-.14-4.2-.14-6.3,0-1.47.07-3.92,2.1-3.92.7,0,1.82.42,2.24,1.05.28.42.21,1.4.35,1.96.07.63.42,1.19.49,1.82.28,1.33.21,2.73.42,4.13.07.7.42,1.33.49,1.96.21.98.14,1.96.21,2.94.21,2.17.42,4.41.56,6.65.07.14.14.35.14.56,0,.14-.14.21-.14.49,0,1.12.42,2.24.42,3.43,0,1.33-1.61,3.5-3.01,3.5Z"/>
        <path class="cls-2" d="M183.56,451.07c-.21,1.19-.98,1.89-1.54,2.94-.35.56-.77,1.82-1.26,2.17-.56.49-1.19.49-1.82.7-.98.35-1.26,1.4-2.52,1.4-.42,0-.77-.07-1.19-.07-1.33,0-2.24,1.05-3.5,1.26-.7.07-1.47,0-2.17,0-.42,0-.84,0-1.26.14-.63-.28-1.4-.84-2.17-.84-.42,0-.7.21-1.12.35-.14.07-.35.07-.49.14-.84.7-.7,1.05-2.03,1.05s-3.29-1.54-3.29-2.87c0-1.54.35-3.08.35-4.62,0-.98-.28-1.96-.35-2.94-.21-2.31-.35-4.69-.35-7,0-.42.21-.84.21-1.26,0-.98-.56-1.89-.56-2.87,0-.35.21-.77.21-1.19s-.35-.77-.35-1.19c0-.56.21-1.05.21-1.54,0-2.52-.56-4.9-.56-7.42,0-.35.21-.77.21-1.19,0-.77-.42-1.61-.56-2.38-.21-1.75-.14-3.57-.35-5.32-.07-.77-.35-1.54-.35-2.38,0-.49.21-.91.21-1.4,0-1.54-.49-3.08-.49-4.69,0-1.05.21-3.64,1.68-3.64.56,0,1.4-.14,1.54.49h.35c1.33,1.12,1.54,5.67,1.89,7.35.14.84.56,1.61.7,2.38.14.98.07,1.96.14,2.94.14,1.89.35,3.78.49,5.67.14.84.28,1.68.35,2.52.07.77,0,1.54,0,2.31s.28,1.4.35,2.17c.21,1.68.07,3.43.21,5.11,0,1.12-.07,3.5,1.33,3.78.14.07.28.07.42.07,1.61,0,2.31-1.82,3.5-2.45.28-.14.49-.07.7-.21,1.4-.42,2.87-.84,4.34-.84,1.75,0,3.36.35,4.76,1.4.21.14.35.35.49.49.49.42,1.12.7,1.54,1.19.35.42.42.98.7,1.4.14.21.42.28.49.49.14.14.07.21.21.35.63.84.7,2.03,1.33,2.94-.14,1.68-.35,3.43-.63,5.11ZM177.54,445.26c-.07-.35-.35-.7-.49-1.05-.63-1.47-.63-1.96-1.89-3.08-.14.07-.28.07-.42.07-.49,0-.91-.14-1.4-.14-1.47,0-1.89.91-3.01,1.61-.84.63-1.19,1.61-1.89,2.38-.56.7-1.75,1.54-1.75,2.45,0,.35.07.77.07,1.12,0,1.12-.91,1.75-.91,3.01,0,1.4.56,2.8.56,4.27.98.63,2.1.49,3.22.49.56,0,.98.14,1.47.14.42,0,.91-.35,1.33-.49.49-.14,1.05,0,1.54-.14.21-.14.42-.42.63-.56,2.03-1.26,2.8-1.75,3.08-4.27.07-.35.07-.7.07-1.05,0-1.33.07-3.57-.21-4.76Z"/>
        <path class="cls-2" d="M215.06,460.31c-.42.07-.77.07-1.19.07-2.1,0-2.94-.77-3.43-2.73-.14-.49,0-1.05-.14-1.54-.07-.35-.42-.63-.49-.98-.07-.7,0-1.54,0-2.31,0-1.05-.14-2.94-.84-3.78-1.89.28-1.54,2.38-2.59,3.5-.63.63-1.61.7-2.24,1.33-.56.56-.7,1.54-1.19,2.24-.77,1.12-2.03,2.1-3.01,3.08-.28.35-.56.84-.91,1.05-.35.28-.91.28-1.26.49-.49.21-.84.7-1.33.7-.63,0-1.19-.21-1.75-.28-.7,0-1.4.07-2.1.07-.63,0-1.54-.21-2.03-.7-.14-.14-.07-.42-.21-.56-.21-.28-.7-.42-.84-.7-.21-.49-.14-1.47-.35-2.1-.14-.49-.56-.98-.7-1.47-.14-.84-.21-1.68-.21-2.45,0-2.1.84-3.5.84-5.32,0-.77-.14-1.54-.14-2.31s.42-1.26.49-1.96c.14-.49,0-1.05.07-1.54.21-1.54.49-3.01.63-4.48.14-1.4.77-4.41,2.59-4.41,2.59,0,2.73,2.38,2.73,4.34,0,1.33-.49,2.1-.49,2.94,0,.63.21,1.26.21,1.89s-.21,1.19-.28,1.82c-.14,1.54-.14,3.08-.42,4.62,0,.21-.07.42-.07.63,0,.7.07,1.4.07,2.1,0,.84-.14,1.75-.14,2.66,0,1.05.56,2.8,1.89,2.8.98,0,2.24-1.54,3.01-2.17.98-.84,1.89-1.54,2.66-2.52.35-.49.56-1.26,1.05-1.61.14-.14.35-.14.56-.28,1.05-.91,2.87-3.36,3.5-4.69.35-.84,1.19-1.4,1.54-2.24.07-.28,0-.84.07-1.19.28-1.05.98-1.96.98-3.08,0-.63-.07-1.26-.07-1.89,0-.98,1.33-1.82,2.24-1.82,2.59,0,3.99,4.48,3.99,6.58,0,.91-.28,2.1-.28,3.29,0,2.38.7,4.69.7,7,0,.42-.07.91-.07,1.33,0,1.12.63,2.17.63,3.29s-.77,2.66-1.68,3.29Z"/>
        <path class="cls-2" d="M230.6,464.09c0,.91.14,1.82.14,2.8,0,.49,0,1.05-.14,1.54,0,.28-.28.42-.35.7-.07.28.07.56.07.91,0,1.4-1.19,5.25-1.82,6.65-.21.56-.28,1.12-.49,1.61-.14.28-.49.35-.56.56-.14.28-.07.63-.21.91-.14.28-.49.42-.7.7-.14.21-.07.42-.21.56-.07.14-.21.07-.35.21-.14.14-.21.7-.35.91-.07.14-.28.21-.35.35-.07.07-.07.21-.21.35-.35.42-1.54.84-2.17,1.4-.28.35-.42.91-.7,1.26-1.89,3.08-2.8,2.87-5.74,4.2-1.19.49-2.17,1.33-3.5,1.33-.91,0-1.75-.49-2.66-.49-.42,0-.84.07-1.26.07-1.12,0-4.76-2.52-5.6-3.43-.14-.21-1.05-2.31-1.05-2.52,0-.77.84-1.68,1.61-1.68,1.12,0,2.87,2.8,3.78,3.64,1.19.98,1.61,1.05,3.08,1.26.42.07.84.21,1.26.21.77,0,1.19-.49,1.82-.77.49-.21,1.12-.35,1.61-.7.84-.63,1.47-1.75,2.17-2.52.84-.91,1.89-1.82,2.52-2.87.63-1.26,1.47-2.52,1.96-3.78.7-1.89,1.05-5.18,1.61-7.21.14-.35.35-.63.35-.91.42-2.59.21-5.39.21-7.98,0-1.12.07-2.31.07-3.43,0-1.89-.63-3.71-.63-5.53,0-.63.21-1.26.21-1.89,0-.56-.28-1.19-.35-1.75-.14-.56-.07-1.19-.21-1.75-.07-.56-.42-.98-.56-1.47-.07-.49.07-.98.07-1.47,0-1.12-.91-2.17-.91-3.29,0-.49.14-.91.14-1.4.07-1.12-.14-3.22,1.12-3.78.14-.35.7-.35,1.05-.35.42,0,.84.07,1.26,0,.28.35.77.56,1.12.91.28.35.28.91.49,1.26.14.21.42.35.56.56.28.49.35,1.54.35,2.17,0,1.12.49,1.89.49,3.22,0,.49.63,1.4.7,1.96.14.77.14,1.47.21,2.17.21,1.26.49,2.52.7,3.78.35,1.89.42,3.85.56,5.81.07,1.05.21,2.1.21,3.22,0,1.26-.42,2.52-.42,3.78ZM224.16,425.37c-1.68,0-4.41-.56-4.41-2.73,0-1.47,1.12-2.94,2.66-2.94,1.33,0,2.66.84,3.92,1.33.35.7.77,1.54.77,2.31,0,1.54-1.68,2.03-2.94,2.03Z"/>
        <path class="cls-2" d="M238.86,424.04c-.49.14-.91.28-1.4.28-.21,0-1.96-.42-2.03-.49-.14-.07-.14-.21-.21-.35-.77-.35-1.19-1.68-1.19-2.52,0-1.54,1.75-2.1,3.08-2.1,1.4,0,3.01.63,3.85,1.75.35.42.77.84.77,1.4,0,1.33-1.96,1.68-2.87,2.03ZM241.31,461.92c-.91,0-1.54-.63-2.31-.98-.63-1.19-.56-2.94-.7-4.34-.07-.42-.28-.77-.35-1.26-.07-.42,0-.84,0-1.33,0-1.75-.35-3.78-.35-5.67-.07-.63,0-1.33,0-1.96,0-.98-.28-1.82-.42-2.73-.21-2.1-.14-4.2-.14-6.3,0-1.47.07-3.92,2.1-3.92.7,0,1.82.42,2.24,1.05.28.42.21,1.4.35,1.96.07.63.42,1.19.49,1.82.28,1.33.21,2.73.42,4.13.07.7.42,1.33.49,1.96.21.98.14,1.96.21,2.94.21,2.17.42,4.41.56,6.65.07.14.14.35.14.56,0,.14-.14.21-.14.49,0,1.12.42,2.24.42,3.43,0,1.33-1.61,3.5-3.01,3.5Z"/>
        <path class="cls-2" d="M269.45,473.89c-1.05.42-2.17.28-3.22.28-.98,0-1.89.42-2.94.42-.63,0-1.33-.21-2.03-.21-.77,0-1.47.42-2.24.42-.7,0-1.4-.21-2.1-.21-.98,0-1.89.56-2.87.56-.77,0-1.54-.21-2.31-.35-.7-.91-1.19-1.96-1.19-3.08,0-1.19.49-2.31.49-3.57,0-.7-.14-1.47-.14-2.24-.07-.63,0-1.33,0-2.03,0-.84-.21-1.61-.21-2.45,0-2.38,0-4.76.07-7.14,0-.98,0-2.03.14-2.94,0-.28.14-.49.14-.77s-.14-.56-.14-.84c0-.98.56-1.89.56-2.8,0-1.12-.21-2.24-.21-3.36s.14-2.24.14-3.43c0-1.75-.35-3.43-.35-5.25,0-.84.21-1.75.21-2.66,0-.84-.35-1.68-.35-2.52s.28-1.68.35-2.52c.14-1.82-.14-8.05.49-9.17.35-.56,1.75-1.33,2.38-1.33,2.31,0,2.24,5.88,2.31,7.42.07.42.21.84.21,1.26,0,.77-.35,1.47-.35,2.24,0,1.75.35,3.43.35,5.18,0,6.09.07,12.25.07,18.34,0,1.26-.14,2.52-.14,3.78,0,1.47.07,3.01.07,4.48s-.35,2.94-.35,4.41c0,.84.42,1.61.56,2.52.07.77-.14,1.89.14,2.66.63,1.75,3.5,2.17,5.11,2.17,2.59,0,4.27-1.82,6.02-1.82,1.19,0,2.31,1.05,2.31,2.24,0,.84-.42,1.68-.98,2.31ZM286.39,465.84c-.7,0-1.47-.28-2.17-.28-.49,0-.98.21-1.47.21-.42,0-.84-.21-1.33-.21-.98,0-2.17.7-3.15.91-.84.21-1.68.28-2.52.56-1.12.42-2.73.77-3.92.77-1.61,0-2.1-2.1-2.94-3.15.07-.77.35-1.54.35-2.31,0-.56-.35-1.05-.35-1.61s.14-1.05.21-1.61c0-.49-.07-1.05-.07-1.54,0-.7.28-1.4.42-2.1.21-1.4.21-2.87.21-4.27,0-1.26-.42-2.45-.42-3.71,0-.98.21-1.96.21-3.01,0-1.82-.42-3.71-.42-5.53,0-.91.21-1.75.21-2.59,0-.98-.56-1.89-.56-2.87,0-.7.21-1.33.21-2.03,0-2.45-.35-5.18-1.26-7.49-.21-.49-.56-.91-.56-1.47,0-1.4,0-4.13,2.03-4.13,1.05,0,1.96.42,2.52,1.4.07.21.07.42.14.56l.35.21c.42.7.35,1.54.56,2.31.98,3.57,1.4,5.53,1.4,9.31,0,1.54.28,3.08.42,4.55.07,1.26.07,2.45.14,3.64.14,1.19.42,2.31.42,3.5,0,1.33-.21,2.73-.21,4.06,0,1.26.21,2.52.21,3.78,0,.56-.21,1.12-.21,1.68,0,.91.56,1.75.56,2.66,0,1.12-.56,2.17-.56,3.36,0,.63,0,1.47.35,2.03.63.98,3.22,1.12,4.27,1.12.98,0,1.82-.21,2.73-.42.56-.07,1.12-.07,1.68-.14.91-.21,1.75-.77,2.73-.77s2.31.7,2.31,1.89c0,1.26-1.12,2.73-2.52,2.73Z"/>
        <path class="cls-2" d="M303.89,454.36c-.42.42-.77.98-1.26,1.26-.63.42-1.47.63-2.17.91-.56.28-1.4.77-1.96.91-.56.14-1.19,0-1.75,0-.7,0-1.4.14-2.1.14s-1.33-.21-1.96-.7c-1.89-.14-3.78-.84-5.18-2.17-.28-.21-.35-.49-.56-.7-.21-.14-.49-.21-.7-.35-2.17-1.61-2.59-3.29-2.59-5.88,0-2.45,1.26-4.62,2.38-6.72.07-.21.07-.42.21-.56.21-.28.63-.42.91-.7.49-.56.77-1.33,1.4-1.82.21-.21.49-.21.7-.35.42-.28.7-.91,1.12-1.12,1.33-.7,3.64-.84,5.11-.84,2.94,0,7,.98,8.54,3.78.35.49.49.98.91,1.4.56.49,1.26.84,1.68,1.47.07.14.07.35.14.49.63,1.33.84,2.66.84,4.13,0,3.29-1.4,5.25-3.71,7.42ZM301.93,443.58c-.21-.21-.42-.35-.56-.56-.63-.7-1.05-2.03-1.96-2.31-.49-.21-4.48-1.12-4.83-1.12-.42,0-1.54.84-1.89,1.12-.28.21-.56.35-.91.49-1.96,1.12-2.38,2.1-2.38,4.41,0,1.68.63,2.87,1.68,4.06.63.7,2.31,2.59,3.08,2.87,1.19.49,3.01.28,4.34.42.98-.63,2.38-1.68,2.87-2.73l.35-.21c.21-.28.21-.7.35-1.05.49-1.12.84-1.05.84-2.66,0-.98-.42-1.96-.98-2.73Z"/>
      </g>
    </g>
  </g>
</svg>