<?xml version="1.0" encoding="UTF-8"?>
<svg id="Capa_3" data-name="Capa 3" xmlns="http://www.w3.org/2000/svg" viewBox="0 0 200 200">
  <defs>
    <style>
      .cls-1 {
        fill: #72a888;
      }
    </style>
  </defs>
  <path class="cls-1" d="M78.7,84.11c0,.05-.01.42-.09.78-.18.74-.56,1.38-1.28,1.68-.7.3-1.45.23-2.13-.12-.43-.22-.82-.53-1.2-.83-.19-.15-.34-.35-.47-.56-.78-1.32-.98-2.75-.77-4.24.13-.92,1.13-1.63,2.23-1.32.47.13.9.38,1.37.5.64.16,1.04.6,1.41,1.09.07.1.15.2.22.29.53.72.76,1.52.71,2.72Z"/>
  <path class="cls-1" d="M163.73,160.15c-.13-.98-.1-1.98-.16-2.97-.05-.87-.04-1.75-.21-2.59-.55-2.68-.44-5.44-1.09-8.1-.21-2.99-.93-5.88-1.75-8.74-1.07-3.69-2.24-7.34-3.53-10.96-.67-1.87-1.26-3.76-2.17-5.53-.51-.99-1-2.01-1.34-3.07-.6-1.9-1.57-3.64-2.37-5.45-.76-1.72-1.75-3.28-3.05-4.64-.78-.81-1.48-1.67-2.09-2.61-.2-.31-.22-.72-.05-1.07.39-.77.86-1.51,1.21-2.3.41-.9.94-1.74,1.23-2.7.11-.37.11-.73,0-1.09-.29-.97-.74-1.84-1.61-2.43-.41-.28-.79-.6-1.21-.87-1.45-.95-2.91-1.89-4.37-2.83-.43-.28-.69-.69-.91-1.14-.27-.56-.5-1.14-.54-1.77-.04-.62-.05-1.24-.08-1.86-.03-.49-.03-1-.12-1.48-.14-.73-.36-1.46-.85-2.04-.56-.67-1.25-1.21-2.06-1.56-1.09-.48-2.18-.45-3.2.19-.84.53-1.68,1.03-2.58,1.46-.89.42-1.66,1.08-2.5,1.61-.29.19-.63.31-.95.45-.08-.21-.1-.42,0-.6.39-.63.75-1.3,1.22-1.87,1.55-1.87,2.1-4.18,2.88-6.4.11-1.62.7-3.14.97-4.73.35-2.08.62-4.17.62-6.28,0-.36.13-.72.45-.98.87-.7,1.71-1.43,2.59-2.12.59-.46,1.12-.98,1.54-1.6.64-.91,1.2-1.88,1.91-2.74.47-.57.76-1.3.8-2.05.09-1.73.13-3.47.17-5.21.02-.75-.17-1.47-.42-2.18-.09-.25.08-.47.31-.53.11-.03.27-.05.36,0,.73.46,1.44.96,2.18,1.41.31.19.67.32,1.01.46.98.4,2.68-.36,2.55-1.84-.16-1.86-.33-3.71-1.21-5.41-.11-.22-.14-.47-.22-.71-.8-2.38-2.06-4.49-3.78-6.33-.59-.63-1.17-1.28-1.75-1.93-.4-.45-.33-1.03.18-1.19.71-.23,1.4-.49,2.05-.87.7-.41.9-1.18.36-1.9-.29-.4-.59-.8-.95-1.14-1.17-1.11-2.43-2.13-3.41-3.42-.22-.29-.55-.5-.83-.74-1.24-1.05-2.71-1.73-4.11-2.51-2.53-1.41-5.18-2.37-8.13-2.23-.87.04-1.74.04-2.6-.02-1.67-.11-3.15.37-4.64,1.08-1.57.75-3.05,1.64-4.63,2.37-.44.2-.85.51-1.23.82-1.53,1.26-3.02,2.57-4.57,3.82-.9.72-1.5,1.63-1.97,2.66-.15.34-.28.69-.46,1.02-.04.08-.21.14-.33.15-1.74.1-3.46.06-5.16-.38-.48-.12-.98-.14-1.47-.02-.36.09-.72.2-1.09.23-1.24.11-2.46.3-3.63.75-1.16.45-2.38.67-3.54,1.14-1.39.56-2.71,1.2-3.9,2.12-.4.31-.85.49-1.36.52-.87.05-1.73.1-2.6.16-4.04.32-3.35.4-6.35,1.85-1.6.77-2.84,1.98-3.8,3.47-.2.31-.37.65-.56.96-.33.55-.79.94-1.43,1.11-.72.2-1.44.37-2.14.63-1.5.56-3.04,1.07-4.42,1.9-1.38.83-2.72,1.73-4.06,2.62-.62.41-1.23.82-1.93,1.1-.94.38-1.74,1.05-2.25,1.89-.78,1.28-1.8,2.36-2.68,3.56-.44.6-.91,1.2-1.2,1.88-1.05,2.5-2.41,4.9-2.74,7.66-.01.12-.1.23-.15.34-.58,1.31-.54,2.68-.2,4.01.25.96.49,1.92.78,2.86.22.7.54,1.4.94,2.01.47.72,1.01,1.4,1.78,1.87.87.52,1.8.81,2.78,1,.61.12,1.57-.57,1.66-1.21.09-.61.13-1.23.23-1.84.04-.24.11-.51.26-.68.14-.16.4-.22.61-.32,1.05.42,1.88,1.19,2.87,1.7,1.1.57,2.25,1.04,3.27,1.75.44.31.67.83.61,1.3-.16,1.27.11,2.47.47,3.65.44,1.42.71,2.89,1.25,4.28.59,1.51,1.49,2.86,2.18,4.31.8,1.69,1.76,3.27,3.12,4.58.28.27.22.78-.08.95-.64.37-1.27.78-1.94,1.1-.87.42-1.3,1.12-1.42,2.03-.09.74-.16,1.48-.14,2.22.03,1.11.12,2.23.19,3.34.13,1.98.47,3.93,1.19,5.8.28.71.67,1.29,1.1,1.9.75,1.06,1.72,1.76,2.89,2.26,1.71.73,3.43,1.42,5.22,1.94.33.1.56.49.59.85.07.75-.04,1.48-.26,2.2-.75,2.5-1.3,5.04-1.81,7.59,0,2.14-.81,4.13-1.14,6.21-.51,1.15-.39,2.46-.84,3.61-.51,1.31-.38,2.69-.56,4.04-.1.74-.18,1.48-.34,2.21-.65,2.92-.81,5.89-1.04,8.86-.08,1.12-.11,2.24.55,3.24.12.18-.17.83-.41.97-.32.2-.65.38-1.04.31-.36-.07-.75-.12-1.07-.29-1.54-.83-2.97-1.81-4.1-3.15-.56-.67-1.15-1.28-1.81-1.86-.93-.81-1.77-1.73-2.63-2.63-.26-.27-.47-.58-.66-.89-.2-.33-.23-.73-.03-1.05.37-.64.74-1.3,1.21-1.87,1.73-2.11,3.27-4.36,5.17-6.34,1.49-1.56,2.31-3.51,2.87-5.56.06-.22.02-.49-.03-.73-.19-.75-.58-1.33-1.28-1.74-1.51-.87-3.14-1.46-4.79-2-.64-.21-1.67.08-2.02.63-.74,1.14-1.7,2.12-2.35,3.34-.52.98-1.22,1.86-1.83,2.8-.41.62-.86,1.22-1.17,1.89-.42.92-.98,1.72-1.68,2.43-.25.26-.5.58-.6.92-.36,1.23-1.2,2.16-1.92,3.17-.93,1.3-2.28,2.28-2.99,3.77-.65.58-1.32,1.14-2.16,1.41-.83.27-1.6.62-2.3,1.18-.68.54-1.46.94-2.19,1.4-.32.2-.58.46-.73.81-.24.57-.49,1.14-.71,1.72-.09.23-.18.49-.15.72.21,1.59.09,3.23.59,4.78.17.52.07,1.04-.25,1.4-1.08,1.23-1.83,2.64-2.45,4.14-.48,1.15-1.03,2.25-1.67,3.32-.58.96-.98,2-1.28,3.08-.11.37-.04.73.03,1.1.22,1.06.8,1.8,1.9,2.03.61.13,1.22.25,1.83.35.79.13,1.47-.13,2.06-.64.28-.24.63-.47.78-.78.53-1.14,1.39-2.04,2.16-3.01.3-.38.34-.93.85-1.15.24-.1.51-.13.69.07.34.37.51.82.56,1.33.03.36.07.78.26,1.06.49.71,1.05,1.37,1.62,2.02.42.49,1.01.74,1.65.76.86.02,1.73-.07,2.59-.1.51-.02.99.1,1.43.34.44.23.85.51,1.29.73.21.1.49.18.71.14,1.58-.31,3.18-.47,4.78-.65,1.47-.16,2.95-.38,4.29-1.13.32-.18.72-.19,1.08-.07.35.12.7.25,1.04.4.61.25,1.19.23,1.8-.03.34-.15.69-.25,1.05-.35.25-.07.51.03.61.29.22.57.43,1.16.58,1.75.26,1.03.91,1.74,1.74,2.33.41.29.85.51,1.36.56,1.85.18,3.71.21,5.55.57.24.05.49.03.74.03,1.86.06,3.72.12,5.58.16,1.61.04,3.22-.02,4.82-.32,1.1-.21,2.21-.31,3.32-.39,2.1-.14,4.17-.62,6.28-.7.12,0,.25-.03.37-.07,1.44-.45,2.92-.56,4.41-.61.75-.02,1.47-.18,2.19-.36,1.8-.45,3.61-.89,5.39-1.43.71-.22,1.44-.38,2.17-.51,2.33-.4,4.58-1.04,6.69-2.15.22-.11.46-.18.7-.26,1.59-.57,2.8-1.62,3.65-3.03,1.79-2.97,3.67-5.89,5.21-9,.71-1.44,1.5-2.84,2.15-4.32.74-1.7,1.46-3.42,2.4-5.03.99-1.71,1.82-3.52,2.82-5.23,1.06-1.82,1.86-3.79,3.15-5.47.15-.19.23-.44.34-.66,1-1.99,2-3.98,3-5.98.94-1.89,1.71-3.84,2.22-5.9.42-1.68,1.01-3.32,1.52-4.97.04-.12.1-.25.19-.31.05-.04.21.03.29.09.42.29.67.73.85,1.19.46,1.15.9,2.31,1.31,3.48.45,1.28.89,2.58,1.3,3.88.41,1.3.9,2.56,1.19,3.9.28,1.33.8,2.6,1.11,3.93.84,3.5,1.66,6.99,1.96,10.59.08.98.4,1.95.51,2.93.12,1.11.09,2.23.17,3.34.04.49.19.97.29,1.45.05.24.16.48.17.72.06,1.23-.12,2.47.3,3.68.11.32-.06.73-.08,1.1-.02.37-.04.74-.02,1.11.02.24.08.5.2.71.5.86,1.09,1.66,1.82,2.33.28.26.64.34,1.02.36.28,0,.47-.08.65-.29.23-.29.5-.56.55-.94.27-2.09.61-4.16.32-6.29ZM40.87,169.95h-.64l.21-.96,3.18-6.09.67,2.24-3.42,4.81ZM61.78,136.79c.33-.51.68-1.01,1-1.53.51-.84,1.03-1.67,1.76-2.35.26-.24.6-.32.99-.15.27.12.4.32.33.6-.17.73-.53,1.37-.96,1.96-.4.54-.79,1.1-1.26,1.56h.01s-6.16,8.55-6.16,8.55l-1.07-.56,5.36-8.07ZM71.08,168.79c-.07.46-.47.9-1.02.9h-.74c-.37.05-.73.12-1.1.15-.42.03-.71-.21-.86-.57-.39-.93-.89-1.76-1.8-2.29-.21-.12-.39-.31-.57-.47-.29-.26-.41-.6-.4-.98,0-.25.02-.5,0-.74-.06-.61-.56-1.17-1.15-1.3-.36-.08-.73-.16-1.1-.15-.36,0-.75.07-1.08.21-.57.24-1.1.56-1.65.85-.72.39-1.14,1.33-1.01,2.22.18,1.27.93,2.24,2.13,2.84.54.27,1.19.35,1.58.86.06.08.09.31.04.34-.21.13-.43.27-.67.3-1.83.3-3.67.53-5.53.62-.79.04-1.68-.76-1.76-1.6-.03-.25-.08-.5-.03-.74.52-2.67.71-5.41,1.83-7.94.05-.11.06-.24.1-.36.08-.26-.12-.82-.36-.99-1.03-.7-2.29-.46-2.89.55-.44.75-.83,1.52-1,2.39-.19.97-.45,1.93-.63,2.91-.13.75-.54,1.38-.84,2.06-.12.26-.29.43-.47.41-.1,0-.22-.13-.29-.23-.66-.92-1.06-1.96-1.36-3.04-.13-.47-.1-.98-.09-1.48,0-.37.13-.72.37-1.03.23-.29.41-.63.67-.89,1.06-1.05,2.04-2.16,2.98-3.32.64-.78,1.38-1.42,2.32-1.82.22-.1.41-.28.61-.42.69-.5.58-1.87-.2-2.21-.45-.2-.92-.38-1.4-.47-.35-.07-.75-.05-1.09.05-.47.13-.96.32-1.36.59-1.02.7-2.03,1.43-2.73,2.49-.56.85-1.39,1.4-2.17,2.01-.22.17-.42.25-.69.18-.23-.06-.42-.2-.44-.49-.04-.62-.08-1.24-.07-1.85,0-.5.2-.95.53-1.35.73-.87,1.6-1.57,2.64-2,2.29-.95,4.59-1.85,7-2.49,2.03-.54,1.58-.4,3.57.25.34.11.69.32.95.57.97.95,2.07,1.77,2.92,2.86.53.68,1.19,1.26,1.77,1.91.5.57,1.08,1.01,1.73,1.39,1.5.88,2.97,1.79,4.45,2.69.41.25.65.75.45,1.29-.23.63-.23,1.17.04,1.78.14.33.16.72.17,1.09.05,1.49-.07,2.97-.29,4.45ZM141.88,43.97l-.21.1.17-.15s.03.03.04.05ZM113.58,28.95c.3-.21.58-.47.9-.64,1.85-1,3.73-1.94,5.65-2.79,2.09-.93,4.26-1.23,6.52-.95.37.04.74.09,1.11.13,2.27.27,4.26,1.25,6.1,2.54.61.43,1.15.95,1.5,1.62.1.18.06.48,0,.7-.09.26-.33.39-.57.36-.37-.04-.73-.12-1.09-.19-.41-.08-.71.13-.96.42-.69.83-.67,2.01.11,2.68,1.41,1.22,2.67,2.57,3.93,3.94.59.64,1.16,1.29,1.73,1.94,1.23,1.4,2.3,2.91,2.93,4.69.07.2.25.36.39.53-.55.38-1.12.43-1.7.05-.31-.2-.64-.38-.95-.59-1.17-.78-2.5-1.02-3.86-1.15-.19-.02-.48.17-.61.35-.37.5-.65,1.04-.41,1.71.32.94.55,1.9.9,2.83.55,1.48.92,5.17.76,6.96-.03.37-.1.74-.24,1.08-.53,1.26-1.13,2.48-2.02,3.53-.23.28-.55.49-.86.7-.5.35-1.06.19-1.15-.32-.4-2.35-1.33-4.51-2.41-6.6-.46-.88-.93-1.75-1.25-2.69-.29-.83-.71-1.57-1.2-2.29-1.77-2.55-3.69-4.96-6.01-7.04-.28-.25-.53-.52-.77-.81-.23-.29-.4-.63-.42-1.01-.02-.37-.02-.74.02-1.11.18-1.72-.55-3.13-1.53-4.45-.75-1-1.68-1.82-2.83-2.35-.56-.26-1.1-.56-1.64-.84-.29-.15-.33-.76-.07-.95ZM91.62,38.33c.19-.15.36-.38.58-.45,1.29-.42,2.56-.91,3.92-1.08.74-.09,1.48-.17,2.21-.3.86-.15,1.71-.15,2.58-.03.98.14,1.97.26,2.95.29,1.25.04,2.45.3,3.64.64,2.02.58,4.02,1.23,5.82,2.35,1.07.37,1.93,1.11,2.81,1.78.88.67,1.67,1.47,2.49,2.22.18.17.36.34.51.54,1.32,1.79,2.63,3.59,3.94,5.39.88,1.77,1.77,3.53,2.64,5.31.27.55.51,1.13.67,1.73.5,1.79.95,3.58,1.42,5.38.06.24.09.49.11.73.07,1.11.13,2.22.17,2.78-.03,2.53-.1,4.5-.71,6.42-.26.82-.39,1.69-.53,2.54-.32,1.98-1.07,3.8-1.98,5.57-.2.39-.81.64-1.26.5-.35-.11-.7-.25-1.05-.36-.49-.16-.98-.15-1.45.03-.46.18-.91.38-1.36.58-.3.13-.49.08-.57-.18-.04-.11-.1-.23-.09-.35.01-.24.01-.51.09-.73.86-2.28.76-4.63.38-6.96-.42-2.61-.69-3.11-2.14-5.47-.33-.53-.66-1.05-.98-1.58-.91-1.5-2.06-2.78-3.48-3.79-1-.71-1.87-1.62-3.05-2.1-.2-.08-.38-.34-.45-.56-.8-2.52-2.44-4.57-3.83-6.75-.47-.73-1.04-1.38-1.52-2.11-1.15-1.77-2.43-3.43-4.02-4.83-1.69-2.2-4.08-3.58-6.22-5.23-.68-.52-1.56-.73-2.22-1.31-.25-.22-.24-.43,0-.62ZM114.92,75.15c-.2,1.85-.76,3.62-1.32,5.38-.26.81-.77,1.54-1.2,2.29-.25.43-.64.73-1.07,1-1.63,1.02-3.41,1.4-5.82,1.35-.1,0-.72-.02-1.33-.11-3.06-.46-5.16-2.26-6.59-4.87-.96-1.74-1.46-3.67-1.64-5.65-.08-.86-.07-1.73-.05-2.59.02-1.4.57-2.64,1.2-3.85.17-.32.41-.62.65-.89,1.7-1.88,3.81-3.12,6.19-3.91,1.58-.52,3.17-.43,4.72.17.34.13.65.34.95.55.41.28.77.62,1.19.88.54.33.95.78,1.29,1.3.41.62.76,1.27,1.18,1.88.99,1.47,1.45,3.12,1.63,4.86.08.73.09,1.49.01,2.22ZM80.98,41.48c.24-.05.48-.12.73-.15.86-.08,1.73-.16,2.59-.21.75-.04,1.48.04,2.18.35.34.15.68.32,1.03.41,2.72.68,4.91,2.3,7.06,3.98,1.47,1.14,2.78,2.46,3.95,3.91,1.55,1.93,3.08,3.87,4.34,6.01.38.64.73,1.29.99,1.98.12.32-.09.73-.5.83-.84.2-1.68.39-2.44.56-.31-.16-.55-.24-.74-.39-.18-.15-.37-.35-.45-.57-.81-2.11-2.1-3.91-3.53-5.64-.47-.57-.92-1.16-1.39-1.74-.46-.59-.99-1.1-1.62-1.51-.83-.54-1.66-1.09-2.44-1.69-2.38-1.83-5.03-3.12-7.87-4.07-.7-.24-1.38-.53-2.08-.79-.24-.09-.42-.25-.5-.5-.07-.22.39-.71.69-.76ZM62.51,63.17c-.21.1-.41.32-.5.53-.48,1.15-.8,2.34-.92,3.58-.11,1.11-.19,2.22-.28,3.33-.04.49-.67.78-1.12.51-.1-.06-.22-.12-.32-.18-.53-.35-.94-.84-1.18-1.41-.38-.91-.63-1.88-1.01-2.79-.3-.71-.9-1.17-1.63-1.43-.23-.08-.48-.1-.73-.14l-.97,2.44c-.27,1.17-.67,1.67-1.27,2.61-.05.08-.16.13-.25.2-.07-.1-.17-.19-.21-.3-.23-.71-.21-1.46-.02-2.15.25-.93,0,0,.58-1.71.43-1.74.06.04.49-1.7.4-.59,0,0,.34-.63.26-.83.58-1.63.89-2.44.59-1.51,1.32-2.94,2.56-4.04,2.37-2.76,5.24-4.89,8.39-6.66,1.84-1.04,3.84-1.71,5.8-2.47.23-.09.49-.16.73-.13,1.2.13,2.17-.31,3.02-1.12.37-.36.88-.44,1.37-.49,1.88-.18,3.69.08,5.48.68,1.53.51,3,1.15,4.44,1.86.55.27,1.06.64,1.56,1,.5.36.94.81,1.46,1.14,2.27,1.44,3.78,3.54,5.09,5.81.62,1.07,1.09,2.22,1.6,3.35.29.63.13,1.23-.36,1.68-1.56,1.45-2.67,3.23-3.76,5.03-.17.29-.73.42-.98.24-.2-.14-.43-.25-.61-.41-.28-.24-.55-.5-.78-.79-.93-1.15-1.98-2.22-2.72-3.52-.39-.3-.76-.63-1.17-.9-.2-.13-.47-.19-.71-.19-.76,0-1.46.22-2.12.58-.21.11-.37.33-.51.53-.75,1.03-1.03,2.23-1.17,3.48-.03.29-.24.43-.46.4-.11-.02-.24-.07-.33-.15-.18-.17-.36-.35-.49-.55-1.25-1.84-2.44-3.72-3.16-5.86-.31-.91-1.03-1.35-1.96-1.48-.5-.07-.98-.04-1.47.08-.48.12-.95.58-1,.98-.02.12-.08.24-.08.36-.02,1.61-.2,3.21-.52,4.79-.17.85-.25,1.71-.37,2.57-.06.46-.75.68-1.18.4-.21-.14-.42-.26-.62-.4-1.13-.79-2.12-1.7-2.73-2.97-.16-.33-.42-.61-.68-.87-.17-.17-.38-.32-.6-.41-.97-.4-1.94-.31-2.87.15ZM69.5,86.29c-.15-.34-.28-.69-.38-1.04-.64-2.39-1.37-4.75-1.7-7.22-.1-.73-.32-1.45-.48-2.17-.14-.63-.47-1.14-.94-1.57-.39-.35-.58-.79-.61-1.3-.05-.99-.11-1.98.1-2.96.11-.51.63-.8,1.1-.54,1.08.6,2.72,1.87,3.5,2.71.21.22.16.8-.1.99-.3.22-.61.43-.89.67-.18.16-.36.36-.46.57-.09.21-.17.51-.1.71.26.71.7,1.3,1.27,1.8.4.35.88.51,1.37.32q2.97-1.15,6.35-1.93c.23-.05.44-.21.66-.33.28-.16.47-.69.37-.96-.17-.48-.42-.91-.84-1.19-.51-.34-1.07-.61-1.62-.91-.35-.19-.61-.43-.55-.85.12-.85.14-1.73.47-2.55.13-.32.66-.47.93-.18,1.4,1.41,3.05,2.52,4.56,3.8.58.5,1.31.68,2.02.9.58.18,1.61-.44,1.76-1.04.06-.24.16-.47.19-.72.1-.86.18-1.72.27-2.58.03-.31.18-.47.49-.45.12,0,.27,0,.34.08,1.14,1.15,2.46,2.06,3.79,2.95.4.27.69.72.77,1.24.12.86.26,1.72.31,2.58.11,2.03,1.07,3.79,1.76,5.63.13.34.37.65.59.95.51.7,1.04,1.39,1.57,2.07.54.68,1.14,1.3,1.86,1.81.41.29.83.56,1.19.89,1.23,1.12,2.76,1.63,4.27,2.18.34.12.72.17,1.08.22.73.11,1.47.22,2.21.3.37.04.74.05,1.11.02.86-.07,1.73-.22,2.59-.24,1.64-.03,3.19-.33,4.65-1.1.45-.24.95-.28,1.45-.2.89.14,1.72-.05,2.54-.38.8-.33,1.6-.66,2.41-.97.06-.02.22.09.28.18.44.6.75,1.27,1,1.97.16.43-.02,1.04-.39,1.33-.3.22-.57.48-.88.68-1.46.93-2.9,1.9-4.42,2.75-.98.55-1.88,1.19-2.72,1.92-1.02.9-2.06,1.78-3.1,2.66-.94.8-1.99,1.46-3.05,2.11-.22.13-.47.16-.72.06-.57-.22-1.12-.51-1.71-.69-.48-.15-.98-.09-1.45.1-.35.14-.68.29-.85.66-.27.56-.56,1.11-.79,1.68-.52,1.28-1.32,2.37-2.19,3.43-.28.34-.98.37-1.33.03-.63-.6-1.25-1.2-1.87-1.8-1.18-1.17-2.62-1.85-4.22-2.21-.48-.11-.97-.18-1.46-.26-.37-.07-.41-.5-.1-.88.24-.29.49-.56.83-.96.92-.85,1.4-2.13,1.86-3.42.12-.34.12-.73.12-1.1,0-.73-.93-1.35-1.6-1.09-.46.18-.88.51-1.35.59-1.31.21-2.27.92-3.11,1.88-1.08,1.23-2.43,2.09-3.86,2.85-.28.15-.82.11-1.04-.1-.09-.08-.18-.17-.27-.25-.74-.66-1.46-1.36-2.37-1.77-1.24-.55-2.44-1.22-3.79-1.48-.24-.05-.49-.09-.73-.14-.77-.16-1.36-.65-1.78-1.26-1.59-2.36-3.05-4.81-4.19-7.43ZM102.34,127.73c.14.6.23,1.22.39,1.81.1.35.24.71.45,1.01.63.92,1.29,1.81,2.17,2.53.95.79,1.88,1.6,2.81,2.41.38.33.85.48,1.31.66.46.18.62.79.34,1.24-1.55,2.52-2.89,5.17-4.57,7.62-.84,1.22-1.49,2.56-2.24,3.84-.31.53-.65,1.05-1.02,1.55-.22.3-.53.5-.9.62-1.06.37-2.16.52-3.28.51-.48,0-.99-.46-.97-.9.01-.25,0-.49.02-.74.06-.49.17-.97.23-1.46.1-.73.23-1.47.26-2.21.05-1.12.16-2.22.38-3.31.15-.72.29-1.46.31-2.2.03-1.38.6-2.65.74-4,.13-1.23.17-2.47.37-3.69.2-1.22.43-2.43.6-3.66.12-.85.41-1.68.62-2.51.33-1.31.66-2.63.99-3.94.08-.3.63-.54.91-.41.43.2.57.43.48.84-.03.12-.05.24-.08.36-.03.12-.08.24-.1.36-.05.24-.09.48-.11.54-.08.68-.12,1.17-.2,1.66-.07.5-.04.98.07,1.47ZM74.29,111.1c-1.07-.4-1.91-1.14-2.5-2.14-.13-.21-.29-.43-.33-.66-.38-2.07-.86-4.13-.64-6.26.04-.36.2-.71.32-1.06.12-.38.39-.66.73-.78.7-.25,1.42-.45,2.14-.64.36-.1.73-.15,1.1-.21,1.54-.26,2.95.07,4.2,1.02.18.14.31.4.35.63.04.24-.14.44-.38.51-.5.14-.98-.06-1.46-.17-.51-.11-.98-.03-1.43.2-.24.12-.4.29-.47.54-.22.86.14,1.81.87,2.27.86.53,1.79.86,2.8.92.49.03.99,0,.65,0,1.33-.07,1.84-.03,2.32-.12,2.47-.5,4.94-.26,7.41-.09.87.06,1.73.15,2.59.24,1.04.11,1.86.64,2.52,1.43.16.19.27.42.43.61.24.3.38.65.42,1.02.13,1.24.08,2.48-.11,3.71-.1.6-.36,1.18-.58,1.76-.14.36-.47.58-.84.61-1.5.14-2.98,0-4.42-.41-.72-.21-1.44-.37-2.18-.44-2.72-.26-5.42-.62-8.09-1.21-.36-.08-.73-.14-1.1-.15-1.52-.05-2.9-.6-4.29-1.11ZM76.63,146.32c.35-2.32.59-4.67,1.25-6.94.14-.47.17-.97.26-1.46.83-4.38,1.61-8.76,2.63-13.09.4-1.68.66-3.4.99-5.1.16-.81.94-1.5,1.82-1.63,1.35-.2,2.69-.39,4.04-.58.12-.02.25-.02.37-.03.25.02.5,0,.74.05,2.54.53,5.11.94,7.68,1.33.43.07.82.63.79,1.1-.02.25.02.51-.06.74-.5,1.41-.47,2.93-.92,4.35-.15.47-.21.97-.25,1.46-.11,1.11-.19,2.21-.54,3.29-.18.58-.22,1.22-.29,1.83-.11.98-.29,1.96-.39,2.94-.27,2.46-.8,4.88-1.06,7.35-.25,2.34-.57,4.67-.83,7.01-.09.86-.09,1.73-.13,2.59-.01.23-.51.69-.76.71-.49.03-.98.09-1.47.1-1.36.03-2.73.05-4.05.43-.24.07-.49.11-.73.13-2.85.16-5.63.75-8.4,1.44-.35.09-.73.05-1.1.06-.36,0-.69-.37-.63-.72.4-2.44.69-4.9,1.06-7.35ZM144.17,125.11c-.41,1.17-.75,2.37-1.07,3.56-.39,1.44-.86,2.84-1.53,4.17-.72,1.44-1.46,2.87-2.19,4.3-.11.22-.21.45-.36.65-1.5,1.99-2.51,4.26-3.74,6.41-.81,1.4-1.61,2.78-2.2,4.28-.18.46-.44.89-.68,1.32-1.18,2.18-2.38,4.34-3.22,6.69-.08.23-.22.44-.34.66-.3.54-.55,1.12-.9,1.62-1.34,1.94-2.18,4.18-3.66,6.04-.46.58-.85,1.22-1.23,1.86-.51.86-1.19,1.58-1.9,2.28-.54.54-1.19.93-1.94,1.03-1.6.2-3.12.8-4.75.86-.61.02-1.22.21-1.82.35-.48.11-.96.3-1.44.35-1.98.2-3.88.79-5.81,1.24-1.09.25-2.17.47-3.3.39-.6-.04-1.25.07-1.83.24-.96.29-1.92.49-2.92.5-.25,0-.51-.01-.74.07-1.67.61-3.43.46-5.15.55-1.98.1-3.96.19-5.94.28-2.98.06-5.95-.04-8.91-.33-.53-.05-.9-.4-1.07-.9-.16-.46-.31-.95-.34-1.44-.07-1.24-.08-2.47-.1-3.71,0-.25,0-.5.07-.74.46-1.82.46-3.68.49-5.53,0-.12.02-.25.02-.37,0-.97.5-1.64,1.26-2.14.41-.27.86-.52,1.33-.64,1.67-.46,3.35-.9,5.04-1.29.6-.14,1.23-.15,1.85-.19,1.48-.11,2.97-.2,4.42-.54.59-.14,1.23-.13,1.85-.15.99-.02,1.98.03,2.97-.02,1.73-.1,3.47-.22,5.13-.8,1.12-.09,2.15-.63,3.28-.65,1.1-.02,1.84-.71,2.47-1.47.47-.57.87-1.22,1.18-1.88.85-1.81,1.89-3.49,3.11-5.06,1.07-1.38,1.89-2.91,2.68-4.45.73-1.43,1.48-2.86,2.25-4.27.94-1.74,1.81-3.53,2.61-5.34.7-1.59,1.46-3.14,2.35-4.63.32-.53.58-1.09.87-1.64.23-.46.29-.94.2-1.44-.04-.24-.16-.49-.13-.73.03-.36.05-.8.25-1.06,1.87-2.32,3.9-4.5,6.23-6.37,1.44-1.16,3-2.21,4.57-3.19,2.23-1.39,4.62-2.38,7.27-2.65.74-.07,1.46-.29,2.2-.37.49-.05.99-.03,1.48.05.91.14,1.62.57,1.95,1.5.29.82.61,1.62.67,2.51.08,1.24.25,2.47.26,3.71.03,2.51-.19,3.98-1.08,6.56Z"/>
</svg>
