<?xml version="1.0" encoding="UTF-8"?>
<svg id="Capa_1" data-name="Capa 1" xmlns="http://www.w3.org/2000/svg" viewBox="0 0 614.59 614.59">
  <defs>
    <style>
      .cls-1 {
        fill: #102318;
      }
    </style>
  </defs>
  <polygon class="cls-1" points="419.19 304.32 418.96 304.78 419.42 304.53 419.19 304.32"/>
  <path class="cls-1" d="M266.96,255.42c-.11-2.08.37-3.95,1.72-5.57.7-.84,2.26-1.35,3.22-1.01,3.87,1.39,7.14,3.46,9.13,7.26.73,1.4,1.81,2.62,2.76,3.89.23.31.56.62.91.76,2.23.91,4.5,1.69,6.96,1.08,3.27-.81,5.81-2.69,7.52-5.54,1.23-2.05,2.07-4.32,3.24-6.4.57-1.01,1.42-1.93,2.32-2.69.91-.77,1.99-1.16,3.31-.72,2.74.9,5.06,2.45,6.95,4.53,1.04,1.14,1.79,2.68,2.25,4.16.33,1.06.32,2.51-.16,3.49-1.74,3.57-3.35,7.22-5.65,10.51-2.12,3.03-4.8,5.34-8.11,6.9-1.8.85-3.71,1.47-5.58,2.17-.37.14-.78.25-1.17.24-5.17-.17-10.38-.05-15.28-2.2-1.85-.81-3.54-1.84-4.94-3.3-1.11-1.15-2.23-2.29-3.25-3.51-3.42-4.09-5.43-8.8-6.14-14.05Z"/>
  <path class="cls-1" d="M252.79,194.78c.07.79.14,1.58.22,2.37.58,5.17-1.71,9.2-5.1,12.79-1.62,1.72-4.53,2.25-6.56,1.12-1.38-.77-2.78-1.54-4.04-2.49-5.56-4.17-6.83-6.03-6.46-14.2.15-3.23,1.13-6.23,2.31-9.17.77-1.9,2.23-3.21,4.06-4.15,1.13-.59,2.36-.75,3.44-.33,2.21.86,4.41,1.81,6.43,3.02,3.23,1.93,5.22,4.79,5.5,8.67.06.79.15,1.58.22,2.37h-.04Z"/>
  <path class="cls-1" d="M354,200c.68,5.04-.2,8.5-1.75,11.77-1.61,3.38-6.02,5.59-9.97,5.16-.77-.08-1.58-.29-2.27-.65-2.92-1.52-5.07-3.89-6.47-6.79-.85-1.76-1.18-3.79-1.73-5.7-.11-.38-.28-.79-.23-1.16.38-3.15.55-6.36,1.3-9.43.65-2.68,1.92-5.23,3.69-7.43.76-.94,1.81-1.94,2.95-1.8,3.17.39,6.17,1.43,8.7,3.49,1.89,1.54,3.35,3.46,4.06,5.78.81,2.65,1.38,5.38,1.72,6.75Z"/>
  <path class="cls-1" d="M341.72,314.21c1.24.27,2.17,1,3.08,1.73,2.6,2.09,5.34,3,8.82,2.66,7.64-.74,14.9-2.55,21.72-6.1.35-.18.75-.28,1.11-.45,1.21-.55,2.62-.26,2.99.76,1.24,3.44,3.13,6.42,5.84,8.9,1.58,1.44,3.4,2.06,5.46,1.93,1.18-.07,2.42-.2,3.5-.63,2.59-1.02,5.16-2.15,7.64-3.41,1.77-.9,3.5-1.96,5.05-3.19,2.8-2.24,5.21-5.08,9.23-5.05,1.03-.6,2.1-1.13,3.08-1.8,2.3-1.58,4.54-3.22,6.82-4.83.88-.62,2.26-.43,3.26.48,1.18,1.07,2.31,2.2,3.5,3.27,1.23,1.1,2.81,1.43,4.3,2,1.74.66,5.41-1.51,6.02-3.05.29-.74.53-1.5.81-2.25,2.21-6.06,2.85-12.41,3.66-18.75.31-2.42.31-4.73-.26-7.11-1.11-4.66-1.87-9.41-3.22-13.99-.9-3.06-1.83-6.11-2.76-9.16-1.75-5.73-3.83-11.33-7.94-15.92-1.59-1.78-2.79-3.86-4.09-5.87-2.01-3.11-2.77-6.62-3.96-9.98-2.14-6.05-3.53-12.29-3.31-18.77.12-3.62-.5-7.16-.76-10.74-.26-3.58-.87-7.2-.58-10.75.46-5.64.29-11.13-1.34-16.57-.34-1.13-.37-2.36-.46-3.56-.4-5.6-1.21-11.11-3.46-16.33-.47-1.09-.74-2.29-.89-3.47-.69-5.61-2.69-10.83-4.71-16.04-.72-1.86-1.53-3.7-2.1-5.61-2.1-6.92-5.13-13.38-9.03-19.48-1.72-2.68-3.08-5.59-5.13-8.06-3.82-4.6-7.27-9.52-11.84-13.45-1.91-2.66-4.91-4.03-7.33-6.09-3.03-2.58-6.35-4.83-9.65-7.07-2.64-1.78-5.65-2.96-8.22-4.9-2.92-2.21-6.61-2.75-9.85-4.29-2.52-1.2-5.17-2.13-7.66-3.38-2.17-1.09-4.44-1.79-6.79-2.26-2.35-.47-4.73-.81-7.05-1.4-3.53-.9-7.1-1.09-10.7-.79-3.58.3-7.15.62-10.74-.09-2.38-.47-4.77-.02-7.14.39-3.6.63-6.8,2.23-10.02,4.27-4.64-2.21-9.73-3.06-14.85-3.98-8.87-1.59-17.48-.92-26.02,1.7-2.29.7-4.55,1.54-6.87,2.12-2.73.68-5.25,1.79-7.81,2.91-5.9,2.58-11.37,5.78-16.42,9.76-1.57,1.24-3.09,2.56-4.77,3.61-5.43,3.41-10.07,7.85-15.24,11.59-2.94,2.13-5.29,4.84-7.1,8.02-1.38,2.43-2.83,4.82-4.16,7.28-2.1,3.86-4.05,7.81-5.39,11.99-2.31,7.22-4.43,14.49-5.9,21.95-.77,3.93-1.45,7.85-1.27,11.87.19,4-.04,7.98-.36,11.97-.23,2.78-.25,5.58-.35,8.38-.19,5.59-.03,11.21-.63,16.75-.94,8.7-1.19,17.53-3.79,26.01-.46,1.52-.4,3.21-.93,4.69-1.27,3.54-1.14,7.06-.25,10.62.3,1.2.24,2.35-.38,3.43-1.79,3.11-3.63,6.19-5.4,9.31-5.53,9.77-5.58,9.75-9.43,20.62-2.95,8.33-4.83,16.82-4.41,25.78.32,6.88,1.51,13.45,4.5,19.68,1.03,2.15,1.96,4.38,2.71,6.65,1.32,3.96,4.09,6.78,7.1,9.42.54.48,1.46.62,2.23.73,2.92.42,5.17-1.45,5.73-3.24,1.88-6.1,3.79-12.19,5.69-18.28.24-.76.48-1.52.78-2.26.33-.82.98-1.19,1.73-1.45.88-.31,1.56-.16,1.98.75,3.37,7.29,8.07,13.75,12.79,20.17,1.65,2.24,3.57,4.3,5.48,6.33.8.85,1.89,1.46,2.89,2.1,2.73,1.75,7.14.11,7.82-2.93.88-3.88,1.94-7.73,2.16-11.75.1-1.8,1.86-2.74,3.45-1.92,10.31,5.3,21.33,8.94,31.92,13.6,1.51.67,3.19.24,4.55-.72,1.3-.91,2.57-1.91,3.69-3.03,1.03-1.04,2.14-.92,3.21-.45,1.82.8,3.57,1.78,5.33,2.72,1.06.57,1.71,1.81,1.37,2.96-.71,2.4-.66,4.65.65,6.9.8,1.39.75,3.07.83,4.67.09,1.77-.7,3.05-2.02,4.06-1.29.99-2.81,1.49-4.36,1.9-3.67.95-7.12.56-10.23-1.78-1.27-.96-2.49-1.99-3.84-2.82-.63-.39-1.51-.45-2.29-.51-.79-.06-1.61-.02-2.38.15-6.64,1.43-13.33,2.53-20.12,3.05-2.79.21-5.52.83-8.07,2.1-1.07.53-2.18,1.04-3.33,1.33-2.77.69-5.1,2.21-7.46,3.7-6.54,4.11-11.87,9.42-15.87,16.03-4.75,7.85-9.63,15.64-12.55,24.45-.88,2.64-1.88,5.27-3.09,7.77-2.26,4.7-3.92,9.62-5.35,14.59-1.11,3.83-2.1,7.68-3.43,11.45-1.33,3.75-2.08,7.71-3.96,11.27-1.96,7.73-5.02,15.13-6.77,22.94-.87,3.89-2.03,7.71-3.73,11.35-.84,1.8-1.42,3.72-2.17,5.58-.61,1.52-.8,3.1-.61,4.69.23,1.98.52,3.95.96,5.89.46,2.02,1.71,3.63,3.41,4.75,1.66,1.09,3.47,1.93,5.22,2.89,1.15.63,1.71,1.73,1.74,2.93.05,1.98.07,4.01-.31,5.94-.46,2.36-1.05,4.69-1.02,7.09.08,6.82-1.11,13.52-1.69,20.28-.17,1.99-.47,3.96-.6,5.95-.34,5.18-.83,10.35-.87,15.53-.05,5.26-1.7,10.22-2.29,15.37-.05.4-.08.79-.12,1.19-.21,2.06.29,3.92,1.38,5.69,1.29,2.1,3.08,3.58,5.09,4.97,1.78,1.23,3.57,1.54,5.63,1.22.86-.13,1.46-.43,2.05-1.08,1.1-1.21,2.1-2.55,2.16-4.16.18-5.18,1-10.33,1-15.49,0-5.2.66-10.35.81-15.52.15-5.19.65-10.35,1.03-15.51.09-1.19.03-2.43.34-3.56,1.81-6.59,2.13-13.39,2.9-20.12.22-1.96.89-3.88,1.38-5.81.23-.89,1.73-1.98,2.71-1.99,1.19,0,2.44-.29,3.57-.03,4.29.98,8.62,1.6,12.98,2.1,1.17.13,2.31.62,3.46.95,1.24.36,1.94,1.38,1.92,2.59-.04,2.01-.29,3.94-1.02,5.85-1,2.6-1.88,5.26-2.13,8.08-.83,9.14-.73,18.35-2.23,27.44-.19,1.17-.08,2.39-.01,3.59.19,3.59.35,7.18.65,10.76.56,6.76,1.14,13.53,1.84,20.28.45,4.36,1.11,8.71,1.76,13.05.11.75.51,1.53.96,2.15,1.44,1.97,3.25,3.5,5.64,4.22,1.58.48,3.15.39,4.68-.2,1.58-.62,2.62-1.73,2.85-3.47.27-2,.12-4-.37-5.95-.97-3.89-1.73-7.8-1.94-11.81-.27-5.18-.46-10.37-.67-15.56-.05-1.34,1.01-2.51,2.04-2.31,3.9.78,7.81,1.49,11.69,2.34,1.61.35,2.82,1.41,3.6,2.89.18.35.22.77.35,1.14.55,1.61,1.71,2.6,3.22,3.3,4.9,2.24,10.03,2.44,15.24,1.62,2.36-.37,4.68-1.04,6.99-1.64,1.93-.5,3.82-1.13,5.74-1.66,1.21-.34,3.49.94,3.85,2.15.23.76.52,1.53.57,2.31.12,1.87-.6,13.47-1.13,15.47-.73,2.74-.94,5.51-.91,8.31.04,4-.17,7.98-.79,11.94-.12.78-.08,1.6-.03,2.39.12,2.01.52,3.98,1.59,5.71,1.27,2.06,3,3.7,4.99,5.07,1.37.94,4.45,1.12,5.71.25,2.38-1.66,4.23-3.77,4.17-6.84-.08-4.79-.31-9.58-.58-14.36-.18-3.2-.26-6.39.29-9.56.48-2.78.34-5.57.45-8.36.21-5.18.61-10.36.95-15.53.03-.38.16-.77.32-1.13.15-.37.3-.87.6-1.02,3.54-1.79,7.08-3.58,10.68-5.24.63-.29,1.57-.11,2.31.06,2.35.55,4.65,1.39,6.49,2.95,3.38,2.87,7.14,5.07,11.05,7.11,1.76.91,3.34,2.17,4.98,3.31,1.31.91,2.44,2.24,3.87,2.78,5.68,2.12,10.05,6.41,15.48,8.99,5.38,2.55,10.02,6.51,15.4,9.18,1.41.7,2.54,1.93,3.87,2.8,2.67,1.75,5.35,3.47,8.09,5.12,1.36.82,2.85,1.4,4.47,1.61,1.97.26,3.95.56,5.89.96,3.55.74,7.15.74,10.73.61,1.57-.06,3.12-.58,4.67-.95.36-.09.66-.43,1-.65.78-.5,1.16-2.26.79-3.23-.73-1.93-1.9-3.7-3.65-4.58-6.4-3.25-12.37-7.36-19.13-9.88-3.78-1.41-7.11-3.59-10.56-5.55-3.81-2.16-7.73-4.15-11.28-6.78-9.97-7.39-20.76-13.47-31.53-19.58-2.08-1.18-4.37-1.98-6.42-3.18-2.06-1.2-3.96-2.67-5.92-4.05-1.01-.71-2.17-1.11-3.36-1.14-4-.07-7.89.21-11.68,1.92-3.98,1.79-8.13,3.38-12.36,4.4-7.38,1.77-14.9,2.87-22.47,3.48-.67.05-1.72-.42-2.03-.97-1.98-3.47-5.34-4.61-8.85-5.56-.76-.21-1.59-.18-2.37-.35-1.77-.39-2.16-1.03-1.19-2.21,1.03-1.26,1.82-2.61,2.42-4.09.46-1.14.58-2.33.07-3.48-.99-2.22-2.26-4.21-4.51-5.39-1.05-.55-2.04-1.23-3.02-1.89-.74-.5-.84-1.3-.08-1.99,1.47-1.32,3.19-2.38,4.54-3.79,2.77-2.91,2.93-6.82.51-9.79-1-1.22-2.07-2.39-3.6-3.07-1.8-.8-3.52-1.79-5.23-2.77-.28-.16-.56-.65-.52-.95.04-.34.38-.74.7-.94,2.78-1.73,5.85-2.54,9.09-2.56,5.59-.03,11.18.13,16.77.13,2.39,0,4.8-.06,7.16-.36,3.58-.45,5.63-2.83,6.61-6.1.74-2.47-.03-4.75-1.79-6.6-1.95-2.05-4.46-3.33-6.81-4.83-1.67-1.07-3.44-2.04-4.65-3.7-.23-.31-.54-.87-.42-1.08.4-.68,1.18-1.06,1.97-.86,3.08.81,6.15,1.69,9.39,1.52,2.02-.1,3.97.25,5.88.89,1.9.63,3.78,1.32,5.71,1.8,3.16.78,5.92,2.37,8.58,4.14,1.66,1.1,3.22,2.36,4.72,3.68,1.5,1.31,2.94,2.71,4.26,4.2,1.06,1.19,2.09,2.35,3.42,3.29,1.62,1.14,3.1,2.52,4.51,3.93,1.4,1.41,2.65,2.98,3.92,4.51.51.61.94,1.29,1.33,1.99,1.02,1.82,2.67,3.02,4.4,3.96,3.49,1.91,7.1,3.56,9.84,6.65,1.01,1.14,2.6,1.84,4.02,2.56,9.33,4.68,18.99,8.38,29.46,9.58,1.59.18,3.16.48,4.74.7,4.34.61,8.66,1.25,12.82,2.8,1.85.69,3.84,1.24,5.8,1.4,8,.66,15.65,3.09,23.51,4.41,2.38.4,4.64,1.15,6.85,2.11,3.29,1.43,6.65,2.74,9.85,4.35,3.22,1.63,6.4,3.22,9.96,3.99,1.53.33,3,1.05,4.42,1.76,2.14,1.07,4.12,2.5,6.32,3.41,5.21,2.14,9.95,5.07,14.49,8.34,2.91,2.09,6.24,3.58,8.79,6.21.49.51,1.47.84,2.19.79,3.24-.22,6.3.74,9.45,1.14,1.48.19,4.15-2.03,4.26-3.61.11-1.58.2-3.19.08-4.77-.37-4.78-1.87-9.4-1.96-14.23-.02-1.14-.54-2.32-1.04-3.39-3.02-6.57-5.32-13.32-5.76-20.61-.17-2.8-1.01-5.44-2.04-8.08-1.6-4.08-3-8.26-4.15-12.49-.87-3.22-.61-6.37,2.65-8.47.66-.43,1.33-.95,1.78-1.58,2.43-3.39,3.86-7.04,1.98-11.15-1-2.2-1.83-4.44-2.33-6.78-1.16-5.47-2.77-10.83-3.57-16.37-.46-3.17-1.28-6.24-2.49-9.23-2.55-6.29-4.96-12.64-5.59-19.49-.04-.39-.13-.8-.3-1.16-2.15-4.75-3.02-9.92-4.75-14.81-.4-1.13-.83-2.26-1.41-3.3-3.08-5.59-5.33-11.59-8.68-17.05-1.45-2.36-2.71-4.84-3.69-7.5-1.53-4.14-3.94-7.83-6.73-11.26-1.51-1.86-2.97-3.76-4.46-5.63-1.5-1.88-3.19-3.56-5.06-5.08-2.47-2.02-4.96-4.01-7.72-5.65-4.13-2.44-8.05-5.19-11.63-8.41-1.18-1.06-2.54-1.94-3.91-2.76-1.71-1.03-3.48-1.94-5.54-2.11-.79-.06-1.57-.4-2.36-.39-2.91.02-5.43-.92-7.78-2.62-2.65-1.91-5.61-2.89-8.98-2.78-1.55.05-3.14-.48-4.66-.9-1.27-.35-2.38-.06-3.4.56-1.36.82-2.63,1.78-3.92,2.71-.69.5-1.41.79-2.21.7-2.38-.28-4.76-.61-6.91-1.71-.66-.34-1.33-.98-1.63-1.65-1.49-3.25-2.48-6.7-3.89-10.01-1.57-3.67-2.11-7.67-1.6-11.73.12-.95,1.7-1.86,2.72-1.64ZM387.1,254.16c.16-.35.19-.77.28-1.16.11-.78.29-1.57.3-2.35.06-3.97-.36-8,.21-11.88.58-3.94-.22-7.96,1.02-11.83.21-.66-.23-1.52-.31-2.3-.13-1.17-.45-2.38-.27-3.51.37-2.34.97-4.64,1.58-6.94.24-.89.97-1.17,1.78-1.22.85-.05,1.57.14,2.1.85.95,1.26,2.12,2.42,2.79,3.82,3.69,7.74,5.29,15.78,3.06,24.28-.3,1.14-.54,2.36-1.13,3.36-2.2,3.77-4.47,7.51-7.92,10.34-.79.64-2.67,1.18-3.15.74-.68-.62-.74-1.37-.36-2.21ZM201.4,251.67c.06.82-1.44,2.36-2.32,2.38-2.07.04-3.94-.58-5.41-2.02-1.13-1.11-2.21-2.33-3-3.69-2.83-4.86-4.51-10.13-5.37-16.15.15-3.14.31-6.71.52-10.28.02-.37.24-.77.45-1.09.43-.66,1.09-1.07,1.89-1.06.36,0,.89.22,1.05.5,2.29,4.16,4.55,8.33,7.81,11.86,1.09,1.18,1.67,2.7,1.89,4.3.65,4.72,1.3,9.43,2.47,14.05.09.37-.02.79,0,1.19ZM349.33,172c1.13.34,2.26.69,3.39,1.04,5.1,1.56,9.26,4.35,12.26,8.88,2.41,3.65,4.74,7.31,6.66,11.26,3.64,7.49,4.31,15.09,1.96,23.11-1.48,5.04-3.94,9.52-6.75,13.86-.42.66-.96,1.29-1.57,1.77-6.19,4.82-13.01,7.58-21.04,6.33-5.89-.91-11.68-2.14-17.15-4.67-5.3-2.45-9.1-6.25-11.42-11.58-2.23-5.14-3.97-10.4-3.84-14.58-.58-5.89-.48-10.22.68-14.51.72-2.68,1.17-5.43,1.63-8.17.35-2.08,1.4-3.7,3.06-4.9,1.61-1.16,3.2-2.43,4.98-3.24,2.89-1.3,5.71-2.76,8.62-3.98,6.77-2.84,11-2.86,18.52-.62ZM242.7,146.03c.48-.6,1.1-1.14,1.76-1.54,7.51-4.55,14.67-9.56,21.05-15.63.86-.82,1.77-1.61,2.73-2.31,6.45-4.74,12.06-10.38,17.41-16.3.99-1.09,3.06-.82,4.12.55,4.63,5.98,9.65,11.6,14.93,17.02,5.27,5.41,10.61,10.8,15.23,16.81,2.42,3.15,5.9,5.39,7.78,8.99.18.34.22.76.32,1.15-.22.29-.38.67-.67.86-3.99,2.64-8.26,4.77-12.67,6.59-3.74,1.55-6.88,3.86-9.94,6.47-3.43,2.93-6.14,6.18-7.52,10.51-.38,1.19-1.76,1.81-2.85,1.57-.77-.17-1.63-.11-2.34-.42-4.14-1.79-8.42-2.14-12.86-1.73-1.57.15-3.14-.47-4.1-1.97-.43-.67-.91-1.31-1.29-2.01-2.34-4.29-5.59-7.78-9.75-10.29-3.82-2.31-7.06-5.18-9.52-8.86-2.13-3.17-5.26-4.74-8.69-5.91-1.12-.38-2.43-.47-3.22-1.41-.5-.6-.39-1.54.1-2.15ZM207.08,223.67c-2.99-3.29-5.06-7.15-6.04-11.51-.7-3.11-1.35-6.23-1.89-9.37-.75-4.38-.14-8.74.49-13.08.11-.77.42-1.54.76-2.25,1.03-2.16,2.15-4.27,3.18-6.43,2.31-4.84,6.03-8.33,10.49-11.16,4.11-2.6,8.43-4.47,13.4-4.45,1.19,0,2.38-.21,6.33-.58.02,0,2.8-.15,5.58-.16,6.31-.01,11.67,2.29,15.89,6.99,2.12,2.36,4.13,4.84,5.99,7.41,4.57,6.32,6.53,13.57,7.2,21.22.1,1.18-.02,2.39-.16,3.57-.64,5.2-2.1,10.12-5.18,14.46-.69.97-1.33,1.98-1.96,3-2.37,3.82-5.69,6.63-9.5,8.9-2.06,1.23-4.21,2.25-6.62,2.63-3.54.55-7.08,1.12-10.62,1.67-3.98.62-7.94.68-11.82-.62-3.82-.09-6.84-1.92-9.52-4.42-2.04-1.9-4.12-3.76-5.99-5.81ZM210.47,536.9c-.5.58-1.14,1.06-1.77,1.51-.62.44-1.31.78-1.97,1.16-.87.11-1.59-.2-1.94-1.03-.65-1.53-.27-3.06.19-4.57.56-1.82,1.73-2.31,3.66-1.46.36.16.72.32,1.05.52,1.68,1.03,2.12,2.31.79,3.86ZM393.28,447.02c-.13,1.99-.52,4-.36,5.97.63,8,.07,15.95-.41,23.92-.17,2.79-.05,5.59-.67,8.35-.17.77-.3,1.59-.24,2.38.55,7.21-.91,14.33-1.02,21.51-.04,2.81-.54,5.56-1.32,8.26-.23.81-1.77,1.89-2.76,1.82-2.38-.17-4.8-.18-7.14-.6-3.92-.71-7.84-1.53-11.69-2.58-5.01-1.37-10.19-1.75-15.2-3.06-3.69.13-7.04-1.27-10.47-2.32-2.29-.7-4.52-1.58-6.8-2.29-3.06-.95-6.07-2.03-8.77-3.78-2.68-1.74-6.06-2.33-8.32-4.66-1.93-1.99-3.31-4.5-5.14-6.6-6.82-7.86-14.15-15.18-22.76-21.14-3.65-2.53-7.63-4.31-11.59-6.2-1.14-.55-1.68-1.66-1.65-2.93.33-12.37.95-24.74.74-37.13-.03-1.58.35-3.17.52-4.76.15-1.41,1.7-3.04,3.03-3.29,3.93-.74,7.86-1.4,11.87-1.45.8-.01,1.6-.04,2.4-.05v.06c3.19-.14,6.39-.22,9.58-.44,2.8-.2,5.58-.38,8.28.67,5.17.43,10.33,1.04,15.5,1.24,4.03.16,7.93.78,11.79,1.86,3.47.97,6.98,1.78,10.63,1.38,11.92,1.67,23.9,1.23,35.87.97.4,0,.8,0,1.2,0,2.48-.02,4.17,1.72,4.48,4.56.72,6.77.88,13.55.42,20.34ZM409.73,453.29c-.07.39-.05.83-.22,1.17-.96,1.93-1.71.64-1.74-.33-.14-5.56.31-11.1.68-16.64.01-.22.57-.48.91-.57.71-.19,1.6.18,1.67,1.06.44,5.17.19,10.3-1.3,15.32ZM453.81,545.47c-.05.27-.41.56-.7.68-.34.14-.87.27-1.13.11-1.34-.84-2.65-1.74-3.9-2.7-3.18-2.44-6.6-4.36-10.57-5.25-1.53-.34-3.02-.95-4.43-1.64-3.56-1.74-7.09-3.53-10.57-5.44-1.03-.56-1.85-1.68-1.68-2.93.57-4-.45-7.9-.51-11.86-.05-3.61.3-7.12,1.48-10.54.28-.82.71-1.41,1.61-1.56,3.12-.5,6.25-.98,9.56-1.5,2.19-.1,4.57-.33,6.93-.27,1.14.03,2.28.56,2.82,1.8,3.34,7.65,6.22,15.43,7.7,23.7.63,3.5,1.84,6.9,2.64,10.37.53,2.3,1.21,4.62.73,7.03ZM357.82,372.23c3.12-3.73,5.69-7.64,6.96-12.38.41-1.52,1.28-2.91,1.96-4.35.42-.88,2.08-1.69,2.98-1.65,3.62.18,6.87,1.95,10.48,2.26,1.92.17,3.8,1.13,5.65,1.88,5.88,2.38,13.07,7.06,17.7,11.97,2.21,2.34,4.86,4.13,7.04,6.47,1.64,1.75,3.16,3.49,4.09,5.81.87,2.18,2.39,4.1,3.44,6.23,1.06,2.14,1.83,4.42,2.84,6.59,1.18,2.53,2.3,5.11,3.76,7.48,2.74,4.46,4.64,9.26,6.25,14.2.62,1.9,1.56,3.7,2.06,5.62,1.2,4.62,3.25,9.01,3.71,13.84.23,2.39,1.19,4.58,2.3,6.75,2.18,4.27,4.08,8.68,4.72,13.51.1.79.2,1.63.55,2.32,3.02,5.92,2.81,12.38,3.2,18.74.1,1.66-.81,3.01-2.16,4.03-2.59,1.97-5.49,3.28-8.66,3.93-3.91.8-7.89,1.07-11.87,1.23-.73.03-2.13-1.72-2.09-2.57.25-4.37.64-8.74.44-13.13-.13-2.8.29-5.53.89-8.3.76-3.5,1.21-7.09,1.42-10.67.26-4.39.6-8.76,1.45-13.08.39-1.98.08-3.99-.38-5.94-.38-1.59-1.14-2.95-2.56-3.89-2-1.33-4.04-2.57-6.33-3.34-2.65-.9-5.37-1.62-7.77-3.08-.59-.36-1.14-1.14-1.29-1.81-.24-1.15,0-2.41-.24-3.56-.24-1.14-.64-2.34-1.31-3.28-2.36-3.32-5.51-5.72-9.23-7.37-2.22-.98-4.55-1.56-6.97-1.5-7.18.17-14.37.21-21.54.68-8,.53-15.94.35-23.89-.59-2.39-.28-4.71-.69-7.05-1.25-4.65-1.12-9.35-1.98-14.18-2.16-4.78-.17-9.49-1.32-14.31-1.22-8.75-1.78-17.51-.43-26.26,0-4.77.37-9.55.69-14.31,1.14-1.16.11-2.33.57-3.41,1.06-1.09.49-1.98,1.31-2.51,2.44-.69,1.46-1.16,3.02-1.08,4.61.11,1.99.51,3.95.72,5.94.59,5.56,1.08,11.12.66,16.73-.15,1.98-.24,4.01,0,5.98.91,7.29-1.11,14.26-2.13,21.33-.22,1.54-1.95,2.77-3.4,2.63-5.56-.57-11.14-.95-16.67-1.7-4.45-.6-8.75-.17-13.05.88-2.04.5-3.57,1.8-4.88,3.3-2.43,2.78-2.37,7.17-.04,9.94,2.07,2.47,4.59,4.42,7.06,6.44.65.53.71,1.4.5,2.17-.21.79-.8,1.13-1.73,1.29-2.75.48-5.49,1.02-8.23,1.58-2.79.56-5.57.19-8.35-.07-1.38-.12-2.78-1.84-2.72-3.39.1-2.39.04-4.81.4-7.16.42-2.75,1.02-5.52,1.91-8.15,2.06-6.06,3.43-12.27,4.67-18.54.77-3.9,2.04-7.71,2.86-11.61.52-2.48-.27-4.75-2.25-6.45-1.82-1.56-3.68-3.06-5.54-4.57-.96-.78-2.23-.65-3.18.16-1.58,1.35-2.57,3.05-3.05,5.02-1.23,5.04-2.58,10.05-3.52,15.14-.59,3.16-1.62,6.17-2.31,9.29-.6,2.72-1.47,5.39-2.4,8.01-.81,2.29-.89,4.7-1.43,7.03-.36,1.55-.72,3.12-1.35,4.57-.26.59-1.19,1.15-1.87,1.25-1.16.16-2.41.1-3.56-.16-5.07-1.11-10.29-1.26-15.36-2.46-1.91-.45-4-.13-5.95-.46-1.95-.32-3.86-.98-5.76-1.56-1.17-.36-2.32-2.65-2.08-3.99.21-1.17.27-2.4.67-3.51,1.74-4.89,2.92-9.94,4.25-14.95.2-.77.22-1.6.51-2.34,2.45-6.34,3.92-12.97,5.85-19.46,1.82-6.12,3.8-12.19,5.95-18.2,1.61-4.5,3.1-9.06,5.41-13.3.95-1.74,1.56-3.66,2.24-5.53,2.2-6.03,4.96-11.76,8.64-17.04.91-1.31,1.77-2.67,2.54-4.06,2.17-3.91,5.28-6.99,8.61-9.86,1.19-1.03,2.61-1.81,3.99-2.6,5.66-3.23,12.02-4.19,18.27-5.46,2.73-.56,5.54-.77,8.32-.99,1.16-.09,2.38.05,3.12,1.25,2.08,3.4,4.14,6.8,6.28,10.16,4.33,6.83,9.88,12.48,16.61,16.96,1.67,1.11,3.32,2.23,4.5,3.89.48.67,1.05,1.15,1.86,1.41,3.4,1.06,7.04,1.28,10.29,2.94,3.19,1.63,6.49,3.05,9.73,4.6,1.46.7,2.99,1.11,4.58,1.3,1.98.24,3.97.43,5.95.68,6.37.81,12.7,1.02,18.99-.71,2.3-.63,4.73-.77,7.06-1.29,5.87-1.32,11.51-3.25,16.52-6.73,1.96-1.37,3.98-2.67,6.06-3.85,4.24-2.4,7.62-5.69,10.74-9.4ZM346.07,354.13c.99.15,1.77,1.85,1.47,2.84-.7,2.32-1.7,4.53-3.33,6.27-5.79,6.17-12.54,10.94-20.69,13.57-5.69,1.84-11.43,3.43-17.46,3.6-.79.03-1.59.03-2.38.1-5.71.45-11.05-.99-16.19-3.28-2.9-1.29-5.68-2.85-8.51-4.31-2.12-1.1-4.1-2.57-6.33-3.3-7.25-2.39-11.87-7.68-15.92-13.7-.56-.84.32-2.46,1.38-2.71,3.14-.73,6.3-.59,9.49-.46,3.06.13,5.21-1.63,6.69-4.18.59-1.02,1.11-2.14,1.38-3.29.91-3.86,2.19-7.64,2.34-11.66.03-.78.17-1.61.48-2.33.98-2.23,2.31-4.23,4.81-4.95,6.49-1.87,12.99-3.61,19.81-4.04,5.56-.35,10.99-1.69,16.29-3.42,1.01-.33,2.78.38,3.02,1.17.8,2.66,1.83,5.29,2.34,8,1.04,5.53,3.64,10.51,5.22,15.84.44,1.48,1.51,2.78,2.39,4.11,1.36,2.05,3.31,3.41,5.59,4.27,2.62.99,5.37,1.44,8.12,1.87ZM323.99,300.99c-2.34.47-4.63,1.19-6.96,1.71-7.77,1.76-15.52,3.7-22.87,3.73-2.67.25-4.66.4-6.64.63-7.28.83-14.22-.58-21.14-2.75-6.88-2.15-13.26-5.42-19.79-8.33-2.92-1.3-5.49-3.28-7.72-5.58-3.05-3.14-5.91-6.47-8.86-9.71-1.89-2.08-3.27-4.48-4.49-7.01-1.38-2.86-2.41-5.92-4.43-8.44-2.34-5.05-4.72-10.09-6.05-15.54-.2-.82-.04-1.61.57-2.22.19-.19.65-.23.96-.17,4.29.85,8.33,2.67,12.7,3.3,3.18.46,6.35.77,9.52.34,3.95-.53,7.9-1.12,11.77-2.01,6.32-1.45,11.8-4.67,16.85-8.66.62-.49,1.22-1.04,1.75-1.63,5.17-5.64,9.34-11.87,11.73-19.24,1.73-5.34,2.62-10.83,3.09-16.39.13-1.56-.45-3.17-.4-4.75.04-1.21.97-2.15,2.01-2.77,2.61-1.54,5.35-1.2,8.1-.45,1.02.28,2.07,1.5,2.15,2.51.3,3.97,1.17,7.89.77,11.91-.24,2.44.41,4.74,1.17,7.02.76,2.28,1.8,4.43,3.01,6.49,2.05,7.76,7.78,12.9,13.34,17.98,4.75,4.34,10.59,7.03,16.86,8.65,2.69.7,5.4,1.39,8.02,2.33,4.19,1.51,8.57,1.75,12.92,2.11,2.77.23,5.57-.12,8.28-.93,1.9-.57,3.82-1.08,5.73-1.65.82-.24,1.56-.16,2.29.33.7.48,1.03,2.01.67,3.2-.23.76-.33,1.58-.67,2.28-3.13,6.45-6.45,12.79-10.59,18.69-2.99,4.26-6.32,8.24-9.95,11.91-6.58,6.64-14.43,11.19-23.71,13.06Z"/>
</svg>