<?xml version="1.0" encoding="UTF-8"?>
<svg id="uuid-dc334643-1940-44ec-aa7e-081f92cf467a" data-name="Capa 2" xmlns="http://www.w3.org/2000/svg" viewBox="0 0 2274.53 224.75">
  <g id="uuid-b1089d28-f937-41ce-a15f-0456d2d85f80" data-name="Capa 1">
    <path d="M1.5,223.25v-41.96c8.39-45.2,33.07-87.88,70.41-114.69,37.35-26.82,87.42-36.46,131.03-21.91,43.61,14.55,78.72,54.25,84.4,99.88,9.93-35.54,23-71.18,46.87-99.32,23.88-28.13,60.45-47.75,97.05-43.06,33.56,4.29,62.07,28.16,80.22,56.71,18.14,28.55,27.51,61.65,36.66,94.22,18.87-49.49,73.49-81.32,126.34-77.83,52.86,3.48,101.1,39.5,123.89,87.31,28.88-70.79,111.81-114.08,186.86-99.51,75.06,14.57,135.2,83.94,141.27,160.16-14.95-38.07,12.32-86.68,52.79-92.57,40.47-5.89,81.2,32.47,77.73,73.22-2.43-52.87,26.21-106.04,71.69-133.1,45.48-27.07,105.87-26.87,151.18.48,45.31,27.35,73.61,80.7,70.84,133.56-4.37-34.55,6.5-71.37,31.17-95.94,24.68-24.57,63.27-35.22,96.23-23.99,32.97,11.23,57.58,45.19,55.24,79.94-1.05-44.45,34.29-85.3,77.34-96.42s90.46,4.72,122.93,35.09c32.47,30.38,51.03,73.56,57.68,117.52,16.68-36.05,33.65-72.58,59.17-103.03s61.03-54.62,100.63-57.83c32.23-2.61,65.36,9.45,88.36,32.16,23.01,22.72,35.49,98.66,33.28,130.92" style="fill: #cddfab; stroke: #102318; stroke-linecap: round; stroke-linejoin: round; stroke-width: 3px;"/>
  </g>
</svg>