<?xml version="1.0" encoding="UTF-8"?>
<svg id="Capa_1" data-name="Capa 1" xmlns="http://www.w3.org/2000/svg" viewBox="0 0 614.59 614.59">
  <defs>
    <style>
      .cls-1 {
        fill: #102318;
      }
    </style>
  </defs>
  <path class="cls-1" d="M175.19,556.07c-.22,5.83.83,13.74,1.76,21.66.47,3.96.84,7.93,1.31,11.89.61,5.13.86,10.31,2.08,15.37.37,1.52.31,3.16.31,4.75,0,1.68-.72,3.07-2.15,4.02-1.62,1.08-4.19,1.12-5.63.09-3.36-2.4-5.91-5.4-6.47-9.63-.72-5.52-1.73-11.03-1.48-16.64.05-1.19.09-2.42-.17-3.57-1.04-4.68-.64-9.56-1.92-14.2-.53-1.94-.82-3.91-.71-5.91.47-8.41-1.01-16.69-1.64-25.03-.03-.4-.1-.79-.19-1.18-.98-4.3-.2-8.78-1.35-13.05-1.14-4.26-1.56-8.63-2.13-12.97-.69-5.17-.86-10.34.29-15.47.36-1.63,1.44-2.83,2.84-3.67,1.04-.63,2.15-.79,3.35-.17,1.81.93,3.31,2.22,4.64,3.71.79.89,1.49,1.91,1.55,3.16.44,8.37,1.45,16.67,2.56,24.97.58,4.34,1.1,8.69,1.76,13.02.84,5.53,1.31,11.09,1.37,18.85Z"/>
  <path class="cls-1" d="M449.33,496.71c0,.57.15,1.77,0,2.94-1.74,13.1-1.79,14.62-1.34,24.93.5,11.53.95,23.06,1.35,34.59.28,7.96.65,15.9,1.37,23.83.47,5.16.55,10.33-.2,15.48-.17,1.18-.41,2.35-.67,3.51-.49,2.21-3.73,3.75-5.73,2.7-3.22-1.68-5.98-3.9-7.87-7.05-.4-.66-.6-1.47-.75-2.24-.15-.77-.24-1.59-.14-2.37.31-2.36,1.04-4.71,1.04-7.06,0-7.95-.11-15.91-.41-23.86-.35-9.14-.95-18.27-1.46-27.4-.13-2.38-.22-4.78-.49-7.15-.64-5.55-1.02-11.08-.09-16.65.32-1.94.12-3.97.04-5.96-.17-4.38.49-8.71.88-13.05.27-3.01,4.71-5.05,7.46-3.43,1.7,1,3.31,2.19,4.83,3.45,1.27,1.04,1.8,2.58,2.19,4.79Z"/>
  <path class="cls-1" d="M200.15,250.73c.23-.3.4-.68.7-.88.44-.29.31.06-.55.87-.03.02-.15,0-.15,0Z"/>
  <path class="cls-1" d="M304.98,284.59c-3.81.99-9.29-.63-14.56-4.09-4.82-3.16-8.49-7.3-11.09-12.27-1.83-3.5-3.39-7.22-4.26-11.14-.26-1.16-.43-2.35-.54-3.54-.2-2.14.65-3.88,2.26-5.24.96-.81,2.07-1.07,3.28-.58,1.11.46,2.19.98,2.82,2.07,2.59,4.47,5.04,9.04,7.79,13.41,3.05,4.84,7.84,6.65,13.34,6.36,2.9-.15,5.31-1.77,6.88-4.26,1.05-1.67,2.1-3.47,2.6-5.35.92-3.41,3.2-5.4,6.1-6.95,1.05-.56,2.06-1.24,3.17-1.62.69-.24,1.62-.21,2.31.04,2.41.9,3.83,2.75,4.48,5.2.1.38.23.82.14,1.18-1.2,4.62-2.34,9.26-3.71,13.82-.94,3.11-2.9,5.65-5.37,7.77-1.82,1.56-3.63,3.08-6.14,3.45-2.36.35-4.71.85-9.5,1.73Z"/>
  <path class="cls-1" d="M351.04,150.39c7.29-.96,14.33-.1,21.14,2.68,4.85,1.98,9.13,4.9,13.08,8.3,1.19,1.02,2.13,2.39,3.02,3.7,1.66,2.46,1.95,5.19,1.03,7.99-.4,1.23-1.52,1.89-2.67,2.15-1.56.35-3.17.27-4.64-.55-.34-.19-.71-.37-1-.64-2.09-1.92-4.4-3.49-7.18-4.15-3.47-.83-6.81-2.24-10.53-1.9-1.97.18-3.98-.26-5.97-.22-1.98.04-4.02.12-5.92.59-2.68.66-5.43,1.32-7.61,3.28-.87.78-1.91,1.45-2.98,1.93-1.9.85-3.9.9-5.78-.06-3.35-1.73-5.56-4.43-6.59-8.08-.82-2.92.27-5.97,2.86-7.12,2.56-1.13,5.16-2.22,7.38-3.9,3.34-2.53,7.14-3.45,11.16-3.85.4-.04.79-.1,1.19-.15Z"/>
  <path class="cls-1" d="M249.99,163.76c-1.42.42-3.36.86-5.2,1.55-2.97,1.1-5.88,2.38-8.75,3.73-1.82.85-3.9.41-5.52-1.08-2.07-1.9-3.83-3.98-4.79-6.71-.71-2.03.19-5.1,1.98-6.39,2.28-1.64,4.82-2.78,7.39-3.81,1.84-.74,3.89-1,5.66-1.85,5.68-2.72,11.58-2.39,17.53-1.52.78.11,1.58.28,2.3.58,4.04,1.66,8.08,3.32,12.08,5.08,3.3,1.46,6.09,3.78,8.79,6.07,2.13,1.8,3.44,4.42,3.64,7.3.14,2.03-.65,3.87-2.07,5.41-.58.63-1.23.97-2.11.87-.39-.05-.81,0-1.15-.16-4.32-2.01-9.06-2.95-13.25-5.26-3.16-1.74-6.55-2.85-10.08-3.56-.78-.15-1.56-.33-2.35-.36-1.19-.04-2.38.05-4.09.1Z"/>
  <path class="cls-1" d="M266.71,187.41c.08.63.14,1.01.17,1.41.36,5.13.1,10.2-1.22,15.21-.79,3.02-4.36,4.98-7.43,4.04-2.4-.73-4.08-2.32-5.26-4.44-1.15-2.09-1.84-4.38-1.82-6.76.03-3.53.2-7.07.47-10.6.09-1.13.58-2.29,1.11-3.32,1.34-2.6,4.07-3.97,6.85-3.49,2.88.5,5.14,1.88,6.14,4.8.38,1.11.7,2.25.97,3.15Z"/>
  <path class="cls-1" d="M358.64,194.45c.09.69.13,1.08.18,1.48.63,4.59-.71,8.67-3.24,12.42-.22.32-.53.66-.87.8-.71.29-1.54.77-2.19.62-1.54-.35-3.04-.95-4.49-1.61-.69-.32-1.33-.91-1.78-1.53-1.91-2.62-3.17-5.49-3.42-8.79-.28-3.61.14-7.17.62-10.72.38-2.76,2.75-4.98,5.7-5.24.78-.07,1.58.08,2.37.14,1.26.1,2.34.73,3.04,1.68,1.66,2.25,3.06,4.67,3.51,7.51.19,1.18.41,2.36.56,3.25Z"/>
  <path class="cls-1" d="M318.97,500.59c4.22-5.45,12.72-17.58,13.27-18.36.47-1.05.93-2.09,1.3-3.17,3.22-9.42,6.96-18.66,10.16-28.1,3.07-9.05,5.78-18.22,9.57-27.04,2.35-5.48,4.32-11.17,5.92-16.91,3.2-11.55,7.57-22.68,11.75-33.88,1.53-4.11,3.19-8.17,4.7-12.28.54-1.48.87-3.05,1.22-4.6.55-2.45.04-4.74-1.09-6.94-.56-1.08-1.26-2.03-2.38-2.56-.72-.34-1.49-.57-2.21-.9-1.88-.85-3.76-1.24-5.76-.39-.72.31-1.49.51-2.24.78-.96.35-1.5.03-1.94-.83-1.33-2.57-1.67-5.26-1.3-8.1.13-.97,1.62-1.91,2.71-1.63,1.15.3,2.37.46,3.45.95,5.45,2.47,11.12,4.32,16.82,6.12,4.56,1.44,9.04,3.15,13.13,5.72,1.07.68,1.69,1.66,2.02,2.82,2.11,7.43,1.94,15.02.92,22.54-.6,4.42-.57,8.71-.03,13.09.97,7.92,1.61,15.87,1.18,23.86-.24,4.36-1.09,8.69-.67,13.09.07.78.06,1.65-.21,2.37-1.31,3.42-.58,7.12-1.6,10.57-.32,1.07-1.78,2.1-2.67,1.83-4.69-1.42-8.89-3.85-12.06-7.46-3.84-4.39-8.64-6.93-13.89-8.94-1.15-.44-2.34-.23-3.53-.01-.85.16-1.43.58-1.96,1.23-1.32,1.62-2.12,3.42-1.76,5.5,1.16,6.69,1.69,13.45,2.25,20.21.16,1.98.05,3.98.05,5.98,0,.8-1.23,2.56-1.96,2.82-1.12.4-2.21.92-3.35,1.2-2.76.67-5.2,2.03-7.59,3.46-3.49,2.09-6.3,4.89-8.32,8.42-1.58,2.77-3.04,5.61-4.53,8.43-.76,1.44-1.56,2.86-2.42,4.24-.48.75-5.3,8.33-8.51,12.49-3.34,4.33-10.58,15.45-10.74,15.69,0,.58-.02,1.18.02,1.76.05.77.21,1.68.66,2.26,1.21,1.57,2.47,3.15,3.97,4.43,1.46,1.25,4.64,1.89,6.68.15.91-.77,1.92-1.49,2.62-2.43,2.85-3.83,5.02-8.16,8.45-11.57,4.37-7.64,10.41-14.16,14.72-21.85.58-1.03,1.31-2.04,2.18-2.85,4.97-4.65,9.94-9.33,17.1-10.41.39-.06.8-.2,1.11-.42.64-.45,1.34-.9,1.82-1.5,1.27-1.61,2.03-3.47,1.88-5.54-.26-3.58-.72-7.15-.96-10.74-.18-2.79-.03-5.57.84-8.27.32-1,.94-1.38,1.86-.86,2.76,1.57,5.44,3.29,8.22,4.81,4.22,2.3,8.2,4.9,11.82,8.11,1.85,1.64,4.4,1.76,6.81,1.05.71-.21,1.45-.71,1.91-1.29.74-.93,1.25-2.03,1.27-3.28.04-3.19-.17-6.41.22-9.55.34-2.76.67-5.54,1.08-8.29,1.33-9.11,2.31-18.22,1.9-27.44.7-6.8-.06-13.56-.51-20.33-.16-2.39-.39-4.78-.48-7.17-.03-.77.27-1.56.45-2.33.23-.98,1.94-1.86,2.83-1.58,1.94.61,3.7,1.55,5.11,2.99,3.1,3.16,6.66,5.63,10.43,7.96,7.13,4.4,14.17,8.99,20.23,14.88,3.05,1.99,5.39,4.7,7.74,7.44,2.33,2.72,5.04,5.13,7.28,7.92,2.49,3.11,4.68,6.46,6.91,9.77.89,1.31,1.88,2.7,2.27,4.19,1.12,4.29,3.36,8.11,4.94,12.2,1.58,4.09,3.36,8.09,4.96,12.17.58,1.48,1.09,3.02,1.34,4.58.64,3.94.95,7.94,2.82,11.58,1.17,5.86,3.1,11.57,3.09,17.66,0,1.98.35,3.97.66,5.93,1.37,8.7,2.21,17.43,1.94,26.25-.08,2.78.08,5.6.49,8.35.7,4.73,1.69,9.43,2.56,14.13.66,3.54,1.07,7.07,1.01,10.7-.09,5.59-.12,11.2,1.18,16.7,1.12,4.73,1.17,9.5.75,14.3-.17,1.99-.55,3.99-.47,5.97.1,2.78.27,5.61.9,8.31.85,3.68,3.01,6.46,6.82,7.7,2.42.79,4.77.24,6.48-1.65,1.11-1.23,1.85-2.62,1.66-4.3-.18-1.58-.52-3.14-.82-4.71-.97-5.13-1.5-10.27-.5-15.47.46-2.39.04-4.77-.17-7.16-.67-7.55-1.8-15.07-1.46-22.7.12-2.8-.42-5.56-1.18-8.27-2.15-7.73-3.12-15.66-3.84-23.62-.21-2.37-.27-4.81.03-7.17.46-3.61.32-7.18.03-10.76-.82-9.97-2.21-19.84-4.98-29.48-.45-1.57-.58-3.12-.49-4.73.04-.79.21-1.69-.08-2.37-1.72-4.03-2.33-8.46-4.52-12.34-1.96-3.48-3.38-7.21-4.49-11.07-1.66-5.77-4.47-11.09-6.71-16.64-.45-1.1-1.02-2.19-1.72-3.14-3.07-4.18-6.03-8.45-9.36-12.41-3.85-4.57-7.85-9.07-12.18-13.19-3.75-3.57-8.01-6.6-12.1-9.81-3.14-2.46-6.38-4.8-9.92-6.69-1.75-.94-3.43-2.05-5.04-3.22-6.14-4.44-12.25-8.93-18.72-12.89-1.02-.62-1.91-1.47-2.95-2.05-1.21-.67-1.56-1.81-1.77-2.96-.44-2.35-.67-4.75-1.1-7.1-.21-1.17-.5-2.39-1.06-3.42-1.73-3.15-3.57-6.26-6.49-8.51-1.26-.98-2.58-1.88-3.85-2.86-2.88-2.23-6.1-3.68-9.63-4.64-7.33-2-14.27-5.07-21.31-7.89-.36-.14-.65-.46-1-.64-.89-.47-1.13-1.12-.73-2,2.64-5.84,6.43-11.01,9.47-16.62.75-1.39,1.86-2.59,2.85-3.85.74-.94,1.68-1.75,2.28-2.77,3.49-5.82,7.06-11.6,10.27-17.57,1.69-3.14,2.68-6.64,3.99-9.98.29-.74.57-1.49.88-2.23.95-2.24,1.95-4.43,4.82-4.72,4.66-2.45,8.68-5.69,11.87-9.87,2.42-3.17,4.43-6.66,7.37-9.42,1.8-1.69,2.81-3.84,3.55-6.16.49-1.52.87-3.1,1.54-4.53,1.41-3.01,1.58-6.16,1.3-9.37-.18-1.99-.37-3.98-.67-5.95-2.01-13.2-1.28-11.66-8.89-21.67-.24-.32-.55-.63-.66-.99-.22-.74-.6-1.58-.43-2.26.77-3.09,1.91-6.11,2.51-9.23.61-3.12.75-6.32,1.08-9.49.12-1.19.19-2.39.3-3.58.15-1.61.66-3.1,1.46-4.51.58-1.03,1.14-2.13,1.45-3.26,1.06-3.89,3.02-18.89,2.94-22.5-.19-8.38-.12-16.78-1.34-25.1-.36-2.43-.14-4.71.59-7.06,1.64-5.28.67-10.27-2.18-14.91-1.46-2.38-3.08-4.66-4.63-6.98-.89-1.34-1.69-2.72-1.85-4.36-.36-3.69-1.96-6.8-4.08-9.81-2.32-3.29-4.74-6.4-8.06-8.74-.64-.45-1.15-1.1-1.63-1.73-.12-.16,0-.64.17-.87.21-.3.54-.63.87-.72,1.61-.44,3.15.21,4.72.41,1.48.19,2.87-1.6,2.45-3.18-.2-.76-.41-1.57-.85-2.2-2.59-3.73-6.01-6.39-10.41-7.65-3.45-.98-6.89-2.11-10.51-2.21-4.83-.13-9.47-1.28-14.11-2.47-2.71-.7-5.4-1.44-8.14-2.02-5.93-1.26-11.91-.98-17.87-.24-1.15.14-2.3.7-3.33,1.27-1.56.86-3.16.8-4.58.06-3.89-2.03-7.73-4.16-11.49-6.41-2.42-1.44-4.93-2.61-7.56-3.58-2.24-.83-4.49-1.65-6.72-2.51-15.55-5.97-18.44-6.74-35.75-9.45-.79-.12-1.59-.21-2.37-.38-7.19-1.53-14.3-.79-21.37.77-5.19,1.14-9.71,3.58-13.72,7.02-1.51,1.3-2.92,2.73-4.49,3.96-.92.72-2.05,1.2-3.12,1.73-.35.17-.77.19-1.16.28-6.29,1.48-11.58,5.27-17.5,7.62-1.55,1.31-2.67,2.92-3.52,4.77-.76,1.66-.12,3.08.39,4.58.64,1.87.17,3.48-1.21,4.06-4.8,2.01-9.36,4.43-13.54,7.56-2.6,1.94-4.75,4.29-6.22,7.18-1.45,2.84-2.75,5.76-4.13,8.63-.56,1.16-.4,2.34-.06,3.49.81,2.73,2.01,5.21,4.46,6.9.64.44,1.12,1.13,1.74,1.79-.39,1.07-.69,2.23-1.23,3.28-1.83,3.55-3.77,7.04-5.63,10.57-2.99,5.69-5.4,11.57-5.77,18.09-1.46,4.62-.77,9.55-2.07,14.18-.25,10.62-1.95,14.68.08,26.27.34,1.93.3,4.02-.02,5.95-1.56,9.35-.36,10.17,4.66,16.34,1.1,1.35,1.23,3.27.13,4.38-5.25,5.3-7.17,12.34-10.03,18.88-.31.71-.39,1.55-.48,2.34-.3,2.78-.65,5.56-.78,8.34-.1,1.98.02,3.99.23,5.97.2,1.98.77,3.93.93,5.91.24,2.87,1.35,5.41,2.59,7.91,2.84,5.74,5.79,11.39,11.07,15.41,1.57,1.19,2.85,2.8,4.14,4.32,2.15,2.53,5,3.93,7.98,5.1,1.07.42,2.41.69,3.49.43,2.31-.55,3.75.34,5.07,2.05,3.16,4.11,5.75,8.64,9.18,12.56.77.88,1.24,2.04,1.82,3.09,2.52,4.53,5.17,9,7.51,13.62,1.64,3.25,3.59,6.23,6.28,8.66,2.09,1.88,4.28,3.73,5.49,6.26,1.4,2.92,4.19,4.86,5.25,7.95.09.25-.08.76-.3.92-2.25,1.74-4.82,2.99-7.58,3.36-4.85.65-9.26,2.45-13.51,4.66-3.21,1.67-6.54,2.94-9.95,4.08-1.11.37-2.21.99-3.1,1.76-2.79,2.42-4.91,5.33-4.97,9.2-.07,4.01-.43,8-1.2,11.91-1.31,6.66-1.22,7.87-7.96,10.7-1.84.77-3.65,1.62-5.48,2.39-4.42,1.86-8.92,3.52-13.24,5.58-4.68,2.23-9.51,4.12-14.07,6.65-4.17,2.31-8.74,3.89-13.09,5.88-1.81.83-3.48,1.97-5.29,2.81-5.48,2.55-9.77,6.9-14.99,9.83-.68.38-1.3.95-1.81,1.56-2.56,3.05-5.12,6.12-7.59,9.25-.98,1.24-1.83,2.61-2.56,4.02-3.13,6.04-5.21,12.51-7.76,18.8-1.06,2.61-1.81,5.28-2.51,7.98-.7,2.7-1.41,5.4-2,8.13-1.01,4.68-2.03,9.35-2.86,14.06-.62,3.53-.67,7.15-1.66,10.63.24,5.23-1.57,10.23-1.68,15.43-1.49,6.67-1.86,13.43-1.55,20.23.47,10.37-.37,20.77.66,31.13.16,1.58-.1,3.19-.07,4.79.06,3.59.02,7.2.32,10.77.4,4.77,1.18,9.51,1.63,14.28.95,9.95,3.59,19.66,3.95,29.69.06,1.63.78,3.05,1.84,4.32,1.01,1.21,1.56,2.78,2.91,3.74,1,.71,2.07,1.15,3.32,1.01,2.44-.28,4.67-2.47,4.7-4.63.08-5.19.12-10.35-1.43-15.42-.82-2.66-1.3-5.45-1.68-8.21-1.1-7.91-1.94-15.86-2.4-23.84-.07-1.19-.2-2.41-.05-3.59.55-4.4-.06-8.78-.1-13.17-.04-4.79-.08-9.58-.11-14.37-.01-2,.22-4.02-.02-5.99-.74-6.02.74-11.94.61-17.93,1.96-11,2.52-22.2,4.83-33.15.82-3.9,1.22-7.9,2.16-11.77,1.04-4.26,2.56-8.4,3.75-12.63,1.52-5.39,4.06-10.4,5.8-15.7.24-.75.7-1.44,1.14-2.1,1.55-2.33,3.06-4.68,4.72-6.93,3.82-5.18,8.45-9.66,13.68-13.32,4.22-2.96,8.8-5.55,13.73-7.26,4.18-1.44,8.08-3.42,12-5.41,3.56-1.8,7.26-3.33,10.75-5.25,4.24-2.33,8.82-3.64,13.42-4.93.72-.2,1.43.3,1.88,1.08.19.33.28.75.31,1.13.38,3.99-.62,7.93-.34,11.93.11,1.55-.53,3.13-.71,4.71-.18,1.58-.46,3.2-.28,4.76.73,6.42-.07,12.76-.87,19.09-.25,1.98-.68,3.95-.4,5.94.52,3.6.3,7.12-.42,10.7-.96,4.78-.31,9.6,1.06,14.21.8,2.69,2.71,4.86,5.48,6,1.15.48,2.38.46,3.52.15,1.14-.31,2.22-.87,3.29-1.4,5.35-2.66,10.77-5.18,16.37-7.27,2.23-.83,4.58-1.36,6.89-1.95,1.91-.49,3.28.67,2.84,2.34-.31,1.16-.73,2.28-1.01,3.45-.28,1.16-.58,2.34-.62,3.53-.21,5.52,1.68,10.16,6.01,13.7,1.26,1.03,2.65,1.94,4.3,1.86,4.46-.24,8.69,1.15,13.05,1.64,1.15.13,2.32.64,3.34,1.23,2.42,1.39,4.76,2.89,7.47,3.76,1.1.35,2.17,1.03,3.06,1.78,1.82,1.55,3.75,3.06,5.2,4.93,2.93,3.77,6.06,7.41,8.38,11.64,3.09,5.65,7.8,10.09,11.51,15.28.46.64,1.11,1.14,1.71,1.66,1.79,1.58,3.6,3.15,5.41,4.72,2.94,2.54,7.27,1.13,8.55-2.77,1.11-3.39.11-7.41-2.39-9.61-.15-.13-.39-.34-.64-.56-1.72-1.37-3.51-2.66-5.23-4.03-2.32-1.86-4.18-4.09-5.73-6.54-.81-.89-1.57-1.76-2.19-2.56-4.3-5.53-6.71-9.89-6.71-9.89h0c-2.18-2.75-4.3-5.55-6.94-7.91-1.17-1.04-1.96-2.49-2.94-3.75-1.72-2.19-3.41-4.41-5.19-6.56-.76-.92-1.62-1.77-2.55-2.51-1.94-1.54-4.03-2.53-6.62-1.53-1.08.41-2.15,1.22-3.35.88-3.44-.98-6.87-2.02-10.39-2.73-1.35-.27-2.7-2.38-2.48-3.71,1.12-6.67,1.61-13.46,4.05-19.86.94-2.46.21-4.69-1.07-6.82-.41-.68-.83-1.36-1.27-2.02-1.96-2.95-4.68-4.25-8.2-3.62-.76.14-1.58.4-2.17.87-.93.73-1.74,1.62-2.5,2.53-2.36,2.81-5.36,4.72-8.61,6.31-.36.17-.73.34-1.12.42-5.47,1.17-10.51,3.68-15.89,5.15-.94.26-2.33-.87-2.42-1.96-.03-.4-.16-.79-.16-1.19,0-1.19-.12-2.42.09-3.58.93-5.13,1.1-10.34,1.2-15.49.12-6.79.92-13.51,1.1-20.29.1-3.58.35-7.21,1.12-10.69.78-3.53,1.08-7.06,1.46-10.63.34-3.17.87-6.31.81-9.52-.02-1.19.07-2.4.26-3.57.91-5.5,1.83-11,2.84-16.47.3-1.63,1.47-2.9,2.81-3.74,1.67-1.06,3.5-1.91,5.34-2.65,5.9-2.36,11.58-5.39,18.08-5.94,1.57-.13,2.94-1.18,4.6-1.17.89,0,2.47.95,2.79,1.87,1.16,3.42,1.89,6.91,1.72,10.55-.02.38-.16.88-.42,1.09-.62.49-1.42.39-1.88-.32-1.54-2.39-3.62-4.22-5.85-5.91-.31-.23-.71-.33-1.05-.52-.84-.47-2.64-.29-3.39.32-2.23,1.82-3.9,3.98-4.24,6.95-.09.79-.07,1.61-.27,2.38-1.24,4.74-1.15,9.43-.06,14.2.71,3.1.84,6.32,1.36,9.46.26,1.56.55,3.2,1.27,4.57,1.32,2.5,2.19,5.11,2.9,7.82,1.62,6.17,3.28,12.34,6.65,17.86,1.32,3.74,3.62,7.11,4.19,11.17.16,1.13.85,2.22,1.42,3.27,1.71,3.15,3.36,6.34,5.25,9.38,1.27,2.04,2.46,4.1,3.48,6.26,2.22,4.68,4.87,9.13,7.68,13.47,1.73,2.68,3.2,5.43,4.26,8.5,1.17,3.36,2.99,6.52,5.54,9.14,3.09,3.17,5.29,6.95,7.49,10.76,1.44,2.5,2.98,4.93,4.51,7.38l4.05,4.5s11.8,11.25,14.37,13.29,3.42-.36,4.44-.55c.21-.04,1.01-.98,2.11-2.4M200.33,250.71s-.04-.07-.07-.11c.18-.27.34-.58.59-.74.44-.29.31.06-.52.85ZM200.24,250.57c-.64-.92-1.14-1.96-1.88-2.78-1.06-1.16-2.38-2.08-3.48-3.21-1.96-2-3.44-4.35-4.37-6.98-1.05-2.98-1.88-6.03-2.8-9.05-.11-.37-.22-.77-.23-1.16-.18-7.19.38-14.22,4.52-20.46.2-.31.51-.59.84-.77.34-.18.8-.35,1.13-.26.32.09.6.48.8.8.2.32.39.7.42,1.06.48,7.11,1.85,14.08,3.35,21.03,1.17,5.4,2.01,10.87,2.97,16.32.35,1.99-.25,3.77-1.27,5.44ZM405.56,235.64c1.88-7.73,2.67-15.64,3.99-23.46.15-.88.71-1.49,1.37-1.52.86-.04,1.52.45,1.94,1.21.19.34.44.66.54,1.03.52,1.91,1.01,3.83,1.14,4.34.66,4.28-.23,6.97-.68,9.7-.74,4.46-3.02,8.11-6.21,11.24-.27.27-.98.57-1,.53-.41-.59-.79-1.22-1.06-1.89-.14-.34-.12-.8-.03-1.18ZM329.26,448.04c-1.83,5.67-3.6,11.35-5.52,16.99-1.54,4.52-3.65,8.79-6.01,12.95-1.78,3.14-4.34,5.64-6.64,8.35-.52.61-1.58.56-2.16.12-2.57-1.94-4.6-4.37-6.19-7.15-1.18-2.07-2.36-4.14-3.38-6.29-1.38-2.89-2.96-5.68-5.08-8.03-2.71-3-4.54-6.53-6.39-10.01-1.49-2.8-3.07-5.55-4.57-8.34-.41-.77-.7-1.53-.38-2.13.41-.76,1.2-.94,2.09-.73.38.09.79.11,2.96.38-.21-.03,1.4.05,2.9.51,5.33,1.66,11.04,1.37,16.31,3.3,3.18.31,6.36.17,9.5-.32,3.52-.55,7.02-1.23,10.54-1.85.89-.16,2.28,1.4,2.01,2.25ZM337.28,420.41c-1.15,1.11-2.32,2.19-3.55,3.2-.92.75-1.85,1.6-2.93,2.01-2.24.87-4.26,2.18-6.42,3.13-3.27,1.43-6.76,2.37-10.15,3.51-4.72-.44-9.57.6-14.19-1.23-1.08-.43-2.32-.5-3.5-.57-4.47-.25-8.59-1.53-12.39-3.91-1.37-.86-2.94-1.22-4.55-1.3-1.23-.06-2.36-.42-3.33-1.14-1.28-.95-2.51-2.13-4.09-2.39-3.37-.57-4.33-3.15-5.23-5.82-.08-.24.31-.64.48-.96.35-.13.69-.36,1.04-.36,1.68-.02,3.03.98,4.32,1.8,4.12,2.6,8.72,3.87,13.34,5.06,5.43,1.4,10.99,1.94,16.59,1.67,5.57-.27,11.14-.66,16.72-.97,5.6-.31,11.1-1.1,16.37-3.17.85-.33,1.63-.16,1.91.38.12.23-.17.81-.43,1.06ZM356.49,370.39c-.16,1.16-.61,2.3-1.02,3.42-1.51,4.12-3.26,8.14-4.51,12.37-.67,2.25-.93,4.84-2.69,6.56-2.28,2.22-4.49,4.57-7.31,6.16-2.78,1.56-5.58,3.09-8.42,4.55-1.06.54-2.22.92-3.38,1.19-5.84,1.33-11.7,2.55-17.71,2.82-4.38.33-8.76.63-13.14.98-2.8.23-5.57.25-8.32-.52-1.15-.32-2.36-.42-3.54-.62-6.47-1.09-12.07-3.98-17-8.26-1.81-1.57-3.64-3.11-5.47-4.66-1.54-1.31-3.29-2.2-5.2-2.87-1.56-.54-2.72-1.72-3.21-3.32-1.28-4.19-2.46-8.41-3.66-12.62-.33-1.14.99-3.46,2.23-3.87,2.65-.86,5.32-1.67,7.98-2.51,1.55-.49,2.86-1.38,4.05-2.47,1.22-1.11,2.06-2.43,2.07-4.13.04-5.21-.6-10.36-1.29-15.5-.32-2.37-.57-4.75-.84-7.13-.1-.86,1.05-2.2,2.08-2.45,1.55-.39,3.06-.96,4.63-1.21,1.15-.18,2.39-.11,3.55.09,1.16.21,2.26.75,3.4,1.11,2.66.84,5.37,1.54,7.98,2.51,2.72,1.01,5.51-.37,8.28.59,2.36.82,4.71.02,6.83-1.32,1.06-.67,2.21-.67,3.43-.36,1.15.29,2.36.66,3.51.57,5.14-.4,10.26-.8,15.41-.06,1.2.17,2.33-.44,3.29-1.19,1.3-1.01,2.8-1.77,4.39-1.67,3.29.22,6.29-.87,9.38-1.63,1.47-.36,3.63.91,3.81,2.17.11.78.4,1.54.57,2.31,1.15,5.06,2.12,10.15,2.62,15.33.19,1.97.58,3.95,1.08,5.87.51,1.94,1.46,3.68,3.09,5,.93.75,1.84,1.58,2.53,2.53.42.58.64,1.51.54,2.23ZM356.71,297.96c-2.34-.42-3.14.49-4.16,3.27-.27.74-.48,1.49-.76,2.23-.39,1.03-2.04,1.64-3.02,1.09-1.38-.78-2.67-1.74-4.1-2.41-1.06-.5-2.26-.77-3.42-.95-1.23-.19-2.31.42-3.36,1.01-1.17.66-1.43,1.9-1.71,3.02-.25,1-.65,1.43-1.69,1.15-.36-.1-.81-.08-1.08-.29-.63-.48-1.14-1.1-1.75-1.6-.93-.74-1.85-1.51-2.87-2.1-2.52-1.46-5.84.29-6.28,3.29-.17,1.17-.09,2.38-.17,3.57-.09,1.28-1.33,1.99-2.49,1.43-1.43-.7-2.83-1.47-4.29-2.12-2.05-.93-3.59-.36-4.96,1.74-1.53,2.35-1.56,2.35-2.3,1.1-.81-1.37-1.61-2.75-2.4-4.14-.39-.69-.71-1.43-1.13-2.11-1-1.62-4.54-2.79-6.39-1.79-1.89,1.02-3.55,1.48-5.58.45-1.02-.51-2.29-.7-3.45-.73-.72-.02-1.56.4-2.16.87-.59.46-.97,1.21-1.4,1.86-.99,1.49-1.08,1.62-2.67.31-2.25-1.85-4.63-3.09-7.61-2.81-.91.09-1.55-.2-2.05-.94-.9-1.31-1.76-2.65-2.8-3.84-.78-.88-1.77-1.58-3.1-1.54-1.97.06-3.9.84-5.91.3-1.53-.41-3.07-.85-4.64-1.06-1.62-.22-3.13-.6-4.31-1.78-2.57-2.56-6.23-3.49-8.86-6.05-1.07-1.04-2.81-1.43-4.28-2.03-1.54-.63-2.76-1.68-3.59-3.04-3.73-6.13-7.77-12.04-11.96-17.87-2.55-3.54-4.5-7.52-6.68-11.32-.39-.68-.73-1.44-.91-2.21-1.3-5.43-2.6-10.86-3.76-16.32-.24-1.12.05-2.38.23-3.55.26-1.65,1.11-2.94,2.66-3.69.72-.34,1.47-.61,2.18-.98,1.12-.58,1.79-1.56,1.93-2.79.18-1.58.43-3.2.28-4.76-.36-3.57-.95-7.11-1.46-10.66-.69-4.74-1.5-9.46-2.06-14.21-.32-2.76-.53-5.6-.31-8.36.54-6.76.09-13.54.82-20.32.68-6.33.48-12.75.69-19.13.05-1.61.55-3.1,1.23-4.58,4.57-9.92,11.35-18.26,18.55-26.31,2.13-2.38,4.45-4.58,6.62-6.92,2.47-2.66,5.43-4.73,8.51-6.54,3.44-2.01,7.07-3.7,10.65-5.45,1.06-.52,2.23-.9,3.39-1.16,2.72-.61,5.45-1.23,8.22-1.61,5.14-.71,10.29-1.39,15.45-1.81,6.35-.52,12.7-1.22,19.11-.36,2.76.37,5.59.14,8.37.42,2.9.29,5.48-.3,8.01-1.71,1.06-.59,2.36-.24,3.27.63.86.82,1.48,1.88,2.34,2.7,2.45,2.34,5.58,2.92,8.8,3.2.37.03.79-.06,1.13-.22,6.83-3.29,13.2-1.29,19.43,1.77,2.14,1.05,4.1,2.46,6.2,3.61,1.79.99,3.33,2.28,4.41,3.96,1.3,2.02,2.64,4,4.23,5.79,4.28,4.83,7.3,10.41,10.05,16.2,1.53,3.23,2.39,6.74,4.48,9.75.86,1.24,1.08,2.99,1.36,4.55.42,2.35.62,4.75,1.01,7.87.4,4.81,1.25,10.36.01,15.94-.35,1.57-.2,3.18.09,4.76,1.08,5.93,1.46,11.86.6,17.87-.28,1.96-.27,3.99-.19,5.98.14,3.2.03,6.38-.22,9.57-.19,2.38-.3,4.79-.16,7.17.27,4.39.28,8.75-.24,13.13-.32,2.75.1,5.59-.21,8.34-.27,2.35-.93,4.67-1.39,7.02-1.13,5.87-2.46,11.7-4.02,17.47-1.46,5.4-3.86,10.47-6.27,15.5-.69,1.44-1.54,2.8-2.32,4.19-5.06,8.95-5.13,8.89-11.93,16.38-2.63,2.89-5.43,4.41-9.47,3.68Z"/>
</svg>